<?xml version="1.0" encoding="UTF-8"?>
<svg width="1075px" height="585px" viewBox="0 0 1075 585" version="1.1" xmlns="http://www.w3.org/2000/svg" xmlns:xlink="http://www.w3.org/1999/xlink">
    <!-- Generator: Sketch 54.1 (76490) - https://sketchapp.com -->
    <title>undraw_page_not_found_su7k</title>
    <desc>Created with Sketch.</desc>
    <g id="Page-1" stroke="none" stroke-width="1" fill="none" fill-rule="evenodd">
        <g id="undraw_page_not_found_su7k">
            <ellipse id="Oval" fill="#F2F2F2" fill-rule="nonzero" cx="540.64346" cy="549.3094" rx="527.5" ry="34.9216"></ellipse>
            <path d="M520.42569,167.00974 C434.48162,167.00974 372.77469,222.14912 372.77469,350.80765 C372.77469,496.62065 434.4816,535.21822 520.42569,535.21822 C606.36978,535.21822 671.75269,492.9447 671.75269,350.80765 C671.75264,198.86805 606.36976,167.00974 520.42569,167.00974 Z M520.99064,486.81811 C461.46378,486.81811 430.36472,451.89523 430.36472,350.90181 C430.36472,261.78996 462.73681,214.7972 522.26372,214.7972 C581.79063,214.7972 614.16272,245.66494 614.16272,350.90181 C614.16263,449.34917 580.5175,486.81811 520.99064,486.81811 Z" id="Shape" fill="#2F2E41" fill-rule="nonzero"></path>
            <path d="M321.31131,433.51671 L285.777,433.51671 L285.777,328.87733 C285.776989,317.303749 276.394751,307.921511 264.82117,307.9215 L256.49479,307.9215 C250.936951,307.921497 245.606746,310.129338 241.67676,314.059323 C237.746774,317.989307 235.53893,323.319511 235.53893,328.87735 L235.53893,433.51671 L135.30885,433.51671 C131.114876,433.516715 127.227157,431.320514 125.062392,427.72841 C122.897628,424.136306 122.771974,419.672913 124.73122,415.96471 L230.81362,215.18437 C233.486199,210.125996 233.97452,204.194872 232.165253,198.767499 C230.355985,193.340126 226.406444,188.888407 221.23324,186.4455 L214.97093,183.4883 C204.871693,178.719216 192.806884,182.708687 187.54163,192.55835 L58.16016,434.5909 C55.956972,438.712375 54.8043196,443.313628 54.80432,447.98702 L54.80432,447.98702 C54.80432,455.523368 57.7981234,462.751047 63.1271274,468.08005 C68.4561315,473.409052 75.6838116,476.402853 83.22016,476.40285 L235.53893,476.40285 L235.53893,542.57012 C235.53893,549.232093 238.185388,555.621209 242.896115,560.331935 C247.606841,565.042662 253.995957,567.68912 260.65793,567.68912 L260.65798,567.68912 C267.319953,567.68912 273.709069,565.042662 278.419795,560.331935 C283.130522,555.621209 285.77698,549.232093 285.77698,542.57012 L285.77698,476.40289 L321.31126,476.40289 C333.153941,476.40289 342.75433,466.802501 342.75433,454.95982 L342.75433,454.95982 C342.754352,443.117143 333.153987,433.516738 321.31131,433.51671 Z" id="Path" fill="#5FE3C0" fill-rule="nonzero"></path>
            <path d="M979.30783,433.51671 L943.77355,433.51671 L943.77355,328.87733 C943.773539,317.303738 934.391282,307.921494 922.81769,307.9215 L914.49131,307.9215 C908.933471,307.921497 903.603266,310.129338 899.67328,314.059323 C895.743294,317.989307 893.53545,323.319511 893.53545,328.87735 L893.53545,433.51671 L793.30537,433.51671 C789.111394,433.516721 785.22367,431.320521 783.058904,427.728415 C780.894139,424.136309 780.768488,419.672913 782.72774,415.96471 L888.81013,215.18441 C891.48272,210.126033 891.971048,204.194901 890.161782,198.767519 C888.352516,193.340137 884.402971,188.88841 879.22976,186.4455 L872.96745,183.4883 C862.86821,178.719215 850.803398,182.708686 845.53814,192.55835 L716.15668,434.5909 C713.953492,438.712375 712.80084,443.313628 712.80084,447.98702 L712.80084,447.98702 C712.80084,463.68065 725.52304,476.40285 741.21667,476.40285 L893.53545,476.40285 L893.53545,542.57012 C893.53545,556.442961 904.781609,567.68912 918.65445,567.68912 L918.65445,567.68912 C932.527291,567.68912 943.77345,556.442961 943.77345,542.57012 L943.77345,476.40289 L979.30773,476.40289 C991.150411,476.40289 1000.7508,466.802501 1000.7508,454.95982 L1000.7508,454.95982 C1000.75082,443.117163 991.150487,433.516765 979.30783,433.51671 L979.30783,433.51671 Z" id="Path" fill="#5FE3C0" fill-rule="nonzero"></path>
            <path d="M331.11387,421.2635 L295.57958,421.2635 L295.57958,316.62414 C295.579583,311.066301 293.371742,305.736096 289.441757,301.80611 C285.511773,297.876124 280.181569,295.66828 274.62373,295.66828 L266.29735,295.66828 C254.723748,295.66828 245.34149,305.050538 245.34149,316.62414 L245.34149,421.2635 L145.11141,421.2635 C140.917436,421.263505 137.029717,419.067304 134.864952,415.4752 C132.700188,411.883096 132.574534,407.419703 134.53378,403.7115 L240.61617,202.93122 C243.288767,197.872841 243.777098,191.941704 241.967832,186.514317 C240.158566,181.086931 236.209016,176.6352 231.0358,174.19229 L224.77349,171.23509 C214.674263,166.465997 202.609456,170.455445 197.34418,180.30509 L67.96272,422.3377 C65.7595319,426.459178 64.6068796,431.060435 64.60688,435.73383 L64.60688,435.73383 C64.60688,451.42746 77.3290804,464.14966 93.02271,464.14966 L245.34149,464.14966 L245.34149,530.31693 C245.34149,536.978903 247.987948,543.368019 252.698675,548.078745 C257.409401,552.789472 263.798517,555.43593 270.46049,555.43593 L270.46054,555.43593 C284.333381,555.43593 295.57954,544.189771 295.57954,530.31693 L295.57954,464.1497 L331.11383,464.1497 C336.800886,464.1497 342.255015,461.890526 346.27637,457.86917 C350.297726,453.847815 352.5569,448.393686 352.5569,442.70663 L352.5569,442.70663 C352.556916,437.019571 350.297754,431.565433 346.276406,427.544065 C342.255057,423.522698 336.800929,421.263511 331.11387,421.2635 L331.11387,421.2635 Z" id="Path" stroke="#3F3D56"></path>
            <path d="M997.68762,421.2635 L962.15334,421.2635 L962.15334,316.62414 C962.15334,305.050538 952.771082,295.66828 941.19748,295.66828 L932.8711,295.66828 C927.31326,295.66828 921.983055,297.876123 918.053069,301.806109 C914.123083,305.736095 911.91524,311.0663 911.91524,316.62414 L911.91524,421.2635 L811.68516,421.2635 C807.491186,421.263505 803.603467,419.067304 801.438702,415.4752 C799.273938,411.883096 799.148284,407.419703 801.10753,403.7115 L907.18992,202.93122 C909.862517,197.872841 910.350848,191.941704 908.541582,186.514317 C906.732316,181.086931 902.782766,176.6352 897.60955,174.19229 L891.34724,171.23509 C881.248013,166.465997 869.183206,170.455445 863.91793,180.30509 L734.53647,422.3377 C732.333282,426.459178 731.18063,431.060435 731.18063,435.73383 L731.18063,435.73383 C731.18063,451.42746 743.90283,464.14966 759.59646,464.14966 L911.91524,464.14966 L911.91524,530.31693 C911.91524,544.189771 923.161399,555.43593 937.03424,555.43593 L937.03424,555.43593 C950.907081,555.43593 962.15324,544.189771 962.15324,530.31693 L962.15324,464.1497 L997.68752,464.1497 C1003.37458,464.1497 1008.8287,461.890526 1012.85006,457.86917 C1016.87142,453.847815 1019.13059,448.393686 1019.13059,442.70663 L1019.13059,442.70663 C1019.13062,430.863965 1009.53028,421.263555 997.68762,421.2635 Z" id="Path" stroke="#3F3D56"></path>
            <path d="M540.0308,155.98187 C454.08673,155.98187 392.3798,211.12124 392.3798,339.77978 C392.3798,485.59278 454.08671,524.19035 540.0308,524.19035 C625.97489,524.19035 691.3578,481.91683 691.3578,339.77978 C691.35775,187.84017 625.97487,155.98187 540.0308,155.98187 Z M540.5958,475.79023 C481.06894,475.79023 449.96988,440.86736 449.96988,339.87394 C449.96988,250.76209 482.34197,203.76933 541.86888,203.76933 C601.39579,203.76933 633.76788,234.63707 633.76788,339.87394 C633.76774,438.32129 600.12261,475.79023 540.59575,475.79023 L540.5958,475.79023 Z" id="Shape" stroke="#3F3D56"></path>
            <ellipse id="Oval" fill="#2F2E41" fill-rule="nonzero" cx="502.60736" cy="46.88476" rx="36.18622" ry="46.88476"></ellipse>
            <path d="M502.60736,79.60969 C484.47976,79.60969 469.46606,62.33917 466.8316,39.80485 C466.557542,42.1548583 466.42049,44.5188254 466.42114,46.88476 C466.42114,72.77849 482.62228,93.76952 502.60736,93.76952 C522.59244,93.76952 538.79359,72.77852 538.79359,46.88476 C538.79424,44.5188254 538.657188,42.1548583 538.38313,39.80485 C535.74867,62.33917 520.735,79.60969 502.60736,79.60969 Z" id="Path" fill="#000000" fill-rule="nonzero" opacity="0.1"></path>
            <path d="M576.24219,184.18876 C575.46508,187.38221 572.11427,189.93976 568.40338,191.72667 C560.6015,195.48349 550.97808,196.60455 541.64368,196.98085 C539.26243,197.125561 536.873459,197.081423 534.49918,196.84885 C529.898293,196.403837 525.582066,194.419722 522.24866,191.21744 C521.764963,190.902183 521.476921,190.360735 521.485794,189.783439 C521.494667,189.206143 521.799213,188.673803 522.29237,188.37356 C527.26177,182.91468 535.55457,179.56751 543.9085,177.15747 C550.2429,175.33004 561.2898,170.59658 568.19863,171.23537 C574.89044,171.85414 577.2234,180.15662 576.24219,184.18876 Z" id="Path" fill="#3F3D56" fill-rule="nonzero"></path>
            <path d="M576.24219,184.18876 C575.46508,187.38221 572.11427,189.93976 568.40338,191.72667 C560.6015,195.48349 550.97808,196.60455 541.64368,196.98085 C539.26243,197.125561 536.873459,197.081423 534.49918,196.84885 C529.898293,196.403837 525.582066,194.419722 522.24866,191.21744 C521.764963,190.902183 521.476921,190.360735 521.485794,189.783439 C521.494667,189.206143 521.799213,188.673803 522.29237,188.37356 C527.26177,182.91468 535.55457,179.56751 543.9085,177.15747 C550.2429,175.33004 561.2898,170.59658 568.19863,171.23537 C574.89044,171.85414 577.2234,180.15662 576.24219,184.18876 Z" id="Path" fill="#000000" fill-rule="nonzero" opacity="0.1"></path>
            <path d="M477.04386,160.3214 C474.66229,164.988892 474.231145,170.410951 475.84516,175.39616 C477.486769,180.343684 480.559522,184.692848 484.67437,187.89299 C494.76904,195.98462 508.66221,197.09811 521.59914,196.98577 C532.937086,196.887118 544.259009,196.111122 555.50439,194.66193 C559.272762,194.327975 562.975836,193.468158 566.50582,192.10751 C570.72824,190.28072 574.43864,186.92995 575.94182,182.58181 C577.445,178.23367 576.37807,172.90935 572.80799,170.00753 C569.67113,167.45784 565.34534,167.10713 561.31024,166.86464 L538.2226,165.47719 C540.5036,163.1688 543.54076,161.86319 546.31846,160.18503 C550.00369,157.95861 552.45204,154.22048 555.13158,150.85032 C559.260291,145.915979 563.75236,141.297424 568.57018,137.03332 C569.32156,141.3437 572.04838,144.88322 575.25751,147.85732 C578.46664,150.83142 582.16592,153.22577 585.50141,156.05745 C593.58001,162.91583 599.39724,172.22435 607.89356,178.55788 C613.738254,177.022095 619.202205,174.294242 623.94218,170.54568 L620.64009,164.56427 C620.364933,163.948694 619.9364,163.414033 619.3955,163.01145 C618.46085,162.43645 617.25575,162.73273 616.1705,162.57001 C613.26968,162.13501 612.00279,158.78601 610.8645,156.08264 C607.73959,148.66091 601.7565,142.90271 596.64667,136.67883 C592.87518,132.084486 589.529469,127.156564 586.6509,121.95599 C584.93438,118.85437 583.3629,115.62492 581.03344,112.95278 C578.70398,110.28064 575.43986,108.17978 571.89494,108.17227 C568.76272,108.16565 565.87372,109.75582 563.18072,111.35535 C554.978391,116.227426 547.086481,121.604083 539.55054,127.45429 C535.60678,130.51599 531.68748,133.75074 527.06121,135.62822 C525.11373,136.41857 523.06077,136.95874 521.19197,137.92045 C517.91884,139.60485 515.43476,142.4548 512.76069,144.9846 C503.22312,154.00775 490.165,159.85391 477.04386,160.3214 Z" id="Path" fill="#3F3D56" fill-rule="nonzero"></path>
            <path d="M525.3197,96.09801 C525.212487,98.8561367 524.625794,101.574526 523.58591,104.13136 C522.520447,106.709155 520.431097,108.727855 517.81819,109.70405 C515.982706,110.195786 514.058635,110.25823 512.19513,109.88654 C510.570165,109.716819 509.00427,109.18339 507.61362,108.32583 C505.44878,106.83746 504.36947,104.1817 503.97614,101.58258 C503.58281,98.98658 503.759,96.33401 503.50729,93.71916 C503.262035,91.6071156 502.860263,89.5162018 502.30529,87.46367 C502.13536,86.78085 501.96229,86.10119 501.79235,85.42151 C501.62561,84.74184 501.46198,84.06216 501.31094,83.38251 C501.17247,82.74373 501.04349,82.10183 500.93333,81.45677 C500.8421,80.91241 500.76033,80.36488 500.70048,79.81422 C500.645395,78.1817359 500.373455,76.5638272 499.89181,75.00304 C499.439737,73.9907874 498.873897,73.0332894 498.20522,72.14904 C497.91887,71.73998 497.64196,71.33093 497.38707,70.90612 C496.649927,69.8021657 496.30732,68.4815701 496.41481,67.15849 C496.445085,66.9539502 496.494598,66.7527246 496.56269,66.55749 C496.58785,66.48197 496.61616,66.40649 496.64769,66.33409 C497.222399,66.1780576 497.682897,65.7481471 497.878,65.1855 C497.986215,64.5902119 497.935199,63.9768983 497.73012,63.40767 C497.494995,62.6122705 497.173149,61.8451268 496.77038,61.12006 C496.50608,60.64177 495.6093,59.7796 495.603,59.23206 C495.5904,58.13074 497.74272,57.24339 498.61434,56.80915 C501.274873,55.4768879 504.241563,54.8752962 507.21091,55.06592 C509.1146,55.19492 511.17881,55.7802 512.22981,57.37554 C513.17381,58.81354 513.04788,60.67635 513.45066,62.34723 C513.493075,62.5900968 513.595865,62.8184037 513.74958,63.01116 C513.954934,63.1982805 514.213323,63.3170206 514.48906,63.35098 C514.955203,63.4437145 515.432998,63.462833 515.90506,63.40764 L515.90821,63.40764 C516.032985,63.3977483 516.156999,63.379875 516.27949,63.35413 C517.014586,63.2185035 517.709489,62.9183839 518.3122,62.47623 C518.702407,62.37239 519.09574,62.28743 519.4922,62.22135 C519.508217,62.2197219 519.524039,62.2165573 519.53945,62.2119 C521.11591,67.18672 521.32045,72.52026 522.61056,77.58634 C523.2493,80.10678 524.16498,82.59577 524.29396,85.18859 C524.30341,85.30186 524.30656,85.41829 524.30971,85.53471 C524.32861,86.36857 524.26254,87.20871 524.29711,88.03943 C524.309153,88.4135049 524.351258,88.7860055 524.42302,89.15333 C524.56411,89.7441412 524.739561,90.3262142 524.94848,90.89658 L524.95793,90.92489 C525.0177,91.1074 525.07436,91.29306 525.12156,91.4787 C525.15613,91.614 525.18763,91.74617 525.21283,91.88147 L525.21594,91.8909 C525.44889,93.2813467 525.483823,94.6977703 525.3197,96.09801 L525.3197,96.09801 Z" id="Path" fill="#FBBEBE" fill-rule="nonzero"></path>
            <circle id="Oval" fill="#FBBEBE" fill-rule="nonzero" cx="503.23669" cy="44.99678" r="18.56511"></circle>
            <path d="M621.10311,146.14828 C620.565008,141.08324 618.764716,136.234151 615.86711,132.04511 C616.34855,134.90853 616.831043,137.77091 617.31459,140.63225 C616.086287,140.987652 614.764148,140.581128 613.94771,139.59702 C613.165975,138.620912 612.567856,137.511049 612.18242,136.32137 C610.073165,131.085377 607.315112,126.134802 603.97292,121.5857 C592.15416,120.60081 580.47069,115.70152 570.07737,109.99038 C559.68094,104.28238 549.95155,97.43848 539.69355,91.48821 C537.91532,90.4132192 536.062471,89.4668041 534.14919,88.65621 C530.93965,87.36921 527.33677,86.70215 524.29393,85.18862 C524.08943,85.08792 523.88493,84.98095 523.6835,84.87081 C522.996097,84.4969631 522.345078,84.059788 521.73891,83.56497 C521.411276,83.2989384 521.100231,83.013104 520.80752,82.70907 C519.28931,80.942863 518.085544,78.9291532 517.24866,76.75566 C515.61558,73.14334 515.03342,68.78525 513.40349,65.17292 C514.15263,64.4727958 514.994342,63.8788337 515.90505,63.40767 L515.9082,63.40767 C516.04033,63.33843 516.1725,63.27235 516.30782,63.20943 C516.952719,62.9056993 517.623521,62.6603294 518.31219,62.47626 C518.702397,62.37242 519.09573,62.28746 519.49219,62.22138 C519.508207,62.2197519 519.524029,62.2165873 519.53944,62.21193 C521.377986,61.9123801 523.261684,62.061351 525.03029,62.64617 C527.61681,63.52094 529.7974,65.26732 531.97177,66.9193 C535.504177,69.4078738 538.892266,72.0952354 542.11964,74.96838 C543.91321,76.68638 545.54944,78.57438 547.47832,80.13514 C549.081172,81.3722104 550.771089,82.4921643 552.53494,83.4863 C562.97236,89.70402 573.410777,95.9207033 583.85019,102.13635 C587.38384,104.24145 590.92065,106.34654 594.37572,108.57435 C599.62427,111.96013 604.684,115.62909 609.74065,119.29492 C612.720503,121.4535 615.699327,123.61313 618.67712,125.77381 C619.654165,126.397063 620.51198,127.18989 621.21012,128.11491 C621.826997,129.165188 622.210161,130.33613 622.33349,131.54791 C623.080961,136.443613 622.659347,141.446711 621.10311,146.14828 Z" id="Path" fill="#FBBEBE" fill-rule="nonzero"></path>
            <path d="M529.92326,110.0596 C528.67091,115.67634 522.99438,119.0716 520.02709,124.00546 C516.33925,130.12881 517.84331,137.24646 519.22787,144.2603 C516.69797,146.440933 514.16702,148.621553 511.63502,150.80216 C510.23794,152.00102 508.84085,153.20616 507.33675,154.2666 C505.143595,155.736103 502.851591,157.05242 500.47709,158.20616 C498.23669,159.35784 495.996293,160.510553 493.7559,161.6643 C491.673189,162.835382 489.466339,163.770474 487.17629,164.45223 C482.76156,165.58501 478.07311,164.79205 473.70559,163.47991 C473.190539,163.344843 472.695434,163.142785 472.23295,162.87891 C471.960492,162.716455 471.723045,162.501463 471.53441,162.24643 C471.103784,161.474454 470.947401,160.579358 471.09076,159.7071 C471.53441,152.35658 473.33112,145.16024 475.12157,138.01739 C476.078579,133.732193 477.365179,129.527324 478.96989,125.44031 C480.543895,121.938323 482.353157,118.546904 484.38527,115.28931 C486.628071,111.1906 489.285118,107.332592 492.31475,103.77578 C493.789688,102.406827 495.031116,100.806146 495.99,99.03696 C497.10706,96.4882 496.676,93.56496 496.90252,90.78964 C497.07587,88.7044756 497.629361,86.6686401 498.53564,84.78274 L498.53564,84.77959 C499.020395,83.7637664 499.604299,82.7983064 500.27885,81.89727 C500.584103,82.60841 500.88933,83.3185 501.19453,84.02754 C501.395923,84.49324 501.5952,84.9579067 501.79236,85.42154 C502.0504,86.0194 502.306333,86.61516 502.56016,87.20882 C503.293313,88.9143067 504.025437,90.61873 504.75653,92.32209 C505.546584,94.4675286 506.672404,96.4738583 508.09191,98.26609 C509.411892,100.132954 511.615732,101.168913 513.895423,100.994145 C516.175113,100.819377 518.195289,99.4595931 519.21528,97.41334 C520.27294,95.5356626 521.038976,93.508095 521.48713,91.40014 C522.108548,88.8334895 522.194248,86.1662988 521.73888,83.56505 C520.98053,78.5556 518.85026,73.4392 517.3021,68.78533 C516.671955,67.2336059 516.307116,65.5870003 516.22283,63.91433 C516.225961,63.7263691 516.244901,63.539005 516.27945,63.35422 C516.2889,63.30703 516.29835,63.25668 516.30779,63.20949 C516.952689,62.9057593 517.623491,62.6603894 518.31216,62.47632 C518.702367,62.37248 519.0957,62.28752 519.49216,62.22144 C520.85468,69.59714 522.21927,76.9728367 523.58593,84.34853 C523.61743,84.5216 523.65203,84.69466 523.68349,84.87087 C523.87858,85.92813 524.07682,86.98541 524.29707,88.03952 C524.49535,88.99609 524.7093,89.94952 524.94844,90.89667 L524.95789,90.92498 C525.03971,91.24598 525.12467,91.56375 525.21279,91.88156 L525.2159,91.89099 C525.4582,92.75947 525.7288,93.62164 526.03401,94.47123 C527.88425,99.59078 531.10955,104.74496 529.92326,110.0596 Z" id="Path" fill="#5FE3C0" fill-rule="nonzero"></path>
            <path d="M605.26744,188.99257 C605.208967,190.074566 605.418498,191.154266 605.87744,192.13585 C607.03936,194.25938 609.82725,194.7421 612.23972,194.94069 C626.331966,196.099059 640.509833,195.667091 654.50542,193.65295 C655.264756,193.601009 656.001455,193.37238 656.65678,192.98529 C658.64663,191.5902 657.42007,188.19019 655.24727,187.10174 C653.07447,186.01329 650.49601,186.2756 648.11197,185.80426 C645.743433,185.208069 643.48789,184.229858 641.43403,182.90809 C636.599137,180.130297 631.834803,177.23427 627.14103,174.22001 C624.3465,172.42537 621.04831,170.51008 617.90116,171.57414 C609.376,174.45814 605.21133,179.79615 605.26744,188.99257 Z" id="Path" fill="#3F3D56" fill-rule="nonzero"></path>
            <path d="M501.38332,82.98917 L501.38332,82.99232 C501.36132,83.12447 501.33926,83.25348 501.31095,83.3825 C501.27635,83.5965 501.23544,83.81358 501.19453,84.0275 C500.80435,86.02562 500.32606,88.01428 499.7754,89.99037 C498.265,95.44976 496.24174,100.82106 494.23419,106.11369 C488.847157,120.30497 483.45908,134.497303 478.06996,148.69069 C476.7106,152.26526 475.35442,155.84297 473.80942,159.34517 C473.29342,160.51258 472.7616,161.68941 472.23295,162.87885 C470.33868,167.13622 468.51995,171.53207 467.91579,176.06321 C467.352507,179.045304 467.287647,182.100166 467.72385,185.10348 C468.32801,188.0739 470.13103,190.97508 472.95354,192.07325 C474.33177,192.61133 476.30467,193.3319 475.92709,194.76362 C475.72259,195.55027 474.82892,195.93417 474.02652,196.06632 C471.881391,196.408209 469.6953,195.77869 468.06052,194.34832 C466.55327,193.011 465.39534,190.93107 463.39093,190.70767 C462.00326,190.55667 460.72575,191.38733 459.4545,191.96945 C454.26886,194.33887 448.22731,192.68059 442.7805,190.99715 C443.20844,188.79136 445.42368,187.33762 447.62317,186.89709 C449.82266,186.45342 452.09766,186.76809 454.34117,186.7083 C455.059663,186.746614 455.77257,186.563168 456.38333,186.18281 C456.930837,185.68022 457.314558,185.024603 457.48465,184.30112 C458.929809,180.018932 460.004666,175.620579 460.69738,171.15451 C461.42108,166.48806 461.72319,161.74924 462.75525,157.13944 C463.55766,153.54283 464.79745,150.05953 465.86097,146.529 C467.917642,139.259829 469.606387,131.891557 470.92077,124.45226 C471.585259,121.36152 472.06128,118.233249 472.3462,115.08475 C472.52555,112.47305 472.44058,109.84875 472.69229,107.24649 C473.114767,103.860943 473.821057,100.516896 474.8037,97.24966 C475.766547,93.6845333 476.72837,90.1214967 477.68917,86.56055 C479.11461,81.28995 480.64382,75.81483 484.25617,71.71791 C486.792202,68.8025853 490.423032,67.0686406 494.28451,66.92876 C495.000826,66.9278878 495.715114,67.0049037 496.41478,67.15845 C496.53117,67.18676 496.64763,67.21509 496.76401,67.24655 C497.526474,67.4458971 498.258057,67.7486919 498.93838,68.1465 C500.05226,67.4385 500.61863,67.68708 501.35812,68.77896 C502.006373,69.9345156 502.311992,71.2508432 502.23919,72.57381 C502.301519,76.0654375 502.014805,79.5545559 501.38332,82.98917 L501.38332,82.98917 Z" id="Path" fill="#FBBEBE" fill-rule="nonzero"></path>
            <path d="M502.60736,87.1616 L502.56016,87.20879 L502.3053,87.46367 L499.7754,89.99042 L498.53564,84.78275 L494.28455,66.92875 C495.000866,66.9278778 495.715154,67.0048937 496.41482,67.15844 C496.445095,66.9539002 496.494608,66.7526746 496.5627,66.55744 L496.76405,67.24655 L498.20523,72.149 L500.93334,81.45673 L501.38334,82.98914 L501.38334,82.99229 L502.60736,87.1616 Z" id="Path" fill="#5FE3C0" fill-rule="nonzero"></path>
            <path d="M518.66123,30.2028 C518.656949,33.541618 517.325728,36.7418194 514.96074,39.09863 C514.536655,39.523366 514.082083,39.9165273 513.60066,40.27497 C511.429273,41.9118747 508.784251,42.797852 506.06499,42.79912 L490.969,42.79912 C484.023221,42.7883983 478.398235,37.154722 478.398235,30.208935 C478.398235,23.263148 484.023221,17.6294717 490.969,17.61875 L506.065,17.61875 C513.009453,17.6368296 518.636432,23.2583676 518.66123,30.2028 L518.66123,30.2028 Z" id="Path" fill="#2F2E41" fill-rule="nonzero"></path>
            <path d="M513.60066,40.27497 C511.429273,41.9118747 508.784251,42.797852 506.06499,42.79912 L490.969,42.79912 C488.249718,42.7978519 485.604674,41.9118754 483.43326,40.27497 L513.60066,40.27497 Z" id="Path" fill="#000000" fill-rule="nonzero" opacity="0.1"></path>
            <path d="M611.08558,133.75592 C611.08558,133.75592 614.33786,143.12753 617.31458,140.63225 L614.942,128.38243 L611.08558,133.75592 Z" id="Path" fill="#FBBEBE" fill-rule="nonzero"></path>
            <path d="M1006.86381,419.54964 C1015.17083,422.569552 1024.47921,420.013069 1030.07849,413.173887 C1035.67778,406.334706 1036.34645,396.704832 1031.74613,389.157419 C1027.14581,381.610006 1018.28008,377.791565 1009.63541,379.6344 L1010.15634,390.3466 L1005.0882,381.16615 C1000.1141,383.503334 996.271394,387.719726 994.40453,392.88876 C993.741533,394.699404 993.338483,396.59487 993.2074,398.51862 C992.550053,407.792593 998.124522,416.377335 1006.86381,419.54964 Z" id="Path" fill="#57B894" fill-rule="nonzero"></path>
            <path d="M1031.94116,543.79306 C1030.1521,534.68279 1037.90446,526.60626 1045.56202,521.35655 C1053.21958,516.10684 1062.16702,510.94876 1064.77977,502.03971 C1068.53477,489.23584 1057.34977,477.5099 1048.64413,467.39795 C1042.18538,459.893734 1036.63883,451.650441 1032.12054,442.84057 C1030.30947,439.30807 1028.64496,435.61529 1028.16833,431.67431 C1027.48192,425.99885 1029.30526,420.35122 1031.14223,414.93758 C1037.26173,396.90312 1043.80454,379.01977 1050.77066,361.28753" id="Path" stroke="#3F3D56"></path>
            <path d="M1007.72093,416.7917 C1016.02795,419.811612 1025.33633,417.255129 1030.93561,410.415947 C1036.5349,403.576766 1037.20357,393.946892 1032.60325,386.399479 C1028.00293,378.852066 1019.1372,375.033625 1010.49253,376.87646 L1011.01346,387.58866 L1005.94531,378.40821 C1000.97121,380.745396 997.128512,384.961788 995.26165,390.13082 C994.598653,391.941464 994.195603,393.83693 994.06452,395.76068 C993.40717,405.034654 998.981639,413.619398 1007.72093,416.7917 Z" id="Path" stroke="#3F3D56"></path>
            <path d="M1029.39736,357.58816 C1031.81327,350.922201 1037.46005,345.94726 1044.37729,344.39052 L1046.0909,354.5743 L1049.2679,343.87864 C1058.31897,344.012864 1066.2451,349.982678 1068.87306,358.644873 C1071.50102,367.307069 1068.22794,376.674526 1060.77717,381.815122 C1053.32639,386.955718 1043.40713,386.690192 1036.24204,381.158349 C1029.07695,375.626506 1026.30972,366.097357 1029.39733,357.58816 L1029.39736,357.58816 Z" id="Path" fill="#57B894" fill-rule="nonzero"></path>
            <path d="M1030.54018,353.9109 C1032.95609,347.244946 1038.60288,342.27001 1045.52011,340.71327 L1047.23372,350.89705 L1050.41072,340.20138 C1059.46179,340.335604 1067.38792,346.305418 1070.01588,354.967613 C1072.64384,363.629809 1069.37076,372.997266 1061.91999,378.137862 C1054.46921,383.278458 1044.54995,383.012932 1037.38486,377.481089 C1030.21977,371.949246 1027.45254,362.420097 1030.54015,353.9109 L1030.54018,353.9109 Z" id="Path" stroke="#3F3D56"></path>
            <path d="M1044.99074,467.60435 C1054.93639,471.212016 1066.00597,466.783183 1070.71847,457.310934 C1075.43097,447.838686 1072.28633,436.338188 1063.40974,430.58168 L1060.96853,438.80094 L1059.23748,428.49712 C1059.22037,428.489044 1059.20265,428.482324 1059.18448,428.47702 C1052.19379,425.936364 1044.37861,427.319808 1038.6849,432.105859 C1032.99118,436.891911 1030.28466,444.352852 1031.58555,451.676263 C1032.88645,458.999675 1037.99696,465.072034 1044.99068,467.60435 L1044.99074,467.60435 Z" id="Path" fill="#57B894" fill-rule="nonzero"></path>
            <path d="M1045.981,463.87967 C1055.92665,467.487336 1066.99623,463.058503 1071.70873,453.586254 C1076.42123,444.114006 1073.27659,432.613508 1064.4,426.857 L1061.95879,435.07626 L1060.22774,424.77244 C1060.21063,424.764365 1060.1929,424.757645 1060.17474,424.75234 C1053.18405,422.211684 1045.36887,423.595128 1039.67516,428.381179 C1033.98144,433.167231 1031.27492,440.628172 1032.57581,447.951583 C1033.87671,455.274995 1038.98722,461.347354 1045.98094,463.87967 L1045.981,463.87967 Z" id="Path" stroke="#3F3D56"></path>
            <path d="M1023.32382,502.16698 C1025.02626,511.854158 1033.28098,519.024979 1043.11104,519.356022 C1052.9411,519.687064 1061.65954,513.087839 1064.00985,503.537144 C1066.36016,493.986449 1061.69989,484.094891 1052.83882,479.826277 C1043.97774,475.557662 1033.33796,478.078784 1027.3344,485.86961 L1036.60707,499.82615 L1023.93713,492.41847 C1022.95474,495.571929 1022.7444,498.915263 1023.32382,502.16698 L1023.32382,502.16698 Z" id="Path" fill="#57B894" fill-rule="nonzero"></path>
            <path d="M1024.18094,499.40904 C1025.88338,509.096218 1034.1381,516.267039 1043.96816,516.598082 C1053.79822,516.929124 1062.51666,510.329899 1064.86697,500.779204 C1067.21728,491.228509 1062.55701,481.336951 1053.69594,477.068337 C1044.83486,472.799722 1034.19508,475.320844 1028.19152,483.11167 L1037.46419,497.06822 L1024.79425,489.66053 C1023.81186,492.813988 1023.60152,496.157323 1024.18094,499.40904 Z" id="Path" stroke="#3F3D56"></path>
            <path d="M9.00746,470.24875 C14.46533,472.232933 20.5811437,470.553298 24.2600025,466.059823 C27.9388612,461.566347 28.3781949,455.239314 25.3556793,450.280511 C22.3331637,445.321709 16.5081829,442.812934 10.82846,444.02375 L11.17073,451.06186 L7.84086,445.03014 C4.57278277,446.565722 2.0480568,449.33598 0.8215,452.73214 C0.385898088,453.921769 0.121085176,455.167128 0.03496,456.43107 C-0.396892787,462.524207 3.2656231,468.164494 9.00746,470.24875 L9.00746,470.24875 Z" id="Path" fill="#57B894" fill-rule="nonzero"></path>
            <path d="M25.48374,551.87894 C24.30829,545.89333 29.40174,540.58694 34.43289,537.13774 C39.46404,533.68854 45.34267,530.29964 47.05931,524.44623 C49.52642,516.03385 42.17764,508.3297 36.45789,501.68596 C32.2143734,496.755553 28.5701907,491.339558 25.6016,485.55131 C24.3109904,483.277725 23.4319378,480.794127 23.00492,478.21488 C22.55392,474.486 23.75192,470.77541 24.95883,467.21854 C28.97945,455.369567 33.2781933,443.61988 37.85506,431.96948" id="Path" stroke="#3F3D56"></path>
            <path d="M9.57061,468.43673 C15.028473,470.420895 21.1442691,468.741254 24.8231159,464.247785 C28.5019627,459.754316 28.9412954,453.427299 25.9187906,448.468504 C22.8962859,443.509709 17.0713235,441.000931 11.39161,442.21173 L11.73388,449.24985 L8.404,443.21808 C5.13592211,444.753661 2.61119584,447.52392 1.38464,450.92008 C0.94904277,452.109707 0.684229986,453.355062 0.5981,454.619 C0.166218569,460.712159 3.82874584,466.352478 9.57061,468.43673 Z" id="Path" stroke="#3F3D56"></path>
            <path d="M23.81241,429.53893 C25.3997046,425.159273 29.1097481,421.890646 33.6545,420.86784 L34.78037,427.55877 L36.86774,420.53152 C42.8144375,420.619717 48.0220312,424.541988 49.7486391,430.233193 C51.4752471,435.924398 49.3247836,442.078969 44.4295023,445.456425 C39.534221,448.833881 33.0171046,448.659431 28.3095201,445.024924 C23.6019355,441.390418 21.7838076,435.129615 23.81241,429.53893 L23.81241,429.53893 Z" id="Path" fill="#57B894" fill-rule="nonzero"></path>
            <path d="M24.56327,427.1229 C26.1505674,422.743247 29.8606104,419.474624 34.40536,418.45182 L35.53123,425.14275 L37.6186,418.1155 C43.5652981,418.203699 48.7728912,422.125972 50.4994971,427.817178 C52.226103,433.508384 50.0756364,439.662955 45.1803528,443.040409 C40.2850693,446.417863 33.7679522,446.243409 29.0603695,442.608899 C24.3527868,438.974389 22.5346631,432.713584 24.56327,427.1229 L24.56327,427.1229 Z" id="Path" stroke="#3F3D56"></path>
            <path d="M34.05755,501.82157 C40.5920277,504.191901 47.8649718,501.282085 50.9611817,495.058633 C54.0573915,488.835181 51.9912901,481.279126 46.15919,477.497 L44.55527,482.8972 L43.41794,476.12741 C43.4067024,476.122108 43.3950668,476.117695 43.38314,476.11421 C38.7898796,474.443925 33.654369,475.352377 29.9128564,478.497051 C26.1713438,481.641726 24.3928681,486.544356 25.2479703,491.356496 C26.1030725,496.168636 29.4617019,500.158418 34.05755,501.82157 L34.05755,501.82157 Z" id="Path" fill="#57B894" fill-rule="nonzero"></path>
            <path d="M34.70814,499.37439 C41.2426177,501.744721 48.5155618,498.834905 51.6117717,492.611453 C54.7079815,486.388001 52.6418801,478.831946 46.80978,475.04982 L45.20586,480.45002 L44.06853,473.68022 C44.0572924,473.674918 44.0456568,473.670505 44.03373,473.66702 C36.9348358,471.091829 29.0924406,474.759016 26.51725,481.85791 C23.9420594,488.956804 27.6092458,496.799199 34.70814,499.37439 L34.70814,499.37439 Z" id="Path" stroke="#3F3D56"></path>
            <path d="M19.822,524.52985 C20.9405483,530.894501 26.3640556,535.605851 32.8225872,535.823339 C39.2811188,536.040826 45.0092848,531.705003 46.5534662,525.430018 C48.0976477,519.155033 45.0357544,512.656106 39.2138594,509.851561 C33.3919644,507.047016 26.401438,508.703456 22.457,513.82218 L28.54931,522.99189 L20.22493,518.12489 C19.5794917,520.196776 19.4413035,522.393411 19.822,524.52985 L19.822,524.52985 Z" id="Path" fill="#57B894" fill-rule="nonzero"></path>
            <path d="M20.38513,522.71783 C21.5036783,529.082481 26.9271856,533.793831 33.3857172,534.011319 C39.8442488,534.228806 45.5724148,529.892983 47.1165962,523.617998 C48.6607777,517.343013 45.5988844,510.844086 39.7769894,508.039541 C33.9550944,505.234996 26.964568,506.891436 23.02013,512.01016 L29.11244,521.17987 L20.78805,516.31287 C20.1426151,518.384757 20.0044302,520.581392 20.38513,522.71783 L20.38513,522.71783 Z" id="Path" stroke="#3F3D56"></path>
        </g>
    </g>
</svg>