<svg xmlns="http://www.w3.org/2000/svg" viewBox="0 0 2005 2005"><defs><style>.cls-1{fill:none;}.cls-2{opacity:0.3;}.cls-3{fill:#e4a645;}.cls-4{fill:#e2dbd5;}.cls-5{fill:#edece7;}.cls-6{fill:#f2c222;}.cls-7{fill:#d2c8cb;}.cls-8{fill:#008d72;}.cls-9{fill:#00795c;}</style></defs><title>Artboard 5</title><g id="Layer_1" data-name="Layer 1"><rect class="cls-1" width="2005" height="2005"/></g><g id="Layer_2" data-name="Layer 2"><ellipse class="cls-2" cx="1012.5" cy="1586.07" rx="795.14" ry="20.44"/><path class="cls-3" d="M433.17,452.94S533.53,585.36,910,652.2s542.14,59.93,539.41,39.47S958.36,446.12,958.36,446.12Z"/><polygon class="cls-4" points="969.27 400.37 978.82 390.2 987.01 403.24 725.99 1592.15 700.07 1592.15 969.27 400.37"/><polyline class="cls-2" points="901.27 701.43 969.27 400.37 978.82 390.2 987.01 403.24 920.57 705.87"/><path class="cls-5" d="M433.17,452.94s315.12-80.48,536.1-42.28,480.17,281,480.17,281S1131.48,571.51,914.59,532,433.17,452.94,433.17,452.94Z"/><path class="cls-6" d="M969.27,410.66C781,379.28,564.35,473.15,564.35,473.15l210.52,34.31S850.6,431.12,969.27,410.66Z"/><path class="cls-6" d="M1085.49,572.43s-22.09-111.3-116.22-161.77c216.9,40.92,336.7,230.17,336.7,230.17Z"/><path class="cls-7" d="M1167.09,1576.18,989.5,1111.55a2.83,2.83,0,0,1,1.63-3.66l23.09-8.82a2.83,2.83,0,0,1,3.66,1.63l177.6,464.63a2.83,2.83,0,0,1-1.64,3.66l-23.09,8.83A2.83,2.83,0,0,1,1167.09,1576.18Z"/><path class="cls-4" d="M1171.38,1579.38,987.58,1098.5a2.83,2.83,0,0,1,1.63-3.66l23.09-8.82a2.83,2.83,0,0,1,3.66,1.63l183.81,480.88a2.83,2.83,0,0,1-1.64,3.66L1175,1581A2.83,2.83,0,0,1,1171.38,1579.38Z"/><path class="cls-7" d="M1241,833.55l-651.63,753.6a15.85,15.85,0,0,1-22.37,1.63h0a15.86,15.86,0,0,1-1.63-22.37L1217,812.8a15,15,0,0,1,21.16-1.53l1.31,1.13A15,15,0,0,1,1241,833.55Z"/><path class="cls-4" d="M1249.18,835.31,594.91,1592a13.41,13.41,0,0,1-18.92,1.38l-3.7-3.2a13.43,13.43,0,0,1-1.38-18.93l654.26-756.64a13.43,13.43,0,0,1,18.93-1.38l3.7,3.2A13.43,13.43,0,0,1,1249.18,835.31Z"/><polygon class="cls-2" points="1009.14 1161.84 1033.6 1133.79 1020.74 1100.15 996.28 1128.2 1009.14 1161.84"/><polygon class="cls-8" points="1502.65 833.08 1217.02 833.08 1227.41 819.23 1516.5 819.23 1502.65 833.08"/><path class="cls-7" d="M1204.57,1597.88,554.78,1286.46a2.84,2.84,0,0,1-1.34-3.78l11.27-23.5a2.83,2.83,0,0,1,3.78-1.33l649.79,311.41a2.85,2.85,0,0,1,1.34,3.79l-11.27,23.5A2.83,2.83,0,0,1,1204.57,1597.88Z"/><rect class="cls-4" x="530.98" y="1411.28" width="726.24" height="31.73" rx="2.83" transform="translate(704.6 -246.25) rotate(25.61)"/><path class="cls-8" d="M910,1406.07C1098.5,1385.77,1219.61,840,1219.61,840h288.67s-121.11,545.77-309.58,566.07"/><path class="cls-7" d="M1448.69,1576.18l-177.6-464.63a2.83,2.83,0,0,1,1.63-3.66l23.09-8.82a2.83,2.83,0,0,1,3.66,1.63l177.6,464.63a2.83,2.83,0,0,1-1.63,3.66l-23.09,8.83A2.83,2.83,0,0,1,1448.69,1576.18Z"/><path class="cls-4" d="M1453,1579.38l-177.6-464.64a2.83,2.83,0,0,1,1.63-3.66l23.09-8.82a2.83,2.83,0,0,1,3.66,1.64l177.6,464.63a2.83,2.83,0,0,1-1.63,3.66l-23.09,8.82A2.83,2.83,0,0,1,1453,1579.38Z"/><path class="cls-9" d="M1198.7,1406.07c-188.47,20.31-309.58-126-309.58-126H600.45s121.11,146.3,309.58,126Z"/><rect class="cls-9" x="1217.02" y="833.08" width="285.63" height="13.85"/><polygon class="cls-9" points="591.54 1297.39 877.17 1297.39 866.78 1283.54 577.69 1283.54 591.54 1297.39"/><polygon class="cls-8" points="591.54 1269.69 877.17 1269.69 866.78 1283.54 577.69 1283.54 591.54 1269.69"/><path class="cls-7" d="M1486.16,1597.88,836.37,1286.46a2.83,2.83,0,0,1-1.33-3.78l11.26-23.5a2.83,2.83,0,0,1,3.78-1.33l649.8,311.42a2.83,2.83,0,0,1,1.33,3.78l-11.26,23.5A2.85,2.85,0,0,1,1486.16,1597.88Z"/><path class="cls-4" d="M1493.73,1597.16,843.94,1285.74a2.83,2.83,0,0,1-1.33-3.78l11.26-23.5a2.83,2.83,0,0,1,3.78-1.33l649.8,311.42a2.83,2.83,0,0,1,1.33,3.78l-11.26,23.5A2.84,2.84,0,0,1,1493.73,1597.16Z"/><path class="cls-7" d="M1533.65,832,880.71,1587.15a15.86,15.86,0,0,1-22.37,1.63h0a15.86,15.86,0,0,1-1.63-22.37l652.94-755.11A13,13,0,0,1,1528,810l4.33,3.74A13,13,0,0,1,1533.65,832Z"/><path class="cls-4" d="M1540.53,835.31,886.27,1592a13.41,13.41,0,0,1-18.92,1.38l-3.7-3.2a13.43,13.43,0,0,1-1.38-18.93l654.26-756.64a13.43,13.43,0,0,1,18.93-1.38l3.7,3.2A13.42,13.42,0,0,1,1540.53,835.31Z"/><polygon class="cls-2" points="1058.3 1392.87 1087.96 1407.08 1112.07 1379.15 1082.41 1364.94 1058.3 1392.87"/><path class="cls-2" d="M1304.63,1108l-24,28.22,12.86,33.64,24.33-28.62-11.77-30.78A9.67,9.67,0,0,0,1304.63,1108Z"/><path class="cls-4" d="M1066,1368.75a7.69,7.69,0,1,1-7.69-7.69A7.68,7.68,0,0,1,1066,1368.75Z"/></g></svg>