<?xml version="1.0" encoding="UTF-8"?>
<svg width="3177px" height="234px" viewBox="0 0 3177 234" version="1.1" xmlns="http://www.w3.org/2000/svg" xmlns:xlink="http://www.w3.org/1999/xlink">
    <!-- Generator: Sketch 57 (83077) - https://sketch.com -->
    <title>15</title>
    <desc>Created with Sketch.</desc>
    <defs>
        <polygon id="path-1" points="0 0.04 3178.93 0.04 3178.93 1705.01 0 1705.01"></polygon>
    </defs>
    <g id="Page-1" stroke="none" stroke-width="1" fill="none" fill-rule="evenodd">
        <g id="15">
            <g id="Group-6" transform="translate(0.000000, -307.000000)">
                <mask id="mask-2" fill="white">
                    <use xlink:href="#path-1"></use>
                </mask>
                <g id="Clip-2"></g>
            </g>
            <path d="M277.073881,183 C276.201263,177.721723 283.195216,167.075199 290.825619,167.246143 C293.860768,167.314121 296.82987,168.100864 299.859015,167.952912 C307.933733,167.559041 312.119697,161.278091 315.2319,156.077789 C318.344104,150.877487 324.540491,144.948422 332.411064,146.266992 C343.741087,148.167371 349.452131,163.102496 362.33025,151.889156 C370.761219,144.549552 371.393667,134.285903 380.939426,127.169226 C387.493067,122.283821 398.147611,119.389766 406.932832,122.088885 C418.39795,125.611735 422.661969,136.967028 434.868613,138.942383 C448.392189,141.131668 458.114072,130.855023 462.430129,123.443443 C467.667837,114.451378 469.613215,104.729552 474.100392,95.5765399 C478.252332,87.1063051 486.604246,75.7580098 501.56584,76.0039295 C514.218799,76.2118616 519.792746,84.2132495 526.004144,90.5651759 C534.080863,98.8244796 550.865748,128.487796 569.689077,124.910964 C577.029274,123.516419 580.693869,117.69232 587.316558,115.085171 C597.964098,110.89354 611.535707,116.655659 617.95125,123.905292 C624.365792,131.153925 626.907592,139.90207 634.157726,146.759831 C636.033054,148.534252 638.308665,150.208705 641.254751,151.014442 C651.37992,153.781539 660.805595,145.267318 671.646271,144.634525 C679.129569,144.197667 686.071485,147.709521 690.37153,151.993122 C694.671574,156.276724 697.017235,161.338072 700.307565,166.034538 C701.224214,167.341112 702.264951,168.66468 703.921124,169.55239 C708.676491,172.098559 715.368229,169.95226 721.193354,168.950587 C735.587546,166.476394 751.940125,173.07624 756,183 L277.073881,183" id="Fill-49" fill="#E5E7EE"></path>
            <path d="M2300.07355,107 C2299.20294,101.720773 2306.19785,91.0753475 2313.82321,91.2452905 C2316.85534,91.3132676 2319.82743,92.1000034 2322.85956,91.9520531 C2330.93523,91.5581854 2335.11817,85.2772945 2338.23036,80.0780404 C2341.34254,74.876787 2347.53689,68.947778 2355.41243,70.2673349 C2366.74038,72.1666971 2372.4544,87.1016819 2385.33345,75.889447 C2393.75936,68.5489119 2394.38981,58.2863581 2403.93651,51.1687482 C2410.49112,46.2833887 2421.14861,43.3893606 2429.93478,46.0884542 C2441.39283,49.6112712 2445.65582,60.9664581 2457.8644,62.9417948 C2471.3939,65.1310597 2481.11073,54.8545105 2485.42376,47.4429993 C2490.66744,38.4510189 2492.60881,28.7292834 2497.10196,19.5773567 C2501.25488,11.1062013 2509.60074,-0.241987952 2524.56125,0.00392946824 C2537.22015,0.212859309 2542.79406,8.21317279 2548.99842,14.5650398 C2557.0741,22.825266 2573.86589,52.4873055 2592.68911,48.9105066 C2600.02427,47.5159748 2603.68684,41.6929302 2610.31149,39.084806 C2620.95897,34.8932136 2634.52851,40.6562783 2640.94301,47.9048443 C2647.35752,55.1534102 2649.90931,63.9014726 2657.1544,70.7591697 C2659.02572,72.5335739 2661.30732,74.2090113 2664.24939,75.013741 C2674.3765,77.7818115 2683.80312,69.2676706 2694.64074,68.6338834 C2702.126,68.1970301 2709.07087,71.7098505 2713.36389,75.9924124 C2717.66691,80.275974 2720.01857,85.3362747 2723.30087,90.0336973 C2724.22152,91.3412582 2725.26225,92.6638141 2726.91341,93.551516 C2731.67675,96.097661 2738.36145,93.9513817 2744.18554,92.9497181 C2758.58566,90.4755489 2774.93715,97.0763324 2779,107 L2300.07355,107" id="Fill-88" fill="#E5E7EE"></path>
        </g>
    </g>
</svg>