<?xml version="1.0" encoding="UTF-8"?>
<svg width="317px" height="311px" viewBox="0 0 317 311" version="1.1" xmlns="http://www.w3.org/2000/svg" xmlns:xlink="http://www.w3.org/1999/xlink">
    <!-- Generator: Sketch 57 (83077) - https://sketch.com -->
    <title>Slice</title>
    <desc>Created with Sketch.</desc>
    <defs>
        <path d="M11.957,125.589 C14.198,122.401 16.698,119.473 19.405,116.97 C28.102,108.93 38.813,102.95 44.593,91.867 C51.348,78.913 51.229,63.25 55.038,48.99 C59.149,33.601 68.167,19.626 80.595,10.697 C93.021,1.768 108.831,-1.879 123.461,1.538 C142.498,5.983 157.837,21.356 176.52,27.271 C200.875,34.98 227.854,25.756 252.136,33.727 C260.938,36.616 269.021,41.685 276.256,47.776 C293.665,62.434 306.909,86.544 300.916,109.348 C298.013,120.393 290.993,129.723 287.506,140.573 C287.355,141.047 287.21,141.521 287.071,141.999 C283.734,153.604 285.081,166.061 290.077,176.986 C293.693,184.893 300.041,191.045 303.367,199.099 C310.362,216.038 307.248,235.253 298.255,250.8 C284.899,273.892 253.692,273.98 230.869,280.541 C217.7,284.326 206.075,291.393 192.997,295.384 C181.74,298.819 170.087,301.032 158.334,301.752 C135.161,303.173 111.281,298.574 91.836,285.422 C80,277.417 66.04,275.427 52.714,271.188 C46.079,269.078 39.517,265.865 35.169,260.428 C27.818,251.235 29.943,239.684 29.773,228.807 C29.644,220.498 29.553,211.986 26.138,204.245 C20.095,190.549 6.267,181.658 1.944,167.238" id="path-1"></path>
        <path d="M97.532,40.381 C96.029,45.872 94.094,51.094 92.989,55.088 C92.954,55.217 92.919,55.346 92.883,55.475 C89.513,67.75 85.897,81.639 86.336,94.44 C86.593,101.96 87.159,109.465 87.613,116.975 C87.845,120.798 88.05,124.623 88.169,128.452 C88.247,130.96 89.213,135.674 87.914,137.947 C87.444,138.768 86.535,139.217 85.668,139.593 C77.638,143.081 68.908,143.998 60.238,144.269 C50.81,144.564 41.206,144.413 31.892,143.849 C22.964,143.307 14.362,142.185 6.295,138.017 C4.661,137.173 1.481,135.926 0.727,134.075 C0.476,133.456 0.554,132.76 0.635,132.097 C2.897,113.702 5.229,95.105 5.067,76.516 C4.961,64.243 3.976,52.008 5.265,39.753 C6.015,32.62 7.36,25.524 9.577,18.616 C11.574,12.39 16.01,10.354 22.235,7.328 C26.873,5.072 31.726,2.981 36.914,1.852 C45.08,0.073 54.193,0.84 62.388,2.084 C70.16,3.263 77.583,6.901 84.844,9.607 C88.565,10.994 93.114,12.946 95.667,15.748" id="path-3"></path>
        <path d="M11.957,125.589 C14.198,122.401 16.698,119.473 19.405,116.97 C28.102,108.93 38.813,102.95 44.593,91.867 C51.348,78.913 51.229,63.25 55.038,48.99 C59.149,33.601 68.167,19.626 80.595,10.697 C93.021,1.768 108.831,-1.879 123.461,1.538 C142.498,5.983 157.837,21.356 176.52,27.271 C200.875,34.98 227.854,25.756 252.136,33.727 C260.938,36.616 269.021,41.685 276.256,47.776 C293.665,62.434 306.909,86.544 300.916,109.348 C298.013,120.393 290.993,129.723 287.506,140.573 C287.355,141.047 287.21,141.521 287.071,141.999 C283.734,153.604 285.081,166.061 290.077,176.986 C293.693,184.893 300.041,191.045 303.367,199.099 C310.362,216.038 307.248,235.253 298.255,250.8 C284.899,273.892 253.692,273.98 230.869,280.541 C217.7,284.326 206.075,291.393 192.997,295.384 C181.74,298.819 170.087,301.032 158.334,301.752 C135.161,303.173 111.281,298.574 91.836,285.422 C80,277.417 66.04,275.427 52.714,271.188 C46.079,269.078 39.517,265.865 35.169,260.428 C27.818,251.235 29.943,239.684 29.773,228.807 C29.644,220.498 29.553,211.986 26.138,204.245 C20.095,190.549 6.267,181.658 1.944,167.238" id="path-5"></path>
        <path d="M108.848377,171.200433 C106.681596,171.434298 104.509511,171.618726 102.334,171.752 C79.161,173.173 55.281,168.574 35.836,155.422 C25.2516398,148.263517 12.9687472,145.915143 0.959623495,142.467127 C0.882748958,133.981285 0.968460879,125.49844 1.705,117.075 C2.011,113.584 2.585,110.135 3.607,106.775 C5.648,100.067 9.405,93.993 13.73,88.474 C17.023,84.27 20.913,79.404 19.636,74.22 C18.437,69.356 15.448,65.783 15.084,60.527 C14.694,54.903 16.635,49.377 18.346,44.111 C20.237,38.295 22.352,32.552 24.673,26.893 C26.958,21.322 28.653,14.917 34.188,11.64 C39.304,8.609 45.271,7.156 50.536,4.363 C54.555,2.231 58.927,0.268 63.596,0.921 C64.837,1.095 66.05,1.426 67.247,1.793 C70.931,2.924 74.38,4.695 77.932,6.167 C81.537,7.659 85.219,8.957 88.836,10.42 C93.196,12.184 98.809,14.169 101.798,17.971 C106.673,24.176 105.556,33.495 103.406,42.604 C103.375,42.736 103.344,42.867 103.312,42.999 C100.267,55.887 97.042,68.858 95.752,82.067 C94.35,96.406 96.239,110.688 99.656,124.619 C101.276,131.227 104.132,137.381 105.697,144.018 C107.842481,153.11219 108.638347,162.022917 108.848377,171.200433" id="path-7"></path>
        <path d="M11.957,125.589 C14.198,122.401 16.698,119.473 19.405,116.97 C28.102,108.93 38.813,102.95 44.593,91.867 C51.348,78.913 51.229,63.25 55.038,48.99 C59.149,33.601 68.167,19.626 80.595,10.697 C93.021,1.768 108.831,-1.879 123.461,1.538 C142.498,5.983 157.837,21.356 176.52,27.271 C200.875,34.98 227.854,25.756 252.136,33.727 C260.938,36.616 269.021,41.685 276.256,47.776 C293.665,62.434 306.909,86.544 300.916,109.348 C298.013,120.393 290.993,129.723 287.506,140.573 C287.355,141.047 287.21,141.521 287.071,141.999 C283.734,153.604 285.081,166.061 290.077,176.986 C293.693,184.893 300.041,191.045 303.367,199.099 C310.362,216.038 307.248,235.253 298.255,250.8 C284.899,273.892 253.692,273.98 230.869,280.541 C217.7,284.326 206.075,291.393 192.997,295.384 C181.74,298.819 170.087,301.032 158.334,301.752 C135.161,303.173 111.281,298.574 91.836,285.422 C80,277.417 66.04,275.427 52.714,271.188 C46.079,269.078 39.517,265.865 35.169,260.428 C27.818,251.235 29.943,239.684 29.773,228.807 C29.644,220.498 29.553,211.986 26.138,204.245 C20.095,190.549 6.267,181.658 1.944,167.238" id="path-9"></path>
    </defs>
    <g id="Page-1" stroke="none" stroke-width="1" fill="none" fill-rule="evenodd">
        <g id="Group-131" transform="translate(1.000000, 0.000000)">
            <path d="M101.262,287.569 C90.712,283.788 79.149,284.874 67.943,284.715 C56.739,284.556 39.248,282.73 35.028,270.29 C30.561,257.122 37.035,243.467 37.092,230.161 C37.106,226.518 36.721,222.834 35.466,219.414 C29.592,203.407 9.918,199.53 3.025,183.579 C-2.123,171.664 0.536,157.435 7.305,146.359 C13.184,136.739 21.801,129.175 30.917,122.709 C39.217,116.821 45.563,107.307 48.818,97.638 C54.897,79.575 51.164,59.83 57.977,42.216 C64.081,26.439 75.767,13.077 90.361,6.016 C115.829,-6.307 145.929,4.657 164.084,25.736 C173.824,37.043 187.819,43.605 202.066,44.771 C229.738,47.037 258.564,31.996 284.201,48.975 C297.267,57.629 306.502,72.969 309.38,89.156 C311.001,98.274 310.814,108.419 307.295,117.026 C303.831,125.498 297.857,132.409 292.724,139.727 C284.196,151.889 279.529,168.144 287.506,181.842 C290.992,187.831 296.032,192.728 300.809,197.749 C313.04,210.6 317.569,229.517 313.358,246.65 C308.579,266.097 293.426,278.865 273.688,281.309 C259.082,283.116 242.916,280.754 229.677,288.473" id="Stroke-128" stroke="#FCE8E3"></path>
            <path d="M15.957,133.589 C7.857,145.106 1.607,160.775 5.944,175.238 C10.267,189.658 24.095,198.549 30.138,212.245 C33.553,219.986 33.644,228.498 33.773,236.807 C33.943,247.684 31.818,259.235 39.169,268.428 C43.517,273.865 50.079,277.078 56.714,279.188 C70.04,283.427 84,285.417 95.836,293.422 C115.281,306.574 139.161,311.173 162.334,309.752 C174.087,309.032 185.74,306.819 196.997,303.384 C210.075,299.393 221.7,292.326 234.869,288.541 C257.692,281.98 288.899,281.892 302.255,258.8 C311.248,243.253 314.362,224.038 307.367,207.099 C304.041,199.045 297.693,192.893 294.077,184.986 C289.081,174.061 287.734,161.604 291.071,149.999 C291.21,149.521 291.355,149.047 291.506,148.573 C294.993,137.723 302.013,128.393 304.916,117.348 C310.909,94.544 297.665,70.434 280.256,55.776 C273.021,49.685 264.938,44.616 256.136,41.727 C231.854,33.756 204.875,42.98 180.52,35.271 C161.837,29.356 146.498,13.983 127.461,9.538 C112.831,6.121 97.021,9.768 84.595,18.697 C72.167,27.626 63.149,41.601 59.038,56.99 C55.229,71.25 55.348,86.913 48.593,99.867 C42.813,110.95 32.102,116.93 23.405,124.97 C20.698,127.473 18.198,130.401 15.957,133.589" id="Fill-130" fill="#FCE8E3"></path>
        </g>
        <g id="Group-136" transform="translate(5.000000, 8.000000)">
            <mask id="mask-2" fill="white">
                <use xlink:href="#path-1"></use>
            </mask>
            <g id="Clip-133"></g>
            <path d="M249.255,284.59 C250.383,292.935 249.197,302.702 242.147,308.01 C238.039,311.102 232.726,311.993 227.629,312.662 C206.592,315.42 185.267,315.977 164.115,314.318 C161.68,314.128 159.114,313.859 157.14,312.42 C153.7,309.912 153.383,304.989 153.385,300.731 C153.391,283.3 152.111,266.941 160.158,250.928 C162.101,247.061 163.433,243.24 167.718,242.246 C172.241,241.195 176.968,241.276 181.554,241.774 C187.51,242.422 193.377,243.789 199.334,244.432 C208.344,245.404 217.431,244.709 226.49,244.698 C229.799,244.694 233.275,244.829 236.126,246.57 C238.424,247.974 240.067,250.28 241.453,252.643 C246.694,261.575 246.797,272.02 248.779,281.777 C248.965,282.69 249.125,283.631 249.255,284.59" id="Fill-132" fill="#1C516F" mask="url(#mask-2)"></path>
            <path d="M164.808,176.956 C176.226,168.06 185.735,155.582 183.751,140.388 C183.55,138.848 183.257,137.142 182.025,136.196 C179.375,134.164 174.941,133.827 171.807,134.454 C160.937,136.627 151.956,144.686 143.808,151.805 C135.343,159.199 127.441,167.211 118.955,174.582 C114.58,178.382 109.989,181.946 106.023,186.19 C102.047,190.446 97.81,195.826 99.523,202.026 C99.665,202.539 99.847,203.041 100.07,203.524 C101.219,206.007 103.226,207.452 105.778,208.227 C115.7,211.245 125.369,204.284 132.91,198.707 C143.265,191.049 154.643,184.875 164.808,176.956" id="Fill-134" fill="#60ADC8" mask="url(#mask-2)"></path>
            <path d="M254.532,163.381 C257.026,154.272 258.32,144.953 252.667,138.748 C250.114,135.946 245.565,133.994 241.844,132.607 C234.583,129.901 227.16,126.263 219.388,125.084 C211.193,123.84 202.08,123.073 193.914,124.852 C188.726,125.981 183.873,128.072 179.235,130.328 C173.01,133.354 168.574,135.39 166.577,141.616 C164.36,148.524 163.015,155.62 162.265,162.753 C160.976,175.008 161.961,187.243 162.067,199.516 C162.229,218.105 159.897,236.702 157.635,255.097 C157.554,255.76 157.476,256.456 157.727,257.075 C158.481,258.926 161.661,260.173 163.295,261.017 C171.362,265.185 179.964,266.307 188.892,266.849 C198.206,267.413 207.81,267.564 217.238,267.269 C225.908,266.998 234.638,266.081 242.668,262.593 C243.535,262.217 244.444,261.768 244.914,260.947 C246.213,258.674 245.247,253.96 245.169,251.452 C245.05,247.623 244.845,243.798 244.613,239.975 C244.159,232.465 243.593,224.96 243.336,217.44 C242.897,204.639 246.513,190.75 249.883,178.475 C249.919,178.346 249.954,178.217 249.989,178.088 C251.094,174.094 253.029,168.872 254.532,163.381" id="Fill-135" fill="#76C4D2" mask="url(#mask-2)"></path>
        </g>
        <g id="Group-139" transform="translate(162.000000, 131.000000)">
            <mask id="mask-4" fill="white">
                <use xlink:href="#path-3"></use>
            </mask>
            <g id="Clip-138"></g>
            <path d="M65.442,13.884 C68.25,9.354 68.888,3.695 65.211,-0.668 C63.528,-2.664 60.555,-2.887 58.012,-2.933 C53.005,-3.023 47.987,-2.513 43.112,-1.419 C38.466,-0.376 33.727,1.39 31.715,5.889 C30.219,9.231 30.741,13.099 32.711,16.157 C34.501,18.935 37.469,20.99 40.781,21.747 C46.129,22.968 52.388,22.804 57.491,20.749 C60.688,19.462 63.555,16.929 65.442,13.884" id="Fill-137" fill="#60ADC8" mask="url(#mask-4)"></path>
        </g>
        <g id="Group-153" transform="translate(5.000000, 8.000000)">
            <mask id="mask-6" fill="white">
                <use xlink:href="#path-5"></use>
            </mask>
            <g id="Clip-141"></g>
            <path d="M211.985,139.877 C215.594,138.72 218.565,136.477 219.679,132.91 C220.689,129.674 219.096,126.034 218.812,122.768 C218.541,119.64 218.505,116.491 218.711,113.358 C218.901,110.461 219.178,107.443 218.732,104.556 C218.479,102.905 217.573,103.187 215.903,102.531 C214.235,101.876 212.362,101.87 210.547,101.874 C206.832,101.883 197.149,101.613 194.853,104.873 C193.8,106.37 193.717,108.253 193.667,110.034 C193.606,112.185 193.225,114.971 192.873,117.972 C192.717,119.308 192.813,120.639 192.608,121.965 C192.38,123.451 191.815,124.875 191.321,126.299 C189.453,131.681 191.202,136.799 197.022,139.264 C201.198,141.031 207.16,141.425 211.985,139.877" id="Fill-140" fill="#ED9B76" mask="url(#mask-6)"></path>
            <path d="M218.714,104.556 C218.461,102.905 217.555,103.187 215.885,102.531 C214.217,101.876 212.343,101.87 210.528,101.874 C206.813,101.883 197.131,101.613 194.835,104.873 C193.781,106.37 193.698,108.253 193.648,110.034 C193.588,112.185 193.207,114.971 192.854,117.972 C192.697,119.308 192.795,120.639 192.59,121.965 C192.415,123.097 192.047,124.191 191.663,125.278 C195.263,126.615 199.33,126.914 203.087,125.989 C209.853,124.323 214.977,120.111 218.633,114.636 C218.652,114.209 218.664,113.783 218.692,113.357 C218.883,110.461 219.159,107.443 218.714,104.556" id="Fill-142" fill="#D77158" mask="url(#mask-6)"></path>
            <path d="M256.467,204.404 C255.085,210.312 253.444,216.163 251.61,221.938 C250.814,224.443 250.01,226.97 248.702,229.249 C246.183,233.638 241.947,236.728 237.072,237.941 C234.112,238.678 230.781,237.637 228.767,235.346 C226.359,232.607 225.999,228.677 225.834,225.033 C225.155,210.037 225.897,195.038 227.139,180.091 C227.555,175.078 228.198,170.085 229.066,165.131 C230.591,156.437 235.4,130.868 249.603,135.946 C256.633,138.46 259.385,145.409 260.297,152.285 C260.852,156.473 261.108,160.697 261.149,164.92 C261.28,178.241 259.493,191.462 256.467,204.404" id="Fill-143" fill="#60ADC8" mask="url(#mask-6)"></path>
            <path d="M184.747,126.437 C183.939,125.549 183.227,124.58 182.661,123.491 C180.811,119.936 180.691,114.87 183.379,111.727 C185.09,109.727 186.368,107.534 185.866,104.827 C185.127,100.846 181.822,97.268 178.334,95.411 C173.219,92.689 167.123,92.097 161.425,91.918 C157.566,91.797 153.664,91.088 152.093,87.094 C151.246,84.938 151.148,82.589 150.812,80.323 C150.096,75.492 149.278,70.67 148.094,65.929 C146.729,60.462 142.617,55.441 138.236,52.003 C137.607,51.51 136.959,51.041 136.292,50.599 C125.138,43.198 105.688,42.053 95.008,50.916 C91.366,53.937 89.025,58.254 88.599,62.975 C88.315,66.129 87.539,66.876 84.6,68.103 C79.263,70.335 73.136,72.142 69.151,76.593 C66.035,80.074 64.919,85.003 65.811,89.546 C66.95,95.344 71.309,97.754 74.682,102.114 C78.125,106.564 76.341,112.748 73.239,116.988 C70.849,120.253 67.262,122.813 66.106,126.69 C65.042,130.258 66.342,134.14 68.337,137.282 C69.144,138.556 70.067,139.757 70.8,141.075 C73.029,145.087 73.318,150.122 71.562,154.362" id="Stroke-144" stroke="#4F3428" mask="url(#mask-6)"></path>
            <path d="M124.837,169.537 C131.261,163.645 137.492,157.54 144.058,151.805 C152.206,144.686 161.187,136.627 172.057,134.454 C172.11,134.443 172.169,134.438 172.222,134.429 C174.277,132.931 176.777,131.734 179.67,130.328 C182.183,129.105 184.763,127.938 187.421,126.939 C184.752,124.215 182.567,121.298 182.555,117.591 C182.545,114.038 184.69,110.745 184.691,107.192 C184.693,102.946 181.572,99.231 177.888,97.123 C174.202,95.015 169.961,94.155 165.881,92.983 C161.8,91.81 157.642,90.183 154.845,86.989 C151.513,83.186 151.054,78.354 150.528,73.558 C150.047,69.169 147.898,65.557 145.069,62.096 C137.085,52.33 124.416,46.927 111.897,46.9717212 C106.264,46.993 99.853,47.791 95.264,51.187 C89.845,55.198 88.797,60.477 85.057,65.612 C82.959,68.494 79.563,68.842 76.646,70.428 C73.397,72.193 70.724,75.089 69.211,78.459 C67.149,83.046 67.347,88.41 69.205,93.038 C71.046,97.626 75.373,101.204 75.94,106.299 C76.715,113.259 69.776,118.771 68.641,125.682 C67.306,133.806 76.144,137.548 73.67,145.381 C72.596,148.777 70.436,151.787 69.647,155.261 C68.141,161.895 72.061,168.756 77.384,172.993 C82.836,177.334 90.121,179.671 96.932,178.195 C105.52,176.336 112.475,170.781 121.428,169.763 C122.594,169.63 123.726,169.56 124.837,169.537" id="Fill-145" fill="#4F3428" mask="url(#mask-6)"></path>
            <path d="M162.005,179.242 C162.024,179.242 162.044,179.243 162.063,179.243 C162.063,179.228 162.063,179.214 162.063,179.199 C162.044,179.213 162.024,179.228 162.005,179.242" id="Fill-146" fill="#4F3428" mask="url(#mask-6)"></path>
            <path d="M101.434,169.014 C102.665,164.34 103.112,159.255 101.758,154.712 C100.503,150.502 97.882,146.649 94.213,144.232 C92.355,143.008 88.465,143.955 86.408,144.464 C83.938,145.076 81.474,146.162 79.893,148.175 C78.31,150.191 76.895,152.047 75.802,154.399 C70.498,165.807 65.17,177.249 60.084,188.791 C56.895,196.026 53.223,203.064 50.584,210.532 C48.634,216.049 46.612,222.034 46.6288935,227.946 C46.639,231.945 47.88,236.764 51.492,238.976 C55.298,241.306 60.114,240.379 63.923,238.535 C74.819,233.26 79.683,218.963 84.758,208.695 C90.475,197.128 95.602,185.268 100.109,173.178 C100.605,171.847 101.057,170.449 101.434,169.014" id="Fill-147" fill="#ED9B76" mask="url(#mask-6)"></path>
            <path d="M72.962,223.295 C73.394,223.458 73.717,223.794 74.194,223.867 C75.247,224.029 75.198,223.284 75.461,222.395 C76.339,219.425 76.936,216.39 77.307,213.315 C77.645,210.517 78.471,207.823 78.916,205.041 C79.311,202.562 79.356,199.953 78.442,197.615 C77.912,196.257 76.863,194.901 75.409,194.796 C74.368,194.72 73.376,195.326 72.703,196.122 C72.03,196.919 71.614,197.894 71.17,198.838 C68.856,203.748 65.456,208.181 61.208,211.572 C57.092,214.859 51.877,216.236 47.782,219.463 C47.088,222.268 46.621,225.115 46.6288988,227.946 C46.639,231.945 47.88,236.764 51.492,238.976 C52.18,239.397 52.902,239.709 53.645,239.931 C53.818,239.88 53.988,239.818 54.15,239.728 C55.311,239.084 56.056,237.473 56.891,236.463 C57.877,235.272 58.934,234.143 60.056,233.081 C62.493,230.775 65.121,228.703 67.272,226.081 C67.897,225.318 68.501,224.515 69.307,223.947 C70.321,223.235 71.772,222.847 72.962,223.295" id="Fill-148" fill="#D77158" mask="url(#mask-6)"></path>
            <path d="M84.746,176.131 C84.472,175.417 83.836,174.908 83.186,174.503 C82.341,173.974 81.447,173.757 80.515,173.434 C78.698,172.805 76.993,171.857 75.494,170.654 C74.773,170.076 74.204,169.497 73.689,168.75 C73.305,168.194 72.535,167.496 72.545,166.777 C72.561,165.585 73.127,164.684 73.936,163.873 C75.387,162.423 76.247,160.399 76.287,158.349 C76.318,156.789 75.232,157.193 74.165,157.923 C70.358,166.111 66.561,174.323 62.856,182.578 C63.969,184.493 66.138,186.533 67.352,187.75 C68.2,188.601 69.115,189.404 70.179,189.963 C71.418,190.613 74.919,192.238 76.293,192.093 C77.306,191.984 78.105,190.584 77.336,189.915 C77.896,190.301 78.644,190.345 79.277,190.105 C79.669,189.957 80.016,189.7 80.249,189.349 C80.856,188.431 80.558,187.037 79.628,186.447 C80.26,186.834 81.127,186.691 81.695,186.217 C83.902,184.375 81.374,182.881 80.057,181.586 C79.08,180.625 78.077,179.687 77.139,178.685 C76.189,177.668 75.711,176.594 74.921,175.477 C77.425,177.026 80.281,178.231 83.271,178.213 C83.545,178.211 83.825,178.199 84.078,178.095 C84.784,177.801 85.019,176.846 84.746,176.131" id="Fill-149" fill="#D77158" mask="url(#mask-6)"></path>
            <path d="M75.251,176.881 C75.464,176.492 75.674,176.101 75.88,175.708 C78.833,170.093 81.118,164.163 83.452,158.273 C84.62,155.325 85.8,152.381 87.085,149.481 C87.726,148.034 88.393,146.598 89.097,145.18 C89.315,144.741 90.5,141.556 90.938,141.465 C87.785,142.12 84.632,142.774 81.477,143.429 C79.203,143.901 76.91,144.375 74.587,144.403 C76.608,147.181 77.425,150.357 76.76,153.768 C76.424,155.493 75.731,157.134 75.4,158.86 C75.087,160.492 75.102,162.166 75.119,163.828 C75.163,168.179 75.207,172.53 75.251,176.881" id="Fill-150" fill="#E15E62" mask="url(#mask-6)"></path>
            <path d="M152.033,133.254 C153.593,141.013 152.713,147.164 146.183,152.159 C140.983,156.138 134.333,158.227 128.08,159.377 C117.594,161.306 105.433,160.451 96.386,154.305 C94.744,153.189 93.111,151.762 92.697,149.82 C92.321,148.056 93.034,146.224 92.839,144.43 C92.508,141.404 89.779,139.288 88.289,136.635 C86.32,133.131 86.598,128.826 87.238,124.857 C87.878,120.89 88.823,116.836 88.009,112.9 C86.952,107.795 83.149,103.795 79.958,99.671 C76.767,95.548 73.949,90.363 75.318,85.333 C76.221,82.018 79.167,79.112 82.503,78.197 C86.027,77.229 89.901,80.818 92.557,82.712 C96.132,85.261 100.001,87.393 104.064,89.055 C109.683,91.352 115.676,92.755 121.062,95.554 C124.322,97.248 127.921,99.713 129.859,102.928 C132.043,106.551 129.888,110.734 133.776,113.768 C136.285,115.727 139.701,115.985 142.576,117.351 C148.728,120.272 150.802,127.129 152.033,133.254" id="Fill-151" fill="#36221F" mask="url(#mask-6)"></path>
            <path d="M57.705,247.075 C56.5,260.856 57.037,274.796 57.178,288.648 C57.187,289.577 57.198,290.518 57.455,291.41 C57.996,293.288 59.55,294.701 61.187,295.768 C66.201,299.032 72.35,299.922 78.286,300.667 C92.882,302.501 107.535,302.977 122.133,304.477 C135.644,305.865 149.035,311.703 162.779,309.093 C163.436,308.968 164.15,308.786 164.547,308.247 C164.897,307.769 164.910042,307.133 164.910042,306.54 C164.895,295.451 164.256,284.865 161.697,274.018 C160.132,267.381 157.276,261.227 155.656,254.619 C152.239,240.688 150.35,226.406 151.752,212.067 C153.042,198.858 156.267,185.887 159.312,172.999 C159.344,172.867 159.375,172.736 159.406,172.604 C161.556,163.495 162.673,154.176 157.798,147.971 C154.809,144.169 149.196,142.184 144.836,140.42 C141.219,138.957 137.537,137.659 133.932,136.167 C130.38,134.695 126.931,132.924 123.247,131.793 C122.05,131.426 120.837,131.095 119.596,130.921 C114.927,130.268 110.555,132.231 106.536,134.363 C101.271,137.156 95.304,138.609 90.188,141.64 C84.653,144.917 82.958,151.322 80.673,156.893 C78.352,162.552 76.237,168.295 74.346,174.111 C72.635,179.377 70.694,184.903 71.084,190.527 C71.448,195.783 74.437,199.356 75.636,204.22 C76.913,209.404 73.023,214.27 69.73,218.474 C65.405,223.993 61.648,230.067 59.607,236.775 C58.585,240.135 58.011,243.584 57.705,247.075" id="Fill-152" fill="#E47479" mask="url(#mask-6)"></path>
        </g>
        <g id="Group-158" transform="translate(61.000000, 138.000000)">
            <mask id="mask-8" fill="white">
                <use xlink:href="#path-7"></use>
            </mask>
            <g id="Clip-155"></g>
            <path d="M79.206,18.346 C81.695,15.822 83.585,12.806 84.487,9.353 C84.878,7.855 85.053,6.174 84.277,4.834 C83.588,3.643 82.288,2.959 81.033,2.394 C69.899,-2.615 55.102,-1.961 43.972,3.138 C42.65,3.744 41.313,4.461 40.447,5.63 C39.512,6.893 39.241,8.534 39.2439754,10.106 C39.252,15.557 42.772,20.54 47.177,23.574 C53.035,27.61 60.201,27.829 66.805,25.722 C71.394,24.258 75.846,21.751 79.206,18.346" id="Fill-154" fill="#ED9B76" mask="url(#mask-8)"></path>
            <path d="M106.354,98.203 C106.632,98.304 106.908,98.406 107.184,98.512 C106.812,98.37 107.458,85.281 107.458,84.366 C107.444,81.581 109.205,75.498 107.215,73.174 C104.771,70.321 98.753,73.983 95.173,74.736 C84.507,76.98 73.334,76.834 62.743,74.241 C58.883,73.297 55.075,72.031 51.119,71.654 C45.532,71.121 39.95,72.382 34.36,72.883 C27.624,73.486 20.797,72.954 14.273,71.347 C13.774,72.444 9.572,85.221 9.844,85.333 C39.986,97.865 75.736,87.033 106.354,98.203" id="Fill-156" fill="#E15E62" mask="url(#mask-8)"></path>
            <path d="M35.729,7.464 C34.827,13.337 37.631,20.263 41.423,24.742 C46.066,30.227 53.769,32.21 60.77,31.94 C77.074,31.313 87.206,16.739 92.325,3.059 C92.606,2.307 92.879,1.551 93.144,0.794" id="Stroke-157" stroke="#E15E62" mask="url(#mask-8)"></path>
        </g>
        <g id="Group-190" transform="translate(5.000000, 8.000000)">
            <mask id="mask-10" fill="white">
                <use xlink:href="#path-9"></use>
            </mask>
            <g id="Clip-160"></g>
            <path d="M169.687,163.609 C169.393,162.737 169.065,161.875 168.769,161.004 C167.921,158.515 167.525,156.119 167.465,153.493 C167.426,151.786 167.029,150.117 166.623,148.467 C166.404,147.581 166.157,145.4 165.034,145.178 C164.608,145.093 163.742,145.559 163.324,145.677 C160.169,146.572 157.661,148.911 155.285,151.172 C155.03,151.415 154.766,151.671 154.653,152.003 C154.523,152.387 154.614,152.806 154.705,153.199 C154.902,154.051 155.096,154.902 155.288,155.754 C156.415,160.768 157.45,165.801 158.527,170.825 C159.064,173.33 159.611,175.834 160.184,178.331 C160.464,179.547 160.742,180.764 161.04,181.974 C161.305,183.053 161.804,183.038 162.765,182.479 C168.987,178.875 172.026,170.873 169.829,164.038 C169.782,163.894 169.735,163.752 169.687,163.609" id="Fill-159" fill="#E15E62" mask="url(#mask-10)"></path>
            <path d="M98.06,61.078 C100.288,59.478 102.869,58.367 105.56,57.784 C108.249,57.166 111.025,57.004 113.779,57.097 C116.528,57.223 119.285,57.576 121.957,58.316 C124.627,59.048 127.2,60.137 129.596,61.533 C134.397,64.305 138.466,68.403 141.078,73.329 C142.375,75.789 143.323,78.451 143.845,81.181 C144.383,83.908 144.596,86.67 144.772,89.407 C144.94,92.143 145.054,94.884 145.433,97.556 C145.842,100.185 146.62,102.889 148.458,104.738 C149.365,105.658 150.533,106.268 151.805,106.564 C153.079,106.868 154.428,106.905 155.782,106.882 C158.494,106.766 161.325,106.764 164.052,107.266 C166.771,107.733 169.534,108.58 171.762,110.357 C172.877,111.239 173.716,112.468 174.183,113.807 L174.471,114.835 L174.56,115.893 C174.612,116.247 174.585,116.598 174.543,116.947 L174.443,117.995 C174.204,119.393 173.614,120.664 173.089,121.921 C172.547,123.173 172.134,124.467 171.913,125.811 C171.452,128.496 171.772,131.281 172.575,133.896 C171.67,131.316 171.249,128.517 171.65,125.77 C171.837,124.402 172.226,123.056 172.739,121.779 C173.234,120.501 173.772,119.238 173.96,117.918 L174.033,116.918 C174.067,116.585 174.089,116.252 174.033,115.924 L173.934,114.935 L173.651,113.99 C173.196,112.765 172.419,111.655 171.363,110.848 C169.256,109.221 166.582,108.432 163.928,108.025 C161.242,107.588 158.556,107.626 155.8,107.746 C154.419,107.776 153.002,107.753 151.601,107.428 C150.204,107.115 148.846,106.42 147.818,105.386 C146.778,104.365 146.052,103.088 145.54,101.773 C145.022,100.453 144.707,99.078 144.489,97.702 C144.083,94.946 143.955,92.202 143.775,89.469 C143.616,86.739 143.418,84.019 142.908,81.362 C142.415,78.705 141.515,76.143 140.274,73.752 C137.781,68.962 133.829,64.998 129.207,62.191 C126.889,60.79 124.389,59.682 121.784,58.922 C119.181,58.15 116.473,57.764 113.754,57.583 C111.038,57.418 108.291,57.503 105.616,58.041 C102.939,58.556 100.349,59.567 98.06,61.078" id="Fill-161" fill="#A97F74" mask="url(#mask-10)"></path>
            <path d="M190.704,222.8 C199.601,219.712 208.46,216.478 217.522,214.046 C218.664,213.74 219.808,213.448 220.957,213.172 C222.047,212.91 223.14,212.661 224.235,212.424 C228.863,211.422 233.757,210.672 238.445,212.764 C243.133,214.854 247.483,220.645 247.336,226.771 C247.232,231.075 244.962,234.589 242.148,236.568 C239.589,238.37 236.572,239.151 233.6,239.723 C230.168,240.383 226.741,241.074 223.32,241.797 C209.66,244.683 196.232,248.492 182.644,251.672 C179.055,252.512 175.449,253.264 171.819,253.902 C168.888,254.418 165.886,254.643 163.135,252.635 C158.483,249.251 155.296,238.927 159.175,234.15 C161.297,231.537 164.702,230.918 167.602,230.072 C170.972,229.091 174.34,228.101 177.7,227.083 C182.062,225.762 186.388,224.298 190.704,222.8" id="Fill-162" fill="#60ADC8" mask="url(#mask-10)"></path>
            <path d="M183.088,210.833 C178.763,196.827 173.9,182.984 168.394,169.398 C165.337,161.854 161.811,146.983 152.283,145.299 C148.541,144.637 144.67,146.619 142.325,149.609 C135.123,158.8 138.526,171.095 141.748,181.06 C146.021,194.28 152.661,206.42 157.34,219.393 C158.783,223.395 160.716,227.432 163.692,230.531 C166.232,233.176 170.113,236.269 173.83,236.335 C179.085,236.428 184.892,236.05 186.223,229.918 C187.569,223.721 184.89,216.675 183.088,210.833" id="Fill-163" fill="#ED9B76" mask="url(#mask-10)"></path>
            <path d="M122.57,149.1 C125.883,147.942 128.611,145.699 129.633,142.134 C130.56,138.897 129.098,135.257 128.838,131.991 C128.588,128.862 128.555,125.715 128.744,122.581 C128.919,119.684 129.173,116.666 128.763,113.778 C128.532,112.128 127.7,112.41 126.168,111.755 C124.637,111.1 122.917,111.093 121.251,111.098 C117.841,111.106 108.953,110.837 106.846,114.097 C105.879,115.593 105.803,117.476 105.757,119.257 C105.701,121.408 105.351,124.193 105.028,127.194 C104.884,128.53 104.973,129.862 104.785,131.188 C104.575,132.675 104.057,134.099 103.603,135.521 C101.888,140.903 103.494,146.022 108.837,148.486 C112.67,150.255 118.142,150.647 122.57,149.1" id="Fill-164" fill="#ED9B76" mask="url(#mask-10)"></path>
            <path d="M128.747,113.778 C128.514,112.128 127.682,112.41 126.15,111.755 C124.619,111.1 122.899,111.093 121.233,111.098 C117.824,111.106 108.936,110.837 106.829,114.097 C105.861,115.593 105.786,117.476 105.739,119.257 C105.684,121.408 105.335,124.193 105.011,127.194 C104.867,128.53 104.956,129.862 104.768,131.188 C104.608,132.319 104.269,133.415 103.917,134.502 C107.221,135.839 110.955,136.137 114.403,135.212 C120.614,133.546 125.318,129.335 128.673,123.858 C128.69,123.433 128.701,123.007 128.727,122.581 C128.902,119.684 129.156,116.666 128.747,113.778" id="Fill-165" fill="#D77158" mask="url(#mask-10)"></path>
            <path d="M131.269,90.782 C130.463,85.888 129.05,81.349 127.178,77.689 C119.098,61.902 97.678,61.083 87.065,75.018 C75.232,90.557 85.623,121.576 102.089,130.44 C106.491,132.81 111.996,133.016 116.563,130.98 C130.383,124.82 133.787,106.071 131.269,90.782" id="Fill-166" fill="#ED9B76" mask="url(#mask-10)"></path>
            <path d="M127.178,77.689 C119.098,61.902 97.678,61.083 87.065,75.018 C84.721,78.096 83.262,81.786 82.536,85.787 C82.884,86.175 83.263,86.558 83.707,86.932 C85.737,88.646 88.312,89.569 90.87,90.294 C98.343,92.408 106.146,93.106 113.91,93.323 C114.482,93.34 115.056,93.353 115.632,93.375 C117.772,93.455 119.914,93.641 121.895,94.421 C127.498,96.629 126.348,103.621 130.563,105.936 C130.945,106.146 131.314,106.262 131.677,106.328 C132.277,101.149 132.093,95.782 131.269,90.782 C130.463,85.888 129.05,81.349 127.178,77.689" id="Fill-167" fill="#D77158" mask="url(#mask-10)"></path>
            <path d="M116.327,91.278 C118.427,91.699 120.512,92.224 122.343,93.31 C127.522,96.383 125.271,103.102 129.063,106.06 C132.423,108.682 136.139,103.924 136.831,100.901 C138.105,95.333 137.058,89.526 136.009,83.911 C135.423,80.779 134.823,77.604 133.425,74.742 C131.898,71.62 129.474,69.003 126.742,66.855 C118.854,60.655 108.089,58.488 98.346,60.669 C90.725,62.375 78.25,70.983 85.838,79.825 C87.569,81.843 89.964,83.164 92.373,84.287 C99.413,87.566 107.006,89.5 114.635,90.953 C115.197,91.06 115.763,91.165 116.327,91.278" id="Fill-168" fill="#4F3428" mask="url(#mask-10)"></path>
            <path d="M128.604,91.626 C134.44,87.119 137.81,95.654 137.409,100.231 C137.244,102.122 136.806,104.01 135.915,105.685 C134.715,107.94 130.896,111.973 128.043,110.165 C126.747,109.346 126.361,107.665 126.086,106.156 C125.348,102.112 124.649,94.682 128.604,91.626" id="Fill-169" fill="#ED9B76" mask="url(#mask-10)"></path>
            <path d="M223.611,106.726 C221.134,109.173 218.251,111.074 214.813,111.896 C208.267,113.462 202.077,110.635 196.571,107.363 C190.688,103.866 184.82,100.322 179.263,96.318 C175.29,93.456 171.221,90.413 168.721,86.102 C165.821,81.103 165.595,75.061 166.12,69.444 C166.479,65.608 164.657,62.186 163.833,58.541 C162.23,51.443 163.716,43.03 170.308,38.885 C173.674,36.768 177.22,37.041 180.799,38.538 C183.541,39.684 186.103,41.29 188.971,42.074 C195.074,43.743 201.652,41.296 207.601,40.01 C211.91,39.08 216.626,38.567 220.897,39.95 C225.652,41.488 227.941,44.933 230.568,48.92 C232.814,52.328 236.195,54.882 238.898,57.907 C242.52,61.959 243.661,67.118 242.508,72.399 C240.815,80.148 236.434,86.838 232.64,93.659 C230.214,98.02 227.381,103.004 223.611,106.726" id="Fill-170" fill="#36221F" mask="url(#mask-10)"></path>
            <path d="M214.045,106.617 C213.21,107.526 212.233,108.294 211.126,108.856 C208.268,110.309 204.828,110.273 201.755,109.363 C198.682,108.453 195.914,106.737 193.279,104.914 C186.15,99.982 177.329,93.452 173.039,85.805 C170.394,81.092 168.412,75.516 170.846,70.317 C172.936,65.852 177.242,62.526 182.202,62.009 C182.608,61.967 183.036,61.945 183.405,62.117 C183.824,62.312 184.096,62.72 184.34,63.111 C186.16,66.033 187.62,69.221 189.836,71.881 C192.246,74.774 195.213,76.926 198.442,78.842 C203.663,81.939 209.384,84.206 214.302,87.766 C217.852,90.337 218.004,96.2 217.185,100.278 C216.718,102.612 215.643,104.875 214.045,106.617" id="Fill-171" fill="#211614" mask="url(#mask-10)"></path>
            <path d="M76.467,224.165 C75.537,223.437 74.38,223.022 73.422,222.331 C72.733,221.834 71.389,221.29 70.915,220.583 C70.739,220.321 70.665,220.007 70.596,219.698 C70.227,218.034 69.93,216.314 70.198,214.632 C71.159,208.587 77.313,210.476 81.579,209.554 C82.82,209.285 84.041,208.934 85.317,208.715 C88.156,208.229 91,207.555 93.874,208.081 C96.237,208.514 98.613,208.949 100.879,209.749 C101.711,210.043 102.525,210.385 103.317,210.772 C103.461,210.843 103.616,210.929 103.667,211.08 C103.753,211.34 103.48,211.571 103.235,211.692 C101.634,212.478 99.58,212.415 97.845,212.311 C95.749,212.187 93.654,212.063 91.558,211.939 C92.659,213.544 94.325,214.681 96.073,215.535 C97.82,216.389 99.678,216.995 101.461,217.772 C103.901,218.836 106.201,220.222 108.282,221.882 C109.172,222.591 110.079,223.454 110.218,224.583 C110.24,224.761 110.238,224.955 110.135,225.102 C110.059,225.209 109.94,225.276 109.822,225.332 C108.821,225.803 107.623,225.664 106.597,225.246 C105.573,224.829 104.676,224.158 103.754,223.546 C101.449,222.013 98.928,220.808 96.287,219.977 C97.994,220.97 99.701,221.963 101.407,222.956 C103.382,224.104 105.368,225.262 107.098,226.751 C108.147,227.655 109.141,228.764 109.362,230.132 C109.386,230.276 109.397,230.435 109.323,230.562 C109.251,230.685 109.113,230.752 108.979,230.8 C107.687,231.268 106.283,230.608 105.086,229.935 C101.228,227.765 97.545,225.249 93.466,223.532 C97.074,225.857 100.683,228.183 104.292,230.508 C105.055,231 105.929,231.81 105.576,232.646 C105.454,232.935 105.198,233.149 104.918,233.29 C103.692,233.9 102.249,233.193 101.064,232.506 C97.296,230.317 93.426,228.146 89.166,227.226 C90.763,228.759 92.361,230.291 93.959,231.823 C94.348,232.197 94.75,232.589 94.936,233.096 C95.122,233.602 95.021,234.259 94.564,234.545 C94.01,234.893 93.295,234.553 92.731,234.22 C87.241,230.971 81.491,228.098 76.467,224.165" id="Fill-172" fill="#ED9B76" mask="url(#mask-10)"></path>
            <path d="M186.315,49.674 C191.671,49.996 196.873,48.829 202.103,47.753 C204.741,47.258 207.423,47.019 210.105,46.932 C211.447,46.891 212.791,46.897 214.133,46.95 C215.467,47.008 216.829,47.069 218.183,47.349 C220.891,47.904 223.445,49.365 225.122,51.659 C225.964,52.856 226.203,54.33 226.291,55.668 C226.385,57.019 226.346,58.338 226.616,59.585 C227.04,62.145 229.353,63.874 230.587,66.326 C231.185,67.57 231.43,68.933 231.496,70.27 C231.567,71.614 231.459,72.948 231.336,74.274 C231.361,71.641 231.424,68.851 230.151,66.55 C229.532,65.412 228.638,64.435 227.797,63.387 C226.957,62.355 226.161,61.132 225.866,59.757 C225.519,58.402 225.525,57.03 225.429,55.73 C225.327,54.436 225.093,53.169 224.369,52.171 C224.03,51.671 223.579,51.218 223.091,50.795 C222.609,50.375 222.094,49.997 221.549,49.669 C220.455,49.015 219.238,48.586 217.979,48.327 C216.723,48.051 215.415,47.975 214.091,47.902 C212.771,47.836 211.449,47.815 210.128,47.839 C207.483,47.882 204.847,48.139 202.227,48.508 C199.622,48.914 196.979,49.458 194.319,49.721 C191.656,49.97 188.961,50.034 186.315,49.674" id="Fill-173" fill="#A97F74" mask="url(#mask-10)"></path>
            <path d="M137.363,174.693 C136.726,172.632 136.063,170.466 135.817,168.315 C135.64,166.768 136.138,165.24 136.364,163.698 C136.946,159.732 138.173,155.863 139.963,152.277 C141.09,150.018 142.441,147.871 143.998,145.883 C145.146,144.416 146.712,141.676 148.956,142.046 C151.086,142.397 154.792,144.234 156.808,145.001 C159.423,145.994 162.38,146.058 165.034,145.178 C163.967,146.719 162.674,148.104 161.21,149.276 C159.779,150.422 158.191,151.36 156.766,152.513 C152.706,155.796 150.999,160.642 149.892,165.567 C147.905,174.415 146.765,183.811 147.858,192.859 C147.985,193.913 148.515,199.914 149.55,200.289 C148.82,200.024 148.305,199.383 147.835,198.766 C145.493,195.688 142.926,192.581 142.061,188.729 C140.988,183.946 138.817,179.394 137.363,174.693" id="Fill-174" fill="#E47479" mask="url(#mask-10)"></path>
            <path d="M223.004,84.565 C222.925,79.605 222.193,74.907 220.879,71.014 C215.205,54.211 194.136,50.256 181.594,62.482 C167.607,76.116 173.332,108.325 188.318,119.511 C192.325,122.501 197.739,123.513 202.556,122.169 C217.131,118.104 223.25,100.059 223.004,84.565" id="Fill-175" fill="#ED9B76" mask="url(#mask-10)"></path>
            <path d="M220.879,71.014 C215.205,54.211 194.136,50.256 181.594,62.482 C180.009,64.026 178.69,65.819 177.596,67.783 C178.347,68.412 179.138,68.948 179.832,69.356 C185.199,72.511 191.025,74.882 197.068,76.372 C199.668,77.013 202.402,77.534 204.543,79.142 C205.771,80.063 206.702,81.264 207.458,82.597 C208.366,84.2 209.022,85.996 209.638,87.736 C210.987,91.552 211.604,95.57 212.176,99.56 C212.234,99.975 212.311,100.423 212.619,100.706 C212.911,100.976 213.343,101.027 213.74,101.013 C216.071,100.93 217.174,98.684 218.977,97.481 C220.063,96.758 221.147,96.019 222.177,95.22 C222.789,91.664 223.059,88.05 223.004,84.565 C222.925,79.605 222.193,74.907 220.879,71.014" id="Fill-176" fill="#D77158" mask="url(#mask-10)"></path>
            <path d="M209.83,81.921 C210.523,83.628 210.94,85.494 211.325,87.3 C212.17,91.257 212.261,95.322 212.31,99.352 C212.315,99.77 212.333,100.225 212.601,100.546 C212.856,100.852 213.277,100.958 213.673,100.995 C215.996,101.215 217.38,99.13 219.324,98.172 C221.342,97.178 223.377,96.172 225.133,94.767 C230.135,90.767 228.918,84.259 228.7,78.464 C228.581,75.28 228.454,72.052 227.49,69.016 C226.439,65.703 224.426,62.758 222.038,60.232 C215.145,52.942 204.815,49.219 194.857,49.946 C189.927,50.305 184.381,52.449 180.901,56.037 C177.9,59.131 181.635,63.255 184.152,65.214 C189.065,69.036 194.535,72.142 200.335,74.402 C202.829,75.375 205.472,76.246 207.387,78.116 C208.485,79.19 209.253,80.5 209.83,81.921" id="Fill-177" fill="#36221F" mask="url(#mask-10)"></path>
            <path d="M220.244,85.009 C226.679,81.407 228.759,90.345 227.69,94.813 C227.249,96.659 226.54,98.462 225.412,99.988 C223.893,102.043 219.525,105.472 216.967,103.265 C215.806,102.264 215.671,100.544 215.62,99.012 C215.484,94.903 215.883,87.45 220.244,85.009" id="Fill-178" fill="#ED9B76" mask="url(#mask-10)"></path>
            <path d="M168.695,241.667 C168.585,240.071 168.137,238.499 167.373,237.093 C166.472,235.435 164.882,233.896 162.996,233.992 C160.135,234.137 159.449,235.114 157.013,233.213 C155.202,231.798 153.401,230.484 151.113,229.971 C148.735,229.436 146.276,229.311 143.907,228.737 C142.522,228.401 141.18,227.915 139.832,227.451 C139.113,227.204 138.252,226.925 137.722,227.678 C137.449,228.066 137.394,228.575 137.467,229.045 C137.804,231.221 140.365,232.241 142.163,232.923 C143.616,233.475 145.223,233.468 146.712,234.004 C147.395,234.25 148.165,234.689 148.202,235.415 C148.246,236.252 147.305,236.762 146.496,236.979 C144.763,237.447 142.957,237.553 141.165,237.655 C140.492,237.694 139.815,237.733 139.144,237.667 C135.595,237.315 132.27,235.521 128.775,234.768 C127.817,234.56 126.545,234.551 126.165,235.455 C125.826,236.263 126.542,237.141 127.318,237.547 C126.219,237.316 124.819,237.203 124.222,238.155 C123.786,238.852 124.066,239.815 124.641,240.402 C125.217,240.989 126.016,241.288 126.788,241.57 C130.202,242.817 133.632,244.069 137.191,244.807 C135.016,244.906 132.825,244.63 130.742,243.993 C129.524,243.621 128.303,243.12 127.03,243.181 C126.668,243.197 126.274,243.279 126.046,243.56 C125.763,243.907 125.846,244.445 126.116,244.801 C126.387,245.156 126.8,245.37 127.203,245.562 C129.588,246.697 132.125,247.474 134.651,248.246 C133.52,248.096 132.388,247.945 131.258,247.795 C130.76,247.729 130.25,247.663 129.761,247.778 C129.272,247.893 128.804,248.228 128.678,248.714 C128.557,249.182 128.782,249.685 129.13,250.019 C129.476,250.354 129.93,250.554 130.376,250.738 C134.328,252.371 138.542,253.367 142.806,253.682 C144.492,253.806 146.316,253.799 148.014,253.737 C149.844,253.671 151.674,253.277 153.288,252.393 C155.435,251.215 157.601,249.958 159.902,249.099 C161.926,248.342 163.784,248.799 165.775,248.317 C167.288,247.95 168.138,246.329 168.471,244.809 C168.695,243.779 168.768,242.719 168.695,241.667" id="Fill-179" fill="#D77158" mask="url(#mask-10)"></path>
            <path d="M168.23,67.557 C165.375,59.803 159.742,53.59 162.86,44.829 C164.698,39.664 169.48,36.266 174.941,36.129 C177.509,36.065 180.086,36.681 182.329,37.935 C185.009,39.435 186.761,41.908 189.866,42.711 C197.147,44.595 204.612,38.984 211.541,37.625 C218.401,36.279 225.734,38.462 229.161,44.989 C230.513,47.564 231.107,50.548 232.874,52.858 C235.825,56.716 241.504,57.989 243.851,62.241 C247.683,69.185 240.052,79.343 236.171,84.745" id="Stroke-180" stroke="#36221F" mask="url(#mask-10)"></path>
            <path d="M78.527,187.48 C77.894,187.72 77.146,187.676 76.586,187.29 C77.355,187.959 76.556,189.359 75.543,189.468 C74.169,189.613 70.668,187.988 69.429,187.338 C68.365,186.779 67.45,185.976 66.602,185.125 C65.039,183.557 61.879,180.622 61.454,178.35 C61.301,177.529 61.491,176.687 61.68,175.875 C62.217,173.575 62.786,171.212 63.716,169.034 C64.935,166.178 66.388,162.863 68.257,160.39 C69.24,159.088 70.241,157.768 71.541,156.782 C72.287,156.216 75.591,153.018 75.537,155.724 C75.497,157.774 74.637,159.798 73.186,161.248 C72.377,162.059 71.811,162.96 71.795,164.152 C71.785,164.871 72.555,165.569 72.939,166.125 C73.454,166.872 74.023,167.451 74.743,168.029 C76.243,169.232 77.948,170.18 79.765,170.809 C80.697,171.132 81.591,171.349 82.436,171.878 C83.086,172.283 83.722,172.792 83.996,173.506 C84.269,174.221 84.034,175.176 83.328,175.47 C83.075,175.574 82.795,175.586 82.521,175.588 C79.531,175.606 76.675,174.401 74.171,172.852 C74.961,173.969 75.439,175.043 76.389,176.06 C77.327,177.062 78.33,178 79.307,178.961 C80.624,180.256 83.152,181.75 80.945,183.592 C80.377,184.066 79.51,184.209 78.878,183.822 C79.808,184.412 80.106,185.805 79.499,186.724 C79.266,187.075 78.919,187.332 78.527,187.48" id="Fill-181" fill="#ED9B76" mask="url(#mask-10)"></path>
            <path d="M175.585,239.762 C183.051,236.82 189.275,232.099 183.14,224.477 C177.274,217.187 169.416,216.799 161.352,220.072 C158.48,221.238 155.442,221.893 152.443,222.639 C149.322,223.415 146.281,224.428 143.22,225.412 C136.61,227.538 130.001,229.665 123.39,231.791 C120.373,232.762 117.263,233.692 114.462,235.215 C112.188,236.451 109.766,238.44 109.476,241.191 C109.18,244.009 111.136,246.217 113.705,247.063 C115.545,247.67 117.522,247.659 119.46,247.658152 C132.091,247.655 144.484,247.752 156.928,245.227 C163.286,243.936 169.547,242.141 175.585,239.762" id="Fill-182" fill="#ED9B76" mask="url(#mask-10)"></path>
            <path d="M130.997,244.494 C133.709,239.576 133.872,234.115 132.49,228.863 C129.457,229.84 126.424,230.815 123.39,231.791 C120.373,232.762 117.263,233.692 114.462,235.215 C112.188,236.451 109.766,238.44 109.476,241.191 C109.18,244.009 111.136,246.217 113.705,247.063 C115.545,247.67 117.522,247.659 119.46,247.658152 C122.522,247.657 125.57,247.662 128.609,247.634 C129.54,246.703 130.352,245.664 130.997,244.494" id="Fill-183" fill="#D77158" mask="url(#mask-10)"></path>
            <path d="M46.193,209.581 C46.752,210.797 47.327,211.95 47.904,213.024 C50.239,217.373 53.065,221.456 55.992,225.423 C59.885,230.7 64.055,235.807 68.85,240.298 C74.133,245.245 80.211,249.442 86.996,251.964 C94.446,254.732 102.695,255.338 110.471,253.686 C117.24,252.249 125.63,249.125 128.797,242.435 C134.361,230.681 126.125,216.856 117.021,209.547 C113.175,206.458 108.656,204.382 104.522,201.719 C99.849,198.708 95.492,195.208 91.54,191.299 C84.408,184.244 76.92,173.496 66.425,171.206 C62.103,170.264 55.915,170.664 51.803,172.353 C36.681,178.564 40.534,197.252 46.193,209.581" id="Fill-184" fill="#E6F5F8" mask="url(#mask-10)"></path>
            <path d="M129.876,238.393 C126.709,245.084 118.319,248.207 111.551,249.644 C103.774,251.296 95.526,250.691 88.075,247.922 C81.29,245.4 75.213,241.204 69.93,236.256 C65.136,231.766 60.964,226.659 57.071,221.382 C54.144,217.414 51.319,213.332 48.983,208.982 C48.407,207.909 47.831,206.755 47.273,205.539 C44.06,198.54 41.434,189.494 42.527,181.842 C39.495,190.153 42.471,201.299 46.273,209.581 C46.831,210.797 47.407,211.95 47.983,213.024 C50.319,217.373 53.144,221.456 56.071,225.423 C59.964,230.7 64.136,235.807 68.93,240.298 C74.213,245.245 80.29,249.442 87.075,251.964 C94.526,254.732 102.774,255.338 110.551,253.686 C117.319,252.249 125.709,249.125 128.876,242.435 C129.74,240.61 130.27,238.736 130.517,236.845 C130.326,237.364 130.119,237.882 129.876,238.393" id="Fill-185" fill="#BFD8DC" mask="url(#mask-10)"></path>
            <path d="M58.61,238.664 C58.683,237.668 58.796,236.676 58.947,235.688 C59.067,234.91 59.222,234.107 59.677,233.464 C61.327,231.128 65.657,233.519 67.967,231.873 C70.613,229.986 72.53,228.001 75.861,227.339 C78.253,226.864 80.713,226.8 83.096,226.283 C84.488,225.981 85.843,225.528 87.202,225.099 C87.926,224.869 88.794,224.611 89.305,225.377 C89.568,225.772 89.611,226.282 89.526,226.75 C89.137,228.916 86.551,229.873 84.737,230.511 C83.27,231.026 81.663,230.98 80.163,231.479 C79.472,231.709 78.693,232.129 78.638,232.853 C78.574,233.688 79.502,234.222 80.305,234.46 C82.026,234.97 83.829,235.119 85.618,235.267 C86.29,235.321 86.966,235.377 87.638,235.327 C91.195,235.063 94.562,233.352 98.075,232.685 C99.038,232.501 100.31,232.522 100.667,233.435 C100.986,234.252 100.249,235.112 99.463,235.499 C100.568,235.296 101.97,235.217 102.543,236.184 C102.962,236.891 102.658,237.847 102.068,238.419 C101.479,238.991 100.673,239.271 99.894,239.534 C96.45,240.697 92.991,241.864 89.414,242.514 C91.586,242.666 93.784,242.443 95.881,241.858 C97.108,241.517 98.342,241.046 99.612,241.138 C99.973,241.163 100.365,241.255 100.587,241.542 C100.86,241.894 100.764,242.431 100.486,242.78 C100.207,243.129 99.789,243.332 99.381,243.515 C96.969,244.59 94.413,245.305 91.868,246.015 C93.003,245.892 94.138,245.769 95.272,245.646 C95.771,245.593 96.283,245.54 96.769,245.667 C97.255,245.793 97.716,246.141 97.829,246.629 C97.937,247.1 97.701,247.597 97.346,247.923 C96.99,248.25 96.531,248.437 96.081,248.611 C92.09,250.145 87.852,251.038 83.582,251.247 C81.894,251.33 80.07,251.278 78.374,251.175 C76.548,251.063 74.727,250.624 73.136,249.7 C69.596,247.645 65.696,245.357 61.641,244.764 C59.485,244.447 58.555,244.518 58.515,241.95 C58.499,240.854 58.531,239.758 58.61,238.664" id="Fill-186" fill="#ED9B76" mask="url(#mask-10)"></path>
            <path d="M60.29,230.541 C60.889,231.901 61.788,233.098 62.896,234.086 C64.215,235.262 65.68,234.961 67.386,235 C67.587,235.005 67.794,235.01 67.982,235.083 C68.426,235.253 68.651,235.731 68.85,236.162 C69.621,237.829 70.613,239.391 71.792,240.799 C72.496,241.642 75.164,243.223 72.989,244.089 C71.772,244.573 70.411,244.421 69.101,244.42 C65.981,244.417 63.194,245.315 60.051,244.665 C57.376,244.11 54.763,243.112 52.548,241.49 C46.641,237.169 44.377,231.827 45.499,225.01 C45.888,222.641 47.192,218.546 49.416,214.946" id="Fill-187" fill="#ED9B76" mask="url(#mask-10)"></path>
            <path d="M71.7,181.92 C65.743,178.305 57.313,177.087 53.109,183.857 C50.266,188.435 51.168,194.966 54.18,199.242 C59.171,206.331 69.513,212.143 77.079,205.107 C85.094,197.656 79.561,186.69 71.7,181.92" id="Fill-188" fill="#ED9B76" mask="url(#mask-10)"></path>
            <path d="M56.73,200.606 C53.72,196.331 52.818,189.8 55.661,185.223 C59.336,179.305 66.237,179.49 71.895,182.045 C71.83,182.004 71.766,181.96 71.7,181.92 C65.743,178.305 57.313,177.087 53.109,183.857 C50.266,188.435 51.168,194.966 54.18,199.242 C56.419,202.423 59.737,205.343 63.398,206.964 C60.767,205.301 58.436,203.029 56.73,200.606" id="Fill-189" fill="#D77158" mask="url(#mask-10)"></path>
        </g>
    </g>
</svg>