<svg id="Layer_2" data-name="Layer 2" xmlns="http://www.w3.org/2000/svg" xmlns:xlink="http://www.w3.org/1999/xlink" viewBox="0 0 1803.55 1598.45"><defs><style>.cls-1{mask:url(#mask);}.cls-2,.cls-4{mix-blend-mode:multiply;}.cls-2{fill:url(#linear-gradient);}.cls-3{mask:url(#mask-2);}.cls-4{fill:url(#linear-gradient-2);}.cls-5{fill:#0f194a;}.cls-6{fill:#b3dcc2;}.cls-17,.cls-24,.cls-7{fill:none;stroke-miterlimit:10;}.cls-7{stroke:#0f194a;stroke-width:4px;}.cls-8{clip-path:url(#clip-path);}.cls-9{fill:#353f70;}.cls-10{fill:#8894b7;}.cls-11{fill:#727ea8;}.cls-12{fill:#f8a17a;}.cls-13{fill:#90c1da;}.cls-14{fill:#acd9e3;}.cls-15{fill:#e5785c;}.cls-16{fill:#4d3030;}.cls-17{stroke:#4d3030;}.cls-17,.cls-24{stroke-width:3px;}.cls-18{fill:#96685c;}.cls-19{mask:url(#mask-3);}.cls-20{fill:url(#linear-gradient-3);}.cls-21{fill:#061f33;}.cls-22{fill:#0b2d4e;}.cls-23{fill:#603913;}.cls-24{stroke:#603913;}.cls-25{fill:#3c2415;}.cls-26{fill:#8cc1b2;}.cls-27{clip-path:url(#clip-path-2);}.cls-28{fill:#a97c50;}.cls-29{mask:url(#mask-4);}.cls-30{fill:url(#linear-gradient-4);}.cls-31,.cls-33{fill:#393762;}.cls-31,.cls-32{opacity:0.8;}.cls-34{filter:url(#luminosity-noclip-4);}.cls-35{filter:url(#luminosity-noclip-3);}.cls-36{filter:url(#luminosity-noclip-2);}.cls-37{filter:url(#luminosity-noclip);}</style><filter id="luminosity-noclip" x="546.74" y="-9034.37" width="366.75" height="32766" filterUnits="userSpaceOnUse" color-interpolation-filters="sRGB"><feFlood flood-color="#fff" result="bg"/><feBlend in="SourceGraphic" in2="bg"/></filter><mask id="mask" x="546.74" y="-9034.37" width="366.75" height="32766" maskUnits="userSpaceOnUse"><g class="cls-37"/></mask><linearGradient id="linear-gradient" x1="730.12" y1="867.64" x2="730.12" y2="644.3" gradientUnits="userSpaceOnUse"><stop offset="0" stop-color="#fff"/><stop offset="1"/></linearGradient><filter id="luminosity-noclip-2" x="1016.41" y="-9034.37" width="366.75" height="32766" filterUnits="userSpaceOnUse" color-interpolation-filters="sRGB"><feFlood flood-color="#fff" result="bg"/><feBlend in="SourceGraphic" in2="bg"/></filter><mask id="mask-2" x="1016.41" y="-9034.37" width="366.75" height="32766" maskUnits="userSpaceOnUse"><g class="cls-36"/></mask><linearGradient id="linear-gradient-2" x1="1199.79" y1="867.64" x2="1199.79" y2="644.3" xlink:href="#linear-gradient"/><clipPath id="clip-path" transform="translate(-15.74 -12.78)"><path class="cls-5" d="M110.45,695.3c-46.15,58.42-81.76,137.9-57,211.26C78,979.7,156.82,1024.8,191.25,1094.27c19.46,39.27,20,82.44,20.72,124.59,1,55.17-11.14,113.76,30.75,160.39,24.77,27.58,62.16,43.88,100,54.58,75.93,21.5,155.47,31.59,222.91,72.2,110.8,66.71,246.87,90,378.91,82.83a952.59,952.59,0,0,0,197.51-32.3c74.52-20.25,140.76-56.09,215.79-75.29,130-33.27,307.87-33.73,384-150.86,51.24-78.86,69-176.32,29.13-262.24-19-40.86-55.13-72.06-75.73-112.17-28.47-55.41-36.14-118.59-17.12-177.46q1.18-3.63,2.47-7.24c19.87-55,59.87-102.36,76.41-158.38,34.15-115.67-41.31-238-140.51-312.32-41.22-30.89-87.28-56.6-137.44-71.26-138.35-40.43-292.08,6.36-430.85-32.75-106.46-30-193.87-108-302.34-130.52-83.36-17.33-173.44,1.16-244.25,46.46S379.35,228.7,355.93,306.76c-21.71,72.33-21,151.78-59.52,217.49-32.93,56.21-94,86.55-143.52,127.33A287.38,287.38,0,0,0,110.45,695.3Z"/></clipPath><filter id="luminosity-noclip-3" x="546.74" y="607.38" width="366.75" height="270.1" filterUnits="userSpaceOnUse" color-interpolation-filters="sRGB"><feFlood flood-color="#fff" result="bg"/><feBlend in="SourceGraphic" in2="bg"/></filter><mask id="mask-3" x="531" y="594.6" width="366.75" height="270.1" maskUnits="userSpaceOnUse"><g class="cls-35"><g transform="translate(-15.74 -12.78)"><g class="cls-1"><polygon class="cls-2" points="730.12 877.48 913.49 607.38 546.74 607.38 730.12 877.48"/></g></g></g></mask><linearGradient id="linear-gradient-3" x1="714.37" y1="854.85" x2="714.37" y2="631.52" gradientUnits="userSpaceOnUse"><stop offset="0" stop-color="#fff"/><stop offset="1" stop-color="#fff"/></linearGradient><clipPath id="clip-path-2" transform="translate(-15.74 -12.78)"><path class="cls-6" d="M1321.1,1037.4c-6.8-18.05-17-32.82-22.9-51.48-8-25.32-13.39-61.43-4.24-87.64,9.71-27.83,21.63-49.79,22.35-80.79.62-26.54-4.73-52.68-10-78.54-5.27-25.6-7.66-33-32.73-36.94-8.93-1.39-17.75-3.81-26.67-5.39a263.36,263.36,0,0,0-45.81-3.92h-1.2a263.55,263.55,0,0,0-45.82,3.92c-8.91,1.58-17.74,4-26.67,5.39-25.07,3.9-27.46,11.34-32.73,36.94-5.32,25.86-10.67,52-10.05,78.54.73,31,12.64,53,22.36,80.79,9.14,26.21,3.72,62.32-4.25,87.64-5.87,18.66-16.1,33.43-22.9,51.48a7.28,7.28,0,0,0-.63,4.43c.52,1.88,2.36,3,4,3.88,33.32,17.4,70.67,22.64,107.19,25.33,3.21.24,6.33.47,9.41.67v.08l.65,0,.64,0v-.08c3.08-.2,6.21-.43,9.41-.67,36.53-2.69,73.87-7.93,107.19-25.33,1.69-.88,3.52-2,4-3.88A7.29,7.29,0,0,0,1321.1,1037.4Z"/></clipPath><filter id="luminosity-noclip-4" x="1016.41" y="607.38" width="366.75" height="270.1" filterUnits="userSpaceOnUse" color-interpolation-filters="sRGB"><feFlood flood-color="#fff" result="bg"/><feBlend in="SourceGraphic" in2="bg"/></filter><mask id="mask-4" x="1000.67" y="594.6" width="366.75" height="270.1" maskUnits="userSpaceOnUse"><g class="cls-34"><g transform="translate(-15.74 -12.78)"><g class="cls-3"><polygon class="cls-4" points="1199.79 877.48 1383.16 607.38 1016.41 607.38 1199.79 877.48"/></g></g></g></mask><linearGradient id="linear-gradient-4" x1="1184.04" y1="854.85" x2="1184.04" y2="631.52" xlink:href="#linear-gradient-3"/></defs><title>couple-in-bed3</title><path class="cls-7" d="M595.16,1474.93c-60.36-19.26-126.5-13.73-190.61-14.54s-164.16-10.1-188.3-73.46c-25.55-67.06,11.49-136.6,11.81-204.36.08-18.55-2.13-37.31-9.3-54.73-33.61-81.52-146.15-101.26-185.58-182.49C3.72,884.67,18.93,812.21,57.65,755.81c33.64-49,82.93-87.52,135.08-120.45,47.48-30,83.79-78.43,102.41-127.67,34.78-92,13.42-192.54,52.4-282.24C382.45,145.1,449.31,77.05,532.8,41.09c145.69-62.75,317.89-6.92,421.75,100.43,55.71,57.59,135.78,91,217.28,96.94C1330.14,250,1495,173.4,1641.7,259.87c74.75,44.07,127.58,122.19,144,204.62,9.27,46.44,8.21,98.1-11.93,141.94-19.81,43.13-54,78.33-83.35,115.6C1641.67,784,1615,866.75,1660.6,936.5c20,30.5,48.78,55.45,76.11,81,70,65.44,95.88,161.78,71.79,249-27.34,99-114,164.06-226.94,176.5-83.56,9.21-176-2.82-251.78,36.49" transform="translate(-15.74 -12.78)"/><path class="cls-5" d="M110.45,695.3c-46.15,58.42-81.76,137.9-57,211.26C78,979.7,156.82,1024.8,191.25,1094.27c19.46,39.27,20,82.44,20.72,124.59,1,55.17-11.14,113.76,30.75,160.39,24.77,27.58,62.16,43.88,100,54.58,75.93,21.5,155.47,31.59,222.91,72.2,110.8,66.71,246.87,90,378.91,82.83a952.59,952.59,0,0,0,197.51-32.3c74.52-20.25,140.76-56.09,215.79-75.29,130-33.27,307.87-33.73,384-150.86,51.24-78.86,69-176.32,29.13-262.24-19-40.86-55.13-72.06-75.73-112.17-28.47-55.41-36.14-118.59-17.12-177.46q1.18-3.63,2.47-7.24c19.87-55,59.87-102.36,76.41-158.38,34.15-115.67-41.31-238-140.51-312.32-41.22-30.89-87.28-56.6-137.44-71.26-138.35-40.43-292.08,6.36-430.85-32.75-106.46-30-193.87-108-302.34-130.52-83.36-17.33-173.44,1.16-244.25,46.46S379.35,228.7,355.93,306.76c-21.71,72.33-21,151.78-59.52,217.49-32.93,56.21-94,86.55-143.52,127.33A287.38,287.38,0,0,0,110.45,695.3Z" transform="translate(-15.74 -12.78)"/><g class="cls-8"><rect class="cls-9" x="386.61" y="420.98" width="37.74" height="423.82"/><rect class="cls-9" x="556.99" y="420.98" width="37.74" height="423.82"/><rect class="cls-9" x="642.18" y="420.98" width="37.74" height="423.82"/><rect class="cls-9" x="727.37" y="420.98" width="37.74" height="423.82"/><rect class="cls-9" x="812.56" y="420.98" width="37.74" height="423.82"/><rect class="cls-9" x="897.75" y="420.98" width="37.74" height="423.82"/><rect class="cls-9" x="982.94" y="420.98" width="37.74" height="423.82"/><rect class="cls-9" x="1068.13" y="420.98" width="37.74" height="423.82"/><rect class="cls-9" x="1153.32" y="420.98" width="37.74" height="423.82"/><rect class="cls-9" x="1238.51" y="420.98" width="37.74" height="423.82"/><rect class="cls-9" x="1323.7" y="420.98" width="37.74" height="423.82"/><rect class="cls-9" x="1494.08" y="420.98" width="37.74" height="423.82"/><rect class="cls-9" x="375.96" y="404.45" width="1166.5" height="57.98"/><rect class="cls-9" x="386.61" y="681.61" width="1145.21" height="159.88"/><path class="cls-10" d="M1662.77,1152.08H284l87.54-295.84c0-9,9.94-16.34,22.21-16.34H1556.17c12.27,0,22.21,7.32,22.21,16.34Z" transform="translate(-15.74 -12.78)"/><path class="cls-11" d="M1662.77,1152.08H284l87.54-282.82c0-9,9.94-16.34,22.21-16.34H1556.17c12.27,0,22.21,7.31,22.21,16.34Z" transform="translate(-15.74 -12.78)"/><rect class="cls-11" x="375.96" y="404.45" width="1166.5" height="14.08"/><path class="cls-11" d="M963.41,625.18c-.7,11.34-15.59,136.92-15.26,153.31s11,66.55,9.55,57.56,3.65,19-14.29,19c-9,0-202.38-10.49-271.72-10.64-69.54-.15-138.41,10.79-145.26,10.63-13.67-.33-19.53-6.9-27.22-27s9.31-108.78,9.78-136.7S496.61,646.85,497.65,633c1.37-18.3,17.37-26.49,32.11-26.78,8.43-.17,96,4.47,163.6,3.14,66.7-1.32,236.86-9.37,243.85-9.51C951.28,599.58,964.11,613.85,963.41,625.18Z" transform="translate(-15.74 -12.78)"/><path class="cls-9" d="M963.41,625.21c-.7,11.33-15.59,136.92-15.26,153.31s11,66.55,9.55,57.55,3.65,19-14.29,18.95c-9,0-202.38-10.49-271.72-10.63-69.54-.15-138.41,10.78-145.26,10.62-13.67-.32-19.53-6.89-27.22-27-3.5-9.11-1.9-32.39.94-57.7,153.62,50.93,458.34,89.81,420.35-168.73,8.84-1,14.6-1.68,16.71-1.72C951.28,599.61,964.11,613.87,963.41,625.21Z" transform="translate(-15.74 -12.78)"/><path class="cls-10" d="M497.65,631c1.37-18.3,17.37-26.49,32.11-26.78,8.43-.17,96,4.47,163.6,3.14,36-.72,189.57-3.92,210.84-6C835.3,713.66,496.61,644.85,497.65,631Z" transform="translate(-15.74 -12.78)"/><path class="cls-11" d="M1456.8,625.18c-.7,11.34-15.59,136.92-15.26,153.31s11,66.55,9.55,57.56,3.65,19-14.29,19c-9,0-202.38-10.49-271.72-10.64-69.54-.15-138.41,10.79-145.26,10.63-13.67-.33-19.53-6.9-27.22-27s9.31-108.78,9.78-136.7S990,646.85,991,633c1.37-18.3,17.38-26.49,32.11-26.78,8.43-.17,96,4.47,163.6,3.14,66.71-1.32,236.86-9.37,243.85-9.51C1444.67,599.58,1457.5,613.85,1456.8,625.18Z" transform="translate(-15.74 -12.78)"/><path class="cls-9" d="M1456.8,625.21c-.7,11.33-15.59,136.92-15.26,153.31s11,66.55,9.55,57.55,3.65,19-14.29,18.95c-9,0-202.38-10.49-271.72-10.63-69.54-.15-138.41,10.78-145.26,10.62-13.67-.32-19.53-6.89-27.22-27-3.5-9.11-1.9-32.39.94-57.7,153.62,50.93,458.34,89.81,420.35-168.73,8.84-1,14.6-1.68,16.71-1.72C1444.67,599.61,1457.5,613.87,1456.8,625.21Z" transform="translate(-15.74 -12.78)"/><path class="cls-10" d="M991,631c1.37-18.3,17.38-26.49,32.11-26.78,8.43-.17,96,4.47,163.6,3.14,36-.72,189.58-3.92,210.84-6C1328.69,713.66,990,644.85,991,631Z" transform="translate(-15.74 -12.78)"/><rect class="cls-9" x="268.25" y="1108.23" width="1378.77" height="490.21"/></g><path class="cls-12" d="M532.39,817.35c-3.7,9.31-7.25,18.68-10.74,28.07-12,32.12-40.39,86.61-8.32,116.22,3.63,3.36,12.37,3.17,16.88,2.28,12.9-2.56,19.4-14.57,25.71-24.8,19-30.69,32.72-64.32,51-95.44,13.2-22.46,19.88-49.25,26.21-74.28,4.19-16.56,9.58-40.27-4.38-54a27.16,27.16,0,0,0-21.86-7.49,42.07,42.07,0,0,0-13.59,4.49A49,49,0,0,0,582.9,719c-7.76,6.62-11.5,16.19-16.12,25-5.44,10.35-11,20.62-16.07,31.16C544.05,789,538.05,803.08,532.39,817.35Z" transform="translate(-15.74 -12.78)"/><path class="cls-13" d="M546.81,766.65c17.73-32.5,40.78-61.74,76.3-73.66,10.18-3.42,22.75-4.26,30.38,3.29,4.78,4.73,6.51,11.88,6.1,18.6-.58,9.73-5,19-7.23,28.4a313.78,313.78,0,0,1-27.05,72.48c-2.58,4.93-21.49,58.48-20,59.8-12.48-10.84-30.26-24.34-45.18-31.44-4-1.88-40.14-20.5-41.18-18.14C527.36,807.07,536.12,786.27,546.81,766.65Z" transform="translate(-15.74 -12.78)"/><path class="cls-12" d="M914.3,817.35c3.7,9.31,7.25,18.68,10.74,28.07,12,32.12,40.39,86.61,8.32,116.22-3.63,3.36-12.38,3.17-16.88,2.28-12.9-2.56-19.4-14.57-25.72-24.8-19-30.69-32.71-64.32-51-95.44-13.2-22.46-19.88-49.25-26.21-74.28-4.19-16.56-9.58-40.27,4.38-54a27.16,27.16,0,0,1,21.86-7.49,42.07,42.07,0,0,1,13.59,4.49,49,49,0,0,1,10.4,6.54c7.75,6.62,11.5,16.19,16.12,25,5.43,10.35,11,20.62,16.07,31.16C902.64,789,908.64,803.08,914.3,817.35Z" transform="translate(-15.74 -12.78)"/><path class="cls-13" d="M899.71,766.65c-17.72-32.5-40.77-61.74-76.3-73.66-10.17-3.42-22.74-4.26-30.37,3.29-4.78,4.73-6.51,11.88-6.11,18.6.59,9.73,5,19,7.24,28.4a313.76,313.76,0,0,0,27,72.48c2.58,4.93,21.5,58.48,20,59.8,12.47-10.84,30.25-24.34,45.18-31.44,4-1.88,40.13-20.5,41.18-18.14C919.16,807.07,910.41,786.27,899.71,766.65Z" transform="translate(-15.74 -12.78)"/><path class="cls-14" d="M849.3,1016.25l-.69-2.9c-8.38-36.28-9.6-73.73-8.55-110.81,1-36.36,9.12-72.13,10.17-108.51,1.21-41.95-6.09-101.54-58.59-106.39-21.71-2-43.55-4.34-65.41-4.6v0c-.78,0-1.56,0-2.34,0s-1.56,0-2.34,0v0c-21.87.26-43.7,2.6-65.41,4.6-52.5,4.85-59.81,64.44-58.6,106.39,1.05,36.38,9.15,72.15,10.18,108.51,1,37.08-.18,74.53-8.56,110.81-.22,1-.45,1.94-.69,2.9-1.64,6.82-4.3,13.74-3.06,20.64,2.7,14.91,38.61,22.15,50.72,25.36,22.57,6,45.88,8.66,69.12,10.38l6.25.45v.32l2.39-.16,2.38.16v-.32l6.26-.45c23.24-1.72,46.55-4.39,69.12-10.38,12.1-3.21,48-10.45,50.71-25.36C853.61,1030,851,1023.07,849.3,1016.25Z" transform="translate(-15.74 -12.78)"/><path class="cls-12" d="M690.11,722.67c32.42,21.4,95.52,4.8,77.64-37.64-2.17-5.15-4.81-10.13-6.26-15.51-2.4-8.91-2.16-18.1-1.91-27.17.29-10.59.37-21.2.95-31.77-11.85-2.22-21.46-3.33-34-2.87-10.41.38-20.82-.58-31.23,0a4,4,0,0,0-2.34.61,2.79,2.79,0,0,0-.77,2c-1.4,14.29,0,28.77-1.12,43.09-.61,8-1.71,17.18-5.37,24.62-5.63,11.43-14,22-5.93,34.46A35.57,35.57,0,0,0,690.11,722.67Z" transform="translate(-15.74 -12.78)"/><path class="cls-15" d="M761,667.6c-1.86-8.29-1.38-17-1.15-25.37.29-10.58.38-21.2,1-31.77-11.85-2.22-21.47-3.33-34.05-2.87-10.42.38-20.82-.58-31.23,0a4.09,4.09,0,0,0-2.34.61,2.79,2.79,0,0,0-.77,2c-1.4,14.29,0,28.77-1.12,43.1a92.65,92.65,0,0,1-1.75,12.25c1.63,1.26,3.3,2.47,5,3.59,12.85,8.41,30.18,11.2,45.57,7.34A70.6,70.6,0,0,0,761,667.6Z" transform="translate(-15.74 -12.78)"/><path class="cls-16" d="M781.37,621.51c-9.83,11.86-23.6,19.68-37.23,26.84a45.12,45.12,0,0,1-10.43,4.37c-11.3,2.63-22.69-3.49-32.11-10.25a186,186,0,0,1-35-32.75c-10.25-12.44-16-26-22.66-40.68s-8.2-29.55-6.78-45.66c1.46-16.55-7.79-31.33-3.61-48.05a47.76,47.76,0,0,1,17.95-26.72,34.52,34.52,0,0,1,16.42-6.84c13.33-1.44,24.67,7.62,37.85,8.24s26.08-4.22,38.86-7.13c11.16-2.54,23.38-3.93,34.46-.14,12.32,4.22,18.26,13.65,25.08,24.56,5.82,9.33,14.59,16.33,21.6,24.61,9.39,11.1,12.35,25.22,9.37,39.67a122.91,122.91,0,0,1-13.49,35.59c-5.41,9.43-11.3,19.37-17.67,28.31-4.86,6.8-10.18,11.81-15.84,17.75C785.7,615.81,783.66,618.74,781.37,621.51Z" transform="translate(-15.74 -12.78)"/><path class="cls-12" d="M793.44,564.76c-.22-13.57-2.22-26.43-5.82-37.09-15.52-46-73.19-56.81-107.52-23.35-38.27,37.32-22.61,125.47,18.41,156.08a45.69,45.69,0,0,0,39,7.28C777.37,656.55,794.12,607.16,793.44,564.76Z" transform="translate(-15.74 -12.78)"/><path class="cls-15" d="M802.86,527.52c-17.47-46-82.54-56.72-121.33-23.21-9.07,7.83-18.73,20.16-22.94,31.44-4.51,12.09-3.33,25.45-2.09,38.29,1-10.6,5.94-20.13,12.9-28a92.19,92.19,0,0,1,11.31-10.69c1.47-1.19,12.46-11.18,11.41-12.56,3.91,5.1,7.79,10.17,13.82,12.73,7.54,3.2,15.38,5,23.35,6.78,14.08,3.06,25.11,7,35.33,17.56,9.45,9.74,16.29,21.85,20.83,34.59,1.44,4,3.89,10.22,9.15,8.41,1.25-.43,12.08-8.5,12.19-9.07a140.74,140.74,0,0,0,2.59-29.16C809.15,551,806.91,538.17,802.86,527.52Z" transform="translate(-15.74 -12.78)"/><path class="cls-16" d="M771.72,555.58c3.51,5.73,5.65,12.18,7.77,18.56,3.35,10.08,6,20.93,10.29,30.62,14.64-8.83,24.28-29.67,31-44.73,5.91-13.36,7.57-24,2.56-38-3.23-9.07-9.44-17.12-16.81-24-21.26-19.93-53.16-30.09-83.93-28.06-10.81.71-19.62,4.52-29.77,7.46-9.32,2.7-16.44,4.47-23.29,12.14-6.09,6.82-10,15.31-13.06,23.93-5,14-7.82,28.53-6.72,43.46.7,9.54.77,19,10.22,24.18q-.25-8.52-.5-17A31.06,31.06,0,0,1,661.8,549c2.52-7,4.84-12.54,9.62-18.28,6.25-7.5,14.5-14.29,16.25-23.9,14.8,14.38,32.27,23.39,51.72,30.09,12.33,4.24,24.86,6.69,32.18,18.47Z" transform="translate(-15.74 -12.78)"/><path class="cls-12" d="M793.72,566c17.6-9.86,23.3,14.6,20.37,26.83A38.9,38.9,0,0,1,807.86,607c-4.16,5.63-16.11,15-23.11,9-3.18-2.74-3.55-7.45-3.69-11.64C780.69,593.06,781.78,572.66,793.72,566Z" transform="translate(-15.74 -12.78)"/><path class="cls-12" d="M666.45,566c-17.61-9.86-23.31,14.6-20.38,26.83A39.07,39.07,0,0,0,652.3,607c4.16,5.63,16.12,15,23.12,9,3.17-2.74,3.54-7.45,3.68-11.64C679.48,593.06,678.38,572.66,666.45,566Z" transform="translate(-15.74 -12.78)"/><path class="cls-17" d="M641.34,526.13c-.15-7.18-4.92-13.28-8.56-19.48a52.31,52.31,0,0,1-6.53-32.28,42.78,42.78,0,0,1,20.53-31.71,35.79,35.79,0,0,1,27.75-3.83c8.68,2.48,15.73,9.12,24.15,11.42,18.88,5.17,38.22-10.18,56.17-13.89,17.78-3.67,36.79,2.31,45.68,20.18,3.51,7,5.05,15.22,9.64,21.54,7.65,10.57,22.37,14.06,28.46,25.7,9.94,19-9.82,46.8-19.87,61.58" transform="translate(-15.74 -12.78)"/><path class="cls-18" d="M686,470c14.65.95,28.91-2.22,43.22-5.14a146,146,0,0,1,21.89-2.22q5.5-.17,11,.05a68.63,68.63,0,0,1,11.07,1.1,30.94,30.94,0,0,1,18.9,11.73c2.29,3.24,2.94,7.24,3.18,10.9s.16,7.31.91,10.74a22.48,22.48,0,0,0,4.64,9.38c2.15,2.88,4.6,5.7,6.28,9.07a27.94,27.94,0,0,1,2.51,10.77,76.9,76.9,0,0,1-.4,11,94.24,94.24,0,0,0-.24-10.9A26.87,26.87,0,0,0,806,516.15c-1.69-3.13-4.13-5.81-6.43-8.68a24.21,24.21,0,0,1-5.24-9.9c-.94-3.7-.92-7.44-1.19-11s-.91-7.05-2.91-9.81A20.22,20.22,0,0,0,786.7,473a29.15,29.15,0,0,0-4.24-3.1,31.07,31.07,0,0,0-9.81-3.7A66.75,66.75,0,0,0,762,465c-3.61-.18-7.24-.23-10.86-.16a172.3,172.3,0,0,0-21.63,1.85c-7.14,1.13-14.36,2.62-21.64,3.36A96.53,96.53,0,0,1,686,470Z" transform="translate(-15.74 -12.78)"/><path class="cls-12" d="M633.78,861.3c-11.44,10.5-22.25,21.17-34.34,31-12.58,10.18-25.53,19.92-38.69,29.35-4.4,3.15-9,6.48-11.29,11.38-3.1,6.66-1.16,14.57,1.87,21.25a31.52,31.52,0,0,0,5.94,9.27c3.2,3.24,7.39,5.31,11.64,6.93,4,1.53,8.21,2.74,12.47,2.49,8.31-.48,15.24-6.27,21.33-11.95a423,423,0,0,0,30.92-32c5-5.71,9.43-11.83,14.4-17.51,3-3.48,8.86-8.13,13.22-9.6,3-1,6.16-.58,9.26-.28,7.42.7,15.12.63,22.08-2.07,8-3.1,19.07-14.41,16.13-23.91a4.93,4.93,0,0,1-.42-2.24,4.69,4.69,0,0,1,1.54-2.25c3.43-3.63,3.9-10.3-.12-13.26a9.32,9.32,0,0,0-2.37-15.33c5.34-.37,10.55,1.6,15.27,4.09,5.3,2.81,10.09,7,16,7.89,9.18,1.29,7.49-6.47,3.09-10.91-4.06-4.11-9.35-6.73-14-10.06a47.58,47.58,0,0,0-12.24-6.57c-6.64-2.26-13.78-2.48-20.79-2.68-6.35-.19-12.86-.35-18.85,1.73-7.34,2.55-13.13,8.15-18.66,13.6C649.61,847,641.62,854.09,633.78,861.3Z" transform="translate(-15.74 -12.78)"/><g class="cls-19"><polygon class="cls-20" points="714.37 864.7 897.75 594.6 531 594.6 714.37 864.7"/></g><path class="cls-21" d="M752.14,886.27h-44a3.93,3.93,0,0,1-3.92-3.73l-4.83-94.26a3.92,3.92,0,0,1,3.92-4.13H757a3.92,3.92,0,0,1,3.92,4.13l-4.83,94.26A3.93,3.93,0,0,1,752.14,886.27Z" transform="translate(-15.74 -12.78)"/><path class="cls-22" d="M752.14,892.82h-44a3.93,3.93,0,0,1-3.92-3.73l-4.83-94.27a3.92,3.92,0,0,1,3.92-4.12H757a3.92,3.92,0,0,1,3.92,4.12l-4.83,94.27A3.93,3.93,0,0,1,752.14,892.82Z" transform="translate(-15.74 -12.78)"/><path class="cls-12" d="M775.52,950l2.52,1.55c18.32,11.34,35.84,24.25,55.68,32.89,6.91,3,14.29,5.51,21.82,5.11,10.26-.55,14.72-6.38,20.49-13.65s4.45-18.47-.88-26.14S861.39,937.23,853,933.15c-21.32-10.33-44.27-17.14-65.11-28.4-7.62-4.12-11.49-9.14-11.08-18a94.45,94.45,0,0,0-3.19-29c-2.24-8.27-5.51-16.95-5.52-25.64,0-3,.49-6.65-1.85-8.59a5.25,5.25,0,0,0-5.57-.36,10.2,10.2,0,0,0-4,4.19c-4,6.93-2,14.47-1.36,22,.38,4.61.52,9.41-.76,13.9-2.4,8.4-13.11,9.14-20.28,9.08-8-.06-20.64-.73-26.63-6.48-.8-.77-6.51-10.7-5.36-11-3.37.84-5.29,4-6.53,7-1.8,4.33-.1,5.78.57,10,.64,4-2.5,8-1.73,12,.66,3.47,4.08,6,4.61,9.43.3,2-.41,4-.53,6a10.69,10.69,0,0,0,3.63,8.59c1,.9,2.33,1.7,2.65,3a6.33,6.33,0,0,1-.11,2.37,11.85,11.85,0,0,0,3.84,10.34c3,2.68,7.21,3.57,11.15,4.54,10.17,2.5,20.29,4.24,30,8.29A194.35,194.35,0,0,1,775.52,950Z" transform="translate(-15.74 -12.78)"/><path class="cls-23" d="M1358.67,815c-24.55,10-55.48,7-77.16-8.43s-41.75-26.88-69.42-27.7c-17.19-.51-33.3,6.68-49.68,10.78-14.4,3.61-25.39,15.17-40.91,17.3-20.4,2.8-41.35-9.75-50.53-28.18s-7.17-41.37,3.1-59.22c7.49-13,14.38-22.75,6-37.28-1.83-3.16-4.14-6.09-5.4-9.53a26.84,26.84,0,0,1-1.23-10.21c.76-18.82,15-32.94,24.52-48.48,2.22-3.63,4.45-7.4,5.12-11.61,1.71-10.7-6.79-19.95-11.33-29.79-14.68-31.89,10.38-68.16,34.77-87.3,14.39-11.29,31.64-15.84,47.16-25,7.07-4.19,13.51-9.38,20.66-13.42,12.47-7,26.07-7.35,39.91-5.41,39.45,5.53,84.29,34.2,93.44,75.47,6.19,28-4,60.49,23.76,80.08,8.34,5.89,18.89,9.4,24.58,17.89,12.1,18-5.68,44.76,5.38,63.46,2.47,4.17,6.16,7.44,9.51,10.94a90.18,90.18,0,0,1,24.37,70.23c-.61,6.21-1.92,12.46-5,17.9-4.22,7.46-11.35,12.73-18.33,17.71-10.43,7.45-21.09,14.8-32.93,19.7Z" transform="translate(-15.74 -12.78)"/><path class="cls-24" d="M1394.42,710.48c-12.25-10.53-14.87-28.93-11.33-44.68,2.32-10.31,6.9-20.34,6.49-30.9a34.12,34.12,0,0,0-22.18-30.1c-6.37-2.24-13.37-2.54-19.46-5.44-9.22-4.39-14.29-13.67-17.66-22.86-3.66-10-2.14-18.57-2.18-29.06-.06-13.41-.4-26.83-1.76-40.18-1.57-15.38-10.78-30.64-21.34-41.69q-2.28-2.38-4.74-4.58c-27.41-24.47-79.82-35.19-112.3-15.28-6.48,4-10.5,9.44-15.64,14.69s-12,9.66-18.28,13.61c-12.75,8-26.46,14.31-39.93,21-8.6,4.27-17.34,8.86-23.67,16.09-7.62,8.71-11,20.64-10.65,32.21s4.14,22.82,9.45,33.11c3.74,7.27,8.28,14.22,10.66,22.05,3.89,12.74-3.54,24.73-13,32.91-7.13,6.19-15.32,11.87-19.23,20.47a26,26,0,0,0,.77,22.72c3.47,6.44,9.59,11.2,12.83,17.77a24,24,0,0,1,.25,20.39c-3.76,8.13-12.34,15.67-9.52,24.17" transform="translate(-15.74 -12.78)"/><path class="cls-25" d="M1306.69,692.36a51.44,51.44,0,0,1-4.1,30c-12.08,25.13-42,30-67.18,31a151,151,0,0,1-28-1.48c-8.23-1.23-15.57,0-23.89-.17a91.4,91.4,0,0,1-46.68-14.05c-6.76-4.29-13.13-9.71-16.59-16.93-4.77-9.91-3.38-21.63-.86-32.35,1.46-6.18,3.28-12.35,6.46-17.86,3.4-5.88,8.27-10.88,11.11-17.06,5.32-11.62.94-25.19,5.68-36.59,3.7-8.92,13-19,20.75-24.57,10.52-7.59,24.09-10,37-9.11s25.47,4.79,37.8,8.82c9.71,3.17,18.06,1.21,25.18,9.23,5.64,6.35,3.67,16.73,5.47,24.43C1275,651.58,1302.6,665.25,1306.69,692.36Z" transform="translate(-15.74 -12.78)"/><path class="cls-26" d="M1128.15,807.4c-16.48,28.24-35,55.34-52.74,82.8-9.9,15.34-19.92,30.93-25.22,48.39-24.44-.6-48.94-5.76-72.94-10.36,3.86-32.41,21-61.78,36.27-90,15.94-29.43,33.12-58.2,48.12-88.13,12.2-24.34,35-53.39,65.46-38.76,23.45,11.26,19.8,43.52,15,64.33C1139.47,786.75,1134.11,797.19,1128.15,807.4Z" transform="translate(-15.74 -12.78)"/><path class="cls-26" d="M1269.91,807.4c16.47,28.24,35,55.34,52.74,82.8,9.89,15.34,19.91,30.93,25.22,48.39,24.43-.6,48.93-5.76,72.93-10.36-3.86-32.41-21-61.78-36.27-90-15.94-29.43-33.11-58.2-48.12-88.13-12.19-24.34-35-53.39-65.45-38.76-23.45,11.26-19.8,43.52-15,64.33C1258.58,786.75,1264,797.19,1269.91,807.4Z" transform="translate(-15.74 -12.78)"/><path class="cls-6" d="M1321.1,1037.4c-6.8-18.05-17-32.82-22.9-51.48-8-25.32-13.39-61.43-4.24-87.64,9.71-27.83,21.63-49.79,22.35-80.79.62-26.54-4.73-52.68-10-78.54-5.27-25.6-7.66-33-32.73-36.94-8.93-1.39-17.75-3.81-26.67-5.39a263.36,263.36,0,0,0-45.81-3.92h-1.2a263.55,263.55,0,0,0-45.82,3.92c-8.91,1.58-17.74,4-26.67,5.39-25.07,3.9-27.46,11.34-32.73,36.94-5.32,25.86-10.67,52-10.05,78.54.73,31,12.64,53,22.36,80.79,9.14,26.21,3.72,62.32-4.25,87.64-5.87,18.66-16.1,33.43-22.9,51.48a7.28,7.28,0,0,0-.63,4.43c.52,1.88,2.36,3,4,3.88,33.32,17.4,70.67,22.64,107.19,25.33,3.21.24,6.33.47,9.41.67v.08l.65,0,.64,0v-.08c3.08-.2,6.21-.43,9.41-.67,36.53-2.69,73.87-7.93,107.19-25.33,1.69-.88,3.52-2,4-3.88A7.29,7.29,0,0,0,1321.1,1037.4Z" transform="translate(-15.74 -12.78)"/><g class="cls-27"><path class="cls-6" d="M1279.79,707.39c1.54-4.77,7.37-15.39,4.43-19.55s-13.93-3.28-18.21-3.14l-141.39,4.75c2.72,10.11,2.84,19.53,6.71,29.53a95,95,0,0,0,13.24,23.76,75,75,0,0,0,44.8,28c30.36,6,63.91-8.86,79.27-35.71C1273.59,726.41,1276.71,716.86,1279.79,707.39Z" transform="translate(-15.74 -12.78)"/></g><path class="cls-12" d="M1165.11,742.63c14.77,16.78,43.15,18.12,63,11.25,13.52-4.68,23.08-15.34,23.36-30,.32-16.39-14-28-17.68-43.3-2.06-8.66-1.86-17.58-1.64-26.39.24-10.28.32-20.58.81-30.85-10.17-2.15-18.42-3.23-29.23-2.78-8.94.37-17.87-.57-26.81,0a3.13,3.13,0,0,0-2,.59,2.9,2.9,0,0,0-.66,1.93c-1.2,13.88,0,27.94-1,41.85-.87,12.78-3.73,25.64-11.21,36.23C1153,714,1155.21,731.37,1165.11,742.63Z" transform="translate(-15.74 -12.78)"/><path class="cls-28" d="M1192.28,474.52a57.74,57.74,0,0,1,24.18-6.07,93.45,93.45,0,0,1,25,2.57,89.45,89.45,0,0,1,43.75,24,78.76,78.76,0,0,1,22.71,44.45c1.16,8.44.74,16.87.91,25.17s.83,16.68,4.25,24,9.5,13.27,16.15,18.06,14.11,8.71,21.26,13.13c3.52,2.21,7.31,4.52,9.91,8.22s3.19,8.33,3.25,12.54a46.39,46.39,0,0,1-1.61,12.68c-1.09,4.15-3,8-4.62,11.77a23.75,23.75,0,0,0-2.24,11.78,35.79,35.79,0,0,0,3.45,11.7c3.55,7.5,7.91,14.68,11.51,22.27s6.36,15.68,7,24.08a59.4,59.4,0,0,1-3.07,24.76,59.13,59.13,0,0,0,2.5-24.7c-.83-8.31-3.74-16.22-7.47-23.64s-8.11-14.56-11.82-22.13a37.42,37.42,0,0,1-3.75-12.19,25.44,25.44,0,0,1,2.21-12.62c1.59-3.93,3.4-7.62,4.38-11.6a44.7,44.7,0,0,0,1.48-12.13c-.06-4.06-.65-8.19-2.92-11.37s-5.8-5.41-9.32-7.58c-7.08-4.34-14.55-8.2-21.45-13.13s-13.2-11-17-18.89-4.23-16.64-4.37-25,.3-16.75-.79-24.92c-2.2-16.38-10.35-31.66-21.87-43.47a88.14,88.14,0,0,0-42.73-24.13,92.68,92.68,0,0,0-24.69-3.12A57.43,57.43,0,0,0,1192.28,474.52Z" transform="translate(-15.74 -12.78)"/><path class="cls-15" d="M1233.21,678.53c-1.6-8-1.44-16.29-1.24-24.44.25-10.28.32-20.59.82-30.85-10.18-2.16-18.43-3.23-29.24-2.79-8.94.37-17.87-.56-26.81,0a3.19,3.19,0,0,0-2,.6,2.87,2.87,0,0,0-.66,1.92c-1.2,13.89,0,27.94-1,41.85a103.46,103.46,0,0,1-1.5,11.9c1.4,1.23,2.83,2.4,4.3,3.49A45.84,45.84,0,0,0,1215,687.3,59.16,59.16,0,0,0,1233.21,678.53Z" transform="translate(-15.74 -12.78)"/><path class="cls-12" d="M1270.9,568.22c-.28-13.62-2.34-26.5-6-37.18-15.78-46.06-73.67-56.66-108-22.95-38.23,37.6-22.13,126,19.15,156.48a45.77,45.77,0,0,0,39.12,7.13C1255.18,660.37,1271.76,610.75,1270.9,568.22Z" transform="translate(-15.74 -12.78)"/><path class="cls-15" d="M1270.83,528.26c-12.42-47.08-69.4-61.82-106-30.65-5.84,5-9.89,10.9-14.06,17.24-3.53,5.38-8.45,9.45-11.57,15.36a53.47,53.47,0,0,0-5.87,19.63c-.64,6.66,1.53,12.48,1.7,18.87a23.4,23.4,0,0,1,7.72-17.81c3.88-3.44,8.79-5.47,13.31-8s8.93-6,10.63-10.9c14.57,19.09,37.18,24.94,59.42,30.45,18.67,4.63,39.15,16.39,39.57,38.19,0,2.76.24,3.53,1.43,7.14a31.9,31.9,0,0,0,2.19-9.17c.4-3.56,1.43-7.1,2.13-10.65a157.26,157.26,0,0,0,2.73-22.16C1274.85,552.17,1273.71,539.17,1270.83,528.26Z" transform="translate(-15.74 -12.78)"/><path class="cls-23" d="M1281.44,609.07a25,25,0,0,0,8.11-11.28c5-14.63,4.44-30.82,3.84-46.49-.34-8.74-.7-17.6-3.09-25.93a65.9,65.9,0,0,0-13.4-24.07c-16.88-20-42.08-30.1-66.3-28-9.73.83-16.88,5.49-25.43,9.45-8.34,3.86-18.14,6-26.91,8.87-10.13,3.34-20.55,6.84-28.58,13.85-5.87,5.13-10.14,11.89-13.2,19.05-3.66,8.6-4,18.16-3,27.33.86,7.55,1.85,15.62,5.2,22.67,3.14,6.61,10.13,10.92,16.39,14.21-.93-.49-.13-11.39-.15-13.07-.14-9.63.38-19.51,3.4-28.73,2.91-9,8.68-14.52,16.18-20a56.06,56.06,0,0,0,8.52-7.24c1.25-1.39,6.72-7.78,5.83-9.75,4.25,9.38,10.92,19,19.25,25.17C1204,546.76,1221.6,555,1239.48,562c1.32.51,2.65,1,4,1.55,4.91,2,9.75,4.22,13.8,7.9,9,8.21,9.67,20.82,9.33,32.19a10.73,10.73,0,0,0,.34,3.71C1268.81,612.91,1277.83,611.83,1281.44,609.07Z" transform="translate(-15.74 -12.78)"/><g class="cls-29"><polygon class="cls-30" points="1184.04 864.7 1367.42 594.6 1000.67 594.6 1184.04 864.7"/></g><path class="cls-21" d="M1221.8,869.27h-44a3.93,3.93,0,0,1-3.92-3.73L1169,771.28a3.93,3.93,0,0,1,3.93-4.13h53.7a3.92,3.92,0,0,1,3.92,4.13l-4.83,94.26A3.93,3.93,0,0,1,1221.8,869.27Z" transform="translate(-15.74 -12.78)"/><path class="cls-22" d="M1221.8,875.82h-44a3.93,3.93,0,0,1-3.92-3.73L1169,777.82a3.93,3.93,0,0,1,3.93-4.12h53.7a3.92,3.92,0,0,1,3.92,4.12l-4.83,94.27A3.93,3.93,0,0,1,1221.8,875.82Z" transform="translate(-15.74 -12.78)"/><path class="cls-12" d="M1264,933l2.52,1.55c18.32,11.34,35.83,24.25,55.68,32.89,6.91,3,14.29,5.51,21.82,5.11,10.26-.55,14.72-6.38,20.49-13.65s4.45-18.47-.88-26.14-13.76-12.56-22.17-16.64c-11.65-5.64-23.76-10.22-35.75-15.06-8.52-3.44-17.85-7.33-25.09-13s-12.24-13.36-17.16-20.87c-2.27-3.45-4-7.12-6.13-10.63-1.46-2.43-2.52-5.12-4.32-7.3-4.09-5-11-6.31-17.41-7-7-.7-16.53-2.49-23.11.56-4.34,2-6.89,7-9,11.14-1.35,2.62-2.51,5.51-2.12,8.43s2.82,5.74,5.76,5.59c-2.63,7.43-3.35,16.69-2.7,24.51.47,5.58,1.52,11.44,5.14,15.72,3.77,4.48,9.71,6.47,15.47,7.54s11.7,1.43,17.16,3.53a44.81,44.81,0,0,1,12.06,7.57C1257.43,929.49,1260.57,930.92,1264,933Z" transform="translate(-15.74 -12.78)"/><path class="cls-12" d="M1131.55,933l-2.52,1.55c-18.32,11.34-35.84,24.25-55.68,32.89-6.91,3-14.29,5.51-21.82,5.11-10.26-.55-14.72-6.38-20.49-13.65s-4.45-18.47.88-26.14,13.76-12.56,22.17-16.64c11.65-5.64,23.76-10.22,35.75-15.06,8.52-3.44,17.85-7.33,25.09-13s12.24-13.36,17.16-20.87c2.27-3.45,4-7.12,6.13-10.63,1.46-2.43,2.52-5.12,4.32-7.3,4.09-5,11-6.31,17.41-7,7-.7,16.52-2.49,23.1.56,4.35,2,6.9,7,9,11.14,1.35,2.62,2.51,5.51,2.12,8.43s-2.82,5.74-5.76,5.59c2.63,7.43,3.35,16.69,2.7,24.51-.47,5.58-1.52,11.44-5.14,15.72-3.77,4.48-9.71,6.47-15.47,7.54s-11.7,1.43-17.17,3.53a44.76,44.76,0,0,0-12,7.57C1138.16,929.49,1135,930.92,1131.55,933Z" transform="translate(-15.74 -12.78)"/><path class="cls-10" d="M284,1144.41S292.46,982,347.41,937.78s1209.56-44.69,1255.53,0,59.83,206.63,59.83,206.63Z" transform="translate(-15.74 -12.78)"/><path class="cls-9" d="M347.41,981.32c54.95-44.22,1209.56-44.7,1255.53,0,31,30.18,46.36,109.68,53.74,163.09h6.09s-13.86-161.94-59.83-206.63-1200.58-44.22-1255.53,0S284,1144.41,284,1144.41l4.2,0C294.76,1093.05,310.72,1010.84,347.41,981.32Z" transform="translate(-15.74 -12.78)"/><rect class="cls-11" x="268.25" y="1108.23" width="1378.77" height="23.4"/><path class="cls-31" d="M1233.79,606c-.29,4.62-3.93,8.16-8.14,7.9s-7.38-4.23-7.09-8.86,3.94-8.17,8.14-7.9S1234.08,601.41,1233.79,606Z" transform="translate(-15.74 -12.78)"/><path class="cls-31" d="M1177.49,602.5c-.29,4.63-3.93,8.17-8.14,7.9s-7.38-4.23-7.09-8.86,3.94-8.16,8.14-7.9S1177.78,597.87,1177.49,602.5Z" transform="translate(-15.74 -12.78)"/><g class="cls-32"><path class="cls-33" d="M1244.63,589a2.6,2.6,0,0,1-2.29-1.64c-6.12-15.37-20.16-10.82-20.76-10.62a2.63,2.63,0,0,1-3.3-1.63,2.59,2.59,0,0,1,1.64-3.3c6.65-2.26,20.92-2.3,27.26,13.62a2.6,2.6,0,0,1-1.46,3.38A2.47,2.47,0,0,1,1244.63,589Z" transform="translate(-15.74 -12.78)"/></g><g class="cls-32"><path class="cls-33" d="M1184.74,572.48a2.19,2.19,0,0,1-2.36.21c-12.31-6.44-18.76,4.14-19,4.6a2.19,2.19,0,1,1-3.76-2.23c3-5.08,12.07-12.91,24.82-6.24a2.18,2.18,0,0,1,.92,2.95A2,2,0,0,1,1184.74,572.48Z" transform="translate(-15.74 -12.78)"/></g><g class="cls-32"><path class="cls-33" d="M1227.62,646.79a2.2,2.2,0,0,1-2.32.41c-12.8-5.34-18.29,5.73-18.53,6.21a2.18,2.18,0,1,1-3.93-1.89c2.55-5.31,10.89-13.88,24.14-8.36a2.2,2.2,0,0,1,.64,3.63Z" transform="translate(-15.74 -12.78)"/></g><g class="cls-32"><path class="cls-33" d="M1183.11,638.33a10.24,10.24,0,0,1-8-4.12,9.43,9.43,0,0,1-.23-10.52c2.21-3.33,7.73-4.87,8.35-5a2.33,2.33,0,0,1,1.2,4.5c-1.83.48-4.8,1.78-5.69,3.12a4.79,4.79,0,0,0,.15,5.25c1.54,2.17,4.76,2.76,9.07,1.66a2.29,2.29,0,0,1,2.83,1.66,2.32,2.32,0,0,1-1.66,2.83A19,19,0,0,1,1183.11,638.33Z" transform="translate(-15.74 -12.78)"/></g><path class="cls-31" d="M750.85,595.88c0,4.5-3.31,8.15-7.39,8.15s-7.41-3.65-7.41-8.15,3.31-8.14,7.4-8.14S750.85,591.38,750.85,595.88Z" transform="translate(-15.74 -12.78)"/><path class="cls-31" d="M699.86,594.84c0,4.5-3.31,8.14-7.39,8.15s-7.41-3.65-7.41-8.14,3.31-8.15,7.4-8.15S699.86,590.34,699.86,594.84Z" transform="translate(-15.74 -12.78)"/><g class="cls-32"><path class="cls-33" d="M768.91,580.46a2.51,2.51,0,0,1-2.36-1.36c-7.4-14.24-20.51-8.49-21.07-8.24a2.52,2.52,0,1,1-2.08-4.59c6.2-2.83,20-4.25,27.64,10.5a2.53,2.53,0,0,1-1.09,3.41A2.28,2.28,0,0,1,768.91,580.46Z" transform="translate(-15.74 -12.78)"/></g><g class="cls-32"><path class="cls-33" d="M700.65,568.27a2.12,2.12,0,0,1-2.25.43c-12.52-5-17.68,5.87-17.9,6.34a2.12,2.12,0,1,1-3.85-1.78c2.39-5.2,10.36-13.66,23.33-8.5a2.12,2.12,0,0,1,1.18,2.76A2.17,2.17,0,0,1,700.65,568.27Z" transform="translate(-15.74 -12.78)"/></g><g class="cls-32"><path class="cls-33" d="M714.15,631.17a8.41,8.41,0,0,1-4.63-1.38c-4.39-2.9-5.46-9.48-2.87-17.6l5.9-27.06a1.93,1.93,0,1,1,3.78.82l-6,27.24c-2.44,7.68-.93,11.91,1.27,13.36s5.74.67,8.88-2.06a2.07,2.07,0,0,1,2.82.09,1.82,1.82,0,0,1,0,2.62C720.26,629.85,717.05,631.18,714.15,631.17Z" transform="translate(-15.74 -12.78)"/></g><g class="cls-32"><path class="cls-33" d="M752.06,641.54a2.2,2.2,0,0,1-2.32.41c-12.8-5.34-18.29,5.73-18.53,6.21a2.18,2.18,0,1,1-3.92-1.89c2.54-5.31,10.88-13.88,24.13-8.36a2.19,2.19,0,0,1,1.17,2.86A2.08,2.08,0,0,1,752.06,641.54Z" transform="translate(-15.74 -12.78)"/></g></svg>