<svg id="Layer_2" data-name="Layer 2" xmlns="http://www.w3.org/2000/svg" xmlns:xlink="http://www.w3.org/1999/xlink" viewBox="0 0 1830.18 1602.16"><defs><style>.cls-1{mask:url(#mask);filter:url(#luminosity-noclip-3);}.cls-2,.cls-4{mix-blend-mode:multiply;}.cls-2{fill:url(#linear-gradient);}.cls-3{mask:url(#mask-2);filter:url(#luminosity-noclip-4);}.cls-4{fill:url(#linear-gradient-2);}.cls-5{fill:#0f194a;}.cls-6{fill:#b3dcc2;}.cls-17,.cls-24,.cls-7{fill:none;stroke-miterlimit:10;}.cls-7{stroke:#0f194a;stroke-width:4px;}.cls-8{clip-path:url(#clip-path);}.cls-9{fill:#353f70;}.cls-10{fill:#8894b7;}.cls-11{fill:#727ea8;}.cls-12{fill:#f8a17a;}.cls-13{fill:#90c1da;}.cls-14{fill:#acd9e3;}.cls-15{fill:#e5785c;}.cls-16{fill:#4d3030;}.cls-17{stroke:#4d3030;}.cls-17,.cls-24{stroke-width:3px;}.cls-18{fill:#96685c;}.cls-19{mask:url(#mask-3);}.cls-20{fill:url(#linear-gradient-3);}.cls-21{fill:#061f33;}.cls-22{fill:#0b2d4e;}.cls-23{fill:#a47d59;}.cls-24{stroke:#a47d59;}.cls-25{fill:#8c6646;}.cls-26{fill:#8cc1b2;}.cls-27{clip-path:url(#clip-path-2);}.cls-28{fill:#c69b77;}.cls-29{mask:url(#mask-4);}.cls-30{fill:url(#linear-gradient-4);}.cls-31{filter:url(#luminosity-noclip-2);}.cls-32{filter:url(#luminosity-noclip);}</style><filter id="luminosity-noclip" x="545.52" y="-9035.94" width="366.75" height="32766" filterUnits="userSpaceOnUse" color-interpolation-filters="sRGB"><feFlood flood-color="#fff" result="bg"/><feBlend in="SourceGraphic" in2="bg"/></filter><mask id="mask" x="545.52" y="-9035.94" width="366.75" height="32766" maskUnits="userSpaceOnUse"><g class="cls-32"/></mask><linearGradient id="linear-gradient" x1="728.89" y1="869.21" x2="728.89" y2="645.87" gradientUnits="userSpaceOnUse"><stop offset="0" stop-color="#fff"/><stop offset="1"/></linearGradient><filter id="luminosity-noclip-2" x="1015.18" y="-9035.94" width="366.75" height="32766" filterUnits="userSpaceOnUse" color-interpolation-filters="sRGB"><feFlood flood-color="#fff" result="bg"/><feBlend in="SourceGraphic" in2="bg"/></filter><mask id="mask-2" x="1015.18" y="-9035.94" width="366.75" height="32766" maskUnits="userSpaceOnUse"><g class="cls-31"/></mask><linearGradient id="linear-gradient-2" x1="1198.56" y1="869.21" x2="1198.56" y2="645.87" xlink:href="#linear-gradient"/><clipPath id="clip-path"><path class="cls-5" d="M109.23,696.87c-46.16,58.42-81.77,137.9-57.06,211.27C76.81,981.28,155.59,1026.38,190,1095.85c19.46,39.26,20,82.44,20.71,124.58,1,55.18-11.14,113.77,30.75,160.39,24.78,27.59,62.16,43.88,100,54.59,75.93,21.5,155.47,31.59,222.92,72.2,110.79,66.71,246.86,90,378.9,82.83a953.81,953.81,0,0,0,197.51-32.3c74.52-20.25,140.76-56.09,215.8-75.29,130-33.28,307.86-33.73,384-150.86,51.24-78.86,69-176.33,29.13-262.25-19-40.85-55.12-72-75.73-112.16-28.46-55.41-36.14-118.6-17.12-177.47q1.18-3.63,2.47-7.23c19.87-55,59.87-102.36,76.41-158.39,34.15-115.67-41.31-238-140.51-312.31-41.22-30.89-87.28-56.61-137.44-71.27-138.35-40.42-292.08,6.37-430.85-32.74-106.46-30-193.86-108-302.34-130.53-83.35-17.33-173.44,1.17-244.25,46.46S378.13,230.28,354.7,308.34c-21.7,72.33-21,151.78-59.51,217.48-32.94,56.22-94,86.55-143.53,127.34A287.23,287.23,0,0,0,109.23,696.87Z"/></clipPath><filter id="luminosity-noclip-3" x="545.52" y="608.96" width="366.75" height="270.1" filterUnits="userSpaceOnUse" color-interpolation-filters="sRGB"><feFlood flood-color="#fff" result="bg"/><feBlend in="SourceGraphic" in2="bg"/></filter><mask id="mask-3" x="545.52" y="608.96" width="366.75" height="270.1" maskUnits="userSpaceOnUse"><g class="cls-1"><polygon class="cls-2" points="728.89 879.06 912.27 608.96 545.52 608.96 728.89 879.06"/></g></mask><linearGradient id="linear-gradient-3" x1="728.89" y1="869.21" x2="728.89" y2="645.87" gradientUnits="userSpaceOnUse"><stop offset="0" stop-color="#fff"/><stop offset="1" stop-color="#fff"/></linearGradient><clipPath id="clip-path-2"><path class="cls-6" d="M1319.87,1039c-6.79-18.06-17-32.83-22.89-51.49-8-25.32-13.4-61.43-4.25-87.64,9.71-27.83,21.63-49.78,22.36-80.78.62-26.54-4.73-52.69-10-78.54-5.28-25.61-7.66-33-32.73-36.94-8.94-1.4-17.76-3.82-26.68-5.4a264.32,264.32,0,0,0-45.81-3.91h-1.2a264.52,264.52,0,0,0-45.82,3.91c-8.91,1.58-17.73,4-26.67,5.4-25.07,3.9-27.46,11.33-32.73,36.94-5.32,25.85-10.67,52-10.05,78.54.73,31,12.64,52.95,22.36,80.78,9.15,26.21,3.72,62.32-4.25,87.64-5.87,18.66-16.1,33.43-22.89,51.49a7.26,7.26,0,0,0-.64,4.42c.52,1.89,2.36,3,4,3.88,33.32,17.41,70.66,22.64,107.18,25.34,3.21.23,6.33.46,9.41.66v.09l.65,0,.64,0v-.09c3.09-.2,6.21-.43,9.42-.66,36.52-2.7,73.86-7.93,107.18-25.34,1.69-.88,3.53-2,4-3.88A7.26,7.26,0,0,0,1319.87,1039Z"/></clipPath><filter id="luminosity-noclip-4" x="1015.18" y="608.96" width="366.75" height="270.1" filterUnits="userSpaceOnUse" color-interpolation-filters="sRGB"><feFlood flood-color="#fff" result="bg"/><feBlend in="SourceGraphic" in2="bg"/></filter><mask id="mask-4" x="1015.18" y="608.96" width="366.75" height="270.1" maskUnits="userSpaceOnUse"><g class="cls-3"><polygon class="cls-4" points="1198.56 879.06 1381.94 608.96 1015.18 608.96 1198.56 879.06"/></g></mask><linearGradient id="linear-gradient-4" x1="1198.56" y1="869.21" x2="1198.56" y2="645.87" xlink:href="#linear-gradient-3"/></defs><title>Artboard 3</title><path class="cls-7" d="M593.93,1476.5c-60.36-19.25-126.5-13.72-190.6-14.53s-164.16-10.11-188.3-73.46c-25.56-67.06,11.48-136.6,11.8-204.36.09-18.55-2.12-37.32-9.3-54.73C183.93,1047.9,71.38,1028.16,32,946.92,2.49,886.25,17.71,813.78,56.43,757.38c33.63-49,82.92-87.51,135.08-120.44C239,607,275.3,558.5,293.91,509.26c34.78-92,13.43-192.54,52.4-282.24C381.23,146.68,448.09,78.63,531.57,42.67c145.7-62.75,317.89-6.92,421.75,100.42,55.72,57.59,135.78,91,217.28,96.95,158.31,11.53,323.21-65.06,469.87,21.4,74.75,44.07,127.58,122.19,144,204.63,9.27,46.43,8.21,98.09-11.93,141.93-19.81,43.14-54,78.34-83.35,115.61-48.78,61.93-75.48,144.71-29.85,214.47,19.94,30.5,48.77,55.44,76.1,81,70,65.45,95.88,161.78,71.79,249-27.34,99-114,164.06-226.94,176.5-83.55,9.21-176-2.82-251.78,36.48"/><path class="cls-5" d="M109.23,696.87c-46.16,58.42-81.77,137.9-57.06,211.27C76.81,981.28,155.59,1026.38,190,1095.85c19.46,39.26,20,82.44,20.71,124.58,1,55.18-11.14,113.77,30.75,160.39,24.78,27.59,62.16,43.88,100,54.59,75.93,21.5,155.47,31.59,222.92,72.2,110.79,66.71,246.86,90,378.9,82.83a953.81,953.81,0,0,0,197.51-32.3c74.52-20.25,140.76-56.09,215.8-75.29,130-33.28,307.86-33.73,384-150.86,51.24-78.86,69-176.33,29.13-262.25-19-40.85-55.12-72-75.73-112.16-28.46-55.41-36.14-118.6-17.12-177.47q1.18-3.63,2.47-7.23c19.87-55,59.87-102.36,76.41-158.39,34.15-115.67-41.31-238-140.51-312.31-41.22-30.89-87.28-56.61-137.44-71.27-138.35-40.42-292.08,6.37-430.85-32.74-106.46-30-193.86-108-302.34-130.53-83.35-17.33-173.44,1.17-244.25,46.46S378.13,230.28,354.7,308.34c-21.7,72.33-21,151.78-59.51,217.48-32.94,56.22-94,86.55-143.53,127.34A287.23,287.23,0,0,0,109.23,696.87Z"/><g class="cls-8"><rect class="cls-9" x="401.13" y="435.34" width="37.74" height="423.82"/><rect class="cls-9" x="571.51" y="435.34" width="37.74" height="423.82"/><rect class="cls-9" x="656.7" y="435.34" width="37.74" height="423.82"/><rect class="cls-9" x="741.89" y="435.34" width="37.74" height="423.82"/><rect class="cls-9" x="827.08" y="435.34" width="37.74" height="423.82"/><rect class="cls-9" x="912.27" y="435.34" width="37.74" height="423.82"/><rect class="cls-9" x="997.46" y="435.34" width="37.74" height="423.82"/><rect class="cls-9" x="1082.65" y="435.34" width="37.74" height="423.82"/><rect class="cls-9" x="1167.84" y="435.34" width="37.74" height="423.82"/><rect class="cls-9" x="1253.03" y="435.34" width="37.74" height="423.82"/><rect class="cls-9" x="1338.22" y="435.34" width="37.74" height="423.82"/><rect class="cls-9" x="1508.59" y="435.34" width="37.74" height="423.82"/><rect class="cls-9" x="390.48" y="418.8" width="1166.5" height="57.98"/><rect class="cls-9" x="401.13" y="695.96" width="1145.21" height="159.88"/><path class="cls-10" d="M1661.54,1153.65H282.77l87.54-295.83c0-9,9.94-16.35,22.21-16.35H1554.94c12.27,0,22.22,7.32,22.22,16.35Z"/><path class="cls-11" d="M1661.54,1153.65H282.77l87.54-282.81c0-9,9.94-16.35,22.21-16.35H1554.94c12.27,0,22.22,7.32,22.22,16.35Z"/><rect class="cls-11" x="390.48" y="418.8" width="1166.5" height="14.08"/><path class="cls-11" d="M962.18,626.76c-.69,11.33-15.58,136.92-15.26,153.31s11,66.55,9.55,57.55,3.65,19-14.29,19c-9,0-202.37-10.49-271.72-10.63-69.54-.15-138.41,10.78-145.25,10.62-13.68-.32-19.54-6.89-27.23-27s9.31-108.78,9.79-136.7-12.39-44.47-11.35-58.3c1.38-18.31,17.38-26.49,32.11-26.79,8.43-.16,96,4.48,163.61,3.14,66.7-1.32,236.85-9.36,243.84-9.5C950.05,601.16,962.88,615.43,962.18,626.76Z"/><path class="cls-9" d="M962.18,626.78c-.69,11.34-15.58,136.92-15.26,153.31s11,66.55,9.55,57.56,3.65,19-14.29,19c-9,0-202.37-10.49-271.72-10.64-69.54-.15-138.41,10.79-145.25,10.63-13.68-.33-19.54-6.9-27.23-27-3.5-9.12-1.89-32.4.94-57.71,153.62,50.93,458.34,89.81,420.36-168.72,8.84-1,14.59-1.69,16.7-1.73C950.05,601.18,962.88,615.45,962.18,626.78Z"/><path class="cls-10" d="M496.42,632.59c1.38-18.31,17.38-26.49,32.11-26.79,8.43-.16,96,4.48,163.61,3.14,36-.71,189.57-3.91,210.83-6C834.08,715.24,495.38,646.42,496.42,632.59Z"/><path class="cls-11" d="M1455.57,626.76c-.69,11.33-15.58,136.92-15.26,153.31s11,66.55,9.55,57.55,3.65,19-14.29,19c-9,0-202.37-10.49-271.72-10.63-69.54-.15-138.41,10.78-145.25,10.62-13.68-.32-19.54-6.89-27.23-27s9.31-108.78,9.79-136.7-12.39-44.47-11.35-58.3c1.38-18.31,17.38-26.49,32.11-26.79,8.43-.16,96,4.48,163.61,3.14,66.7-1.32,236.85-9.36,243.84-9.5C1443.44,601.16,1456.27,615.43,1455.57,626.76Z"/><path class="cls-9" d="M1455.57,626.78c-.69,11.34-15.58,136.92-15.26,153.31s11,66.55,9.55,57.56,3.65,19-14.29,19c-9,0-202.37-10.49-271.72-10.64-69.54-.15-138.41,10.79-145.25,10.63-13.68-.33-19.54-6.9-27.23-27-3.5-9.12-1.89-32.4.94-57.71,153.62,50.93,458.34,89.81,420.36-168.72,8.84-1,14.59-1.69,16.7-1.73C1443.44,601.18,1456.27,615.45,1455.57,626.78Z"/><path class="cls-10" d="M989.81,632.59c1.38-18.31,17.38-26.49,32.11-26.79,8.43-.16,96,4.48,163.61,3.14,36-.71,189.57-3.91,210.83-6C1327.47,715.24,988.77,646.42,989.81,632.59Z"/><rect class="cls-9" x="282.77" y="1122.59" width="1378.77" height="490.21"/></g><path class="cls-12" d="M531.16,818.92c-3.69,9.32-7.24,18.69-10.74,28.07-11.95,32.13-40.39,86.62-8.32,116.23,3.64,3.35,12.38,3.17,16.88,2.27,12.9-2.55,19.4-14.57,25.72-24.79,19-30.7,32.71-64.32,51-95.45C618.89,822.79,625.57,796,631.9,771c4.2-16.56,9.59-40.27-4.38-54a27.19,27.19,0,0,0-21.86-7.49A42.56,42.56,0,0,0,592.07,714a50,50,0,0,0-10.4,6.54c-7.75,6.62-11.5,16.19-16.12,25-5.43,10.36-11,20.62-16.07,31.17C542.82,790.52,536.82,804.65,531.16,818.92Z"/><path class="cls-13" d="M545.59,768.23c17.72-32.51,40.77-61.74,76.3-73.67,10.17-3.41,22.74-4.25,30.37,3.3,4.78,4.73,6.51,11.88,6.11,18.59-.59,9.74-5,19-7.24,28.4a313.76,313.76,0,0,1-27,72.48c-2.58,4.93-21.5,58.49-20,59.81-12.47-10.84-30.25-24.34-45.18-31.44-4-1.89-40.13-20.5-41.18-18.15C526.14,808.65,534.89,787.84,545.59,768.23Z"/><path class="cls-12" d="M913.07,818.92c3.7,9.32,7.25,18.69,10.74,28.07,12,32.13,40.39,86.62,8.32,116.23-3.63,3.35-12.37,3.17-16.88,2.27-12.9-2.55-19.39-14.57-25.71-24.79-19-30.7-32.72-64.32-51-95.45C825.34,822.79,818.66,796,812.33,771c-4.19-16.56-9.58-40.27,4.38-54a27.2,27.2,0,0,1,21.86-7.49A42.47,42.47,0,0,1,852.16,714a50.11,50.11,0,0,1,10.41,6.54c7.75,6.62,11.5,16.19,16.11,25,5.44,10.36,11,20.62,16.07,31.17C901.41,790.52,907.41,804.65,913.07,818.92Z"/><path class="cls-13" d="M898.49,768.23c-17.73-32.51-40.78-61.74-76.3-73.67-10.18-3.41-22.75-4.25-30.38,3.3-4.78,4.73-6.51,11.88-6.1,18.59.58,9.74,5,19,7.23,28.4a313.78,313.78,0,0,0,27,72.48c2.58,4.93,21.49,58.49,20,59.81,12.48-10.84,30.26-24.34,45.18-31.44,4-1.89,40.14-20.5,41.18-18.15C917.94,808.65,909.18,787.84,898.49,768.23Z"/><path class="cls-14" d="M848.07,1017.83c-.23-1-.46-1.94-.68-2.91-8.38-36.27-9.61-73.72-8.56-110.8,1-36.36,9.13-72.13,10.18-108.51,1.21-42-6.1-101.55-58.6-106.39-21.71-2-43.54-4.35-65.41-4.61v-.05l-2.34,0-2.34,0v.05c-21.86.26-43.7,2.6-65.41,4.61-52.5,4.84-59.8,64.44-58.59,106.39,1,36.38,9.14,72.15,10.17,108.51,1,37.08-.18,74.53-8.56,110.8-.22,1-.45,1.94-.68,2.91-1.65,6.82-4.31,13.73-3.06,20.64,2.69,14.91,38.61,22.15,50.71,25.36,22.57,6,45.88,8.66,69.12,10.37l6.26.45v.33l2.38-.16,2.39.16v-.33l6.25-.45c23.24-1.71,46.55-4.38,69.12-10.37,12.11-3.21,48-10.45,50.72-25.36C852.38,1031.56,849.72,1024.65,848.07,1017.83Z"/><path class="cls-12" d="M688.88,724.24c32.42,21.4,95.52,4.81,77.64-37.63-2.17-5.15-4.81-10.14-6.26-15.51-2.39-8.92-2.16-18.1-1.91-27.17.29-10.59.37-21.21.95-31.78-11.85-2.21-21.46-3.32-34-2.86-10.41.38-20.81-.58-31.22,0a4,4,0,0,0-2.34.61,2.74,2.74,0,0,0-.78,2c-1.39,14.3,0,28.78-1.12,43.1-.61,8-1.7,17.18-5.36,24.61-5.63,11.44-14,22.06-5.94,34.47A35.53,35.53,0,0,0,688.88,724.24Z"/><path class="cls-15" d="M759.79,669.17c-1.87-8.28-1.38-17-1.15-25.36.29-10.59.37-21.2,1-31.78-11.85-2.21-21.46-3.32-34.05-2.86-10.41.38-20.82-.58-31.23,0a4,4,0,0,0-2.34.61,2.77,2.77,0,0,0-.77,2c-1.4,14.3,0,28.78-1.12,43.1a92.41,92.41,0,0,1-1.75,12.25c1.64,1.27,3.3,2.48,5,3.6,12.86,8.4,30.18,11.19,45.57,7.34A70.79,70.79,0,0,0,759.79,669.17Z"/><path class="cls-16" d="M780.14,623.08c-9.83,11.87-23.59,19.68-37.23,26.84a44.69,44.69,0,0,1-10.43,4.37c-11.29,2.64-22.69-3.48-32.11-10.25a185.38,185.38,0,0,1-35-32.75c-10.25-12.44-16-26-22.66-40.67S634.53,541.06,636,525c1.46-16.55-7.79-31.33-3.61-48.06a47.76,47.76,0,0,1,18-26.72,34.6,34.6,0,0,1,16.42-6.83c13.33-1.45,24.66,7.61,37.84,8.23s26.09-4.21,38.86-7.12c11.16-2.54,23.39-3.94,34.46-.15,12.33,4.22,18.26,13.65,25.08,24.57,5.82,9.33,14.59,16.32,21.6,24.61,9.39,11.09,12.36,25.21,9.37,39.66a123.08,123.08,0,0,1-13.49,35.6c-5.41,9.43-11.3,19.36-17.67,28.3-4.85,6.81-10.17,11.82-15.84,17.76C784.47,617.38,782.43,620.32,780.14,623.08Z"/><path class="cls-12" d="M792.21,566.34c-.21-13.58-2.21-26.44-5.81-37.09-15.53-46-73.2-56.81-107.52-23.35C640.6,543.21,656.27,631.36,697.28,662a45.68,45.68,0,0,0,39,7.27C776.14,658.13,792.89,608.74,792.21,566.34Z"/><path class="cls-15" d="M801.64,529.09c-17.47-46-82.55-56.71-121.34-23.21-9.07,7.84-18.73,20.17-22.94,31.45-4.51,12.08-3.33,25.45-2.08,38.29,1-10.6,5.93-20.13,12.89-28a93,93,0,0,1,11.32-10.69c1.46-1.18,12.46-11.18,11.4-12.55,3.92,5.1,7.8,10.17,13.83,12.73,7.53,3.19,15.38,5,23.34,6.77,14.09,3.07,25.11,7,35.33,17.57,9.45,9.74,16.29,21.85,20.83,34.58,1.44,4,3.89,10.22,9.15,8.41,1.25-.42,12.08-8.5,12.19-9.06a140.06,140.06,0,0,0,2.59-29.16C807.93,552.6,805.68,539.75,801.64,529.09Z"/><path class="cls-16" d="M770.49,557.15c3.51,5.73,5.66,12.18,7.77,18.56,3.35,10.09,6,20.94,10.29,30.62,14.64-8.83,24.29-29.66,31-44.72,5.91-13.37,7.57-24,2.57-38-3.24-9.06-9.45-17.11-16.81-24-21.27-19.93-53.17-30.08-83.94-28.06-10.8.71-19.62,4.52-29.76,7.46-9.32,2.7-16.45,4.47-23.3,12.14-6.09,6.82-10,15.31-13,23.93-5,14.05-7.83,28.53-6.73,43.46.71,9.55.77,19,10.22,24.19q-.24-8.54-.49-17.05a30.69,30.69,0,0,1,2.37-15.11c2.52-7,4.83-12.54,9.61-18.28,6.26-7.51,14.51-14.3,16.25-23.91,14.81,14.39,32.27,23.4,51.72,30.09,12.33,4.25,24.87,6.69,32.19,18.48C770.39,557,770.44,557.07,770.49,557.15Z"/><path class="cls-12" d="M792.49,567.55c17.61-9.86,23.3,14.6,20.38,26.83a39,39,0,0,1-6.24,14.17c-4.15,5.62-16.11,15-23.11,9-3.18-2.74-3.55-7.44-3.69-11.64C779.46,594.63,780.55,574.23,792.49,567.55Z"/><path class="cls-12" d="M665.22,567.55c-17.61-9.86-23.3,14.6-20.38,26.83a39,39,0,0,0,6.24,14.17c4.15,5.62,16.11,15,23.11,9,3.18-2.74,3.55-7.44,3.69-11.64C678.25,594.63,677.16,574.23,665.22,567.55Z"/><path class="cls-17" d="M640.12,527.7c-.15-7.18-4.92-13.28-8.56-19.47A52.32,52.32,0,0,1,625,476a42.78,42.78,0,0,1,20.53-31.71,35.76,35.76,0,0,1,27.75-3.84c8.68,2.48,15.74,9.12,24.16,11.43,18.87,5.16,38.21-10.18,56.17-13.89,17.78-3.68,36.78,2.31,45.68,20.18,3.5,7.05,5.05,15.21,9.63,21.54,7.65,10.56,22.37,14,28.46,25.69,10,19-9.82,46.8-19.87,61.58"/><path class="cls-18" d="M684.73,471.57c14.65.94,28.92-2.22,43.23-5.15a145.91,145.91,0,0,1,21.88-2.22c3.67-.11,7.35-.09,11,.06a69.63,69.63,0,0,1,11.06,1.09,31,31,0,0,1,18.9,11.73c2.29,3.25,2.94,7.25,3.19,10.9s.15,7.31.9,10.74a22.54,22.54,0,0,0,4.64,9.38c2.16,2.89,4.61,5.71,6.28,9.08a27.94,27.94,0,0,1,2.51,10.76,74.15,74.15,0,0,1-.4,11A94.42,94.42,0,0,0,807.7,528a27.09,27.09,0,0,0-2.93-10.27c-1.69-3.13-4.14-5.81-6.43-8.68a24,24,0,0,1-5.25-9.9c-.94-3.69-.92-7.44-1.18-11s-.92-7-2.92-9.8a20.27,20.27,0,0,0-3.52-3.8,30.71,30.71,0,0,0-4.24-3.1,31.46,31.46,0,0,0-9.81-3.7,66.75,66.75,0,0,0-10.67-1.15q-5.41-.27-10.85-.17a170.45,170.45,0,0,0-21.64,1.86c-7.14,1.12-14.36,2.62-21.63,3.36A97.19,97.19,0,0,1,684.73,471.57Z"/><path class="cls-12" d="M632.55,862.87c-11.43,10.51-22.24,21.17-34.33,31-12.59,10.19-25.54,19.93-38.7,29.36-4.39,3.15-9,6.48-11.29,11.38-3.1,6.65-1.16,14.56,1.87,21.25a31.65,31.65,0,0,0,5.94,9.27c3.2,3.24,7.39,5.3,11.64,6.93,4,1.53,8.21,2.73,12.47,2.49,8.31-.49,15.24-6.28,21.33-12a425,425,0,0,0,30.92-32c5-5.7,9.44-11.82,14.4-17.5,3-3.48,8.86-8.14,13.22-9.6,3-1,6.16-.58,9.26-.29,7.43.7,15.13.64,22.08-2.06,8-3.11,19.07-14.42,16.13-23.92a5,5,0,0,1-.42-2.24,4.83,4.83,0,0,1,1.54-2.25c3.43-3.63,3.9-10.29-.12-13.25a9.33,9.33,0,0,0-2.37-15.34c5.34-.36,10.55,1.61,15.28,4.1,5.3,2.8,10.08,7.05,16,7.88,9.18,1.3,7.49-6.47,3.1-10.91-4.07-4.11-9.36-6.72-14-10a47.58,47.58,0,0,0-12.24-6.57c-6.64-2.26-13.78-2.49-20.79-2.69-6.34-.18-12.85-.34-18.85,1.74-7.33,2.54-13.12,8.15-18.66,13.59C648.38,848.62,640.39,855.67,632.55,862.87Z"/><g class="cls-19"><polygon class="cls-20" points="728.89 879.06 912.27 608.96 545.52 608.96 728.89 879.06"/></g><path class="cls-21" d="M750.91,887.84h-44a3.92,3.92,0,0,1-3.92-3.72l-4.83-94.27a3.93,3.93,0,0,1,3.92-4.13h53.7a3.94,3.94,0,0,1,3.93,4.13l-4.84,94.27A3.92,3.92,0,0,1,750.91,887.84Z"/><path class="cls-22" d="M750.91,894.39h-44a3.93,3.93,0,0,1-3.92-3.73l-4.83-94.26a3.92,3.92,0,0,1,3.92-4.13h53.7a3.93,3.93,0,0,1,3.93,4.13l-4.84,94.26A3.93,3.93,0,0,1,750.91,894.39Z"/><path class="cls-12" d="M774.29,951.61l2.52,1.55c18.32,11.34,35.84,24.25,55.68,32.89,6.92,3,14.29,5.5,21.82,5.1,10.27-.54,14.72-6.37,20.5-13.65s4.45-18.46-.89-26.14-13.76-12.56-22.17-16.63c-21.31-10.34-44.26-17.14-65.1-28.4-7.62-4.12-11.49-9.14-11.09-18a94.51,94.51,0,0,0-3.19-29c-2.23-8.26-5.51-17-5.52-25.63,0-3,.49-6.65-1.85-8.59a5.23,5.23,0,0,0-5.57-.36,10.2,10.2,0,0,0-4,4.19c-4,6.92-2,14.46-1.36,22,.39,4.6.52,9.4-.76,13.89-2.39,8.41-13.1,9.15-20.28,9.09-8-.06-20.64-.73-26.62-6.48-.8-.77-6.51-10.7-5.37-11-3.37.84-5.29,4-6.53,7-1.79,4.32-.1,5.78.57,10,.64,4-2.49,8-1.73,12,.67,3.46,4.08,5.94,4.61,9.43.31,2-.4,4-.53,6a10.71,10.71,0,0,0,3.63,8.6c1,.89,2.33,1.7,2.65,3a6.27,6.27,0,0,1-.11,2.36,11.88,11.88,0,0,0,3.84,10.34c3.05,2.68,7.22,3.58,11.16,4.55,10.16,2.5,20.29,4.24,30,8.29A194.23,194.23,0,0,1,774.29,951.61Z"/><path class="cls-23" d="M1357.44,816.53c-24.54,10-55.48,7-77.15-8.43s-41.76-26.88-69.43-27.71c-17.19-.51-33.3,6.68-49.67,10.79-14.4,3.61-25.4,15.17-40.92,17.3-20.4,2.79-41.35-9.75-50.52-28.18s-7.17-41.38,3.09-59.22c7.49-13,14.38-22.76,6-37.28-1.83-3.17-4.14-6.1-5.39-9.53a26.52,26.52,0,0,1-1.23-10.22c.76-18.82,15-32.93,24.51-48.47,2.22-3.64,4.46-7.41,5.13-11.61,1.7-10.7-6.8-20-11.33-29.79-14.69-31.89,10.37-68.17,34.76-87.3,14.39-11.29,31.64-15.85,47.16-25.05,7.07-4.19,13.51-9.38,20.67-13.42,12.47-7.05,26.06-7.35,39.91-5.41,39.44,5.53,84.29,34.21,93.43,75.47,6.2,28-4,60.5,23.76,80.08,8.35,5.9,18.89,9.41,24.58,17.9,12.1,18-5.67,44.76,5.39,63.45,2.46,4.17,6.15,7.45,9.51,10.94A90.16,90.16,0,0,1,1414,761.07c-.61,6.21-1.91,12.47-5,17.9-4.21,7.46-11.35,12.74-18.32,17.72-10.44,7.44-21.09,14.79-32.94,19.7Z"/><path class="cls-24" d="M1393.19,712.05c-12.24-10.52-14.87-28.92-11.33-44.68,2.32-10.31,6.9-20.34,6.49-30.9a34.11,34.11,0,0,0-22.18-30.09c-6.36-2.24-13.37-2.54-19.46-5.45-9.22-4.39-14.29-13.66-17.65-22.86-3.67-10-2.15-18.57-2.19-29.05-.06-13.41-.4-26.83-1.76-40.18-1.57-15.39-10.78-30.64-21.34-41.7-1.52-1.58-3.1-3.11-4.73-4.57-27.42-24.48-79.82-35.19-112.31-15.29-6.47,4-10.5,9.45-15.63,14.7s-12,9.66-18.28,13.61c-12.76,8-26.47,14.3-39.93,21-8.61,4.26-17.35,8.86-23.67,16.09-7.63,8.71-11,20.63-10.65,32.2s4.14,22.83,9.44,33.12c3.75,7.27,8.28,14.22,10.67,22,3.88,12.75-3.54,24.73-13,32.91-7.13,6.2-15.33,11.87-19.24,20.47a26,26,0,0,0,.77,22.72c3.48,6.45,9.59,11.21,12.83,17.77a24,24,0,0,1,.25,20.4c-3.76,8.12-12.33,15.67-9.52,24.16"/><path class="cls-25" d="M1305.46,693.94a51.45,51.45,0,0,1-4.1,30c-12.08,25.12-42,30-67.18,31a149.35,149.35,0,0,1-28-1.48c-8.23-1.22-15.57,0-23.89-.16a91.5,91.5,0,0,1-46.68-14c-6.76-4.3-13.12-9.72-16.59-16.93-4.77-9.92-3.38-21.64-.86-32.35,1.46-6.19,3.29-12.36,6.46-17.86,3.4-5.89,8.28-10.89,11.11-17.07,5.32-11.61,1-25.19,5.68-36.58,3.7-8.93,13-19,20.75-24.57,10.52-7.59,24.1-10,37-9.11s25.46,4.78,37.8,8.82c9.7,3.17,18,1.2,25.17,9.22,5.64,6.36,3.67,16.74,5.48,24.44C1273.76,653.16,1301.37,666.83,1305.46,693.94Z"/><path class="cls-26" d="M1126.92,809c-16.47,28.24-35,55.33-52.74,82.8-9.9,15.33-19.91,30.92-25.22,48.39-24.43-.6-48.94-5.77-72.93-10.36,3.85-32.41,21-61.79,36.26-90,16-29.43,33.12-58.19,48.12-88.13,12.2-24.34,35-53.38,65.46-38.75,23.45,11.26,19.8,43.51,15,64.32C1138.25,788.33,1132.88,798.77,1126.92,809Z"/><path class="cls-26" d="M1268.68,809c16.47,28.24,35,55.33,52.74,82.8,9.9,15.33,19.91,30.92,25.22,48.39,24.43-.6,48.94-5.77,72.93-10.36-3.85-32.41-21-61.79-36.26-90-16-29.43-33.12-58.19-48.12-88.13-12.2-24.34-35-53.38-65.46-38.75-23.45,11.26-19.8,43.51-15,64.32C1257.35,788.33,1262.72,798.77,1268.68,809Z"/><path class="cls-6" d="M1319.87,1039c-6.79-18.06-17-32.83-22.89-51.49-8-25.32-13.4-61.43-4.25-87.64,9.71-27.83,21.63-49.78,22.36-80.78.62-26.54-4.73-52.69-10-78.54-5.28-25.61-7.66-33-32.73-36.94-8.94-1.4-17.76-3.82-26.68-5.4a264.32,264.32,0,0,0-45.81-3.91h-1.2a264.52,264.52,0,0,0-45.82,3.91c-8.91,1.58-17.73,4-26.67,5.4-25.07,3.9-27.46,11.33-32.73,36.94-5.32,25.85-10.67,52-10.05,78.54.73,31,12.64,52.95,22.36,80.78,9.15,26.21,3.72,62.32-4.25,87.64-5.87,18.66-16.1,33.43-22.89,51.49a7.26,7.26,0,0,0-.64,4.42c.52,1.89,2.36,3,4,3.88,33.32,17.41,70.66,22.64,107.18,25.34,3.21.23,6.33.46,9.41.66v.09l.65,0,.64,0v-.09c3.09-.2,6.21-.43,9.42-.66,36.52-2.7,73.86-7.93,107.18-25.34,1.69-.88,3.53-2,4-3.88A7.26,7.26,0,0,0,1319.87,1039Z"/><g class="cls-27"><path class="cls-6" d="M1278.56,709c1.55-4.76,7.37-15.38,4.43-19.54s-13.92-3.29-18.21-3.14L1123.39,691c2.73,10.1,2.84,19.53,6.72,29.52a95,95,0,0,0,13.23,23.77,75,75,0,0,0,44.81,28c30.36,6,63.9-8.85,79.27-35.7C1272.37,728,1275.48,718.43,1278.56,709Z"/></g><path class="cls-12" d="M1163.88,744.2c14.77,16.79,43.15,18.12,63,11.25,13.52-4.67,23.07-15.33,23.36-30,.32-16.38-14.06-28-17.69-43.29-2.06-8.66-1.85-17.58-1.64-26.39.25-10.28.32-20.59.82-30.85-10.18-2.15-18.43-3.23-29.24-2.79-8.94.37-17.87-.56-26.81,0a3.15,3.15,0,0,0-2,.6,2.84,2.84,0,0,0-.67,1.93c-1.2,13.88,0,27.94-1,41.84-.86,12.78-3.73,25.65-11.21,36.24C1151.74,715.61,1154,733,1163.88,744.2Z"/><path class="cls-28" d="M1191.05,476.09a57.74,57.74,0,0,1,24.18-6.07,93.37,93.37,0,0,1,25,2.58,89.44,89.44,0,0,1,43.75,24A78.76,78.76,0,0,1,1306.67,541c1.16,8.44.74,16.87.91,25.17s.83,16.69,4.26,24,9.49,13.28,16.14,18.07,14.11,8.71,21.26,13.13c3.52,2.21,7.31,4.51,9.92,8.22s3.18,8.33,3.24,12.54a46.32,46.32,0,0,1-1.61,12.67c-1.09,4.15-3,8-4.62,11.78a23.82,23.82,0,0,0-2.24,11.78,35.81,35.81,0,0,0,3.46,11.7c3.54,7.5,7.9,14.67,11.5,22.26s6.37,15.68,7,24.09a59.38,59.38,0,0,1-3.08,24.75,59.12,59.12,0,0,0,2.5-24.7c-.83-8.31-3.74-16.22-7.47-23.63s-8.11-14.57-11.82-22.14a37.37,37.37,0,0,1-3.75-12.18,25.56,25.56,0,0,1,2.21-12.62c1.6-3.93,3.4-7.63,4.38-11.6a45.2,45.2,0,0,0,1.49-12.13c-.07-4.06-.66-8.2-2.92-11.37s-5.8-5.42-9.33-7.59c-7.08-4.34-14.55-8.19-21.45-13.13s-13.2-11-17-18.89-4.23-16.64-4.37-25,.3-16.75-.78-24.91c-2.21-16.38-10.36-31.66-21.88-43.48a88.15,88.15,0,0,0-42.73-24.12,92.28,92.28,0,0,0-24.69-3.12A57.61,57.61,0,0,0,1191.05,476.09Z"/><path class="cls-15" d="M1232,680.11c-1.6-8.05-1.44-16.29-1.24-24.45.25-10.28.32-20.58.82-30.85-10.18-2.15-18.43-3.23-29.23-2.78-8.95.37-17.88-.57-26.81,0a3.13,3.13,0,0,0-2,.59,2.91,2.91,0,0,0-.67,1.93c-1.2,13.88,0,27.94-1,41.85a101.4,101.4,0,0,1-1.5,11.89c1.4,1.23,2.83,2.41,4.3,3.5a45.8,45.8,0,0,0,39.12,7.12A58.91,58.91,0,0,0,1232,680.11Z"/><path class="cls-12" d="M1269.67,569.79c-.27-13.61-2.34-26.5-6-37.17-15.77-46.06-73.66-56.67-108-22.95-38.23,37.6-22.13,126,19.15,156.48a45.84,45.84,0,0,0,39.12,7.13C1254,661.94,1270.54,612.33,1269.67,569.79Z"/><path class="cls-15" d="M1269.61,529.83c-12.43-47.07-69.41-61.81-106-30.65-5.84,5-9.89,10.91-14.06,17.24-3.53,5.38-8.45,9.46-11.57,15.37a53.21,53.21,0,0,0-5.86,19.62c-.65,6.66,1.53,12.48,1.7,18.88a23.34,23.34,0,0,1,7.71-17.81c3.89-3.45,8.79-5.47,13.31-8s8.94-6,10.64-10.91c14.57,19.1,37.17,25,59.42,30.46,18.66,4.62,39.14,16.39,39.56,38.18.06,2.77.25,3.53,1.44,7.14a31.73,31.73,0,0,0,2.18-9.17c.4-3.55,1.43-7.09,2.13-10.64a159,159,0,0,0,2.74-22.16C1273.62,553.75,1272.49,540.74,1269.61,529.83Z"/><path class="cls-23" d="M1280.22,610.65a25.26,25.26,0,0,0,8.11-11.29c5-14.62,4.44-30.81,3.83-46.48-.34-8.74-.7-17.6-3.09-25.93a65.74,65.74,0,0,0-13.4-24.07c-16.88-20-42.08-30.11-66.3-28-9.73.83-16.88,5.5-25.43,9.45-8.34,3.86-18.14,6-26.91,8.88-10.13,3.34-20.54,6.84-28.58,13.85-5.87,5.12-10.14,11.88-13.2,19.05-3.66,8.59-4,18.15-3,27.32.86,7.56,1.86,15.62,5.21,22.68,3.14,6.6,10.12,10.91,16.38,14.21-.93-.49-.12-11.39-.15-13.07-.14-9.63.39-19.52,3.4-28.73,2.91-9,8.68-14.52,16.18-20a55.64,55.64,0,0,0,8.52-7.25c1.26-1.38,6.73-7.77,5.83-9.75,4.25,9.38,10.92,19,19.25,25.17,15.84,11.69,33.47,20,51.35,26.91,1.32.52,2.65,1,4,1.56,4.92,2,9.76,4.22,13.8,7.9,9,8.2,9.67,20.82,9.34,32.19a10.69,10.69,0,0,0,.33,3.7C1267.58,614.48,1276.6,613.4,1280.22,610.65Z"/><g class="cls-29"><polygon class="cls-30" points="1198.56 879.06 1381.94 608.96 1015.18 608.96 1198.56 879.06"/></g><path class="cls-21" d="M1220.58,870.84h-44a3.92,3.92,0,0,1-3.92-3.72l-4.83-94.27a3.93,3.93,0,0,1,3.92-4.13h53.7a3.93,3.93,0,0,1,3.92,4.13l-4.83,94.27A3.92,3.92,0,0,1,1220.58,870.84Z"/><path class="cls-22" d="M1220.58,877.39h-44a3.93,3.93,0,0,1-3.92-3.73l-4.83-94.26a3.92,3.92,0,0,1,3.92-4.13h53.7a3.92,3.92,0,0,1,3.92,4.13l-4.83,94.26A3.93,3.93,0,0,1,1220.58,877.39Z"/><path class="cls-12" d="M1262.81,934.61l2.52,1.55c18.32,11.34,35.84,24.25,55.68,32.89,6.91,3,14.29,5.5,21.82,5.1,10.26-.54,14.72-6.37,20.49-13.65s4.45-18.46-.88-26.14-13.76-12.56-22.17-16.63c-11.64-5.65-23.76-10.23-35.75-15.07-8.52-3.44-17.85-7.32-25.09-13s-12.23-13.37-17.16-20.87c-2.27-3.45-4-7.12-6.13-10.63-1.45-2.43-2.51-5.12-4.32-7.31-4.08-5-11-6.31-17.41-7-7-.69-16.52-2.48-23.1.57-4.35,2-6.9,7-9,11.14-1.35,2.61-2.51,5.5-2.12,8.42s2.82,5.75,5.76,5.59c-2.62,7.44-3.35,16.69-2.7,24.51.47,5.59,1.52,11.44,5.14,15.73,3.78,4.47,9.71,6.47,15.47,7.53s11.7,1.43,17.17,3.54a44.27,44.27,0,0,1,12,7.57C1256.2,931.06,1259.34,932.5,1262.81,934.61Z"/><path class="cls-12" d="M1130.32,934.61l-2.52,1.55c-18.31,11.34-35.83,24.25-55.68,32.89-6.91,3-14.29,5.5-21.82,5.1-10.26-.54-14.71-6.37-20.49-13.65s-4.45-18.46.88-26.14,13.77-12.56,22.17-16.63c11.65-5.65,23.76-10.23,35.75-15.07,8.52-3.44,17.85-7.32,25.09-13s12.24-13.37,17.17-20.87c2.26-3.45,4-7.12,6.12-10.63,1.46-2.43,2.52-5.12,4.32-7.31,4.09-5,11-6.31,17.42-7,7-.69,16.52-2.48,23.1.57,4.34,2,6.89,7,9,11.14,1.35,2.61,2.51,5.5,2.12,8.42s-2.82,5.75-5.76,5.59c2.63,7.44,3.36,16.69,2.7,24.51-.47,5.59-1.52,11.44-5.14,15.73-3.77,4.47-9.71,6.47-15.47,7.53s-11.7,1.43-17.16,3.54a44.32,44.32,0,0,0-12.06,7.57C1136.93,931.06,1133.79,932.5,1130.32,934.61Z"/><path class="cls-10" d="M282.77,1146s8.46-162.4,63.41-206.62,1209.56-44.7,1255.53,0S1661.54,1146,1661.54,1146Z"/><path class="cls-9" d="M346.18,982.89c54.95-44.22,1209.56-44.69,1255.53,0,31,30.18,46.36,109.69,53.74,163.09h6.09s-13.85-161.93-59.83-206.62-1200.58-44.22-1255.53,0S282.77,1146,282.77,1146l4.2,0C293.53,1094.63,309.49,1012.41,346.18,982.89Z"/><rect class="cls-11" x="282.77" y="1122.59" width="1378.77" height="23.4"/></svg>