<?xml version="1.0" encoding="UTF-8"?>
<svg width="1069px" height="649px" viewBox="0 0 1069 649" version="1.1" xmlns="http://www.w3.org/2000/svg" xmlns:xlink="http://www.w3.org/1999/xlink">
    <!-- Generator: Sketch 54.1 (76490) - https://sketchapp.com -->
    <title>undraw_hire_te5y(1)</title>
    <desc>Created with Sketch.</desc>
    <g id="Page-1" stroke="none" stroke-width="1" fill="none" fill-rule="evenodd">
        <g id="undraw_hire_te5y(1)" fill-rule="nonzero">
            <ellipse id="Oval" fill="#3F3D56" cx="679.58312" cy="613.29544" rx="389" ry="35"></ellipse>
            <rect id="Rectangle" fill="#3F3D56" opacity="0.3" transform="translate(700.560265, 142.989540) rotate(-180.000000) translate(-700.560265, -142.989540) " x="489.44482" y="-8.52651283e-14" width="422.23089" height="285.97908"></rect>
            <rect id="Rectangle" fill="#F2F2F2" x="759.70254" y="26.20227" width="125.02227" height="136.25181"></rect>
            <rect id="Rectangle" fill="#F2F2F2" transform="translate(622.327765, 30.319770) rotate(-180.000000) translate(-622.327765, -30.319770) " x="562.06254" y="26.20227" width="120.53045" height="8.235"></rect>
            <rect id="Rectangle" fill="#F2F2F2" transform="translate(781.038665, 187.533400) rotate(-180.000000) translate(-781.038665, -187.533400) " x="759.70253" y="183.4159" width="42.67227" height="8.235"></rect>
            <rect id="Rectangle" fill="#F2F2F2" transform="translate(822.213670, 202.506130) rotate(-180.000000) translate(-822.213670, -202.506130) " x="761.19981" y="198.38863" width="122.02772" height="8.235"></rect>
            <rect id="Rectangle" fill="#F2F2F2" transform="translate(624.199355, 60.265220) rotate(-180.000000) translate(-624.199355, -60.265220) " x="537.35754" y="56.14772" width="173.68363" height="8.235"></rect>
            <rect id="Rectangle" fill="#F2F2F2" transform="translate(624.199355, 83.472950) rotate(-180.000000) translate(-624.199355, -83.472950) " x="537.35754" y="79.35545" width="173.68363" height="8.235"></rect>
            <rect id="Rectangle" fill="#F2F2F2" transform="translate(624.199355, 106.680680) rotate(-180.000000) translate(-624.199355, -106.680680) " x="537.35754" y="102.56318" width="173.68363" height="8.235"></rect>
            <rect id="Rectangle" fill="#F2F2F2" transform="translate(624.199355, 129.888400) rotate(-180.000000) translate(-624.199355, -129.888400) " x="537.35754" y="125.7709" width="173.68363" height="8.235"></rect>
            <rect id="Rectangle" fill="#F2F2F2" transform="translate(624.199355, 153.096130) rotate(-180.000000) translate(-624.199355, -153.096130) " x="537.35754" y="148.97863" width="173.68363" height="8.235"></rect>
            <rect id="Rectangle" fill="#F2F2F2" transform="translate(624.199355, 176.303850) rotate(-180.000000) translate(-624.199355, -176.303850) " x="537.35754" y="172.18635" width="173.68363" height="8.235"></rect>
            <rect id="Rectangle" fill="#F2F2F2" transform="translate(624.199355, 199.511590) rotate(-180.000000) translate(-624.199355, -199.511590) " x="537.35754" y="195.39409" width="173.68363" height="8.235"></rect>
            <path d="M778.47811,104.00479 C780.328227,102.687992 782.37012,101.664004 784.53198,100.96884 C798.238573,95.8688479 812.600358,92.7425186 827.18663,91.68361 C839.86986,90.78422 853.61623,91.85246 863.5225,99.82361 C865.063354,100.954236 866.324289,102.423286 867.20828,104.11772 C868.45456,106.80712 868.07687,109.93327 867.67341,112.86982 C867.582969,114.008874 867.295814,115.123638 866.82469,116.16463 C865.49164,118.70276 862.20961,119.59189 859.35892,119.28754 C856.50823,118.98319 853.83328,117.77704 851.02145,117.21781 C849.281076,116.914469 847.521335,116.735257 845.75554,116.68153 L828.12039,115.72681 C817.15421,115.13312 806.04354,114.54932 795.28663,116.76252 C791.975198,117.357739 788.775438,118.460358 785.80029,120.03146 C783.34337,121.41088 781.68894,123.39025 779.4092,120.8424 C775.40403,116.36622 773.18708,108.13925 778.47811,104.00479 Z" id="Path" fill="#2F2E41"></path>
            <path d="M805.80556,111.80334 C805.80556,111.80334 829.52556,101.17025 838.52276,113.4392 C847.51996,125.70815 833.61518,120.80058 833.61518,120.80058 L818.07451,125.70816 L800.89798,122.43644 L805.80556,111.80334 Z" id="Path" fill="#F2F2F2"></path>
            <path d="M807.03244,104.03301 C807.03244,104.03301 810.30416,119.57368 807.85037,123.66333 C805.39658,127.75298 821.75518,133.47849 821.75518,133.47849 L837.29585,126.93505 C837.29585,126.93505 833.2062,101.57922 837.29585,96.67164 L807.03244,104.03301 Z" id="Path" fill="#FFB9B9"></path>
            <path d="M807.03244,104.03301 C807.03244,104.03301 810.30416,119.57368 807.85037,123.66333 C805.39658,127.75298 821.75518,133.47849 821.75518,133.47849 L837.29585,126.93505 C837.29585,126.93505 833.2062,101.57922 837.29585,96.67164 L807.03244,104.03301 Z" id="Path" fill="#000000" opacity="0.1"></path>
            <path d="M844.65722,88.49234 C844.646136,102.039654 833.666634,113.019156 820.11932,113.03024 C818.657189,113.03274 817.197901,112.901328 815.75974,112.63765 C802.982151,110.330147 794.214235,98.4675797 795.757308,85.5753233 C797.30038,72.6830668 808.620185,63.224796 821.581418,63.9979699 C834.54265,64.7711437 844.657755,75.5080669 844.65722,88.49234 L844.65722,88.49234 Z" id="Path" fill="#FFB9B9"></path>
            <path d="M859.47332,163.20272 L781.21832,163.20272 L782.99258,155.49922 L790.67358,122.02772 L799.55239,116.03114 L799.55989,116.02365 L803.72984,113.20127 L805.80358,111.80133 C805.80358,111.80133 807.03126,112.3628 808.4462,113.12643 C808.85789,113.35843 809.2772,113.59807 809.69645,113.85258 C809.70395,113.84518 809.70395,113.85258 809.70395,113.85258 C810.38263,114.246809 811.028526,114.694948 811.6354,115.19267 C811.74771,115.29749 811.84504,115.38732 811.9424,115.48467 C813.49953,117.0418 818.04371,125.30677 825.56005,121.07696 C825.939608,120.868397 826.307025,120.638464 826.66053,120.38827 C828.619733,119.032378 830.487843,117.549375 832.25282,115.94882 C833.83252,114.50391 834.85815,113.38845 835.69662,112.61733 C836.072514,112.242464 836.501276,111.924663 836.96926,111.67404 C837.322418,111.48875 837.715901,111.393628 838.1147,111.39714 C840.57025,111.39714 843.84178,116.30066 843.84178,116.30066 L843.93911,116.58514 L843.9466,116.60762 L854.27033,147.6011 L859.47332,163.20272 Z" id="Path" fill="#F2F2F2"></path>
            <path d="M781.21834,163.20272 L804.93514,163.20272 C804.987982,160.461039 804.845381,157.719078 804.50842,154.99767 C803.78224,149.52514 802.00049,144.25474 800.87753,138.84958 C799.889303,134.11295 799.409953,129.284295 799.44764,124.44582 C799.45513,123.77953 799.4701,123.10576 799.52999,122.43199 C799.588844,120.889206 800.034176,119.385901 800.82513,118.05999 C801.38661,117.19906 802.1577,116.4654 802.75661,115.6419 C802.964822,115.372304 803.147764,115.084108 803.30312,114.78096 L803.30312,114.77348 C803.378097,114.624736 803.445559,114.47232 803.50525,114.31681 C803.637235,113.958806 803.712996,113.582526 803.72984,113.20134 C803.86459,110.73084 801.62617,108.35018 799.20808,107.33203 C795.814106,106.057628 792.100353,105.908029 788.61487,106.90531 C785.160184,107.90389 781.822239,109.269185 778.65801,110.97789 C777.58746,111.50194 776.5244,112.04096 775.49876,112.63989 C774.274107,113.334307 773.148529,114.190455 772.15236,115.18526 C769.607,117.81297 768.49153,121.4738 767.59316,125.01485 C766.736454,127.72161 766.443452,130.575204 766.73223,133.39958 C766.73972,133.48942 766.76223,133.58674 766.77715,133.67658 C767.66803,138.34058 771.4711,141.8442 773.4999,146.14137 C775.85062,151.12729 775.69341,156.93671 774.75761,162.37181 C774.7127,162.64881 774.66029,162.92581 774.60789,163.20281 L781.21834,163.20281 L781.21834,163.20272 Z" id="Path" fill="#2F2E41"></path>
            <path d="M877.76245,133.24978 C874.785881,143.038664 872.624952,153.057204 871.30181,163.20272 L837.49327,163.20272 C836.609937,160.792133 835.729067,158.37902 834.85066,155.96338 C834.149476,154.14059 833.547187,152.281282 833.04642,150.39357 C832.511144,148.198696 832.257064,145.944678 832.29029,143.68572 C832.29029,143.14672 832.31277,142.60024 832.35773,142.06124 C832.365231,142.052647 832.365231,142.039833 832.35773,142.03124 C832.56302,139.182259 833.22263,136.384443 834.31157,133.74379 C834.811434,132.543377 835.386543,131.375701 836.03347,130.24772 C837.60568,127.40286 839.50715,124.72278 841.19908,121.93787 C842.253403,120.235974 843.172083,118.453703 843.9466,116.60758 C843.94558,116.599339 843.948336,116.591078 843.9541,116.5851 C844.964118,114.230919 845.491083,111.697878 845.50374,109.13621 C845.45137,105.8347 839.86657,100.07764 845.93791,100.63162 C854.22537,101.38026 861.34491,106.14916 867.83552,111.58426 C869.56492,113.03657 871.25684,114.54134 872.9113,116.02363 C875.47167,118.32948 878.17424,120.8448 878.9453,124.20617 C879.068969,124.742132 879.141672,125.288588 879.16244,125.83824 C879.117965,128.370117 878.644595,130.876133 877.76245,133.24978 L877.76245,133.24978 Z" id="Path" fill="#2F2E41"></path>
            <path d="M827.08884,124.221 C826.237379,121.921391 824.931965,119.81659 823.2503,118.03188 C821.55419,116.597993 819.546206,115.580701 817.3868,115.06129 C814.588833,114.26197 811.695082,113.847229 808.78524,113.82849 C805.32124,113.80691 801.30469,114.73609 799.83368,117.87234 C798.66555,120.36282 799.57113,123.31192 800.74725,125.79863 C801.249735,127.086772 802.086792,128.217528 803.17207,129.07425 C804.66589,130.08355 806.59788,130.05156 808.36873,130.38962 C811.114497,131.086768 813.714938,132.265149 816.04935,133.87007 L822.11655,137.53746 L832.53784,143.83673 C832.26323,143.67073 832.36084,136.52423 832.04077,135.353 C831.00969,131.58004 828.68849,127.79393 827.08884,124.221 Z" id="Path" fill="#FFB9B9"></path>
            <path d="M844.03998,75.70449 C843.603474,74.2371029 842.641817,72.9818821 841.33862,72.17849 C841.405883,70.6065777 841.213172,69.0343441 840.76826,67.52521 C839.28226,63.13208 835.76198,63.38389 832.44049,61.44161 C830.99943,60.59892 831.08849,59.85412 830.33825,58.47002 C829.355243,56.6556002 827.8829,55.1533681 826.0886,54.1341 C823.95766,52.77641 821.70825,51.37818 819.18736,51.20635 C813.88969,50.84526 809.8279,55.82812 804.76446,57.42735 C802.53262,58.13221 800.13446,58.16126 797.89083,58.82763 C795.6472,59.494 793.40883,61.08512 793.07441,63.40157 C792.92005,64.47101 793.19241,65.56811 793.03582,66.63725 C792.72455,68.76225 790.86025,70.25044 789.61223,71.99825 C786.85242,75.86325 787.16808,81.32342 789.3751,85.52869 C789.840176,86.3988396 790.372259,87.2314796 790.96653,88.01907 C791.150633,90.0067396 791.721429,91.9392685 792.64682,93.70799 C794.85382,97.91326 798.6516,101.05568 802.61882,103.66643 C802.293904,102.271774 802.096941,100.850376 802.03038,99.41992 C801.974391,98.9432093 802.036398,98.4600438 802.21095,98.01292 C802.65277,97.08935 803.8202,96.84373 804.71032,96.33792 C806.55396,95.29024 807.27694,92.97169 807.33025,90.85183 C807.38356,88.73197 806.93432,86.60862 807.15642,84.49983 C807.173921,83.5191272 807.605558,82.591617 808.34458,81.94669 C809.024997,81.5585286 809.802292,81.3732086 810.58465,81.41262 C814.36209,81.25851 818.30891,81.18912 821.64084,79.40279 C822.715399,78.6890843 823.870481,78.1047714 825.08209,77.66199 C827.9137,76.92359 830.80775,78.90826 832.43967,81.33729 C834.07159,83.76632 834.88522,86.65688 836.39088,89.16613 C837.89654,91.67538 840.49771,93.91306 843.40888,93.61577 C843.740494,93.6165132 844.056711,93.4759 844.27828,93.22917 C844.403857,93.0035852 844.459597,92.745783 844.43843,92.48847 L844.60108,81.36055 C844.736258,79.4570178 844.546517,77.544362 844.03998,75.70449 L844.03998,75.70449 Z" id="Path" fill="#2F2E41"></path>
            <path d="M779.32427,150.01925 C779.85577,154.39875 780.177693,158.79324 780.29004,163.20272 L759.70256,163.20272 L759.70256,145.90172 C759.80738,145.48244 759.91964,145.07072 760.05439,144.65896 C761.34207,140.69115 764.04468,137.36724 766.38783,133.91604 C766.50023,133.74378 766.61995,133.57161 766.73226,133.39944 C767.728793,131.943543 768.586033,130.397052 769.29263,128.78044 C769.62948,127.98684 770.16848,124.14633 770.73745,123.81698 C773.17801,122.40204 775.16192,128.45098 775.49877,129.79857 C776.69656,134.59736 777.73727,139.44101 778.52329,144.32963 C778.830237,146.22369 779.09723,148.12023 779.32427,150.01925 Z" id="Path" fill="#2F2E41"></path>
            <path d="M883.36223,163.20272 L836.10091,163.20272 C835.69662,162.25194 835.29982,161.30116 834.88054,160.35787 C831.93325,153.691807 828.122516,147.442072 823.54626,141.76926 C822.791409,141.019259 822.300166,140.044667 822.14626,138.99176 C822.1303,138.554584 822.23664,138.121626 822.45332,137.74159 C823.17198,136.4015 825.07354,135.6154 826.61569,134.97917 C828.209616,134.337311 829.675237,133.414265 830.94269,132.25403 C832.063748,131.24528 832.922026,129.978473 833.44321,128.5633 C833.582213,128.148278 833.687344,127.722671 833.75757,127.29066 C833.97471,127.57505 834.19934,127.86712 834.41647,128.15152 C834.94797,128.85528 835.48697,129.55152 836.03347,130.24774 C841.27392,136.97797 847.03098,143.61088 854.27033,147.60108 C856.161592,148.654964 858.159093,149.505703 860.22945,150.13908 C860.630195,150.315076 861.086355,150.315076 861.4871,150.13908 C861.792619,149.888316 861.988603,149.528534 862.03359,149.13585 C862.6775,146.44077 862.90204,143.66327 863.37368,140.93085 C864.24025,135.959178 865.90635,131.16068 868.30726,126.72175 C869.64726,124.22875 874.00426,115.11789 876.7668,120.85987 C877.5603,122.514317 878.358863,124.1738 879.16249,125.83832 C879.66402,126.89392 880.17304,127.94194 880.68215,128.99763 C882.560865,132.346454 883.417141,136.172379 883.14515,140.00255 C883.22003,147.743383 883.29239,155.476773 883.36223,163.20272 Z" id="Path" fill="#2F2E41"></path>
            <path d="M781.21834,163.20272 L785.31339,163.20272 L782.99261,155.49925 L779.64621,144.39698 C779.684999,146.276581 779.577371,148.15635 779.3243,150.01924 C778.819066,153.869369 777.717876,157.617448 776.06024,161.129 C775.73833,161.81026 775.39395,162.499 775.11696,163.20272 L781.21834,163.20272 Z" id="Path" fill="#000000" opacity="0.1"></path>
            <path d="M864.63165,139.52819 C864.05502,141.07888 864.57865,142.79382 865.02311,144.38745 C866.310866,149.009945 866.912084,153.796642 866.80748,158.59402 C866.845464,158.764479 866.794839,158.942594 866.672879,159.067592 C866.550918,159.19259 866.374102,159.247581 866.20276,159.2138 C864.31483,159.32945 862.15343,159.34168 860.87255,157.94992 L864.63165,139.52819 Z" id="Path" fill="#000000" opacity="0.1"></path>
            <rect id="Rectangle" fill="#3F3D56" opacity="0.3" x="0" y="2.9435" width="422.23089" height="285.97908"></rect>
            <rect id="Rectangle" fill="#F2F2F2" x="26.95091" y="29.14577" width="125.02227" height="136.25181"></rect>
            <rect id="Rectangle" fill="#F2F2F2" x="229.08272" y="29.14577" width="120.53045" height="8.235"></rect>
            <rect id="Rectangle" fill="#F2F2F2" x="28.44818" y="186.3594" width="42.67227" height="8.235"></rect>
            <rect id="Rectangle" fill="#F2F2F2" x="28.44818" y="201.33213" width="122.02772" height="8.235"></rect>
            <rect id="Rectangle" fill="#F2F2F2" x="200.63454" y="59.09123" width="173.68363" height="8.235"></rect>
            <rect id="Rectangle" fill="#F2F2F2" x="200.63454" y="82.29895" width="173.68363" height="8.235"></rect>
            <rect id="Rectangle" fill="#F2F2F2" x="200.63454" y="105.50668" width="173.68363" height="8.235"></rect>
            <rect id="Rectangle" fill="#F2F2F2" x="200.63454" y="128.71441" width="173.68363" height="8.235"></rect>
            <rect id="Rectangle" fill="#F2F2F2" x="200.63454" y="151.92213" width="173.68363" height="8.235"></rect>
            <rect id="Rectangle" fill="#F2F2F2" x="200.63454" y="175.12986" width="173.68363" height="8.235"></rect>
            <rect id="Rectangle" fill="#F2F2F2" x="200.63454" y="198.33758" width="173.68363" height="8.235"></rect>
            <path d="M148.57438,166.14622 L132.32147,166.14622 C131.071257,162.784853 129.960777,159.38105 128.99003,155.93481 C128.349646,151.882826 126.502479,148.118047 123.68967,145.13195 C122.830856,144.174535 122.066218,143.136657 121.40634,142.03268 C120.012958,139.314229 119.510098,136.226317 119.96897,133.20623 C120.062485,132.365628 120.202445,131.530845 120.38821,130.70571 C121.09942,127.50911 122.28973,124.43971 123.28543,121.32537 C123.714817,120.035012 124.842193,119.10229 126.19014,118.92219 C127.261633,118.74276 128.362023,118.869924 129.36435,119.28901 C129.586035,119.37928 129.799038,119.489552 130.00072,119.61846 C131.77498,120.68905 132.69579,122.87501 133.43693,124.8739 C136.828263,133.97734 140.217097,143.080753 143.60343,152.18414 C144.26223,153.950907 144.921033,155.722673 145.57984,157.49944 C146.55306,160.10468 147.51878,162.70992 148.34231,165.36761 C148.42465,165.62972 148.49949,165.88413 148.57438,166.14622 Z" id="Path" fill="#D0CDE1"></path>
            <path d="M80.91372,46.32756 C76.87272,47.69226 73.21172,50.8842 72.38423,55.06838 C72.00064,57.00794 72.23582,59.02421 71.91302,60.97481 C71.16438,65.49866 67.6133,68.95356 64.33802,72.16266 C61.06274,75.37176 57.68042,79.10066 57.44138,83.67977 C57.17962,88.69404 60.81613,93.3916 60.18686,98.37312 C59.45578,104.16061 53.34299,107.91081 51.83186,113.54518 C50.82286,117.30751 52.05929,121.36027 54.09354,124.68218 C57.97003,131.0124 64.59612,135.30998 71.65241,137.61384 C78.7087,139.9177 86.22381,140.40238 93.64626,140.48015 C102.68396,140.57485 112.49653,139.79895 119.28701,133.83415 C123.165794,130.396502 125.601706,125.619659 126.10634,120.46139 C126.75143,113.55208 123.86767,106.41291 125.85682,99.76474 C127.10868,95.58074 130.24805,91.7596 129.77954,87.41755 C129.32145,83.17211 125.61354,80.16286 123.06977,76.73313 C120.69477,73.53089 119.25356,69.74921 117.84111,66.02092 L113.00833,53.26437 C112.05833,50.75665 111.01504,48.1192 108.89784,46.47329 C104.93423,43.39206 98.56091,43.99745 93.92621,44.63295 C89.62663,45.22253 85.04856,44.93117 80.91372,46.32756 Z" id="Path" fill="#2F2E41"></path>
            <path d="M84.65221,88.36779 C84.65221,88.36779 85.12521,102.55879 83.70615,103.97787 C82.28709,105.39695 89.38256,114.85762 89.38256,114.85762 L102.15445,114.38462 L108.7769,109.18126 L103.10051,101.61273 C103.10051,101.61273 100.73535,89.31388 102.62751,86.47573 C104.51967,83.63758 84.65221,88.36779 84.65221,88.36779 Z" id="Path" fill="#A0616A"></path>
            <path d="M84.65221,88.36779 C84.65221,88.36779 85.12521,102.55879 83.70615,103.97787 C82.28709,105.39695 89.38256,114.85762 89.38256,114.85762 L102.15445,114.38462 L108.7769,109.18126 L103.10051,101.61273 C103.10051,101.61273 100.73535,89.31388 102.62751,86.47573 C104.51967,83.63758 84.65221,88.36779 84.65221,88.36779 Z" id="Path" fill="#000000" opacity="0.1"></path>
            <circle id="Oval" fill="#A0616A" cx="92.45725" cy="76.77848" r="17.02918"></circle>
            <path d="M101.18569,166.14622 L114.99056,166.14622 C115.50712,165.21043 115.99373,164.23722 116.55521,163.35381 L116.55521,163.34632 C117.169008,162.278 118.031997,161.373916 119.07063,160.71112 C119.73099,160.408723 120.35611,160.034657 120.93473,159.59566 C121.488472,158.995108 121.880097,158.263389 122.07266,157.46953 C123.023504,154.499224 123.54779,151.408957 123.62982,148.29125 C123.65228,147.24316 123.62982,146.18009 123.68972,145.132 C123.719239,144.313013 123.824495,143.498516 124.00414,142.69893 C124.477961,141.073202 125.165207,139.51746 126.04792,138.07236 C127.919507,134.666067 129.79609,131.259773 131.67767,127.85348 C132.016833,126.893899 132.147007,125.872915 132.05947,124.85893 C132.019012,123.491094 131.599118,122.16143 130.84668,121.01843 C130.58468,120.54679 130.30017,120.07514 130.00068,119.61848 C128.845855,117.775968 127.500932,116.059683 125.98799,114.4978 C122.777972,111.131277 118.881946,108.493929 114.5638,106.76439 C114.022098,106.582041 113.506251,106.330407 113.02909,106.01575 C112.46601,105.539945 111.989798,104.970008 111.62166,104.33132 C110.12439,102.07793 108.29771,99.54005 105.59514,99.68232 C104.70659,99.2364021 103.676115,99.1662673 102.73534,99.48768 C102.593176,99.5246856 102.453211,99.5696736 102.31611,99.62243 C101.283244,100.079725 100.280548,100.602332 99.31411,101.18708 C96.8277644,102.477744 94.0101456,102.98909 91.22883,102.65441 C90.9026216,102.631513 90.583151,102.550375 90.28555,102.41484 C89.9698373,102.214642 89.678416,101.978494 89.41713,101.71113 C88.026259,100.572117 86.1303514,100.268998 84.45368,100.91757 C83.6803597,101.193066 82.9969707,101.674543 82.47728,102.31003 C81.98318,102.9314 81.6388,103.68003 81.09228,104.26397 C79.67736,105.77622 77.34161,105.83611 75.27537,105.82862 C70.9839797,105.708739 66.6936782,106.103336 62.49615,107.00398 C58.8096391,107.821969 55.36458,109.488108 52.43448,111.87012 L52.42699,111.87761 C52.02273,112.22198 51.64841,112.57384 51.27409,112.94816 C50.4226015,113.750151 49.7448207,114.718407 49.28272,115.79297 C48.71372,117.2603 48.78862,118.91479 48.27206,120.40457 C47.70306,122.07403 46.4379,123.43657 45.92883,125.1135 C45.53954,126.38618 45.59194,127.79361 44.94812,128.9465 C44.97806,128.96896 45.00052,128.99142 45.03047,129.01388 C47.75547,131.40952 50.08376,134.55379 52.81628,136.92697 C54.4021691,138.135199 55.7436331,139.634198 56.76908,141.34397 C56.9664115,141.728057 57.1292573,142.128904 57.2557,142.54179 C57.5631023,143.972921 57.698813,145.435593 57.65996,146.89885 C58.00433,153.8986 61.79996,160.24704 66.04469,165.81685 C66.12704,165.92915 66.20939,166.04144 66.29922,166.14625 L101.18569,166.14622 Z" id="Path" fill="#D0CDE1"></path>
            <path d="M56.76911,141.3439 C56.1252433,145.813233 55.4764133,150.280103 54.82262,154.74451 C54.5253033,157.135426 54.0802723,159.505645 53.49008,161.84157 C53.10077,163.28638 52.5992,164.70141 52.24731,166.14622 L32.75284,166.14622 C32.7627713,165.33699 32.8252897,164.52926 32.94,163.72814 C33.4419631,160.850252 34.2578584,158.036054 35.37307,155.33596 C37.6414633,149.212067 39.90734,143.083217 42.1707,136.94941 C43.13642,134.33667 43.9674,131.60413 45.03049,129.01379 C45.21765,128.53474 45.41975,128.0556 45.63689,127.59145 C46.76729,125.10593 49.90408,126.12416 52.22489,126.49845 C52.8620112,126.577584 53.4831546,126.75432 54.0665,127.02245 C54.7719591,127.411097 55.367057,127.972679 55.7959,128.65445 C57.9969,131.91109 57.51775,136.21575 56.94878,140.10862 C56.8888733,140.52042 56.8289833,140.93218 56.76911,141.3439 Z" id="Path" fill="#D0CDE1"></path>
            <path d="M116.55519,163.35383 C116.58512,163.45855 116.90703,164.57401 117.43858,166.14622 L101.18567,166.14622 C109.241,164.76122 116.55519,163.34633 116.55519,163.34633 L116.55519,163.35383 Z" id="Path" fill="#2F2E41"></path>
            <ellipse id="Oval" fill="#2F2E41" cx="93.87635" cy="66.84479" rx="18.44828" ry="9.93369"></ellipse>
            <rect id="Rectangle" fill="#3F3D56" x="270.48911" y="108.22219" width="422.23089" height="285.97908"></rect>
            <ellipse id="Oval" fill="#000000" opacity="0.1" cx="631.33182" cy="369.49627" rx="49.41" ry="5.24045"></ellipse>
            <rect id="Rectangle" fill="#F2F2F2" x="297.44002" y="134.42446" width="125.02227" height="136.25181"></rect>
            <path d="M337.6984,196.98213 C338.535633,197.236615 339.436079,196.864566 339.8495,196.09333 C341.57869,193.36885 338.39503,189.85579 339.08439,186.70338 C339.63667,184.17784 342.50652,182.67885 343.09329,180.1611 C343.66344,177.71469 341.90661,174.95716 343.09405,172.74357 C344.02434,171.00934 346.34812,170.55297 348.29252,170.85678 C350.23692,171.16059 352.08252,172.01535 354.04683,172.13512 C356.66436,172.2947 359.15949,171.14244 361.71898,170.57152 C364.27847,170.0006 367.40043,170.22413 368.90613,172.37117 C370.83947,175.128 368.8783,178.9668 369.55148,182.266 C370.08603,184.88579 372.27921,187.055 372.32633,189.72841 C372.34308,190.6786 369.84518,189.91314 369.97795,190.85415 C370.11072,191.79516 368.93011,190.96661 369.87385,190.85482 C370.664642,190.661124 371.239101,189.977848 371.2941,189.16554 C371.40631,188.38177 372.87923,188.12054 372.86223,187.32891 C372.82241,185.47374 376.17647,186.7246 376.72883,184.95312 C377.999129,180.823453 377.738491,176.374296 375.99469,172.4212 C375.096053,170.806304 374.378526,169.097095 373.85516,167.32466 C373.36243,164.86486 374.13772,162.22423 373.32505,159.85085 C372.22986,156.65237 368.60585,155.02185 365.24132,154.69073 C361.87679,154.35961 358.45773,154.95233 355.1124,154.46401 C352.11555,154.02655 349.21427,152.72773 346.19151,152.91592 C342.56451,153.14172 339.40826,155.47868 336.89405,158.10261 C334.37984,160.72654 332.24705,163.7445 329.39165,165.99237 C328.517452,166.593922 327.710893,167.288278 326.98605,168.06332 C325.5317,169.83563 325.38419,172.36039 325.78877,174.61705 C326.19335,176.87371 327.07368,179.02632 327.44539,181.28863 C327.79471,183.41463 327.68694,185.58675 327.83739,187.73605 C327.872587,189.903836 328.528874,192.016033 329.72839,193.82205 C330.778643,195.247744 332.427782,196.109318 334.19791,196.1571 C334.80313,196.1711 335.31429,195.62723 335.92514,195.76904 C336.68871,195.94632 337.0207,196.67141 337.6984,196.98213 Z" id="Path" fill="#2F2E41"></path>
            <path d="M310.20426,271.42495 C310.7508,263.93105 311.16254,258.33127 311.16254,258.33127 L314.69608,249.01827 L326.03794,271.42495 L310.20426,271.42495 Z" id="Path" fill="#575A89"></path>
            <path d="M310.20426,271.42495 C310.7508,263.93105 311.16254,258.33127 311.16254,258.33127 L314.69608,249.01827 L326.03794,271.42495 L310.20426,271.42495 Z" id="Path" fill="#000000" opacity="0.1"></path>
            <path d="M336.48817,197.74439 C336.48817,197.74439 347.06389,224.66439 340.97484,229.79202 C334.88579,234.91965 374.94533,221.13916 374.94533,221.13916 L373.9839,217.61393 C373.9839,217.61393 360.84437,212.4863 367.2539,197.74439 C373.66343,183.00248 336.48817,197.74439 336.48817,197.74439 Z" id="Path" fill="#A0616A"></path>
            <path d="M336.48817,197.74439 C336.48817,197.74439 347.06389,224.66439 340.97484,229.79202 C334.88579,234.91965 374.94533,221.13916 374.94533,221.13916 L373.9839,217.61393 C373.9839,217.61393 360.84437,212.4863 367.2539,197.74439 C373.66343,183.00248 336.48817,197.74439 336.48817,197.74439 Z" id="Path" fill="#000000" opacity="0.1"></path>
            <circle id="Oval" fill="#A0616A" cx="351.55056" cy="186.20725" r="22.43334"></circle>
            <path d="M406.02971,234.59949 C406.02971,234.59949 405.93988,236.38124 405.78265,239.49555 C405.46074,245.83655 404.88432,257.71738 404.30786,271.42491 L317.34628,271.42491 C315.073939,268.381503 313.213696,265.051184 311.81385,261.52042 C311.435199,260.496857 311.215549,259.421338 311.16254,258.33127 C310.6834,249.83422 318.29702,237.97584 323.67222,236.8454 C329.75864,235.55772 341.29515,223.38488 341.29515,223.38488 C341.370196,224.326873 341.924509,225.164029 342.76245,225.60088 L342.76245,225.60838 C343.692839,226.089041 344.733386,226.316257 345.77945,226.26718 C349.53762,226.26718 366.06745,218.63857 371.37533,216.1456 C372.41595,215.65902 373.02233,215.36704 373.02233,215.36704 C379.143726,218.008942 385.467602,220.154459 391.93285,221.78286 C398.485635,223.417291 403.780656,228.231436 406.02971,234.59949 L406.02971,234.59949 Z" id="Path" fill="#575A89"></path>
            <path d="M333.85269,194.7388 C334.689922,194.993278 335.590363,194.621225 336.00378,193.84999 C337.73297,191.12552 334.54931,187.61245 335.23868,184.46005 C335.79096,181.9345 338.6608,180.43552 339.24757,177.91777 C339.81772,175.47136 338.0609,172.71377 339.24833,170.50024 C340.17863,168.766 342.50241,168.30964 344.44681,168.61345 C346.39121,168.91726 348.23681,169.77202 350.20112,169.89178 C352.81864,170.05137 355.31377,168.8991 357.87326,168.32819 C360.43275,167.75728 363.55471,167.9808 365.06041,170.12784 C366.99376,172.88467 365.03258,176.72346 365.70577,180.02267 C366.24032,182.64246 372.33077,184.48126 372.88312,182.70978 C374.153416,178.580115 373.892774,174.130962 372.14897,170.17787 C371.250341,168.56297 370.532814,166.853762 370.00944,165.08133 C369.51671,162.62153 370.292,159.9809 369.47933,157.60751 C368.38414,154.40904 364.76013,152.77851 361.3956,152.44739 C358.03107,152.11627 354.61201,152.709 351.26668,152.22067 C348.26983,151.78322 345.36855,150.4844 342.34579,150.67259 C338.71879,150.89839 335.56254,153.23534 333.04833,155.85928 C330.53412,158.48322 328.40133,161.50116 325.54593,163.74904 C324.671737,164.350591 323.865182,165.044944 323.14034,165.81998 C321.68599,167.59229 321.53847,170.11705 321.94305,172.37372 C322.34763,174.63039 323.22797,176.78298 323.59967,179.04529 C323.94899,181.17134 323.84123,183.34342 323.99167,185.49271 C324.026865,187.660497 324.683152,189.772694 325.88267,191.57871 C326.932919,193.00441 328.58206,193.865988 330.35219,193.91377 C330.9574,193.92777 331.46857,193.3839 332.07941,193.52571 C332.84299,193.70299 333.17499,194.42808 333.85269,194.7388 Z" id="Path" fill="#2F2E41"></path>
            <path d="M417.14699,271.42491 L391.7682,271.42491 C389.8367,257.26068 388.2421,242.45267 388.2421,242.45267 L393.37029,240.20677 L403.79129,234.59949 C403.79129,234.59949 404.55491,236.41117 405.78264,239.49555 C408.40288,246.09104 413.15674,258.50344 417.14699,271.42491 Z" id="Path" fill="#000000" opacity="0.1"></path>
            <path d="M419.3854,271.42491 L390.74256,271.42491 C386.4978,255.92813 382.31291,239.08381 382.31291,239.08381 L393.21305,231.07339 L406.0297,234.59949 C406.0297,234.59949 413.53106,252.45444 419.3854,271.42491 Z" id="Path" fill="#575A89"></path>
            <rect id="Rectangle" fill="#5FE3C0" x="499.57183" y="134.42446" width="120.53045" height="8.235"></rect>
            <rect id="Rectangle" fill="#5FE3C0" x="298.93729" y="291.63809" width="42.67227" height="8.235"></rect>
            <rect id="Rectangle" fill="#5FE3C0" x="298.93729" y="306.61081" width="122.02772" height="8.235"></rect>
            <rect id="Rectangle" fill="#F2F2F2" x="471.12365" y="164.36991" width="173.68363" height="8.235"></rect>
            <rect id="Rectangle" fill="#F2F2F2" x="471.12365" y="187.57764" width="173.68363" height="8.235"></rect>
            <rect id="Rectangle" fill="#F2F2F2" x="471.12365" y="210.78536" width="173.68363" height="8.235"></rect>
            <rect id="Rectangle" fill="#F2F2F2" x="471.12365" y="233.99309" width="173.68363" height="8.235"></rect>
            <rect id="Rectangle" fill="#F2F2F2" x="471.12365" y="257.20082" width="173.68363" height="8.235"></rect>
            <rect id="Rectangle" fill="#F2F2F2" x="471.12365" y="280.40854" width="173.68363" height="8.235"></rect>
            <rect id="Rectangle" fill="#F2F2F2" x="471.12365" y="303.61627" width="173.68363" height="8.235"></rect>
            <path d="M678.28451,304.72885 L630.80628,352.20715 L610.85096,332.25164 C609.571687,330.972353 607.836615,330.253652 606.02744,330.253643 C604.218266,330.253633 602.483186,330.972317 601.2039,332.25159 L600.48702,331.17935 C597.82302,333.84335 598.5399,339.23472 601.20388,341.89869 L627.09568,367.79043 C629.127572,369.822311 632.421644,369.823166 634.45459,367.79234 L687.92666,314.37602 C690.59235,311.7131 691.55934,306.83002 688.895,304.1658 L688.895,304.1658 C686.23169,301.50256 680.94778,302.06557 678.28451,304.72885 Z" id="Path" fill="#57B894"></path>
            <path d="M678.28451,304.72885 L630.80628,352.20715 L610.85096,332.25164 C609.571687,330.972353 607.836615,330.253652 606.02744,330.253643 C604.218266,330.253633 602.483186,330.972317 601.2039,332.25159 L600.48702,331.17935 C597.82302,333.84335 598.5399,339.23472 601.20388,341.89869 L627.09568,367.79043 C629.127572,369.822311 632.421644,369.823166 634.45459,367.79234 L687.92666,314.37602 C690.59235,311.7131 691.55934,306.83002 688.895,304.1658 L688.895,304.1658 C686.23169,301.50256 680.94778,302.06557 678.28451,304.72885 Z" id="Path" fill="#000000" opacity="0.1"></path>
            <path d="M678.28451,302.62389 L630.80628,350.1022 L610.85096,330.14672 C609.571681,328.86744 607.836605,328.148748 606.02743,328.148748 C604.218255,328.148748 602.483179,328.86744 601.2039,330.14672 L601.2039,330.14672 C599.924613,331.426002 599.205917,333.161084 599.205917,334.970265 C599.205917,336.779446 599.924613,338.514528 601.2039,339.79381 L627.0957,365.68554 C629.127587,367.717429 632.421663,367.718289 634.45461,365.68746 L687.92668,312.27114 C689.206754,310.9924 689.926207,309.257387 689.926667,307.448033 C689.927126,305.638678 689.208554,303.9033 687.92913,302.62391 L687.92913,302.62391 C685.265842,299.960629 680.947809,299.96062 678.28451,302.62389 Z" id="Path" fill="#57B894"></path>
            <path d="M1027.58312,577.61903 C1027.58312,631.15249 952.96383,614.5941 861.60005,614.5941 C770.23627,614.5941 696.72556,631.15249 696.72556,577.61903 C696.72556,524.08557 771.33464,512.44248 862.69842,512.44248 C954.0622,512.44248 1027.58312,524.08556 1027.58312,577.61903 Z" id="Path" fill="#000000" opacity="0.1"></path>
            <path d="M1027.58312,567.61903 C1027.58312,621.15249 952.96383,604.5941 861.60005,604.5941 C770.23627,604.5941 696.72556,621.15249 696.72556,567.61903 C696.72556,514.08557 771.33464,502.44248 862.69842,502.44248 C954.0622,502.44248 1027.58312,514.08556 1027.58312,567.61903 Z" id="Path" fill="#3F3D56"></path>
            <path d="M715.65422,399.90948 L712.27322,403.83548 C712.27322,403.83548 671.16156,407.69572 672.83005,414.36959 C674.49854,421.04346 722.32812,405.47106 722.32812,405.47106 L715.65422,399.90948 Z" id="Path" fill="#FFC1C7"></path>
            <path d="M790.1794,396.57253 C790.1794,396.57253 746.24292,412.14496 722.32812,405.47106 L733.45128,427.71739 C733.45128,427.71739 790.1794,426.04891 800.19028,416.03807 C810.20116,406.02723 790.1794,396.57253 790.1794,396.57253 Z" id="Path" fill="#5FE3C0"></path>
            <path d="M790.1794,396.57253 C790.1794,396.57253 746.24292,412.14496 722.32812,405.47106 L733.45128,427.71739 C733.45128,427.71739 790.1794,426.04891 800.19028,416.03807 C810.20116,406.02723 790.1794,396.57253 790.1794,396.57253 Z" id="Path" fill="#000000" opacity="0.1"></path>
            <circle id="Oval" fill="#FFC1C7" cx="760.42495" cy="247.80025" r="29.47638"></circle>
            <path d="M785.55905,275.47322 C786.573803,277.410303 787.859706,279.192719 789.3779,280.7666 C793.415428,285.159233 798.233182,288.764327 803.58639,291.39872 C786.856139,294.798801 769.957758,297.311588 752.96206,298.92655 C754.75665,292.6075 752.39446,285.84868 749.22006,280.09764 C746.04566,274.3466 741.99906,268.98636 740.01231,262.72505 L759.93572,263.26059 C763.55061,263.35775 767.17725,263.46606 770.79149,263.28908 C773.49282,263.15681 777.99317,261.53851 780.51457,262.13456 C785.84515,263.39465 783.23205,270.74536 785.55905,275.47322 Z" id="Path" fill="#FFC1C7"></path>
            <path d="M852.46911,413.81344 L869.15385,433.83513 C869.15385,433.83513 896.96176,498.90562 836.34056,505.57952 C775.71936,512.25342 730.67056,500.5741 730.67056,500.5741 C730.67056,500.5741 706.19956,488.89478 705.64345,497.7933 C705.08734,506.69182 702.86266,531.71895 689.51486,556.1899 L677.83554,582.88549 C677.83554,582.88549 671.7178,589.00323 673.38628,597.3456 C675.05476,605.68797 636.12369,608.46876 636.67985,597.3456 C636.67985,597.3456 642.24143,587.89091 642.24143,582.32933 C642.24143,576.76775 651.13996,563.41996 651.13996,563.41996 L667.26854,483.33319 C667.26854,483.33319 666.15622,442.1775 703.97497,449.96371 C741.79372,457.74992 795.74106,448.29524 795.74106,448.29524 L807.97653,405.47106 L852.46911,413.81344 Z" id="Path" fill="#2F2E41"></path>
            <path d="M852.46911,413.81344 L869.15385,433.83513 C869.15385,433.83513 896.96176,498.90562 836.34056,505.57952 C775.71936,512.25342 730.67056,500.5741 730.67056,500.5741 C730.67056,500.5741 706.19956,488.89478 705.64345,497.7933 C705.08734,506.69182 702.86266,531.71895 689.51486,556.1899 L677.83554,582.88549 C677.83554,582.88549 671.7178,589.00323 673.38628,597.3456 C675.05476,605.68797 636.12369,608.46876 636.67985,597.3456 C636.67985,597.3456 642.24143,587.89091 642.24143,582.32933 C642.24143,576.76775 651.13996,563.41996 651.13996,563.41996 L667.26854,483.33319 C667.26854,483.33319 666.15622,442.1775 703.97497,449.96371 C741.79372,457.74992 795.74106,448.29524 795.74106,448.29524 L807.97653,405.47106 L852.46911,413.81344 Z" id="Path" fill="#000000" opacity="0.1"></path>
            <path d="M789.90133,412.34859 C789.90133,412.34859 840.78979,393.23559 869.15385,433.83513 C869.15385,433.83513 876.38391,496.68099 847.46369,499.46178 C818.54347,502.24257 780.72469,501.68641 771.82619,492.23172 C762.92769,482.77703 706.75569,456.08145 706.75569,456.08145 C706.75569,456.08145 678.79424,441.81908 673.30944,460.3515 C667.82464,478.88392 667.26844,483.33319 667.26844,483.33319 C667.26844,483.33319 638.34822,504.46719 626.6689,508.36031 C626.6689,508.36031 618.88269,519.48347 614.43342,519.48347 C609.98415,519.48347 582.73242,525.60121 585.5132,505.02336 L630.56201,463.86766 L675.61081,419.93117 C675.61081,419.93117 688.40245,401.0218 721.21581,411.03264 C742.992762,417.513651 765.081534,422.896631 787.39862,427.16123 L789.90133,412.34859 Z" id="Path" fill="#2F2E41"></path>
            <path d="M671.71773,596.23328 C671.71773,596.23328 682.28473,622.92887 673.38621,626.26582 C664.48769,629.60277 645.5783,627.37814 645.5783,627.37814 C645.5783,627.37814 623.33198,624.59735 617.7704,625.1535 C612.20882,625.70965 589.40634,621.2604 592.74329,612.36187 C596.08024,603.46334 613.32114,605.68797 613.32114,605.68797 L628.89356,598.45792 C628.89356,598.45792 630.56204,592.89634 634.45514,595.12092 C638.34824,597.3455 649.47141,605.68797 671.71773,596.23328 Z" id="Path" fill="#CBCEDA"></path>
            <path d="M613.87729,517.25884 C613.87729,517.25884 625.55661,543.39827 606.64724,541.17363 C587.73787,538.94899 573.27775,535.0559 567.71617,534.49974 C562.36642,533.96474 547.23925,528.79838 549.55973,518.5056 C549.684585,517.839863 549.735172,517.162326 549.71056,516.48543 C549.71056,515.10372 551.58756,512.39243 566.60386,512.80957 C566.60386,512.80957 577.72702,512.80957 582.17628,505.02336 C582.17628,505.02336 598.86103,526.15737 613.87729,517.25884 Z" id="Path" fill="#CBCEDA"></path>
            <path d="M740.12518,294.79561 C740.12518,294.79561 780.16856,269.76849 813.53804,294.79561 C846.90752,319.82273 869.15385,433.83513 869.15385,433.83513 L791.84785,416.59423 C791.84785,416.59423 788.51085,403.24643 784.06164,401.0218 C779.61243,398.79717 779.05621,389.34248 779.05621,389.34248 C779.05621,389.34248 755.14142,382.11242 756.80989,354.30448 C758.47836,326.49654 740.12518,294.79561 740.12518,294.79561 Z" id="Path" fill="#5FE3C0"></path>
            <path d="M760.70303,295.90792 L740.12518,295.90792 C740.12518,295.90792 727.8897,309.81192 726.22118,344.84983 L719.54733,372.65772 C719.54733,372.65772 705.64333,406.0272 713.98575,411.58878 C722.32817,417.15036 738.4567,416.59421 741.79365,405.47104 C745.1306,394.34787 767.93308,329.83355 767.93308,329.83355 L760.70303,295.90792 Z" id="Path" fill="#5FE3C0"></path>
            <path d="M754.80541,209.43916 C765.209633,205.172602 777.129654,207.12694 785.62675,214.49245 C796.30775,224.02445 798.46275,239.57426 801.16287,253.63313 C803.86299,267.692 809.29487,283.34821 822.54505,288.76813 C816.572589,289.565962 810.510247,289.389567 804.59428,288.24582 L824.61772,306.18992 L790.8872,295.19552 C780.30097,291.74496 769.18291,288.25107 758.22038,290.19978 C740.05958,293.42807 727.41617,310.50065 709.97303,316.49843 L711.91139,307.03978 L700.20867,306.95008 C703.012217,304.875757 705.305448,302.18903 706.91373,299.0945 C705.799218,297.740994 704.18442,296.896097 702.43702,296.75219 C697.55877,266.32373 715.62772,236.24491 739.17519,216.36519 C743.80685,212.45494 748.93198,208.69919 754.91408,207.72108 C760.89618,206.74297 767.87954,209.41785 769.95977,215.11126" id="Path" fill="#2F2E41"></path>
            <path d="M244.48756,488.3072 C244.48756,552.32333 284.64791,604.12437 334.2784,604.12437" id="Path" fill="#3F3D56"></path>
            <path d="M334.2784,604.12437 C334.2784,539.38896 379.09502,487.00589 434.47976,487.00589" id="Path" fill="#5FE3C0"></path>
            <path d="M277.02047,494.11037 C277.02047,554.91889 302.62997,604.12437 334.2784,604.12437" id="Path" fill="#5FE3C0"></path>
            <path d="M334.2784,604.12437 C334.2784,521.4069 386.0794,454.47298 450.09556,454.47298" id="Path" fill="#3F3D56"></path>
            <path d="M315.38872,604.9409 C315.38872,604.9409 328.12254,604.54871 331.96019,601.81597 C335.79784,599.08323 351.54801,595.82018 352.50004,600.2029 C353.45207,604.58562 371.6366,622.00054 357.26018,622.1165 C342.88376,622.23246 323.85578,619.87715 320.02551,617.54399 C316.19524,615.21083 315.38872,604.9409 315.38872,604.9409 Z" id="Path" fill="#A8A8A8"></path>
            <path d="M357.51674,620.59086 C343.14032,620.70686 324.11235,618.35153 320.28208,616.01835 C317.36513,614.24152 316.20275,607.86582 315.81383,604.92435 C315.54448,604.93593 315.38872,604.94092 315.38872,604.94092 C315.38872,604.94092 316.19525,615.21083 320.02553,617.54401 C323.85581,619.87719 342.88377,622.23251 357.26019,622.11651 C361.41009,622.08304 362.84354,620.60657 362.76483,618.41978 C362.18831,619.74095 360.60556,620.56596 357.51674,620.59086 Z" id="Path" fill="#000000" opacity="0.2"></path>
        </g>
    </g>
</svg>