<?xml version="1.0" encoding="UTF-8"?>
<svg width="180px" height="53px" viewBox="0 0 180 53" version="1.1" xmlns="http://www.w3.org/2000/svg" xmlns:xlink="http://www.w3.org/1999/xlink">
    <!-- Generator: Sketch 52.5 (67469) - http://www.bohemiancoding.com/sketch -->
    <title>Slice</title>
    <desc>Created with Sketch.</desc>
    <g id="Page-1" stroke="none" stroke-width="1" fill="none" fill-rule="evenodd">
        <g id="Yuna_Logo_Color">
            <ellipse id="Oval" fill="#FD79A8" cx="45.9466321" cy="26.5" rx="26.3564767" ry="26.2768421"></ellipse>
            <ellipse id="Oval" fill="#FD79A8" cx="9.90233161" cy="43.099693" rx="9.70647668" ry="9.67714912"></ellipse>
            <polygon id="Path" fill="#2B2B2B" points="89.1163212 16.2905263 94.8660622 30.5610088 100.196114 16.2905263 106.088083 16.2905263 93.1896373 47.3373684 87.2510363 47.3373684 92.0098446 36.7094737 83.1497409 16.2905263"></polygon>
            <path d="M128.786269,16.2905263 L128.786269,37.3185088 L123.423575,37.3185088 L123.423575,33.066886 C122.896505,34.4476764 121.925812,35.6156911 120.662953,36.3886842 C119.329917,37.1980112 117.793393,37.6124254 116.232902,37.5835088 C113.795596,37.5835088 111.852591,36.7861842 110.403886,35.1915351 C108.955181,33.596886 108.231606,31.370731 108.233161,28.5130702 L108.233158,16.2905263 L113.549223,16.2905263 L113.549223,27.9133333 C113.549223,29.5854678 113.98057,30.8825731 114.843264,31.8046491 C115.705959,32.7267251 116.871762,33.1916374 118.340674,33.199386 C119.895078,33.199386 121.126166,32.7058041 122.033938,31.7186404 C122.94171,30.7314766 123.398705,29.314269 123.404922,27.4670175 L123.404922,16.3091228 L128.786269,16.2905263 Z" id="Path" fill="#2B2B2B"></path>
            <path d="M152.048705,18.3779825 C153.494301,19.9726316 154.217098,22.2119591 154.217098,25.0959649 L154.217098,37.3185088 L148.889378,37.3185088 L148.889378,25.6957018 C148.889378,24.0266667 148.457254,22.7303363 147.593005,21.8067105 C146.728756,20.8830848 145.548964,20.4181725 144.053627,20.4119737 C142.530311,20.4119737 141.311658,20.9047807 140.397668,21.8903947 C139.483679,22.8760088 139.026684,24.2932164 139.026684,26.1420175 L139.026684,37.2999123 L133.66399,37.2999123 L133.66399,16.2905263 L139.026684,16.2905263 L139.026684,20.5026316 C139.555892,19.1230849 140.52607,17.9556897 141.787306,17.1808333 C143.119983,16.3706718 144.656755,15.9561906 146.217358,15.9860088 C148.659326,15.9860088 150.603109,16.7833333 152.048705,18.3779825 Z" id="Path" fill="#2B2B2B"></path>
            <path d="M171.76943,17.2761404 C173.013707,18.0811386 173.962062,19.2672836 174.471762,20.6560526 L174.471762,16.2905263 L179.801813,16.2905263 L179.801813,37.3185088 L174.471762,37.3185088 L174.471762,32.9157895 C173.958774,34.3070162 173.011568,35.4974283 171.76943,36.3119737 C170.501036,37.1596637 168.97772,37.5835088 167.199482,37.5835088 C165.511441,37.6073279 163.850298,37.1604882 162.403368,36.2933772 C160.948262,35.3959842 159.789666,34.0921573 159.071503,32.5438596 C158.274093,30.9120175 157.874611,28.9958041 157.873057,26.7952193 C157.871503,24.5946345 158.270984,22.6776462 159.071503,21.0442544 C159.792565,19.5002878 160.950703,18.2002077 162.403368,17.3040351 C163.85098,16.438524 165.511659,15.9918094 167.199482,16.0139035 C168.976166,16.0201023 170.499482,16.440848 171.76943,17.2761404 Z M164.84456,22.3157895 C163.829534,23.4005848 163.322021,24.8937281 163.322021,26.7952193 C163.322021,28.6967105 163.829534,30.1859795 164.84456,31.2630263 C165.859585,32.3385234 167.204922,32.8762719 168.88057,32.8762719 C170.394361,32.9217597 171.85575,32.3213819 172.897927,31.2258333 C173.948705,30.1239912 174.47487,28.651769 174.476425,26.8091667 C174.476425,24.9355702 173.950259,23.4486257 172.897927,22.3483333 C171.85575,21.2527848 170.394361,20.652407 168.88057,20.6978947 C167.201813,20.6916959 165.856477,21.2309942 164.84456,22.3157895 Z" id="Shape" fill="#2B2B2B" fill-rule="nonzero"></path>
        </g>
    </g>
</svg>