<?xml version="1.0" encoding="UTF-8"?>
<svg width="636px" height="713px" viewBox="0 0 636 713" version="1.1" xmlns="http://www.w3.org/2000/svg" xmlns:xlink="http://www.w3.org/1999/xlink">
    <!-- Generator: Sketch 54.1 (76490) - https://sketchapp.com -->
    <title>modern</title>
    <desc>Created with Sketch.</desc>
    <g id="Page-1" stroke="none" stroke-width="1" fill="none" fill-rule="evenodd">
        <g id="modern" fill-rule="nonzero">
            <path d="M297.37,323.23 C297.25,318.23 295.85,314.04 293.84,311.73 L292.25,318 L292.25,310.47 C291.552329,310.041743 290.735536,309.848938 289.92,309.92 C286.01,310.28 282.99,316.85 283.17,324.59 C283.35,332.33 286.67,338.32 290.58,337.96 C294.49,337.6 297.55,331 297.37,323.23 Z" id="Path" fill="#57B894"></path>
            <path d="M296.42,327 C294.78,327.36 293.19,328.37 291.55,328.57 C289.91,328.77 288.11,327.99 287.08,325.46 C286.52,324.1 286.24,322.38 285.77,320.89 C285.406631,319.672576 284.79741,318.542624 283.98,317.57 C283.408707,319.857771 283.153004,322.21293 283.22,324.57 C283.4,332.31 286.72,338.29 290.63,337.93 C293.91,337.63 296.56,332.93 297.22,326.87 C296.951046,326.897846 296.683932,326.941252 296.42,327 Z" id="Path" fill="#000000" opacity="0.1"></path>
            <path d="M622.25,271.54 C618.75,268.03 614.82,265.93 611.77,265.64 L614.9,271.24 L609.75,265.75 C608.950566,265.921302 608.225921,266.341387 607.68,266.95 C605.09,269.95 607.43,276.75 612.9,282.24 C618.37,287.73 624.9,289.78 627.48,286.82 C630.06,283.86 627.69,277 622.25,271.54 Z" id="Path" fill="#57B894"></path>
            <path d="M624.11,274.91 C623.17,276.29 622.71,278.12 621.66,279.39 C620.61,280.66 618.77,281.34 616.28,280.23 C614.93,279.63 613.54,278.57 612.18,277.82 C611.077709,277.181101 609.855667,276.776023 608.59,276.63 C609.755625,278.685462 611.195498,280.572772 612.87,282.24 C618.34,287.73 624.87,289.78 627.45,286.82 C629.61,284.34 628.31,279.13 624.61,274.27 C624.426996,274.470051 624.259826,274.684029 624.11,274.91 Z" id="Path" fill="#000000" opacity="0.1"></path>
            <path d="M365.18,292 L347.96,282 C347.96,282 306.34,276.26 312.08,256.17 C317.82,236.08 346.53,256.17 346.53,256.17 L365.18,269 L365.18,292 Z" id="Path" fill="#FFC1C7"></path>
            <path d="M365.18,292 L347.96,282 C347.96,282 306.34,276.26 312.08,256.17 C317.82,236.08 346.53,256.17 346.53,256.17 L365.18,269 L365.18,292 Z" id="Path" fill="#000000" opacity="0.1"></path>
            <path d="M428.32,190.11 C428.32,190.11 386.71,220.25 386.71,210.2 C386.71,204.2 379.45,185.67 373.65,171.88 C369.81,162.74 366.65,155.67 366.65,155.67 L409.65,144.19 C408.327599,151.145549 408.491178,158.302136 410.13,165.19 C412.665935,175.572209 419.204746,184.530272 428.32,190.11 L428.32,190.11 Z" id="Path" fill="#FFC1C7"></path>
            <path d="M342.25,445.94 C342.25,445.94 309.25,519.13 320.72,546.39 C320.72,546.39 284.85,655.46 273.37,659.76 C261.89,664.06 302.07,671.24 302.07,671.24 C302.07,671.24 349.4,608.1 352.25,557.87 C355.1,507.64 406.8,456 406.8,456 L342.25,445.94 Z" id="Path" fill="#FFC1C7"></path>
            <path d="M418.25,475.68 C418.25,475.68 436.9,535.96 461.3,553.18 C461.3,553.18 511.53,636.41 504.3,662.24 C504.3,662.24 533,666.55 534.44,662.24 C534.44,662.24 521.52,571.83 489.95,535.96 C458.38,500.09 472.81,457 472.81,457 L418.25,475.68 Z" id="Path" fill="#FFC1C7"></path>
            <path d="M291.99,661.2 C291.99,661.2 274.77,646.85 261.86,658.33 C248.95,669.81 225.98,666.94 208.76,661.2 C191.54,655.46 192.98,669.81 233.16,688.46 C273.34,707.11 296.3,711.46 296.3,711.46 C296.3,711.46 302.04,688.46 302.04,682.76 C302.04,677.06 305.61,666.29 305.61,666.29 L291.99,661.2 Z" id="Path" fill="#F2F2F2"></path>
            <path d="M518.73,659.37 C518.73,659.37 501.51,649.37 498.64,667.98 C495.77,686.59 454.15,698.12 454.15,698.12 C454.15,698.12 434.06,716.77 495.77,711 C557.48,705.23 553.17,693.78 553.17,693.78 L533.63,656.64 L518.73,659.37 Z" id="Path" fill="#F2F2F2"></path>
            <path d="M365.18,379.54 C365.18,379.54 320.69,442.68 337.91,449.85 C355.13,457.02 353.7,438.37 370.91,458.46 C388.12,478.55 432.62,468.46 438.36,464.2 C444.1,459.94 458.45,441.2 469.93,442.68 C481.41,444.16 451.25,369.49 451.25,369.49 L365.18,379.54 Z" id="Path" fill="#3F3D56"></path>
            <path d="M406.25,159 C400.11,164.73 395.77,174.45 386.71,174.45 C382.23039,174.456664 377.793082,173.583472 373.65,171.88 C369.81,162.74 366.65,155.67 366.65,155.67 L409.65,144.19 C408.25,152.41 404.78,153.16 406.25,159 Z" id="Path" fill="#000000" opacity="0.1"></path>
            <circle id="Oval" fill="#FFC1C7" cx="386.71" cy="137.01" r="34.44"></circle>
            <path d="M406.8,185.81 C406.8,185.81 391.92,200.91 385.01,201.97 C378.1,203.03 352.25,247.51 359.44,283.39 C366.63,319.27 350.83,393.89 358.01,398.19 C365.19,402.49 480.01,382.41 480.01,382.41 L406.8,185.81 Z" id="Path" fill="#F2F2F2"></path>
            <path d="M421.15,178.63 C421.15,178.63 395.32,170.02 386.71,215.94 C378.1,261.86 366.62,223.12 366.62,281.94 C366.62,340.76 362.31,362.31 369.49,412.53 C376.67,462.75 382.4,462.76 373.79,479.98 C365.18,497.2 465.63,492.9 490.03,459.89 C514.43,426.88 482.85,303.47 469.94,284.81 C457.03,266.15 457.02,208.76 446.94,194.41 C440.853976,185.854165 431.538386,180.154281 421.15,178.63 Z" id="Path" fill="#5ED0FA"></path>
            <path d="M420.38,459.52 L407.67,443.62 L367.1,250 L394.37,199.1 C399.045589,190.365747 407.70769,184.480152 417.55,183.35 C427.341171,182.145696 437.089334,185.894989 443.55,193.35 C483.02,238.29 502.83,377.64 503.65,383.55 L503.73,384.11 L499.73,394.52 L478.73,441.59 L420.38,459.52 Z M411.67,441.74 L421.91,454.54 L475.55,438 L495.71,392.82 L499.3,383.55 C497.88,373.77 477.71,238.72 440.3,196.14 C434.694263,189.799781 426.33912,186.606444 417.933635,187.591571 C409.52815,188.576698 402.137807,193.615414 398.15,201.08 L371.63,250.61 L411.67,441.74 Z" id="Shape" fill="#2F2E41"></path>
            <path d="M333.61,266.17 L333.61,266.17 L296.32,233 C295.488849,232.2535 295.331309,231.010213 295.95,230.08 L296.41,229.38 L296.41,229.38 C296.733441,228.876374 297.265441,228.544081 297.85991,228.474371 C298.454379,228.404662 299.048822,228.604863 299.48,229.02 L333.48,260.52 C334.270659,261.238195 334.732145,262.249251 334.756715,263.31712 C334.781286,264.384988 334.36679,265.4162 333.61,266.17 L333.61,266.17 Z" id="Path" fill="#5ED0FA"></path>
            <path d="M333.61,266.17 L333.61,266.17 L296.32,233 C295.488849,232.2535 295.331309,231.010213 295.95,230.08 L296.41,229.38 L333.52,262.66 C334.015808,263.102901 334.306634,263.730944 334.323675,264.395547 C334.340716,265.06015 334.082459,265.702271 333.61,266.17 Z" id="Path" fill="#192534"></path>
            <path d="M444.11,273.34 C444.11,273.34 391.01,269.04 380.97,250.34 C370.93,231.64 345.09,241.73 352.27,250.34 C359.45,258.95 358.01,279.04 378.1,280.48 C398.19,281.92 448.41,292 448.41,292 L444.11,273.34 Z" id="Path" fill="#FFC1C7"></path>
            <path d="M501.51,383.84 C501.51,383.84 465.63,386.71 457.02,424.02 C448.41,461.33 409.67,442.68 409.67,442.68 C409.67,442.68 405.36,540.26 468.5,515.87 C531.64,491.48 546,445.55 546,439.81 C546,434.07 502.95,399.63 501.51,383.84 Z" id="Path" fill="#2F2E41"></path>
            <path d="M412.54,449.85 C412.54,449.85 451.25,468.51 459.89,431.2 C468.09,395.66 501,391.37 504.12,391.04 C502.775564,388.839506 501.887928,386.390853 501.51,383.84 C501.51,383.84 465.63,386.71 457.02,424.02 C448.41,461.33 409.67,442.68 409.67,442.68 C409.67,442.68 408.27,474.53 418.84,497.29 C411.41,475.56 412.54,449.85 412.54,449.85 Z" id="Path" fill="#000000" opacity="0.1"></path>
            <path d="M545.69,442 C545.858719,441.290909 545.962481,440.567921 546,439.84 C546,434.93 514.49,409 504.49,391.73 C506.61,405.07 535.89,430.52 545.69,442 Z" id="Path" fill="#000000" opacity="0.1"></path>
            <path d="M342.25,112.85 C340.25,119.13 346.72,125.48 353.25,126.14 C359.78,126.8 366.11,123.67 372.09,120.87 C378.07,118.07 384.75,115.45 391.14,117.15 C398.14,119 402.8,125.51 405.91,132.01 C408.625296,137.695436 410.60459,143.703885 411.8,149.89 C413.08,156.51 413.67,163.79 418.22,168.79 C422.77,173.79 430.32,175.14 437.22,175.11 C444.12,175.08 451.1,174.11 457.75,175.81 C470.95,179.25 479.12,192.4 483.83,205.17 C488.54,217.94 491.37,231.85 499.9,242.48 C507.01,251.36 517.38,256.99 527.77,261.66 C533.01,264.01 538.44,266.2 544.16,266.74 C549.88,267.28 556.02,265.95 560.16,262.03 C564.83,257.65 566.33,250.97 567.6,244.71 C569.45,235.63 571.3,226.3 569.77,217.15 C567.77,205.15 560.06,194.6 558.29,182.55 C556.57,170.83 560.62,159 560.21,147.16 C559.52,127.34 544.93,108.76 525.8,103.33 C518.8,101.33 511.45,100.97 504.73,98.33 C495.97,94.84 489.22,87.82 482.06,81.69 C464.946891,67.0718469 444.51569,56.8648294 422.55,51.96 C407.81,48.69 390.37,48.64 379.95,59.53 C375.72,63.96 372.95,69.95 367.55,72.91 C364.78,74.44 361.6,74.99 358.62,76.02 C343.9,81.08 335.44,99.42 341.15,113.86" id="Path" fill="#2F2E41"></path>
            <path d="M552.82,252.39 C547.1,251.85 541.67,249.66 536.43,247.31 C526.04,242.64 515.68,237.01 508.56,228.13 C500.03,217.5 497.19,203.6 492.49,190.82 C487.79,178.04 479.61,164.9 466.41,161.46 C459.76,159.72 452.75,160.73 445.88,160.76 C439.01,160.79 431.53,159.52 426.88,154.44 C422.23,149.36 421.74,142.16 420.46,135.54 C419.265858,129.353555 417.286513,123.344948 414.57,117.66 C411.46,111.16 406.78,104.66 399.8,102.8 C393.41,101.1 386.73,103.72 380.75,106.52 C374.77,109.32 368.49,112.45 361.91,111.79 C355.33,111.13 348.91,104.79 350.91,98.5 L349.91,99.5 C347.758905,93.8424799 347.520063,87.6361054 349.23,81.83 C340.76,89.78 336.97,102.93 341.29,113.83 L342.29,112.83 C340.29,119.11 346.76,125.46 353.29,126.12 C359.82,126.78 366.15,123.65 372.13,120.85 C378.11,118.05 384.79,115.43 391.18,117.13 C398.18,118.98 402.84,125.49 405.95,131.99 C408.665296,137.675436 410.64459,143.683885 411.84,149.87 C413.12,156.49 413.71,163.77 418.26,168.77 C422.81,173.77 430.36,175.12 437.26,175.09 C444.16,175.06 451.14,174.09 457.79,175.79 C470.99,179.23 479.16,192.38 483.87,205.15 C488.58,217.92 491.41,231.83 499.94,242.46 C507.05,251.34 517.42,256.97 527.81,261.64 C533.05,263.99 538.48,266.18 544.2,266.72 C549.92,267.26 556.06,265.93 560.2,262.01 C563.72,258.71 565.44,254.09 566.62,249.33 C562.485242,251.848706 557.63186,252.92489 552.82,252.39 Z" id="Path" fill="#000000" opacity="0.1"></path>
            <path d="M406.8,198.72 C406.8,198.72 402.49,230.29 418.28,237.47 C434.07,244.65 445.54,269 445.54,269 L432.63,271.87 C432.63,271.87 428.32,291.96 439.8,297.7 C451.28,303.44 482.85,297.7 482.85,297.7 C482.85,297.7 497.21,290.52 485.72,267.56 C474.23,244.6 441.25,194.42 441.25,194.42 C441.25,194.42 424.02,175.76 406.8,198.72 Z" id="Path" fill="#5ED0FA"></path>
            <ellipse id="Oval" fill="#FFC1C7" cx="411" cy="137.5" rx="6.91" ry="10.36"></ellipse>
            <circle id="Oval" fill="#F2F2F2" cx="411" cy="138.65" r="3.45"></circle>
            <ellipse id="Oval" fill="#F2F2F2" transform="translate(408.118377, 143.829298) rotate(-63.300000) translate(-408.118377, -143.829298) " cx="408.118377" cy="143.829298" rx="4.03" ry="1.73"></ellipse>
            <path d="M553.37,36.23 C553.25,31.28 551.85,27.04 549.84,24.73 L548.25,31 L548.25,23.47 C547.552329,23.0417431 546.735536,22.8489378 545.92,22.92 C542.01,23.28 538.99,29.85 539.17,37.59 C539.35,45.33 542.67,51.32 546.58,50.96 C550.49,50.6 553.55,44 553.37,36.23 Z" id="Path" fill="#57B894"></path>
            <path d="M552.42,40 C550.78,40.36 549.19,41.37 547.55,41.57 C545.91,41.77 544.11,40.99 543.08,38.46 C542.52,37.1 542.24,35.38 541.77,33.89 C541.406631,32.6725764 540.79741,31.5426243 539.98,30.57 C539.408707,32.8577705 539.153004,35.2129295 539.22,37.57 C539.4,45.31 542.72,51.29 546.63,50.93 C549.91,50.63 552.56,45.93 553.22,39.87 C552.951046,39.897846 552.683932,39.9412521 552.42,40 Z" id="Path" fill="#000000" opacity="0.1"></path>
            <path d="M625.87,444.17 C630.4,442.17 633.77,439.24 635.13,436.49 L628.78,437.41 L635.78,434.57 C635.905546,433.762944 635.772532,432.936857 635.4,432.21 C633.57,428.74 626.34,428.47 619.26,431.61 C612.18,434.75 607.92,440.1 609.75,443.61 C611.58,447.12 618.78,447.31 625.87,444.17 Z" id="Path" fill="#57B894"></path>
            <path d="M622.05,444.72 C621.05,443.35 619.55,442.27 618.74,440.83 C617.93,439.39 617.95,437.43 619.89,435.51 C620.89,434.51 622.41,433.51 623.6,432.51 C624.591099,431.713502 625.40511,430.718978 625.99,429.59 C623.656615,429.948005 621.382559,430.620802 619.23,431.59 C612.15,434.73 607.89,440.08 609.72,443.59 C611.26,446.5 616.6,447.16 622.46,445.44 C622.337466,445.192223 622.200566,444.951814 622.05,444.72 Z" id="Path" fill="#000000" opacity="0.1"></path>
            <path d="M240.87,490.17 C245.4,488.17 248.77,485.24 250.13,482.49 L243.78,483.41 L250.78,480.57 C250.905546,479.762944 250.772532,478.936857 250.4,478.21 C248.57,474.74 241.34,474.47 234.26,477.61 C227.18,480.75 222.92,486.1 224.75,489.61 C226.58,493.12 233.78,493.31 240.87,490.17 Z" id="Path" fill="#57B894"></path>
            <path d="M237.05,490.72 C236.05,489.35 234.55,488.27 233.74,486.83 C232.93,485.39 232.95,483.43 234.89,481.51 C235.89,480.51 237.41,479.51 238.6,478.51 C239.591099,477.713502 240.40511,476.718978 240.99,475.59 C238.656615,475.948005 236.382559,476.620802 234.23,477.59 C227.15,480.73 222.89,486.08 224.72,489.59 C226.26,492.5 231.6,493.16 237.46,491.44 C237.337466,491.192223 237.200566,490.951814 237.05,490.72 Z" id="Path" fill="#000000" opacity="0.1"></path>
            <rect id="Rectangle" fill="#3C354C" opacity="0.3" x="63" y="38" width="127" height="12"></rect>
            <path d="M247.5,192.87 L221.72,148 L0,148 L0,1 L292,1 L292,148 L247.5,148 L247.5,192.87 Z M1,147 L222.3,147 L246.5,189.13 L246.5,147 L291,147 L291,2 L1,2 L1,147 Z" id="Shape" fill="#000000" opacity="0.1"></path>
            <path d="M247.5,191.87 L221.72,147 L0,147 L0,0 L292,0 L292,147 L247.5,147 L247.5,191.87 Z M1,146 L222.3,146 L246.5,188.13 L246.5,146 L291,146 L291,1 L1,1 L1,146 Z" id="Shape" fill="#F2F2F2"></path>
            <circle id="Oval" fill="#3C354C" opacity="0.3" cx="33" cy="44" r="16.5"></circle>
            <circle id="Oval" fill="#5ED0FA" opacity="0.3" cx="239.5" cy="112.5" r="6"></circle>
            <circle id="Oval" fill="#5ED0FA" opacity="0.3" cx="254.5" cy="112.5" r="6"></circle>
            <circle id="Oval" fill="#5ED0FA" opacity="0.3" cx="269.5" cy="112.5" r="6"></circle>
        </g>
    </g>
</svg>