<?xml version="1.0"?>
<svg xmlns="http://www.w3.org/2000/svg" height="512px" viewBox="-62 0 512 512.00019" width="512px"><g><path d="m346 80h-26.203125c-9.734375-14.464844-26.253906-24-44.964844-24h-31.183593c.347656-2.925781.4375-5.894531.269531-8.902344-1.4375-25.132812-21.453125-45.332031-46.554688-46.984375-14.007812-.921875-27.332031 3.832031-37.53125 13.386719-10.0625 9.417969-15.832031 22.722656-15.832031 36.5 0 2.019531.117188 4.023438.355469 6h-29.1875c-18.710938 0-35.230469 9.535156-44.96875 24h-28.199219c-23.160156 0-42 18.84375-42 42v348c0 23.160156 18.839844 42 42 42h304c23.160156 0 42-18.839844 42-42v-348c0-23.15625-18.84375-42-42-42zm-230.835938-4h42.171876c3.375 0 6.523437-1.699219 8.367187-4.523438 1.847656-2.824218 2.148437-6.386718.796875-9.480468-1.660156-3.796875-2.5-7.832032-2.5-11.996094 0-8.386719 3.371094-16.164062 9.5-21.902344 6.121094-5.730468 14.121094-8.582031 22.546875-8.027344 14.796875.972657 27.054687 13.347657 27.902344 28.167969.269531 4.78125-.550781 9.410157-2.453125 13.757813-1.347656 3.09375-1.050782 6.65625.796875 9.480468 1.847656 2.820313 4.992187 4.523438 8.367187 4.523438h44.171875c11.980469 0 22.53125 6.203125 28.632813 15.558594.347656 2.226562 1.425781 4.207031 2.988281 5.6875 1.636719 3.988281 2.542969 8.351562 2.542969 12.921875 0 4.316406-3.511719 7.832031-7.832032 7.832031h-212.332031c-4.316406 0-7.832031-3.515625-7.832031-7.832031 0-4.039063.707031-7.917969 2-11.519531 2.988281-1.726563 5-4.949219 5-8.648438 0-.164062-.015625-.328125-.023438-.488281 6.246094-8.203125 16.105469-13.511719 27.1875-13.511719zm252.835938 394c0 12.132812-9.871094 22-22 22h-304c-12.132812 0-22-9.867188-22-22v-348c0-12.128906 9.867188-22 22-22h19.972656c-.628906 3.296875-.972656 6.691406-.972656 10.167969 0 15.347656 12.484375 27.832031 27.832031 27.832031h212.332031c15.347657 0 27.835938-12.484375 27.835938-27.832031 0-3.476563-.34375-6.871094-.972656-10.167969h17.972656c12.128906 0 22 9.871094 22 22zm0 0" data-original="#000000" class="active-path" data-old_color="#000000" fill="#2BB0ED"/><path d="m79 382c-2.628906 0-5.210938 1.070312-7.070312 2.929688-1.859376 1.859374-2.929688 4.441406-2.929688 7.070312s1.070312 5.210938 2.929688 7.070312c1.859374 1.859376 4.441406 2.929688 7.070312 2.929688s5.210938-1.070312 7.070312-2.929688c1.859376-1.859374 2.929688-4.441406 2.929688-7.070312s-1.070312-5.210938-2.929688-7.070312c-1.859374-1.859376-4.441406-2.929688-7.070312-2.929688zm0 0" data-original="#000000" class="active-path" data-old_color="#000000" fill="#2BB0ED"/><path d="m79 438c-2.628906 0-5.210938 1.070312-7.070312 2.929688-1.859376 1.859374-2.929688 4.441406-2.929688 7.070312s1.070312 5.210938 2.929688 7.070312c1.859374 1.859376 4.441406 2.929688 7.070312 2.929688s5.210938-1.070312 7.070312-2.929688c1.859376-1.859374 2.929688-4.441406 2.929688-7.070312s-1.070312-5.210938-2.929688-7.070312c-1.859374-1.859376-4.441406-2.929688-7.070312-2.929688zm0 0" data-original="#000000" class="active-path" data-old_color="#000000" fill="#2BB0ED"/><path d="m181.574219 244.476562c1.875 1.875 4.421875 2.929688 7.074219 2.929688 2.648437 0 5.195312-1.054688 7.070312-2.929688l29.902344-29.902343c3.90625-3.90625 3.90625-10.238281 0-14.144531s-10.238282-3.90625-14.144532 0l-22.832031 22.832031-5.074219-5.074219c-3.90625-3.90625-10.238281-3.90625-14.144531 0-3.902343 3.902344-3.90625 10.234375 0 14.140625zm0 0" data-original="#000000" class="active-path" data-old_color="#000000" fill="#2BB0ED"/><path d="m79 326c-2.628906 0-5.210938 1.070312-7.070312 2.929688-1.859376 1.859374-2.929688 4.441406-2.929688 7.070312s1.070312 5.210938 2.929688 7.070312c1.859374 1.859376 4.441406 2.929688 7.070312 2.929688s5.210938-1.070312 7.070312-2.929688c1.859376-1.859374 2.929688-4.441406 2.929688-7.070312s-1.070312-5.210938-2.929688-7.070312c-1.859374-1.859376-4.441406-2.929688-7.070312-2.929688zm0 0" data-original="#000000" class="active-path" data-old_color="#000000" fill="#2BB0ED"/><path d="m309 382h-188c-5.523438 0-10 4.476562-10 10s4.476562 10 10 10h188c5.523438 0 10-4.476562 10-10s-4.476562-10-10-10zm0 0" data-original="#000000" class="active-path" data-old_color="#000000" fill="#2BB0ED"/><path d="m309 438h-185.820312c-5.523438 0-10 4.476562-10 10s4.476562 10 10 10h185.820312c5.519531 0 10-4.476562 10-10s-4.476562-10-10-10zm0 0" data-original="#000000" class="active-path" data-old_color="#000000" fill="#2BB0ED"/><path d="m309 326h-188c-5.523438 0-10 4.476562-10 10s4.476562 10 10 10h188c5.523438 0 10-4.476562 10-10s-4.476562-10-10-10zm0 0" data-original="#000000" class="active-path" data-old_color="#000000" fill="#2BB0ED"/><path d="m194 290c37.496094 0 68-30.503906 68-68s-30.503906-68-68-68-68 30.503906-68 68 30.503906 68 68 68zm0-116c26.464844 0 48 21.535156 48 48 0 26.46875-21.535156 48-48 48-26.46875 0-48-21.53125-48-48 0-26.464844 21.53125-48 48-48zm0 0" data-original="#000000" class="active-path" data-old_color="#000000" fill="#2BB0ED"/><path d="m194 60c2.628906 0 5.210938-1.070312 7.070312-2.929688 1.859376-1.859374 2.929688-4.4375 2.929688-7.070312 0-2.628906-1.070312-5.207031-2.929688-7.070312-1.859374-1.859376-4.441406-2.929688-7.070312-2.929688s-5.210938 1.070312-7.070312 2.929688c-1.859376 1.863281-2.929688 4.441406-2.929688 7.070312 0 2.632812 1.070312 5.210938 2.929688 7.070312 1.859374 1.859376 4.4375 2.929688 7.070312 2.929688zm0 0" data-original="#000000" class="active-path" data-old_color="#000000" fill="#2BB0ED"/></g> </svg>
