<?xml version="1.0" encoding="UTF-8"?>
<svg width="2005px" height="2005px" viewBox="0 0 2005 2005" version="1.1" xmlns="http://www.w3.org/2000/svg" xmlns:xlink="http://www.w3.org/1999/xlink">
    <!-- Generator: Sketch 58 (84663) - https://sketch.com -->
    <title>specialist-app</title>
    <desc>Created with Sketch.</desc>
    <defs>
        <circle id="path-1" cx="347.07" cy="347.07" r="245.07"></circle>
        <path d="M227.543145,102.43 C233.083145,78.97 235.953145,54.97 223.403145,38.98 C217.723145,31.77 207.623145,26.74 199.403145,23.17 C183.283145,16.17 166.793145,6.83 149.533145,3.79 C131.333145,0.59 111.093145,-1.39 92.9531452,3.19 C81.4331452,6.1 70.6531452,11.49 60.3431452,17.3 C51.4031452,22.3 40.4431452,26.68 36.1031452,36.06 C25.5265576,58.9109757 16.3137352,82.3687784 8.51314523,106.31 C2.03314523,126.24 -5.07685477,147.12 5.12314523,167.31 C8.43314523,173.86 13.2431452,179.46 17.0231452,185.71 C21.2331452,192.71 22.8031452,199.21 23.3631452,207.25 C24.6231452,225.57 24.1331452,243.96 24.0731452,262.31 C24.0731452,267.6 24.1331452,273.1 26.4431452,277.85 C31.0131452,287.23 43.4431452,287.36 52.3631452,287.34 L140.743145,287.19 C152.993145,287.19 162.363145,288.67 173.873145,291.04 C183.553145,293.04 191.873145,288.14 196.513145,279.13 C200.913145,270.6 201.243145,260.64 201.723145,251.05 C203.557099,213.729047 208.839606,176.657765 217.503145,140.31 C219.903145,130 224.203145,116.57 227.543145,102.43 Z" id="path-3"></path>
    </defs>
    <g id="Page-1" stroke="none" stroke-width="1" fill="none" fill-rule="evenodd">
        <g id="specialist-app">
            <rect id="Rectangle" transform="translate(1002.500000, 1002.500000) rotate(90.000000) translate(-1002.500000, -1002.500000) " x="1.13686838e-13" y="1.13686838e-13" width="2005" height="2005"></rect>
            <circle id="Oval" fill="#F5F5FE" fill-rule="nonzero" cx="1002.5" cy="1002.5" r="771.08"></circle>
            <path d="M1268.87,357 L741.76,357 C711.102674,357 686.25,381.852674 686.25,412.51 L686.25,1579.85 C686.25,1610.50733 711.102674,1635.36 741.76,1635.36 L1268.87,1635.36 C1299.52733,1635.36 1324.38,1610.50733 1324.38,1579.85 L1324.38,412.51 C1324.38,381.852674 1299.52733,357 1268.87,357 Z" id="Path" fill="#381F7A" fill-rule="nonzero"></path>
            <rect id="Rectangle" fill="#FFFFFF" fill-rule="nonzero" x="715.63" y="480.33" width="577.36" height="1060.59"></rect>
            <path d="M1089.68,429.710119 L921,429.710119 C917.289301,429.704511 914.281007,426.700687 914.27,422.99 L914.27,422.99 C914.280983,419.277683 917.287683,416.270983 921,416.26 L1089.73,416.26 C1093.44232,416.270983 1096.44902,419.277683 1096.46,422.99 L1096.46,422.99 C1096.45472,424.781043 1095.73678,426.49633 1094.4647,427.757153 C1093.19262,429.017976 1091.47102,429.720637 1089.68,429.710119 Z" id="Path" fill="#6DC9F0" fill-rule="nonzero"></path>
            <rect id="Rectangle" fill="#B6E4F8" fill-rule="nonzero" x="761.26" y="595.42" width="490.14" height="61.4"></rect>
            <rect id="Rectangle" fill="#9B87FF" fill-rule="nonzero" x="714.86" y="479.13" width="578.12" height="67.25"></rect>
            <circle id="Oval" fill="#FFFFFF" fill-rule="nonzero" transform="translate(1152.229906, 511.241047) rotate(-79.100000) translate(-1152.229906, -511.241047) " cx="1152.22991" cy="511.241047" r="14.95"></circle>
            <circle id="Oval" fill="#FFFFFF" fill-rule="nonzero" transform="translate(1210.875800, 514.206200) rotate(-58.055247) translate(-1210.875800, -514.206200) " cx="1210.8758" cy="514.2062" r="14.9753934"></circle>
            <circle id="Oval" fill="#FFFFFF" fill-rule="nonzero" transform="translate(1259.880423, 511.238969) rotate(-22.500000) translate(-1259.880423, -511.238969) " cx="1259.88042" cy="511.238969" r="14.95"></circle>
            <rect id="Rectangle" fill="#FFC73C" fill-rule="nonzero" x="827.86" y="1405.62" width="356.93" height="85.78" rx="23.01"></rect>
            <g id="Group" transform="translate(659.252365, 596.630973)">
                <mask id="mask-2" fill="white">
                    <use xlink:href="#path-1"></use>
                </mask>
                <use id="Mask" fill="#B6E4F8" fill-rule="nonzero" transform="translate(347.070000, 347.070000) rotate(-45.000000) translate(-347.070000, -347.070000) " xlink:href="#path-1"></use>
                <g mask="url(#mask-2)">
                    <g transform="translate(190.747635, 122.369027)">
                        <path d="M251,377.38 C226.16,380.45 198.55,373.49 180.55,355.38 C162.85,337.62 146.18,323.93 120.71,318.8 C97.96,314.22 76.52,322.34 54,320.11 C36.14,318.34 20.13,306.85 10.19,291.9 C0.5,277.31 -3.69,257.39 5.25,242.32 C9.93,234.43 17.6,228.76 22.92,221.32 C35.18,204.07 16.47,187.91 26.16,169.05 C34.41,153.05 55.78,144.98 59.38,127.31 C62.02,114.37 54.24,102.18 53.38,89.48 C52.52,76.78 56.24,63.36 64.92,53.75 C71.4072419,46.613357 80.0304415,41.7685082 89.5,39.94 C97.9,38.36 106.5,40.19 113.92,34.78 C127.15,25.15 133.92,13.04 150.35,7.49 C164.28,2.8 180.63,5.91 194.46,10.31 C225.18,20.1 251.96,43.31 263.81,73.6 C268.01,84.33 270.42,94.88 268.13,106.02 C265.63,118.19 262.93,130.4 268.13,142.36 C272.46,152.36 281.36,159.67 290.44,165.77 C299.52,171.87 309.23,177.33 316.6,185.41 C323.97,193.49 328.68,205.07 325.32,215.48 C322.51,224.19 314.64,230.56 311.86,239.28 C306.8,255.13 319.8,270.28 326.53,285.55 C335.94,306.86 332.45,333.3 317.83,351.44 C301,372.33 278.65,372.95 254.5,376.89 C253.25,377.07 252.1,377.24 251,377.38 Z" id="Path" stroke="none" fill="#0B2D4E" fill-rule="nonzero"></path>
                        <path d="M150.09,37.88 C158.7,35.1 168,35.02 176.88,36.6 C185.783984,38.2889055 194.40546,41.2244492 202.49,45.32 C218.878318,53.5827785 232.058203,67.054612 239.96,83.62 C243.846576,91.915396 246.159102,100.860331 246.78,110 C247.37,119.16 245.9,128.29 243.85,137.08 C241.8,145.87 239.25,154.54 237.62,163.3 C236.779256,167.609348 236.526956,172.012827 236.87,176.39 C237.140597,180.659091 238.754179,184.733296 241.48,188.03 C244.2,191.23 248.17,193.21 252.3,194.65 C256.43,196.09 260.89,197.1 265.2,198.65 C273.72,201.77 282.2,205.83 288.73,212.55 C292.132121,215.894352 294.401634,220.220064 295.22,224.92 C295.95,229.71 294.55,234.46 292.44,238.62 C290.13,242.78 286.78,245.95 284.16,249.46 C281.523568,252.977435 279.495461,256.911962 278.16,261.1 C275.45,269.52 275.76,278.63 277.02,287.46 C278.28,296.29 280.02,305.24 280.23,314.33 C280.356714,318.884038 279.913271,323.436042 278.91,327.88 C277.859587,332.309956 276.107461,336.543416 273.72,340.42 C268.959587,348.170871 261.99632,354.326399 253.72,358.1 C261.864312,354.17491 268.650938,347.907118 273.21,340.1 C277.83,332.38 279.45,323.26 279,314.37 C278.55,305.48 276.76,296.62 275.44,287.68 C274.12,278.74 273.57,269.39 276.3,260.51 C277.645129,256.081543 279.724008,251.910264 282.45,248.17 C285.19,244.46 288.45,241.32 290.45,237.55 C292.45,233.78 293.6,229.43 292.93,225.25 C292.163523,221.028596 290.093139,217.153621 287.01,214.17 C280.91,207.93 272.65,203.95 264.35,200.97 C260.19,199.47 255.81,198.5 251.45,196.97 C247.09,195.44 242.69,193.37 239.51,189.66 C236.456203,185.953896 234.644189,181.381886 234.33,176.59 C233.989108,171.976041 234.275043,167.337166 235.18,162.8 C236.88,153.8 239.49,145.21 241.54,136.49 C243.59,127.77 245.07,118.93 244.54,110.07 C243.953276,101.195024 241.78944,92.4956589 238.15,84.38 C230.598753,68.0549383 217.851181,54.6919668 201.9,46.38 C193.988325,42.1394936 185.518301,39.0356136 176.74,37.16 C168,35.44 158.76,35.31 150.09,37.88 Z" id="Path" stroke="none" fill="#73B8D4" fill-rule="nonzero"></path>
                        <path d="M218,257.38 C214.43,277.45 206.53,291.38 186.17,297.2 C169.96,301.84 152.05,300.58 135.98,297.45 C108.98,292.2 80.67,278.71 64.77,255.45 C61.88,251.23 59.31,246.27 60.15,241.23 C60.91,236.64 64.34,232.92 65.56,228.44 C67.62,220.87 63.07,213.23 62,205.44 C60.58,195.18 65.29,185.12 70.56,176.21 C75.83,167.3 82,158.51 83.7,148.3 C85.97,135.07 80.62,121.9 76.86,109.01 C73.1,96.12 71.21,81.01 79.23,70.26 C84.9597584,62.9962626 93.9640355,59.1088211 103.18,59.92 C112.54,60.92 118.44,73.17 123.03,80.21 C129.209432,89.6789196 136.46071,98.4032705 144.64,106.21 C155.95,117.01 169,126.01 179.27,137.8 C185.49,144.93 191.8,154.23 193.42,163.8 C195.25,174.54 186.14,182.54 192.61,193.48 C196.78,200.48 204.72,204.37 210.33,210.35 C222.33,223.15 220.84,241.54 218,257.38 Z" id="Path" stroke="none" fill="#061F33" fill-rule="nonzero"></path>
                        <path d="M104.73,347.92 C115.6,314.22 117.73,275.92 92.73,247.92 C90.2,245.08 87.27,242.03 83.47,241.81 C75.31,241.34 65.88,246.81 60.4,252.33 C41.4,271.68 34.3,300.33 27.6,325.94 C20.6,352.54 15.67,379.62 8.6,406.2 C5.75,416.97 2.88,427.87 2.8,439.01 C2.73,448.77 5.26,459.23 11.09,467.19 C36.32,501.57 64.51,443.51 73.09,425.94 C85.489371,400.723662 96.063194,374.650031 104.73,347.92 Z" id="Path" stroke="none" fill="#F8A17A" fill-rule="nonzero"></path>
                        <path d="M37.08,278 C25.7466667,294.166667 14.39,310.343333 3.01,326.53 C2.31339864,327.130443 1.93069116,328.017224 1.97165467,328.935977 C2.01261817,329.85473 2.47272627,330.703934 3.22,331.24 C20.22,350.37 40.33,366.42 60.35,382.36 C62.7914475,366.29148 64.0282273,350.062924 64.05,333.81 C64.05,318.81 63.05,303.89 64.05,288.97 C64.5196103,280.166057 65.985635,271.443713 68.42,262.97 C69.78,258.41 87.34,240.79 79.79,240.44 C73.33,240.14 55.79,253.2 51.73,257.44 C46,263.38 41.81,271.24 37.08,278 Z" id="Path" stroke="none" fill="#26A8D1" fill-rule="nonzero"></path>
                        <g id="Group" stroke="none" stroke-width="1" fill="none" fill-rule="evenodd" transform="translate(29.376855, 217.000000)">
                            <mask id="mask-4" fill="white">
                                <use xlink:href="#path-3"></use>
                            </mask>
                            <use id="Mask" fill="#3DC8E8" fill-rule="nonzero" xlink:href="#path-3"></use>
                            <g mask="url(#mask-4)" fill-rule="nonzero" id="Path">
                                <g transform="translate(12.623145, -15.000000)">
                                    <path d="M163.07,54.18 C165.740599,46.9731295 167.013301,39.3233401 166.82,31.64 C166.52,22.71 163.48,13.17 155.88,8.05 C146.88,1.95 136.88,4.48 127.03,5.79 C114.94,7.4 103.03,7.05 90.97,9.79 C82.45,11.71 75.84,16.02 67.85,18.89 C61.31,21.25 53.72,22.04 50.21,28.89 C49.405333,30.6037395 48.8432671,32.4211979 48.54,34.29 C41.54,69.2 51.19,106.92 74.29,134.64 C101.35,119.76 128.87,103.97 148.02,80.28 C154.457115,72.480194 159.543993,63.6584333 163.07,54.18 Z" fill="#26A8D1"></path>
                                    <path d="M156.75,47.5 C159.095142,40.718884 160.209329,33.5731828 160.04,26.4 C159.78,18.04 157.1,9.12 150.43,4.32 C142.43,-1.38 133.77,0.98 125.07,2.21 C114.45,3.71 103.98,3.39 93.39,5.93 C85.9,7.73 80.09,11.77 73.07,14.46 C67.32,16.66 60.65,17.4 57.56,23.78 C56.8569401,25.3930931 56.3661757,27.0905998 56.1,28.83 C49.92,61.51 58.43,96.83 78.73,122.76 C102.5,108.83 126.73,94.05 143.52,71.88 C149.209264,64.5156467 153.676369,56.2837472 156.75,47.5 L156.75,47.5 Z" fill="#F8A17A"></path>
                                    <path d="M225.35,225 L225.08,171 C225.08,164.74 229.08,126.62 219.37,127 C218.318924,127.119857 217.323574,127.536032 216.5,128.2 C211.66,131.67 209.17,137.48 206.9,142.99 C199.8,160.27 193.84,187.93 179.06,199.99 C164.06,212.29 140.93,217.47 122.26,220.42 C100.46,223.87 78.26,224.13 56.26,225.42 C42.01,226.29 26.26,228.34 16.92,239.12 C10.24,246.82 6.83,258.36 3.26,267.76 C0.14,275.98 -2.34,285.76 3.99,293.19 C6.69,296.37 10.44,298.45 14.21,300.19 C27.96,306.67 42.99,309.94 57.99,312.45 C99.99,319.45 142.72,320.93 185.21,318.91 C194.3,318.48 204.15,317.57 210.85,311.42 C215.85,306.84 218.19,300.11 219.85,293.55 C225.55,271.41 225.47,248.05 225.35,225 Z" fill="#26A8D1"></path>
                                </g>
                            </g>
                        </g>
                        <path d="M245.45,373.39 C260.74,378.86 277.62,381.13 293.3,376.88 C313.3,371.46 325.99,356.26 330.71,336.59 C334.14,322.34 334.65,306.82 328.53,293.5 C321.87,279.03 307.82,267.93 305.15,252.22 C303.43,242.05 307.15,229.53 316.21,223.95 C321.99,220.4 326.86,216.04 327.77,208.95 C329.1,198.61 323.83,187.23 316.77,179.95 C306.38,169.23 291.91,162.95 278.08,158.02 C268.71,154.67 259.71,149.85 259.02,138.81 C258.64,132.81 260.26,127.03 261.23,121.21 C263.29,108.8 265.1,96.33 265.95,83.77 C266.95,69.29 260.81,53.77 252.79,41.84 C251.636667,40.1266667 250.42,38.46 249.14,36.84 C227.64,9.84 180.87,-8.3 147.68,4.98 C136.34406,9.46106314 127.260872,18.274347 122.44,29.47 C119.25,36.98 116.76,38.2 108.58,38.89 C93.73,40.14 77.29,39.72 64,47.48 C53.61,53.55 47,64.75 45.57,76.59 C43.78,91.71 52.57,101.06 57.38,114.42 C62.3,128.05 53.04,141.8 42.09,149.74 C33.65,155.85 22.83,159.29 16.93,167.88 C11.5,175.78 11.62,186.33 14.02,195.61 C15.02,199.37 16.31,203.04 17.02,206.85 C19.2663995,218.646208 16.0944009,230.827563 8.38,240.03" id="Path" stroke="#0B2D4E" stroke-width="2" fill="none"></path>
                        <path d="M311.9,389.72 C315.62,402.36 318.96,415.1 321.53,428.04 C325.28,446.9 333.43,482.38 305.02,485.94 C294.72,487.23 287.82,481.46 281.78,473.73 C265.27,452.59 255.96,426.17 246.59,401.07 C234.04,367.48 221.12,333.18 214.07,298.01 C211.36,284.52 214.24,269.94 219.9,257.57 C222.25,252.44 225.35,244.3 231.15,243.7 C238.05,242.99 246.76,247.7 251.8,251.96 C255.214034,254.980237 258.258549,258.393988 260.87,262.13 C279.57,287.46 288.87,317.44 298.41,347.02 C303,361.21 307.68,375.4 311.9,389.72 Z" id="Path" stroke="none" fill="#F8A17A" fill-rule="nonzero"></path>
                        <path d="M163.57,257.13 C172.39,254.3 179.66,248.81 182.39,240.13 C184.86,232.21 180.96,223.3 180.27,215.32 C179.603336,207.670776 179.519761,199.981908 180.02,192.32 C180.49,185.24 181.16,177.85 180.02,170.79 C179.4,166.79 177.19,167.44 173.1,165.79 C169.01,164.14 164.44,164.17 160,164.18 C150.91,164.18 127.22,163.54 121.61,171.52 C119.03,175.18 118.83,179.78 118.7,184.14 C118.55,189.4 117.62,196.22 116.76,203.56 C116.38,206.83 116.61,210.09 116.11,213.33 C115.382608,216.951295 114.32829,220.49916 112.96,223.93 C108.39,237.1 112.67,249.62 126.96,255.65 C137.18,260 151.76,260.92 163.57,257.13 Z" id="Path" stroke="none" fill="#F8A17A" fill-rule="nonzero"></path>
                        <path d="M180,170.72 C179.38,166.72 177.16,167.37 173.08,165.72 C169,164.07 164.41,164.1 159.97,164.11 C150.88,164.11 127.2,163.47 121.58,171.45 C119,175.11 118.8,179.71 118.68,184.07 C118.53,189.33 117.6,196.15 116.68,203.49 C116.3,206.76 116.54,210.02 116.04,213.26 C115.535738,216.02771 114.775815,218.742675 113.77,221.37 C122.709139,224.704784 132.437848,225.306955 141.72,223.1 C158.27,219.03 170.81,208.73 179.72,195.33 C179.77,194.33 179.8,193.24 179.86,192.2 C180.44,185.17 181.12,177.78 180,170.72 Z" id="Path" stroke="none" fill="#E5785C" fill-rule="nonzero"></path>
                        <path d="M203.9,131.52 C206.44,119.65 207.28,108.05 206.29,98.04 C202.01,54.87 153.96,33.85 117.34,56.09 C76.5,80.89 72.42,160.82 102,195.73 C110.107733,205.147846 122.061592,210.362938 134.48,209.9 C171.44,208.23 196,168.58 203.9,131.52 Z" id="Path" stroke="none" fill="#F8A17A" fill-rule="nonzero"></path>
                        <path d="M197.07,131.06 C214.39,126.06 214.43,148.46 209.43,158.52 C207.442246,162.731998 204.626212,166.500315 201.15,169.6 C196.4,173.67 184.1,179.44 179.22,172.77 C177,169.77 177.62,165.57 178.34,161.89 C180.28,152 185.33,134.47 197.07,131.06 Z" id="Path" stroke="none" fill="#F8A17A" fill-rule="nonzero"></path>
                        <path d="M210.76,100.77 C206.25,55.31 155.67,33.18 117.11,56.59 C108.59,61.77 101.61,69.24 96.11,78.15 C96.5974066,79.4683704 97.1754538,80.7514347 97.84,81.99 C101.09,87.99 106.39,92.66 111.84,96.8 C127.76,108.9 145.84,117.93 164.22,125.8 C165.57,126.37 166.94,126.95 168.3,127.54 C173.35,129.75 178.3,132.21 182.3,135.95 C193.65,146.51 184.3,162.19 192.24,171.71 C192.887383,172.502582 193.665201,173.178946 194.54,173.71 C200.814222,161.827669 205.424098,149.138735 208.24,136 C210.91,123.52 211.8,111.3 210.76,100.77 Z" id="Path" stroke="none" fill="#E5785C" fill-rule="nonzero"></path>
                        <path d="M170.75,123 C175.12,125.82 179.98,129.75 182.29,134.47 C189.07,148.28 189.59,164.2 190.2,179.57 C190.37,183.99 190.59,188.57 192.47,192.57 C194.494095,196.548429 197.691708,199.808878 201.63,201.91 C205.545282,203.989522 209.718013,205.542948 214.04,206.53 C217.5,207.43 221.36,208.16 224.49,206.45 C227.357517,204.677366 228.993939,201.450836 228.73,198.09 C228.36,192 223.07,186.14 220.17,181.09 C216.986932,175.415521 215.46882,168.958344 215.79,162.46 C216.31,149.18 222.39,136.86 224.87,123.93 C226.41,115.87 227.96,107.69 227.3,99.52 C226.58,90.59 223.24,82.04 218.71,74.32 C205.64,52.02 181.87,36.7 156.46,32.75 C136.58,29.66 98.57,38.56 108.46,66.9 C110.71,73.36 115.21,78.79 119.93,83.75 C133.72,98.24 150.1,110.02 167.02,120.69 C168.24,121.37 169.5,122.16 170.75,123 Z" id="Path" stroke="none" fill="#0B2D4E" fill-rule="nonzero"></path>
                        <path d="M274.59,270.83 C282.15,279.68 288.35,289.58 294.05,299.7 C298.969321,308.260459 303.267058,317.163391 306.91,326.34 C307.023916,326.568854 307.062424,326.827907 307.02,327.08 C306.93,327.38 306.62,327.54 306.34,327.68 C300.05,330.68 232.9,371.37 231.73,368.84 C226.29,357.1 220.41,347.19 217.02,334.5 C211.65,314.37 207.42,292.7 210.02,271.62 C211.02,263.51 213.16,254.62 218.52,248.15 C223.61,242.02 230.78,242.07 237.83,244.43 C252.39,249.29 264.85,259.21 274.59,270.83 Z" id="Path" stroke="none" fill="#3DC8E8" fill-rule="nonzero"></path>
                    </g>
                </g>
            </g>
            <path d="M1068.37,1305.5 L841.48,1305.5 C833.981295,1305.4835 827.906499,1299.40871 827.89,1291.91 L827.89,1291.91 C827.906476,1284.40966 833.979678,1278.33199 841.48,1278.31 L1068.37,1278.31 C1075.87195,1278.33197 1081.94803,1284.40805 1081.97,1291.91 L1081.97,1291.91 C1081.94801,1299.41032 1075.87034,1305.48352 1068.37,1305.5 L1068.37,1305.5 Z" id="Path" fill="#9B87FF" fill-rule="nonzero"></path>
            <path d="M1171.19,1305.5 L1115.11,1305.5 C1107.60966,1305.48352 1101.53199,1299.41032 1101.51,1291.91 L1101.51,1291.91 C1101.53197,1284.40805 1107.60805,1278.33197 1115.11,1278.31 L1171.19,1278.31 C1178.69195,1278.33197 1184.76803,1284.40805 1184.79,1291.91 L1184.79,1291.91 C1184.76801,1299.41032 1178.69034,1305.48352 1171.19,1305.5 L1171.19,1305.5 Z" id="Path" fill="#9B87FF" fill-rule="nonzero"></path>
            <path d="M944.31,1228.26 L1171.19,1228.26 C1178.69195,1228.28197 1184.76803,1234.35805 1184.79,1241.86 L1184.79,1241.86 C1184.76801,1249.36032 1178.69034,1255.43352 1171.19,1255.45 L944.31,1255.45 C936.809663,1255.43352 930.731993,1249.36032 930.71,1241.86 L930.71,1241.86 C930.731968,1234.35805 936.808046,1228.28197 944.31,1228.26 L944.31,1228.26 Z" id="Path" fill="#9B87FF" fill-rule="nonzero"></path>
            <path d="M841.48,1228.26 L897.57,1228.26 C905.070322,1228.28199 911.143524,1234.35966 911.16,1241.86 L911.16,1241.86 C911.143501,1249.35871 905.068705,1255.4335 897.57,1255.45 L841.48,1255.45 C833.981295,1255.4335 827.906499,1249.35871 827.89,1241.86 L827.89,1241.86 C827.906476,1234.35966 833.979678,1228.28199 841.48,1228.26 L841.48,1228.26 Z" id="Path" fill="#9B87FF" fill-rule="nonzero"></path>
            <path d="M992.74,1356.64 L841.48,1356.64 C833.979678,1356.61801 827.906476,1350.54034 827.89,1343.04 L827.89,1343.04 C827.906499,1335.54129 833.981295,1329.4665 841.48,1329.45 L992.74,1329.45 C1000.24034,1329.46648 1006.31801,1335.53968 1006.34,1343.04 L1006.34,1343.04 C1006.31803,1350.54195 1000.24195,1356.61803 992.74,1356.64 L992.74,1356.64 Z" id="Path" fill="#9B87FF" fill-rule="nonzero"></path>
            <circle id="Oval" stroke="#DBCDFE" stroke-width="10" transform="translate(539.981226, 722.721553) rotate(-16.650000) translate(-539.981226, -722.721553) " cx="539.981226" cy="722.721553" r="43.29"></circle>
            <circle id="Oval" stroke="#DBCDFE" stroke-width="10" transform="translate(1470.582428, 1107.717838) rotate(-20.150000) translate(-1470.582428, -1107.717838) " cx="1470.58243" cy="1107.71784" r="44.04"></circle>
            <path d="M1794,462.07 C1794,475.324834 1783.25483,486.07 1770,486.07 C1756.74517,486.07 1746,475.324834 1746,462.07 C1746,448.815166 1756.74517,438.07 1770,438.07 C1783.25483,438.07 1794,448.815166 1794,462.07 L1794,462.07 Z" id="Path" stroke="#DBCDFE" stroke-width="10"></path>
            <circle id="Oval" stroke="#DBCDFE" stroke-width="10" transform="translate(323.183300, 1682.110853) rotate(-73.150000) translate(-323.183300, -1682.110853) " cx="323.1833" cy="1682.11085" r="23.99"></circle>
            <path d="M323.2,455 C323.2,468.254834 312.454834,479 299.2,479 C285.945166,479 275.2,468.254834 275.2,455 C275.2,441.745166 285.945166,431 299.2,431 C305.565196,431 311.66969,433.528564 316.170563,438.029437 C320.671436,442.53031 323.2,448.634804 323.2,455 L323.2,455 Z" id="Path" stroke="#DBCDFE" stroke-width="10"></path>
            <circle id="Oval" stroke="#DBCDFE" stroke-width="10" transform="translate(583.305766, 512.748839) rotate(-80.830000) translate(-583.305766, -512.748839) " cx="583.305766" cy="512.748839" r="16.39"></circle>
            <circle id="Oval" stroke="#DBCDFE" stroke-width="10" transform="translate(163.510075, 817.068159) rotate(-81.130000) translate(-163.510075, -817.068159) " cx="163.510075" cy="817.068159" r="16.39"></circle>
            <circle id="Oval" stroke="#DBCDFE" stroke-width="10" cx="1642.5" cy="943.75" r="16.39"></circle>
            <circle id="Oval" stroke="#DBCDFE" stroke-width="10" transform="translate(1841.044686, 1241.811440) rotate(-28.410000) translate(-1841.044686, -1241.811440) " cx="1841.04469" cy="1241.81144" r="16.39"></circle>
            <circle id="Oval" stroke="#DBCDFE" stroke-width="10" transform="translate(954.935971, 196.221014) rotate(-45.000000) translate(-954.935971, -196.221014) " cx="954.935971" cy="196.221014" r="16.39"></circle>
            <circle id="Oval" stroke="#DBCDFE" stroke-width="10" cx="1419.39" cy="1540.91" r="16.39"></circle>
            <path d="M1571.14,1656.13 L1571.14,1713.25" id="Path" stroke="#DBCDFE" stroke-width="10"></path>
            <path d="M1542.58,1684.69 L1599.7,1684.69" id="Path" stroke="#DBCDFE" stroke-width="10"></path>
            <path d="M1542.58,529.14 L1542.58,586.26" id="Path" stroke="#DBCDFE" stroke-width="10"></path>
            <path d="M1514.02,557.7 L1571.14,557.7" id="Path" stroke="#DBCDFE" stroke-width="10"></path>
            <path d="M476.16,1213.3 L476.16,1270.42" id="Path" stroke="#DBCDFE" stroke-width="10"></path>
            <path d="M447.59,1241.86 L504.72,1241.86" id="Path" stroke="#DBCDFE" stroke-width="10"></path>
            <path d="M461.42,241.82 L461.42,298.95" id="Path" stroke="#DBCDFE" stroke-width="10"></path>
            <path d="M432.86,270.38 L489.99,270.38" id="Path" stroke="#DBCDFE" stroke-width="10"></path>
            <path d="M254.4,1303.34 L214.01,1343.74" id="Path" stroke="#DBCDFE" stroke-width="10"></path>
            <path d="M214.01,1303.34 L254.4,1343.74" id="Path" stroke="#DBCDFE" stroke-width="10"></path>
            <path d="M1160.06,298.95 L1133.64,325.37" id="Path" stroke="#DBCDFE" stroke-width="10"></path>
            <path d="M1133.64,298.95 L1160.06,325.37" id="Path" stroke="#DBCDFE" stroke-width="10"></path>
            <path d="M646.57,1700.04 L620.14,1726.46" id="Path" stroke="#DBCDFE" stroke-width="10"></path>
            <path d="M620.14,1700.04 L646.57,1726.46" id="Path" stroke="#DBCDFE" stroke-width="10"></path>
            <path d="M1852.91,762.84 L1826.49,789.26" id="Path" stroke="#DBCDFE" stroke-width="10"></path>
            <path d="M1826.49,762.84 L1852.91,789.26" id="Path" stroke="#DBCDFE" stroke-width="10"></path>
            <path d="M87.43,1063.72 L61,1090.14" id="Path" stroke="#DBCDFE" stroke-width="10"></path>
            <path d="M61,1063.72 L87.43,1090.14" id="Path" stroke="#DBCDFE" stroke-width="10"></path>
            <polyline id="Path" stroke="#DBCDFE" stroke-width="10" points="1635.53 1083.78 1669.77 1122.86 1704.01 1083.78 1738.26 1122.86 1772.5 1083.78 1806.77 1122.86 1841.04 1083.78"></polyline>
            <polyline id="Path" stroke="#DBCDFE" stroke-width="10" points="255.92 613.47 290.15 652.55 324.4 613.47 358.65 652.55 392.89 613.47 427.16 652.55 461.42 613.47"></polyline>
            <path d="M1601.51,237.5 L1601.51,274.81" id="Path" stroke="#DBCDFE" stroke-width="10"></path>
            <path d="M1562.01,254.08 L1588.39,280.47" id="Path" stroke="#DBCDFE" stroke-width="10"></path>
            <path d="M1545.81,293.74 L1583.12,293.74" id="Path" stroke="#DBCDFE" stroke-width="10"></path>
            <path d="M1562.39,333.23 L1588.77,306.85" id="Path" stroke="#DBCDFE" stroke-width="10"></path>
            <path d="M1602.04,349.44 L1602.04,312.13" id="Path" stroke="#DBCDFE" stroke-width="10"></path>
            <path d="M1641.54,332.86 L1615.15,306.47" id="Path" stroke="#DBCDFE" stroke-width="10"></path>
            <path d="M1657.74,293.2 L1620.43,293.2" id="Path" stroke="#DBCDFE" stroke-width="10"></path>
            <path d="M1641.16,253.71 L1614.78,280.09" id="Path" stroke="#DBCDFE" stroke-width="10"></path>
            <path d="M515.11,923.42 L515.11,960.73" id="Path" stroke="#DBCDFE" stroke-width="10"></path>
            <path d="M475.61,940 L502,966.38" id="Path" stroke="#DBCDFE" stroke-width="10"></path>
            <path d="M459.41,979.65 L496.72,979.65" id="Path" stroke="#DBCDFE" stroke-width="10"></path>
            <path d="M475.99,1019.15 L502.38,992.77" id="Path" stroke="#DBCDFE" stroke-width="10"></path>
            <path d="M515.65,1035.35 L515.65,998.04" id="Path" stroke="#DBCDFE" stroke-width="10"></path>
            <path d="M555.14,1018.77 L528.76,992.39" id="Path" stroke="#DBCDFE" stroke-width="10"></path>
            <path d="M571.35,979.12 L534.04,979.12" id="Path" stroke="#DBCDFE" stroke-width="10"></path>
            <path d="M554.77,939.62 L528.38,966" id="Path" stroke="#DBCDFE" stroke-width="10"></path>
            <path d="M1738.02,1466.83 L1738.02,1504.14" id="Path" stroke="#DBCDFE" stroke-width="10"></path>
            <path d="M1698.52,1483.41 L1724.9,1509.79" id="Path" stroke="#DBCDFE" stroke-width="10"></path>
            <path d="M1682.32,1523.06 L1719.63,1523.06" id="Path" stroke="#DBCDFE" stroke-width="10"></path>
            <path d="M1698.9,1562.56 L1725.28,1536.18" id="Path" stroke="#DBCDFE" stroke-width="10"></path>
            <path d="M1738.55,1578.77 L1738.55,1541.45" id="Path" stroke="#DBCDFE" stroke-width="10"></path>
            <path d="M1778.05,1562.19 L1751.67,1535.8" id="Path" stroke="#DBCDFE" stroke-width="10"></path>
            <path d="M1794.25,1522.53 L1756.94,1522.53" id="Path" stroke="#DBCDFE" stroke-width="10"></path>
            <path d="M1777.67,1483.03 L1751.29,1509.42" id="Path" stroke="#DBCDFE" stroke-width="10"></path>
            <path d="M1636.76,1275.25 L1567.33,1275.25 C1537.72535,1275.33786 1513.74786,1299.31535 1513.66,1328.92 L1513.66,1328.92 C1513.69273,1346.5634 1522.38695,1363.06596 1536.92,1373.07 L1536.92,1410.84 L1575.55,1382.58 L1636.76,1382.58 C1666.35913,1382.49214 1690.33214,1358.51913 1690.42,1328.92 L1690.42,1328.92 C1690.33762,1299.31697 1666.36302,1275.33789 1636.76,1275.25 Z" id="Path" fill="#DBCDFE" fill-rule="nonzero"></path>
            <circle id="Oval" fill="#FFFFFF" fill-rule="nonzero" cx="1563.15" cy="1328.92" r="8.14"></circle>
            <circle id="Oval" fill="#FFFFFF" fill-rule="nonzero" cx="1602.04" cy="1328.92" r="8.14"></circle>
            <circle id="Oval" fill="#FFFFFF" fill-rule="nonzero" cx="1640.93" cy="1328.92" r="8.14"></circle>
            <path d="M339.06,938.7 C328.36,920.38 301.34,911.19 275.22,941.7 C249.1,911.18 222.08,920.37 211.37,938.7 C185,983.84 275.22,1037 275.22,1037 C275.22,1037 365.44,983.84 339.06,938.7 Z" id="Path" fill="#DBCDFE" fill-rule="nonzero"></path>
            <path d="M1425.51,176.75 C1414.8,158.43 1387.78,149.23 1361.66,179.75 C1335.55,149.22 1308.52,158.42 1297.82,176.75 C1271.44,221.88 1361.66,275 1361.66,275 C1361.66,275 1451.89,221.88 1425.51,176.75 Z" id="Path" fill="#DBCDFE" fill-rule="nonzero"></path>
            <rect id="Rectangle" fill="#DBCDFE" fill-rule="nonzero" x="588.81" y="164.05" width="160.02" height="106.77" rx="12"></rect>
            <path d="M591.4,167.48 L661.46,235.41 C665.598556,239.30245 672.051444,239.30245 676.19,235.41 L746.25,167.48" id="Path" stroke="#FFFFFF" stroke-width="4"></path>
            <path d="M591.4,267.38 L648.88,223.22" id="Path" stroke="#FFFFFF" stroke-width="4"></path>
            <path d="M746.25,267.38 L688.76,223.22" id="Path" stroke="#FFFFFF" stroke-width="4"></path>
            <rect id="Rectangle" fill="#DBCDFE" fill-rule="nonzero" x="366.72" y="1394.4" width="184.85" height="128.39" rx="12"></rect>
            <polygon id="Path" fill="#DBCDFE" fill-rule="nonzero" points="459.14 1563.37 491.56 1519.65 426.73 1519.65"></polygon>
            <path d="M467.78,1439.11 C462.53,1430.11 449.28,1425.62 436.47,1440.58 C423.67,1425.58 410.42,1430.13 405.17,1439.11 C392.24,1461.24 436.47,1487.28 436.47,1487.28 C436.47,1487.28 480.71,1461.24 467.78,1439.11 Z" id="Path" fill="#FFFFFF" fill-rule="nonzero"></path>
            <path d="M507.78,1475.11 L499.78,1475.11 L499.78,1453.22 L499.86,1449.62 L499.99,1445.69 C498.66,1447.01 497.74,1447.89 497.22,1448.3 L492.87,1451.79 L489,1447 L501.19,1437.3 L507.77,1437.3 L507.78,1475.11 Z" id="Path" fill="#FFFFFF" fill-rule="nonzero"></path>
            <rect id="Rectangle" fill="#DBCDFE" fill-rule="nonzero" x="1470.73" y="698.97" width="184.85" height="128.39" rx="12"></rect>
            <polygon id="Path" fill="#DBCDFE" fill-rule="nonzero" points="1563.15 867.93 1595.56 824.22 1530.74 824.22"></polygon>
            <path d="M1611.79,779.67 L1603.79,779.67 L1603.79,757.78 L1603.87,754.18 L1604,750.25 C1602.67,751.58 1601.74,752.45 1601.23,752.86 L1596.88,756.36 L1593.02,751.54 L1605.21,741.84 L1611.79,741.84 L1611.79,779.67 Z" id="Path" fill="#FFFFFF" fill-rule="nonzero"></path>
            <path d="M1552.51,740.56 L1526.27,740.56 C1515.08725,740.598437 1506.03292,749.65723 1506,760.84 L1506,760.84 C1506.01037,767.509504 1509.29618,773.748428 1514.79,777.53 L1514.79,791.8 L1529.39,781.12 L1552.52,781.12 C1563.70503,781.087023 1572.76254,772.02504 1572.79,760.84 L1572.79,760.84 C1572.75705,749.653342 1563.69666,740.592951 1552.51,740.56 L1552.51,740.56 Z" id="Path" fill="#FFFFFF" fill-rule="nonzero"></path>
        </g>
        <g id="Group-2" transform="translate(984.500000, 857.000000) scale(-1, 1) translate(-984.500000, -857.000000) translate(937.000000, 815.000000)" fill="#0B2D4E" fill-opacity="0.8">
            <path d="M67.9449377,66.996542 L68.4438204,66.9045365 C72.6210325,65.524454 78.1459727,63.193648 77.9970524,58.9307264 C77.7960101,53.0193729 65.7036884,49.3544871 60.5287108,48.0587429 C59.4267012,47.7903935 58.3321376,48.4651006 58.0566352,49.5998351 C57.7960248,50.7192353 58.4587198,51.861637 59.5532834,52.1376535 C66.8727121,53.9777635 73.8645164,57.3512986 73.9240845,59.0840689 C73.9240845,59.1070703 73.6783661,60.7555022 67.2077826,62.8946301 C66.135557,63.254985 65.5473222,64.4357222 65.8823927,65.5474554 C66.1727871,66.4751775 67.0365243,67.0502119 67.9449377,66.996542" id="Fill-182"></path>
            <path d="M18.0470362,35.2092717 C18.4832774,39.3381865 21.9579005,42.354609 25.7998846,41.9663566 C29.6342154,41.5706378 32.3970764,37.9121056 31.9531819,33.7906571 C31.5016339,29.6692086 28.0346642,26.6453198 24.1926801,27.0335722 C20.350696,27.429291 17.6031416,31.0878232 18.0470362,35.2092717" id="Fill-183"></path>
            <path d="M72.0470568,34.2160994 C72.4834892,38.3372283 75.9596344,41.3608826 79.795645,40.9651945 C83.6393122,40.5769722 86.4033837,36.911258 85.951638,32.7975949 C85.5075489,28.6690002 82.0314036,25.6453459 78.1953931,26.0335681 C74.3517258,26.4292562 71.6029678,30.0875047 72.0470568,34.2160994" id="Fill-184"></path>
            <path d="M2.45184831,17 C3.33054621,16.9562973 4.14222478,16.4172978 4.48476803,15.5650958 C9.87610092,2.13380979 22.4087159,6.04519839 22.9448706,6.21272528 C24.1586651,6.60604927 25.4692654,5.96507684 25.878828,4.77782108 C26.2883905,3.59056532 25.6256438,2.30133668 24.4044027,1.90801268 C18.4694685,-0.0367559544 5.74324214,-0.000337066092 0.158297855,13.9043945 C-0.303390872,15.0697989 0.277443334,16.3881627 1.47634471,16.8397569 L2.45184831,17" id="Fill-185"></path>
            <path d="M57.2535262,78.4903554 C56.5952173,77.8929118 55.6077539,77.6889067 54.7198024,78.0313439 C40.6503633,83.408336 34.8021307,71.8091877 34.5418691,71.3064608 C33.9907267,70.1771467 32.5822519,69.6889916 31.3804554,70.2062903 C30.1863137,70.7381608 29.6657904,72.0933377 30.2245874,73.2299376 C32.9343706,78.7890772 41.9287073,87.8235897 56.5033602,82.2498783 C57.7281209,81.7835809 58.3175371,80.4575476 57.8276328,79.2918041 L57.2535262,78.4903554" id="Fill-186"></path>
            <path d="M71.7696111,5.17813777 C72.3716866,5.59279966 73.2100195,5.6895541 73.9264132,5.34400252 C85.1372113,0.0017751908 91.0512693,8.73731898 91.295148,9.11742571 C91.8591174,9.97439361 93.0708896,10.2508349 94.0311619,9.75324061 C94.9761918,9.24182428 95.2810402,8.12914821 94.7170707,7.2721803 C91.9734355,3.07027317 83.6891816,-3.39154126 72.0668382,2.13728392 C71.0913235,2.60723406 70.7178843,3.69917703 71.2285053,4.58378906 L71.7696111,5.17813777" id="Fill-187"></path>
        </g>
    </g>
</svg>