<svg xmlns="http://www.w3.org/2000/svg" xmlns:xlink="http://www.w3.org/1999/xlink" viewBox="0 0 2005 2005"><defs><style>.cls-1{fill:#b6e4f8;}.cls-2{fill:#3dc8e8;}.cls-17,.cls-19,.cls-21,.cls-3{fill:none;}.cls-4{fill:#f5f5fe;}.cls-5{fill:#381f7a;}.cls-6{fill:#fff;}.cls-7{fill:#6dc9f0;}.cls-8{fill:#9b87ff;}.cls-9{fill:#ffc73c;}.cls-10{clip-path:url(#clip-path);}.cls-11{fill:#0b2d4e;}.cls-12{fill:#73b8d4;}.cls-13{fill:#061f33;}.cls-14{fill:#f8a17a;}.cls-15{fill:#26a8d1;}.cls-16{clip-path:url(#clip-path-2);}.cls-17{stroke:#0b2d4e;stroke-width:2px;}.cls-17,.cls-19,.cls-21{stroke-miterlimit:10;}.cls-18{fill:#e5785c;}.cls-19{stroke:#dbcdfe;stroke-width:10px;}.cls-20{fill:#dbcdfe;}.cls-21{stroke:#fff;stroke-width:4px;}</style><clipPath id="clip-path"><circle class="cls-1" cx="1006.32" cy="943.7" r="245.07" transform="translate(-372.55 987.98) rotate(-45)"/></clipPath><clipPath id="clip-path-2"><path class="cls-2" d="M1106.92,1038.43c5.54-23.46,8.41-47.46-4.14-63.45-5.68-7.21-15.78-12.24-24-15.81-16.12-7-32.61-16.34-49.87-19.38-18.2-3.2-38.44-5.18-56.58-.6-11.52,2.91-22.3,8.3-32.61,14.11-8.94,5-19.9,9.38-24.24,18.76a637.21,637.21,0,0,0-27.59,70.25c-6.48,19.93-13.59,40.81-3.39,61,3.31,6.55,8.12,12.15,11.9,18.4,4.21,7,5.78,13.5,6.34,21.54,1.26,18.32.77,36.71.71,55.06,0,5.29.06,10.79,2.37,15.54,4.57,9.38,17,9.51,25.92,9.49l88.38-.15c12.25,0,21.62,1.48,33.13,3.85,9.68,2,18-2.9,22.64-11.91,4.4-8.53,4.73-18.49,5.21-28.08a605.88,605.88,0,0,1,15.78-110.74C1099.28,1066,1103.58,1052.57,1106.92,1038.43Z"/></clipPath></defs><title>Artboard 6</title><g id="Layer_1" data-name="Layer 1"><rect class="cls-3" width="2005" height="2005" transform="translate(2005 0) rotate(90)"/><circle class="cls-4" cx="1002.5" cy="1002.5" r="771.08"/><path class="cls-5" d="M1268.87,357H741.76a55.51,55.51,0,0,0-55.51,55.51V1579.85a55.51,55.51,0,0,0,55.51,55.51h527.11a55.51,55.51,0,0,0,55.51-55.51V412.51A55.51,55.51,0,0,0,1268.87,357Z"/><rect class="cls-6" x="715.63" y="480.33" width="577.36" height="1060.59"/><path class="cls-7" d="M1089.68,429.71H921a6.74,6.74,0,0,1-6.73-6.72h0a6.75,6.75,0,0,1,6.73-6.73h168.73a6.75,6.75,0,0,1,6.73,6.73h0A6.74,6.74,0,0,1,1089.68,429.71Z"/><rect class="cls-1" x="761.26" y="595.42" width="490.14" height="61.4"/><rect class="cls-8" x="714.86" y="479.13" width="578.12" height="67.25"/><circle class="cls-6" cx="1152.24" cy="511.24" r="14.95" transform="translate(432.33 1546.02) rotate(-79.1)"/><circle class="cls-6" cx="1206.06" cy="511.24" r="14.95" transform="matrix(0.53, -0.85, 0.85, 0.53, 137.11, 1268.4)"/><circle class="cls-6" cx="1259.88" cy="511.24" r="14.95" transform="translate(-99.74 521.05) rotate(-22.5)"/><rect class="cls-9" x="827.86" y="1405.62" width="356.93" height="85.78" rx="23.01"/><circle class="cls-1" cx="1006.32" cy="943.7" r="245.07" transform="translate(-372.55 987.98) rotate(-45)"/><g class="cls-10"><path class="cls-11" d="M1101,1096.38c-24.84,3.07-52.45-3.89-70.45-22-17.7-17.76-34.37-31.45-59.84-36.58-22.75-4.58-44.19,3.54-66.71,1.31-17.86-1.77-33.87-13.26-43.81-28.21-9.69-14.59-13.88-34.51-4.94-49.58,4.68-7.89,12.35-13.56,17.67-21,12.26-17.25-6.45-33.41,3.24-52.27,8.25-16,29.62-24.07,33.22-41.74,2.64-12.94-5.14-25.13-6-37.83s2.86-26.12,11.54-35.73a44.66,44.66,0,0,1,24.58-13.81c8.4-1.58,17,.25,24.42-5.16,13.23-9.63,20-21.74,36.43-27.29,13.93-4.69,30.28-1.58,44.11,2.82,30.72,9.79,57.5,33,69.35,63.29,4.2,10.73,6.61,21.28,4.32,32.42-2.5,12.17-5.2,24.38,0,36.34,4.33,10,13.23,17.31,22.31,23.41s18.79,11.56,26.16,19.64,12.08,19.66,8.72,30.07c-2.81,8.71-10.68,15.08-13.46,23.8-5.06,15.85,7.94,31,14.67,46.27,9.41,21.31,5.92,47.75-8.7,65.89-16.83,20.89-39.18,21.51-63.33,25.45C1103.25,1096.07,1102.1,1096.24,1101,1096.38Z"/><path class="cls-12" d="M1000.09,756.88c8.61-2.78,17.91-2.86,26.79-1.28a96.44,96.44,0,0,1,25.61,8.72,82.83,82.83,0,0,1,37.47,38.3,74,74,0,0,1,6.82,26.38c.59,9.16-.88,18.29-2.93,27.08s-4.6,17.46-6.23,26.22a48.55,48.55,0,0,0-.75,13.09,20.28,20.28,0,0,0,4.61,11.64c2.72,3.2,6.69,5.18,10.82,6.62s8.59,2.45,12.9,4c8.52,3.12,17,7.18,23.53,13.9a22.84,22.84,0,0,1,6.49,12.37c.73,4.79-.67,9.54-2.78,13.7-2.31,4.16-5.66,7.33-8.28,10.84a39.33,39.33,0,0,0-6,11.64c-2.71,8.42-2.4,17.53-1.14,26.36s3,17.78,3.21,26.87a54.63,54.63,0,0,1-1.32,13.55,42.7,42.7,0,0,1-5.19,12.54,45.74,45.74,0,0,1-20,17.68,45.39,45.39,0,0,0,19.49-18c4.62-7.72,6.24-16.84,5.79-25.73s-2.24-17.75-3.56-26.69-1.87-18.29.86-27.17a41.36,41.36,0,0,1,6.15-12.34c2.74-3.71,6-6.85,8-10.62s3.15-8.12,2.48-12.3a20.52,20.52,0,0,0-5.92-11.08c-6.1-6.24-14.36-10.22-22.66-13.2-4.16-1.5-8.54-2.47-12.9-4s-8.76-3.6-11.94-7.31a22.91,22.91,0,0,1-5.18-13.07,51.21,51.21,0,0,1,.85-13.79c1.7-9,4.31-17.59,6.36-26.31s3.53-17.56,3-26.42a74.85,74.85,0,0,0-6.39-25.69,81.37,81.37,0,0,0-36.25-38,95.5,95.5,0,0,0-25.16-9.22C1018,754.44,1008.76,754.31,1000.09,756.88Z"/><path class="cls-13" d="M1068,976.38c-3.57,20.07-11.47,34-31.83,39.82-16.21,4.64-34.12,3.38-50.19.25-27-5.25-55.31-18.74-71.21-42-2.89-4.22-5.46-9.18-4.62-14.22.76-4.59,4.19-8.31,5.41-12.79,2.06-7.57-2.49-15.21-3.56-23-1.42-10.26,3.29-20.32,8.56-29.23S932,877.51,933.7,867.3c2.27-13.23-3.08-26.4-6.84-39.29s-5.65-28,2.37-38.75a27.44,27.44,0,0,1,23.95-10.34c9.36,1,15.26,13.25,19.85,20.29a147,147,0,0,0,21.61,26c11.31,10.8,24.36,19.8,34.63,31.59,6.22,7.13,12.53,16.43,14.15,26,1.83,10.74-7.28,18.74-.81,29.68,4.17,7,12.11,10.89,17.72,16.87C1072.33,942.15,1070.84,960.54,1068,976.38Z"/><path class="cls-14" d="M954.73,1066.92c10.87-33.7,13-72-12-100-2.53-2.84-5.46-5.89-9.26-6.11-8.16-.47-17.59,5-23.07,10.52-19,19.35-26.1,48-32.8,73.61-7,26.6-11.93,53.68-19,80.26-2.85,10.77-5.72,21.67-5.8,32.81-.07,9.76,2.46,20.22,8.29,28.18,25.23,34.38,53.42-23.68,62-41.25A587.36,587.36,0,0,0,954.73,1066.92Z"/><path class="cls-15" d="M887.08,997q-17,24.25-34.07,48.53a3,3,0,0,0,.21,4.71c17,19.13,37.11,35.18,57.13,51.12a326.11,326.11,0,0,0,3.7-48.55c0-15-1-29.92,0-44.84a116.67,116.67,0,0,1,4.37-26c1.36-4.56,18.92-22.18,11.37-22.53-6.46-.3-24,12.76-28.06,17C896,982.38,891.81,990.24,887.08,997Z"/><path class="cls-2" d="M1106.92,1038.43c5.54-23.46,8.41-47.46-4.14-63.45-5.68-7.21-15.78-12.24-24-15.81-16.12-7-32.61-16.34-49.87-19.38-18.2-3.2-38.44-5.18-56.58-.6-11.52,2.91-22.3,8.3-32.61,14.11-8.94,5-19.9,9.38-24.24,18.76a637.21,637.21,0,0,0-27.59,70.25c-6.48,19.93-13.59,40.81-3.39,61,3.31,6.55,8.12,12.15,11.9,18.4,4.21,7,5.78,13.5,6.34,21.54,1.26,18.32.77,36.71.71,55.06,0,5.29.06,10.79,2.37,15.54,4.57,9.38,17,9.51,25.92,9.49l88.38-.15c12.25,0,21.62,1.48,33.13,3.85,9.68,2,18-2.9,22.64-11.91,4.4-8.53,4.73-18.49,5.21-28.08a605.88,605.88,0,0,1,15.78-110.74C1099.28,1066,1103.58,1052.57,1106.92,1038.43Z"/><g class="cls-16"><path class="cls-15" d="M1055.07,975.18a60.49,60.49,0,0,0,3.75-22.54c-.3-8.93-3.34-18.47-10.94-23.59-9-6.1-19-3.57-28.85-2.26-12.09,1.61-24,1.26-36.06,4-8.52,1.92-15.13,6.23-23.12,9.1-6.54,2.36-14.13,3.15-17.64,10a20.39,20.39,0,0,0-1.67,5.4c-7,34.91,2.65,72.63,25.75,100.35,27.06-14.88,54.58-30.67,73.73-54.36A90.67,90.67,0,0,0,1055.07,975.18Z"/><path class="cls-14" d="M1048.75,968.5a60.21,60.21,0,0,0,3.29-21.1c-.26-8.36-2.94-17.28-9.61-22.08-8-5.7-16.66-3.34-25.36-2.11-10.62,1.5-21.09,1.18-31.68,3.72-7.49,1.8-13.3,5.84-20.32,8.53-5.75,2.2-12.42,2.94-15.51,9.32a20.34,20.34,0,0,0-1.46,5.05c-6.18,32.68,2.33,68,22.63,93.93,23.77-13.93,48-28.71,64.79-50.88A86.74,86.74,0,0,0,1048.75,968.5Z"/><path class="cls-15" d="M1117.35,1146l-.27-54c0-6.26,4-44.38-5.71-44a5.58,5.58,0,0,0-2.87,1.2c-4.84,3.47-7.33,9.28-9.6,14.79-7.1,17.28-13.06,44.94-27.84,57-15,12.3-38.13,17.48-56.8,20.43-21.8,3.45-44,3.71-66,5-14.25.87-30,2.92-39.34,13.7-6.68,7.7-10.09,19.24-13.66,28.64-3.12,8.22-5.6,18,.73,25.43,2.7,3.18,6.45,5.26,10.22,7,13.75,6.48,28.78,9.75,43.78,12.26,42,7,84.73,8.48,127.22,6.46,9.09-.43,18.94-1.34,25.64-7.49,5-4.58,7.34-11.31,9-17.87C1117.55,1192.41,1117.47,1169.05,1117.35,1146Z"/></g><path class="cls-17" d="M1095.45,1092.39c15.29,5.47,32.17,7.74,47.85,3.49,20-5.42,32.69-20.62,37.41-40.29,3.43-14.25,3.94-29.77-2.18-43.09-6.66-14.47-20.71-25.57-23.38-41.28-1.72-10.17,2-22.69,11.06-28.27,5.78-3.55,10.65-7.91,11.56-15,1.33-10.34-3.94-21.72-11-29-10.39-10.72-24.86-17-38.69-21.93-9.37-3.35-18.37-8.17-19.06-19.21-.38-6,1.24-11.78,2.21-17.6,2.06-12.41,3.87-24.88,4.72-37.44,1-14.48-5.14-30-13.16-41.93q-1.73-2.57-3.65-5c-21.5-27-68.27-45.14-101.46-31.86a45.82,45.82,0,0,0-25.24,24.49c-3.19,7.51-5.68,8.73-13.86,9.42-14.85,1.25-31.29.83-44.58,8.59-10.39,6.07-17,17.27-18.43,29.11-1.79,15.12,7,24.47,11.81,37.83,4.92,13.63-4.34,27.38-15.29,35.32-8.44,6.11-19.26,9.55-25.16,18.14-5.43,7.9-5.31,18.45-2.91,27.73,1,3.76,2.29,7.43,3,11.24a40,40,0,0,1-8.64,33.18"/><path class="cls-14" d="M1161.9,1108.72c3.72,12.64,7.06,25.38,9.63,38.32,3.75,18.86,11.9,54.34-16.51,57.9-10.3,1.29-17.2-4.48-23.24-12.21-16.51-21.14-25.82-47.56-35.19-72.66-12.55-33.59-25.47-67.89-32.52-103.06-2.71-13.49.17-28.07,5.83-40.44,2.35-5.13,5.45-13.27,11.25-13.87,6.9-.71,15.61,4,20.65,8.26a57.76,57.76,0,0,1,9.07,10.17c18.7,25.33,28,55.31,37.54,84.89C1153,1080.21,1157.68,1094.4,1161.9,1108.72Z"/><path class="cls-14" d="M1013.57,976.13c8.82-2.83,16.09-8.32,18.82-17,2.47-7.92-1.43-16.83-2.12-24.81a151.34,151.34,0,0,1-.25-23c.47-7.08,1.14-14.47,0-21.53-.62-4-2.83-3.35-6.92-5s-8.66-1.62-13.1-1.61c-9.09,0-32.78-.64-38.39,7.34-2.58,3.66-2.78,8.26-2.91,12.62-.15,5.26-1.08,12.08-1.94,19.42-.38,3.27-.15,6.53-.65,9.77a61.09,61.09,0,0,1-3.15,10.6c-4.57,13.17-.29,25.69,14,31.72C987.18,979,1001.76,979.92,1013.57,976.13Z"/><path class="cls-18" d="M1030,889.72c-.62-4-2.84-3.35-6.92-5s-8.67-1.62-13.11-1.61c-9.09,0-32.77-.64-38.39,7.34-2.58,3.66-2.78,8.26-2.9,12.62-.15,5.26-1.08,12.08-2,19.42-.38,3.27-.14,6.53-.64,9.77a45.49,45.49,0,0,1-2.27,8.11,48.12,48.12,0,0,0,27.95,1.73c16.55-4.07,29.09-14.37,38-27.77.05-1,.08-2.09.14-3.13C1030.44,904.17,1031.12,896.78,1030,889.72Z"/><path class="cls-14" d="M1053.9,850.52c2.54-11.87,3.38-23.47,2.39-33.48-4.28-43.17-52.33-64.19-88.95-41.95C926.5,799.89,922.42,879.82,952,914.73a40.85,40.85,0,0,0,32.48,14.17C1021.44,927.23,1046,887.58,1053.9,850.52Z"/><path class="cls-14" d="M1047.07,850.06c17.32-5,17.36,17.4,12.36,27.46a34.67,34.67,0,0,1-8.28,11.08c-4.75,4.07-17.05,9.84-21.93,3.17-2.22-3-1.6-7.2-.88-10.88C1030.28,871,1035.33,853.47,1047.07,850.06Z"/><path class="cls-18" d="M1060.76,819.77c-4.51-45.46-55.09-67.59-93.65-44.18-8.52,5.18-15.5,12.65-21,21.56a30.47,30.47,0,0,0,1.73,3.84c3.25,6,8.55,10.67,14,14.81,15.92,12.1,34,21.13,52.38,29,1.35.57,2.72,1.15,4.08,1.74,5.05,2.21,10,4.67,14,8.41,11.35,10.56,2,26.24,9.94,35.76a9,9,0,0,0,2.3,2A146.52,146.52,0,0,0,1058.24,855C1060.91,842.52,1061.8,830.3,1060.76,819.77Z"/><path class="cls-11" d="M1020.75,842c4.37,2.82,9.23,6.75,11.54,11.47,6.78,13.81,7.3,29.73,7.91,45.1.17,4.42.39,9,2.27,13a21.78,21.78,0,0,0,9.16,9.34,50.36,50.36,0,0,0,12.41,4.62c3.46.9,7.32,1.63,10.45-.08a9,9,0,0,0,4.24-8.36c-.37-6.09-5.66-11.95-8.56-17a34.59,34.59,0,0,1-4.38-18.63c.52-13.28,6.6-25.6,9.08-38.53,1.54-8.06,3.09-16.24,2.43-24.41-.72-8.93-4.06-17.48-8.59-25.2-13.07-22.3-36.84-37.62-62.25-41.57-19.88-3.09-57.89,5.81-48,34.15,2.25,6.46,6.75,11.89,11.47,16.85,13.79,14.49,30.17,26.27,47.09,36.94C1018.24,840.37,1019.5,841.16,1020.75,842Z"/><path class="cls-2" d="M1124.59,989.83c7.56,8.85,13.76,18.75,19.46,28.87a206.07,206.07,0,0,1,12.86,26.64,1.21,1.21,0,0,1,.11.74c-.09.3-.4.46-.68.6-6.29,3-73.44,43.69-74.61,41.16-5.44-11.74-11.32-21.65-14.71-34.34-5.37-20.13-9.6-41.8-7-62.88,1-8.11,3.14-17,8.5-23.47,5.09-6.13,12.26-6.08,19.31-3.72C1102.39,968.29,1114.85,978.21,1124.59,989.83Z"/></g><path class="cls-8" d="M1068.37,1305.5H841.48a13.62,13.62,0,0,1-13.59-13.59h0a13.63,13.63,0,0,1,13.59-13.6h226.89a13.64,13.64,0,0,1,13.6,13.6h0A13.63,13.63,0,0,1,1068.37,1305.5Z"/><path class="cls-8" d="M1171.19,1305.5h-56.08a13.63,13.63,0,0,1-13.6-13.59h0a13.64,13.64,0,0,1,13.6-13.6h56.08a13.64,13.64,0,0,1,13.6,13.6h0A13.63,13.63,0,0,1,1171.19,1305.5Z"/><path class="cls-8" d="M944.31,1228.26h226.88a13.64,13.64,0,0,1,13.6,13.6h0a13.63,13.63,0,0,1-13.6,13.59H944.31a13.63,13.63,0,0,1-13.6-13.59h0A13.64,13.64,0,0,1,944.31,1228.26Z"/><path class="cls-8" d="M841.48,1228.26h56.09a13.63,13.63,0,0,1,13.59,13.6h0a13.62,13.62,0,0,1-13.59,13.59H841.48a13.62,13.62,0,0,1-13.59-13.59h0A13.63,13.63,0,0,1,841.48,1228.26Z"/><path class="cls-8" d="M992.74,1356.64H841.48a13.63,13.63,0,0,1-13.59-13.6h0a13.62,13.62,0,0,1,13.59-13.59H992.74a13.63,13.63,0,0,1,13.6,13.59h0A13.64,13.64,0,0,1,992.74,1356.64Z"/><circle class="cls-19" cx="540.02" cy="722.67" r="43.29" transform="translate(-184.46 185.08) rotate(-16.65)"/><circle class="cls-19" cx="1470.57" cy="1107.76" r="44.04" transform="translate(-291.58 574.34) rotate(-20.15)"/><path class="cls-19" d="M1794,462.07a24,24,0,1,1-24-24A24,24,0,0,1,1794,462.07Z"/><circle class="cls-19" cx="323.2" cy="1681.96" r="23.99" transform="translate(-1380.25 1503.89) rotate(-73.15)"/><path class="cls-19" d="M323.2,455a24,24,0,1,1-24-24A24,24,0,0,1,323.2,455Z"/><circle class="cls-19" cx="583.31" cy="512.75" r="16.39" transform="translate(-15.85 1006.89) rotate(-80.83)"/><circle class="cls-19" cx="163.51" cy="817.11" r="16.39" transform="translate(-669.04 852.63) rotate(-81.13)"/><circle class="cls-19" cx="1642.5" cy="943.75" r="16.39"/><circle class="cls-19" cx="1841.04" cy="1241.86" r="16.39" transform="translate(-369.12 1025.44) rotate(-28.41)"/><circle class="cls-19" cx="954.93" cy="196.22" r="16.39" transform="translate(140.95 732.71) rotate(-45)"/><circle class="cls-19" cx="1419.39" cy="1540.91" r="16.39"/><line class="cls-19" x1="1571.14" y1="1656.13" x2="1571.14" y2="1713.25"/><line class="cls-19" x1="1542.58" y1="1684.69" x2="1599.7" y2="1684.69"/><line class="cls-19" x1="1542.58" y1="529.14" x2="1542.58" y2="586.26"/><line class="cls-19" x1="1514.02" y1="557.7" x2="1571.14" y2="557.7"/><line class="cls-19" x1="476.16" y1="1213.3" x2="476.16" y2="1270.42"/><line class="cls-19" x1="447.59" y1="1241.86" x2="504.72" y2="1241.86"/><line class="cls-19" x1="461.42" y1="241.82" x2="461.42" y2="298.95"/><line class="cls-19" x1="432.86" y1="270.38" x2="489.99" y2="270.38"/><line class="cls-19" x1="254.4" y1="1303.34" x2="214.01" y2="1343.74"/><line class="cls-19" x1="214.01" y1="1303.34" x2="254.4" y2="1343.74"/><line class="cls-19" x1="1160.06" y1="298.95" x2="1133.64" y2="325.37"/><line class="cls-19" x1="1133.64" y1="298.95" x2="1160.06" y2="325.37"/><line class="cls-19" x1="646.57" y1="1700.04" x2="620.14" y2="1726.46"/><line class="cls-19" x1="620.14" y1="1700.04" x2="646.57" y2="1726.46"/><line class="cls-19" x1="1852.91" y1="762.84" x2="1826.49" y2="789.26"/><line class="cls-19" x1="1826.49" y1="762.84" x2="1852.91" y2="789.26"/><line class="cls-19" x1="87.43" y1="1063.72" x2="61" y2="1090.14"/><line class="cls-19" x1="61" y1="1063.72" x2="87.43" y2="1090.14"/><polyline class="cls-19" points="1635.53 1083.78 1669.77 1122.86 1704.01 1083.78 1738.26 1122.86 1772.5 1083.78 1806.77 1122.86 1841.04 1083.78"/><polyline class="cls-19" points="255.92 613.47 290.15 652.55 324.4 613.47 358.65 652.55 392.89 613.47 427.16 652.55 461.42 613.47"/><line class="cls-19" x1="1601.51" y1="237.5" x2="1601.51" y2="274.81"/><line class="cls-19" x1="1562.01" y1="254.08" x2="1588.39" y2="280.47"/><line class="cls-19" x1="1545.81" y1="293.74" x2="1583.12" y2="293.74"/><line class="cls-19" x1="1562.39" y1="333.23" x2="1588.77" y2="306.85"/><line class="cls-19" x1="1602.04" y1="349.44" x2="1602.04" y2="312.13"/><line class="cls-19" x1="1641.54" y1="332.86" x2="1615.15" y2="306.47"/><line class="cls-19" x1="1657.74" y1="293.2" x2="1620.43" y2="293.2"/><line class="cls-19" x1="1641.16" y1="253.71" x2="1614.78" y2="280.09"/><line class="cls-19" x1="515.11" y1="923.42" x2="515.11" y2="960.73"/><line class="cls-19" x1="475.61" y1="940" x2="502" y2="966.38"/><line class="cls-19" x1="459.41" y1="979.65" x2="496.72" y2="979.65"/><line class="cls-19" x1="475.99" y1="1019.15" x2="502.38" y2="992.77"/><line class="cls-19" x1="515.65" y1="1035.35" x2="515.65" y2="998.04"/><line class="cls-19" x1="555.14" y1="1018.77" x2="528.76" y2="992.39"/><line class="cls-19" x1="571.35" y1="979.12" x2="534.04" y2="979.12"/><line class="cls-19" x1="554.77" y1="939.62" x2="528.38" y2="966"/><line class="cls-19" x1="1738.02" y1="1466.83" x2="1738.02" y2="1504.14"/><line class="cls-19" x1="1698.52" y1="1483.41" x2="1724.9" y2="1509.79"/><line class="cls-19" x1="1682.32" y1="1523.06" x2="1719.63" y2="1523.06"/><line class="cls-19" x1="1698.9" y1="1562.56" x2="1725.28" y2="1536.18"/><line class="cls-19" x1="1738.55" y1="1578.77" x2="1738.55" y2="1541.45"/><line class="cls-19" x1="1778.05" y1="1562.19" x2="1751.67" y2="1535.8"/><line class="cls-19" x1="1794.25" y1="1522.53" x2="1756.94" y2="1522.53"/><line class="cls-19" x1="1777.67" y1="1483.03" x2="1751.29" y2="1509.42"/><path class="cls-20" d="M1636.76,1275.25h-69.43a53.83,53.83,0,0,0-53.67,53.67h0a53.72,53.72,0,0,0,23.26,44.15v37.77l38.63-28.26h61.21a53.82,53.82,0,0,0,53.66-53.66h0A53.82,53.82,0,0,0,1636.76,1275.25Z"/><circle class="cls-6" cx="1563.15" cy="1328.92" r="8.14"/><circle class="cls-6" cx="1602.04" cy="1328.92" r="8.14"/><circle class="cls-6" cx="1640.93" cy="1328.92" r="8.14"/><path class="cls-20" d="M339.06,938.7c-10.7-18.32-37.72-27.51-63.84,3-26.12-30.52-53.14-21.33-63.85-3C185,983.84,275.22,1037,275.22,1037S365.44,983.84,339.06,938.7Z"/><path class="cls-20" d="M1425.51,176.75c-10.71-18.32-37.73-27.52-63.85,3-26.11-30.53-53.14-21.33-63.84-3-26.38,45.13,63.84,98.25,63.84,98.25S1451.89,221.88,1425.51,176.75Z"/><rect class="cls-20" x="588.81" y="164.05" width="160.02" height="106.77" rx="12"/><path class="cls-21" d="M591.4,167.48l70.06,67.93a10.75,10.75,0,0,0,14.73,0l70.06-67.93"/><line class="cls-21" x1="591.4" y1="267.38" x2="648.88" y2="223.22"/><line class="cls-21" x1="746.25" y1="267.38" x2="688.76" y2="223.22"/><rect class="cls-20" x="366.72" y="1394.4" width="184.85" height="128.39" rx="12"/><polygon class="cls-20" points="459.14 1563.37 491.56 1519.65 426.73 1519.65 459.14 1563.37"/><path class="cls-6" d="M467.78,1439.11c-5.25-9-18.5-13.49-31.31,1.47-12.8-15-26.05-10.45-31.3-1.47-12.93,22.13,31.3,48.17,31.3,48.17S480.71,1461.24,467.78,1439.11Z"/><path class="cls-6" d="M507.78,1475.11h-8v-21.89l.08-3.6.13-3.93c-1.33,1.32-2.25,2.2-2.77,2.61l-4.35,3.49L489,1447l12.19-9.7h6.58Z"/><rect class="cls-20" x="1470.73" y="698.97" width="184.85" height="128.39" rx="12"/><polygon class="cls-20" points="1563.15 867.93 1595.56 824.22 1530.74 824.22 1563.15 867.93"/><path class="cls-6" d="M1611.79,779.67h-8V757.78l.08-3.6.13-3.93c-1.33,1.33-2.26,2.2-2.77,2.61l-4.35,3.5-3.86-4.82,12.19-9.7h6.58Z"/><path class="cls-6" d="M1552.51,740.56h-26.24A20.34,20.34,0,0,0,1506,760.84h0a20.3,20.3,0,0,0,8.79,16.69V791.8l14.6-10.68h23.13a20.33,20.33,0,0,0,20.27-20.28h0A20.34,20.34,0,0,0,1552.51,740.56Z"/></g></svg>