<?xml version="1.0" encoding="UTF-8"?>
<svg width="914px" height="81px" viewBox="0 0 914 81" version="1.1" xmlns="http://www.w3.org/2000/svg" xmlns:xlink="http://www.w3.org/1999/xlink">
    <!-- Generator: Sketch 53.1 (72631) - https://sketchapp.com -->
    <title>logo start up chile</title>
    <desc>Created with Sketch.</desc>
    <g id="Page-1" stroke="none" stroke-width="1" fill="none" fill-rule="evenodd">
        <g id="logo-start-up-chile" transform="translate(-192.000000, -265.000000)" fill="#FFFFFF">
            <path d="M501.7061,282.0782 L525.7341,282.0782 L525.7341,345.0282 L543.1071,345.0282 L543.1071,282.0782 L567.1401,282.0782 L567.1401,266.0582 L501.7061,266.0582 L501.7061,282.0782 Z M491.6561,292.3442 L491.6561,292.1152 C491.6561,275.8752 480.4851,266.0582 461.8711,266.0582 L425.7691,266.0582 L425.7691,345.0282 L443.1411,345.0282 L443.1411,319.7582 L456.7921,319.7582 L473.7171,345.0282 L494.0201,345.0282 L474.7311,316.8272 C484.7741,313.1012 491.6561,305.0922 491.6561,292.3442 L491.6561,292.3442 Z M474.0571,293.2492 C474.0571,299.9032 469.2061,304.4182 460.7431,304.4182 L443.1411,304.4182 L443.1411,281.7382 L460.4051,281.7382 C468.8671,281.7382 474.0571,285.5762 474.0571,293.0212 L474.0571,293.2492 Z M229.5531,297.7612 C215.9041,294.2602 212.5201,292.5682 212.5201,287.3782 L212.5201,287.1572 C212.5201,283.3202 216.0131,280.2722 222.6721,280.2722 C229.3251,280.2722 236.2071,283.2052 243.2061,288.0592 L252.2281,274.9712 C244.2201,268.5402 234.4041,264.9312 222.8971,264.9312 C206.7671,264.9312 195.2571,274.4082 195.2571,288.7342 L195.2571,288.9592 C195.2571,304.6412 205.5251,309.0412 221.4301,313.1012 C234.6261,316.4872 237.3341,318.7402 237.3341,323.1412 L237.3341,323.3682 C237.3341,327.9972 233.0541,330.8142 225.9411,330.8142 C216.9181,330.8142 209.4741,327.0912 202.3631,321.2272 L192.0991,333.5212 C201.5721,341.9832 213.6481,346.1542 225.6031,346.1542 C242.6391,346.1542 254.5991,337.3532 254.5991,321.6752 L254.5991,321.4492 C254.5991,307.6862 245.5751,301.9332 229.5531,297.7612 L229.5531,297.7612 Z M262.5071,282.0782 L286.5381,282.0782 L286.5381,345.0282 L303.9091,345.0282 L303.9091,282.0782 L327.9401,282.0782 L327.9401,266.0582 L262.5071,266.0582 L262.5071,282.0782 Z M570.4571,318.2002 L598.8261,318.2002 L598.8261,301.7222 L570.4571,301.7222 L570.4571,318.2002 Z M1057.1651,336.9092 L1057.1651,309.2662 L1100.2611,309.2662 L1100.2611,301.1442 L1057.1651,301.1442 L1057.1651,274.1802 L1105.3361,274.1802 L1105.3361,266.0582 L1048.2561,266.0582 L1048.2561,345.0282 L1105.9011,345.0282 L1105.9011,336.9092 L1057.1651,336.9092 Z M914.3181,301.1442 L868.7391,301.1442 L868.7391,266.0582 L859.8301,266.0582 L859.8301,345.0282 L868.7391,345.0282 L868.7391,309.4942 L914.3181,309.4942 L914.3181,345.0282 L923.2331,345.0282 L923.2331,266.0582 L914.3181,266.0582 L914.3181,301.1442 Z M946.3701,345.0282 L955.2791,345.0282 L955.2791,266.0582 L946.3701,266.0582 L946.3701,345.0282 Z M664.4001,311.2992 C664.4001,323.8192 657.9701,330.2502 647.3681,330.2502 C636.7651,330.2502 630.3321,323.5972 630.3321,310.7342 L630.3321,266.0582 L612.9541,266.0582 L612.9541,311.1852 C612.9541,334.4222 625.9291,346.2662 647.1371,346.2662 C668.3511,346.2662 681.7741,334.5332 681.7741,310.6212 L681.7741,266.0582 L664.4001,266.0582 L664.4001,311.2992 Z M987.3201,266.0582 L978.4111,266.0582 L978.4111,345.0282 L1031.7721,345.0282 L1031.7721,336.7932 L987.3201,336.7932 L987.3201,266.0582 Z M812.8861,338.1462 C795.5161,338.1462 782.3101,323.8192 782.3101,305.4292 C782.3101,287.0432 795.4011,272.9402 812.8861,272.9402 C823.6061,272.9402 831.0471,277.4522 837.7051,283.7692 L843.8001,277.2262 C835.8971,269.7822 827.3281,264.7032 813.0001,264.7032 C789.7571,264.7032 773.0651,283.0922 773.0651,305.6562 C773.0651,328.4412 789.8741,346.3842 812.6601,346.3842 C826.9881,346.3842 836.0121,340.8552 844.2481,332.5092 L838.3851,326.7552 C830.8241,333.9732 823.7201,338.1462 812.8861,338.1462 L812.8861,338.1462 Z M731.7651,266.0582 L699.4981,266.0582 L699.4981,345.0282 L716.8721,345.0282 L716.8721,321.3382 L730.0761,321.3382 C747.7861,321.3382 762.0031,311.8642 762.0031,293.5852 L762.0031,293.3592 C762.0031,277.2262 750.6091,266.0582 731.7651,266.0582 L731.7651,266.0582 Z M744.4001,293.9242 C744.4001,300.6912 739.3221,305.8812 730.6351,305.8812 L716.8721,305.8812 L716.8721,281.7382 L730.2961,281.7382 C738.9851,281.7382 744.4001,285.9152 744.4001,293.6962 L744.4001,293.9242 Z" id="Fill-1"></path>
            <path d="M405.3896,295.2667 L405.3896,294.9457 C405.3896,294.9457 405.5986,293.3417 403.1516,291.4997 L369.3736,265.9427 L341.5046,265.9427 C351.8286,273.7527 379.2266,294.5057 393.7766,305.5237 C379.2266,316.5377 351.8036,337.3097 341.5046,345.1147 L369.3736,345.1147 L403.1516,319.5747 C405.5986,317.7197 405.4006,316.0977 405.4006,316.0977 L405.4006,294.9457 C405.4006,294.9457 405.4216,295.0657 405.3896,295.2667" id="Fill-3"></path>
        </g>
    </g>
</svg>