<?xml version="1.0" encoding="UTF-8"?>
<svg width="481px" height="420px" viewBox="0 0 481 420" version="1.1" xmlns="http://www.w3.org/2000/svg" xmlns:xlink="http://www.w3.org/1999/xlink">
    <!-- Generator: Sketch 58 (84663) - https://sketch.com -->
    <title>woman-sitting-with-laptop-leaves</title>
    <desc>Created with Sketch.</desc>
    <defs>
        <path d="M98.587,56.614 L119.222,62.266 C154.724,39.375 185.965,11.358 203.607,2.508 C199.136,2.108 148.127,-0.928 115.566,1.432 L109.074,15.556 L108.902,2.024 C105.469,2.391 102.342,2.839 99.633,3.38 C60.83,11.127 12.589,31.159 1.395,73.439 C-3.306,91.194 16.533,94.426 29.638,94.897 C56.246,95.852 84.62,83.486 111.082,67.375 L98.587,56.614" id="path-1"></path>
        <path d="M98.587,56.614 L119.222,62.266 C154.724,39.375 185.965,11.358 203.607,2.508 C199.136,2.108 148.127,-0.928 115.566,1.432 L109.074,15.556 L108.902,2.024 C105.469,2.391 102.342,2.839 99.633,3.38 C60.83,11.127 12.589,31.159 1.395,73.439 C-3.306,91.194 16.533,94.426 29.638,94.897 C56.246,95.852 84.62,83.486 111.082,67.375 L98.587,56.614" id="path-3"></path>
        <path d="M98.587,56.614 L119.222,62.266 C154.724,39.375 185.965,11.358 203.607,2.508 C199.136,2.108 148.127,-0.928 115.566,1.432 L109.074,15.556 L108.902,2.024 C105.469,2.391 102.342,2.839 99.633,3.38 C60.83,11.127 12.589,31.159 1.395,73.439 C-3.306,91.194 16.533,94.426 29.638,94.897 C56.246,95.852 84.62,83.486 111.082,67.375 L98.587,56.614" id="path-5"></path>
        <path d="M98.587,56.614 L119.222,62.266 C154.724,39.375 185.965,11.358 203.607,2.508 C199.136,2.108 148.127,-0.928 115.566,1.432 L109.074,15.556 L108.902,2.024 C105.469,2.391 102.342,2.839 99.633,3.38 C60.83,11.127 12.589,31.159 1.395,73.439 C-3.306,91.194 16.533,94.426 29.638,94.897 C56.246,95.852 84.62,83.486 111.082,67.375 L98.587,56.614" id="path-7"></path>
        <path d="M98.587,56.614 L119.222,62.266 C154.724,39.375 185.965,11.358 203.607,2.508 C199.136,2.108 148.127,-0.928 115.566,1.432 L109.074,15.556 L108.902,2.024 C105.469,2.391 102.342,2.839 99.633,3.38 C60.83,11.127 12.589,31.159 1.395,73.439 C-3.306,91.194 16.533,94.426 29.638,94.897 C56.246,95.852 84.62,83.486 111.082,67.375 L98.587,56.614" id="path-9"></path>
        <path d="M98.587,56.614 L119.222,62.266 C154.724,39.375 185.965,11.358 203.607,2.508 C199.136,2.108 148.127,-0.928 115.566,1.432 L109.074,15.556 L108.902,2.024 C105.469,2.391 102.342,2.839 99.633,3.38 C60.83,11.127 12.589,31.159 1.395,73.439 C-3.306,91.194 16.533,94.426 29.638,94.897 C56.246,95.852 84.62,83.486 111.082,67.375 L98.587,56.614" id="path-11"></path>
        <path d="M98.587,56.614 L119.222,62.266 C154.724,39.375 185.965,11.358 203.607,2.508 C199.136,2.108 148.127,-0.928 115.566,1.432 L109.074,15.556 L108.902,2.024 C105.469,2.391 102.342,2.839 99.633,3.38 C60.83,11.127 12.589,31.159 1.395,73.439 C-3.306,91.194 16.533,94.426 29.638,94.897 C56.246,95.852 84.62,83.486 111.082,67.375 L98.587,56.614" id="path-13"></path>
        <path d="M42.149,121.835 C31.315,122.803 13.827,124.685 6.101,114.937 C3.632,111.82 2.515,107.854 1.758,103.951 C-0.181,93.945 -0.126,83.557 1.92,73.573 C2.54,70.549 3.396,67.449 5.394,65.095 C7.391,62.741 10.817,61.343 13.664,62.545 C16.506,63.747 18.323,66.093 21.304,63.38 C26.643,58.521 27.892,49.504 30.576,43.15 C32.525,38.534 37.405,29.687 43.647,30.711 C47.899,31.408 49.294,37.944 53.905,37.639 C55.545,37.53 56.898,36.296 57.826,34.94 C63.454,26.713 67.065,11.886 78.015,9.219 C80.339,8.653 83.03,8.992 84.724,10.681 C86.503,12.452 86.839,15.28 88.54,17.125 C90.557,19.312 94.055,19.536 96.839,18.481 C99.621,17.426 101.869,15.345 104.078,13.351 C109.582,8.382 115.509,3.547 122.589,1.338 C134,-2.223 148.949,3.908 142.958,18.037 C140.625,23.54 134.588,26.363 128.961,28.377 C123.756,30.239 107.796,35.442 115.239,43.12 C116.666,44.592 118.431,45.773 119.519,47.511 C121.711,51.013 120.382,55.903 117.402,58.763 C114.421,61.623 110.21,62.812 106.111,63.333 C102.012,63.854 97.837,63.814 93.8,64.698 C90.816,65.352 87.405,67.272 87.552,70.324 C87.705,73.5 91.518,75.081 93.074,77.854 C94.829,80.979 93.255,85.127 90.495,87.413 C87.735,89.7 84.106,90.578 80.615,91.39 C77.152,92.194 73.689,93 70.225,93.805 C66.514,94.668 62.153,96.138 61.231,99.835 C60.67,102.088 61.647,104.41 61.82,106.724 C62.162,111.312 59.198,115.675 55.305,118.128 C51.413,120.58 46.731,121.424 42.149,121.835" id="path-15"></path>
        <path d="M42.149,121.835 C31.315,122.803 13.827,124.685 6.101,114.937 C3.632,111.82 2.515,107.854 1.758,103.951 C-0.181,93.945 -0.126,83.557 1.92,73.573 C2.54,70.549 3.396,67.449 5.394,65.095 C7.391,62.741 10.817,61.343 13.664,62.545 C16.506,63.747 18.323,66.093 21.304,63.38 C26.643,58.521 27.892,49.504 30.576,43.15 C32.525,38.534 37.405,29.687 43.647,30.711 C47.899,31.408 49.294,37.944 53.905,37.639 C55.545,37.53 56.898,36.296 57.826,34.94 C63.454,26.713 67.065,11.886 78.015,9.219 C80.339,8.653 83.03,8.992 84.724,10.681 C86.503,12.452 86.839,15.28 88.54,17.125 C90.557,19.312 94.055,19.536 96.839,18.481 C99.621,17.426 101.869,15.345 104.078,13.351 C109.582,8.382 115.509,3.547 122.589,1.338 C134,-2.223 148.949,3.908 142.958,18.037 C140.625,23.54 134.588,26.363 128.961,28.377 C123.756,30.239 107.796,35.442 115.239,43.12 C116.666,44.592 118.431,45.773 119.519,47.511 C121.711,51.013 120.382,55.903 117.402,58.763 C114.421,61.623 110.21,62.812 106.111,63.333 C102.012,63.854 97.837,63.814 93.8,64.698 C90.816,65.352 87.405,67.272 87.552,70.324 C87.705,73.5 91.518,75.081 93.074,77.854 C94.829,80.979 93.255,85.127 90.495,87.413 C87.735,89.7 84.106,90.578 80.615,91.39 C77.152,92.194 73.689,93 70.225,93.805 C66.514,94.668 62.153,96.138 61.231,99.835 C60.67,102.088 61.647,104.41 61.82,106.724 C62.162,111.312 59.198,115.675 55.305,118.128 C51.413,120.58 46.731,121.424 42.149,121.835" id="path-17"></path>
        <path d="M42.149,121.835 C31.315,122.803 13.827,124.685 6.101,114.937 C3.632,111.82 2.515,107.854 1.758,103.951 C-0.181,93.945 -0.126,83.557 1.92,73.573 C2.54,70.549 3.396,67.449 5.394,65.095 C7.391,62.741 10.817,61.343 13.664,62.545 C16.506,63.747 18.323,66.093 21.304,63.38 C26.643,58.521 27.892,49.504 30.576,43.15 C32.525,38.534 37.405,29.687 43.647,30.711 C47.899,31.408 49.294,37.944 53.905,37.639 C55.545,37.53 56.898,36.296 57.826,34.94 C63.454,26.713 67.065,11.886 78.015,9.219 C80.339,8.653 83.03,8.992 84.724,10.681 C86.503,12.452 86.839,15.28 88.54,17.125 C90.557,19.312 94.055,19.536 96.839,18.481 C99.621,17.426 101.869,15.345 104.078,13.351 C109.582,8.382 115.509,3.547 122.589,1.338 C134,-2.223 148.949,3.908 142.958,18.037 C140.625,23.54 134.588,26.363 128.961,28.377 C123.756,30.239 107.796,35.442 115.239,43.12 C116.666,44.592 118.431,45.773 119.519,47.511 C121.711,51.013 120.382,55.903 117.402,58.763 C114.421,61.623 110.21,62.812 106.111,63.333 C102.012,63.854 97.837,63.814 93.8,64.698 C90.816,65.352 87.405,67.272 87.552,70.324 C87.705,73.5 91.518,75.081 93.074,77.854 C94.829,80.979 93.255,85.127 90.495,87.413 C87.735,89.7 84.106,90.578 80.615,91.39 C77.152,92.194 73.689,93 70.225,93.805 C66.514,94.668 62.153,96.138 61.231,99.835 C60.67,102.088 61.647,104.41 61.82,106.724 C62.162,111.312 59.198,115.675 55.305,118.128 C51.413,120.58 46.731,121.424 42.149,121.835" id="path-19"></path>
        <path d="M42.149,121.835 C31.315,122.803 13.827,124.685 6.101,114.937 C3.632,111.82 2.515,107.854 1.758,103.951 C-0.181,93.945 -0.126,83.557 1.92,73.573 C2.54,70.549 3.396,67.449 5.394,65.095 C7.391,62.741 10.817,61.343 13.664,62.545 C16.506,63.747 18.323,66.093 21.304,63.38 C26.643,58.521 27.892,49.504 30.576,43.15 C32.525,38.534 37.405,29.687 43.647,30.711 C47.899,31.408 49.294,37.944 53.905,37.639 C55.545,37.53 56.898,36.296 57.826,34.94 C63.454,26.713 67.065,11.886 78.015,9.219 C80.339,8.653 83.03,8.992 84.724,10.681 C86.503,12.452 86.839,15.28 88.54,17.125 C90.557,19.312 94.055,19.536 96.839,18.481 C99.621,17.426 101.869,15.345 104.078,13.351 C109.582,8.382 115.509,3.547 122.589,1.338 C134,-2.223 148.949,3.908 142.958,18.037 C140.625,23.54 134.588,26.363 128.961,28.377 C123.756,30.239 107.796,35.442 115.239,43.12 C116.666,44.592 118.431,45.773 119.519,47.511 C121.711,51.013 120.382,55.903 117.402,58.763 C114.421,61.623 110.21,62.812 106.111,63.333 C102.012,63.854 97.837,63.814 93.8,64.698 C90.816,65.352 87.405,67.272 87.552,70.324 C87.705,73.5 91.518,75.081 93.074,77.854 C94.829,80.979 93.255,85.127 90.495,87.413 C87.735,89.7 84.106,90.578 80.615,91.39 C77.152,92.194 73.689,93 70.225,93.805 C66.514,94.668 62.153,96.138 61.231,99.835 C60.67,102.088 61.647,104.41 61.82,106.724 C62.162,111.312 59.198,115.675 55.305,118.128 C51.413,120.58 46.731,121.424 42.149,121.835" id="path-21"></path>
        <path d="M44.333,111.296 L24.993,101.92 C13.293,61.132 8.204,19.288 0.718,0.928 C4.363,3.582 44.937,35.025 67.993,58.345 L63.56,73.318 L72.64,63.2 C74.992,65.748 77.06,68.154 78.752,70.356 C102.965,101.877 126.187,148.929 106.686,188.299 C98.497,204.831 81.36,194.153 71.141,185.841 C50.392,168.965 37.12,140.85 27.768,111.166 L44.333,111.296" id="path-23"></path>
        <path d="M44.333,111.296 L24.993,101.92 C13.293,61.132 8.204,19.288 0.718,0.928 C4.363,3.582 44.937,35.025 67.993,58.345 L63.56,73.318 L72.64,63.2 C74.992,65.748 77.06,68.154 78.752,70.356 C102.965,101.877 126.187,148.929 106.686,188.299 C98.497,204.831 81.36,194.153 71.141,185.841 C50.392,168.965 37.12,140.85 27.768,111.166 L44.333,111.296" id="path-25"></path>
        <path d="M44.333,111.296 L24.993,101.92 C13.293,61.132 8.204,19.288 0.718,0.928 C4.363,3.582 44.937,35.025 67.993,58.345 L63.56,73.318 L72.64,63.2 C74.992,65.748 77.06,68.154 78.752,70.356 C102.965,101.877 126.187,148.929 106.686,188.299 C98.497,204.831 81.36,194.153 71.141,185.841 C50.392,168.965 37.12,140.85 27.768,111.166 L44.333,111.296" id="path-27"></path>
        <path d="M44.333,111.296 L24.993,101.92 C13.293,61.132 8.204,19.288 0.718,0.928 C4.363,3.582 44.937,35.025 67.993,58.345 L63.56,73.318 L72.64,63.2 C74.992,65.748 77.06,68.154 78.752,70.356 C102.965,101.877 126.187,148.929 106.686,188.299 C98.497,204.831 81.36,194.153 71.141,185.841 C50.392,168.965 37.12,140.85 27.768,111.166 L44.333,111.296" id="path-29"></path>
        <path d="M44.333,111.296 L24.993,101.92 C13.293,61.132 8.204,19.288 0.718,0.928 C4.363,3.582 44.937,35.025 67.993,58.345 L63.56,73.318 L72.64,63.2 C74.992,65.748 77.06,68.154 78.752,70.356 C102.965,101.877 126.187,148.929 106.686,188.299 C98.497,204.831 81.36,194.153 71.141,185.841 C50.392,168.965 37.12,140.85 27.768,111.166 L44.333,111.296" id="path-31"></path>
        <path d="M44.333,111.296 L24.993,101.92 C13.293,61.132 8.204,19.288 0.718,0.928 C4.363,3.582 44.937,35.025 67.993,58.345 L63.56,73.318 L72.64,63.2 C74.992,65.748 77.06,68.154 78.752,70.356 C102.965,101.877 126.187,148.929 106.686,188.299 C98.497,204.831 81.36,194.153 71.141,185.841 C50.392,168.965 37.12,140.85 27.768,111.166 L44.333,111.296" id="path-33"></path>
        <path d="M44.333,111.296 L24.993,101.92 C13.293,61.132 8.204,19.288 0.718,0.928 C4.363,3.582 44.937,35.025 67.993,58.345 L63.56,73.318 L72.64,63.2 C74.992,65.748 77.06,68.154 78.752,70.356 C102.965,101.877 126.187,148.929 106.686,188.299 C98.497,204.831 81.36,194.153 71.141,185.841 C50.392,168.965 37.12,140.85 27.768,111.166 L44.333,111.296" id="path-35"></path>
        <path d="M130.565,98.407 C126.06,99.333 121.334,99.87 116.901,98.642 C112.468,97.414 108.376,94.089 107.384,89.597 C106.883,87.331 107.151,84.826 105.966,82.831 C104.019,79.556 99.42,79.403 95.618,79.644 C92.07,79.87 88.522,80.094 84.975,80.32 C81.398,80.547 77.671,80.75 74.371,79.354 C71.07,77.959 68.37,74.44 69.151,70.943 C69.843,67.84 73.041,65.229 72.273,62.144 C71.535,59.179 67.717,58.323 64.671,58.555 C60.552,58.87 56.565,60.109 52.491,60.789 C48.417,61.468 44.042,61.542 40.365,59.661 C36.688,57.78 34.01,53.479 35.101,49.496 C35.643,47.519 36.993,45.88 37.936,44.06 C42.855,34.567 26.075,34.176 20.556,33.889 C14.588,33.581 7.996,32.613 4.179,28.015 C-5.622,16.21 6.928,6.039 18.88,6.166 C26.294,6.245 33.36,9.17 40.061,12.345 C42.749,13.619 45.5,14.965 48.468,15.174 C51.436,15.384 54.72,14.163 56.023,11.488 C57.123,9.232 56.63,6.428 57.824,4.221 C58.961,2.116 61.438,1.018 63.827,0.891 C75.08,0.295 82.802,13.454 90.557,19.712 C91.837,20.744 93.487,21.536 95.088,21.168 C99.592,20.134 99.047,13.474 102.919,11.584 C108.601,8.808 115.818,15.876 119.012,19.734 C123.41,25.047 127.199,33.322 133.71,36.438 C137.345,38.178 138.41,35.41 140.786,33.441 C143.166,31.472 146.847,31.825 149.438,33.505 C152.028,35.183 153.74,37.905 155.204,40.623 C160.034,49.594 163.075,59.526 164.095,69.664 C164.494,73.62 164.566,77.738 163.098,81.433" id="path-37"></path>
        <path d="M130.565,98.407 C126.06,99.333 121.334,99.87 116.901,98.642 C112.468,97.414 108.376,94.089 107.384,89.597 C106.883,87.331 107.151,84.826 105.966,82.831 C104.019,79.556 99.42,79.403 95.618,79.644 C92.07,79.87 88.522,80.094 84.975,80.32 C81.398,80.547 77.671,80.75 74.371,79.354 C71.07,77.959 68.37,74.44 69.151,70.943 C69.843,67.84 73.041,65.229 72.273,62.144 C71.535,59.179 67.717,58.323 64.671,58.555 C60.552,58.87 56.565,60.109 52.491,60.789 C48.417,61.468 44.042,61.542 40.365,59.661 C36.688,57.78 34.01,53.479 35.101,49.496 C35.643,47.519 36.993,45.88 37.936,44.06 C42.855,34.567 26.075,34.176 20.556,33.889 C14.588,33.581 7.996,32.613 4.179,28.015 C-5.622,16.21 6.928,6.039 18.88,6.166 C26.294,6.245 33.36,9.17 40.061,12.345 C42.749,13.619 45.5,14.965 48.468,15.174 C51.436,15.384 54.72,14.163 56.023,11.488 C57.123,9.232 56.63,6.428 57.824,4.221 C58.961,2.116 61.438,1.018 63.827,0.891 C75.08,0.295 82.802,13.454 90.557,19.712 C91.837,20.744 93.487,21.536 95.088,21.168 C99.592,20.134 99.047,13.474 102.919,11.584 C108.601,8.808 115.818,15.876 119.012,19.734 C123.41,25.047 127.199,33.322 133.71,36.438 C137.345,38.178 138.41,35.41 140.786,33.441 C143.166,31.472 146.847,31.825 149.438,33.505 C152.028,35.183 153.74,37.905 155.204,40.623 C160.034,49.594 163.075,59.526 164.095,69.664 C164.494,73.62 164.566,77.738 163.098,81.433" id="path-39"></path>
        <path d="M130.565,98.407 C126.06,99.333 121.334,99.87 116.901,98.642 C112.468,97.414 108.376,94.089 107.384,89.597 C106.883,87.331 107.151,84.826 105.966,82.831 C104.019,79.556 99.42,79.403 95.618,79.644 C92.07,79.87 88.522,80.094 84.975,80.32 C81.398,80.547 77.671,80.75 74.371,79.354 C71.07,77.959 68.37,74.44 69.151,70.943 C69.843,67.84 73.041,65.229 72.273,62.144 C71.535,59.179 67.717,58.323 64.671,58.555 C60.552,58.87 56.565,60.109 52.491,60.789 C48.417,61.468 44.042,61.542 40.365,59.661 C36.688,57.78 34.01,53.479 35.101,49.496 C35.643,47.519 36.993,45.88 37.936,44.06 C42.855,34.567 26.075,34.176 20.556,33.889 C14.588,33.581 7.996,32.613 4.179,28.015 C-5.622,16.21 6.928,6.039 18.88,6.166 C26.294,6.245 33.36,9.17 40.061,12.345 C42.749,13.619 45.5,14.965 48.468,15.174 C51.436,15.384 54.72,14.163 56.023,11.488 C57.123,9.232 56.63,6.428 57.824,4.221 C58.961,2.116 61.438,1.018 63.827,0.891 C75.08,0.295 82.802,13.454 90.557,19.712 C91.837,20.744 93.487,21.536 95.088,21.168 C99.592,20.134 99.047,13.474 102.919,11.584 C108.601,8.808 115.818,15.876 119.012,19.734 C123.41,25.047 127.199,33.322 133.71,36.438 C137.345,38.178 138.41,35.41 140.786,33.441 C143.166,31.472 146.847,31.825 149.438,33.505 C152.028,35.183 153.74,37.905 155.204,40.623 C160.034,49.594 163.075,59.526 164.095,69.664 C164.494,73.62 164.566,77.738 163.098,81.433" id="path-41"></path>
        <path d="M130.565,98.407 C126.06,99.333 121.334,99.87 116.901,98.642 C112.468,97.414 108.376,94.089 107.384,89.597 C106.883,87.331 107.151,84.826 105.966,82.831 C104.019,79.556 99.42,79.403 95.618,79.644 C92.07,79.87 88.522,80.094 84.975,80.32 C81.398,80.547 77.671,80.75 74.371,79.354 C71.07,77.959 68.37,74.44 69.151,70.943 C69.843,67.84 73.041,65.229 72.273,62.144 C71.535,59.179 67.717,58.323 64.671,58.555 C60.552,58.87 56.565,60.109 52.491,60.789 C48.417,61.468 44.042,61.542 40.365,59.661 C36.688,57.78 34.01,53.479 35.101,49.496 C35.643,47.519 36.993,45.88 37.936,44.06 C42.855,34.567 26.075,34.176 20.556,33.889 C14.588,33.581 7.996,32.613 4.179,28.015 C-5.622,16.21 6.928,6.039 18.88,6.166 C26.294,6.245 33.36,9.17 40.061,12.345 C42.749,13.619 45.5,14.965 48.468,15.174 C51.436,15.384 54.72,14.163 56.023,11.488 C57.123,9.232 56.63,6.428 57.824,4.221 C58.961,2.116 61.438,1.018 63.827,0.891 C75.08,0.295 82.802,13.454 90.557,19.712 C91.837,20.744 93.487,21.536 95.088,21.168 C99.592,20.134 99.047,13.474 102.919,11.584 C108.601,8.808 115.818,15.876 119.012,19.734 C123.41,25.047 127.199,33.322 133.71,36.438 C137.345,38.178 138.41,35.41 140.786,33.441 C143.166,31.472 146.847,31.825 149.438,33.505 C152.028,35.183 153.74,37.905 155.204,40.623 C160.034,49.594 163.075,59.526 164.095,69.664 C164.494,73.62 164.566,77.738 163.098,81.433" id="path-43"></path>
        <path d="M103.143,146.382 C100.27,138.748 95.946,132.501 93.463,124.611 C90.092,113.904 87.799,98.635 91.667,87.552 C95.774,75.783 100.813,66.5 101.12,53.391 C101.381,42.168 99.12,31.112 96.87,20.181 C94.641,9.353 93.631,6.21 83.031,4.559 C79.252,3.97 75.521,2.947 71.752,2.277 C65.357,1.142 58.874,0.632 52.379,0.622 L52.379,0.618 L52.125,0.62 L51.872,0.618 L51.872,0.622 C45.376,0.632 38.893,1.142 32.499,2.277 C28.728,2.947 24.998,3.97 21.219,4.559 C10.618,6.21 9.608,9.353 7.38,20.181 C5.13,31.112 2.868,42.168 3.13,53.391 C3.436,66.5 8.475,75.783 12.583,87.552 C16.452,98.635 14.157,113.904 10.787,124.611 C8.303,132.501 3.979,138.748 1.106,146.382 C0.882,146.979 0.664,147.63 0.836,148.253 C1.057,149.05 1.835,149.52 2.547,149.893 C16.637,157.255 32.428,159.467 47.872,160.606 C49.228,160.706 50.549,160.802 51.852,160.887 L51.852,160.924 L52.125,160.906 C52.216,160.912 52.307,160.919 52.398,160.924 L52.398,160.887 C53.701,160.802 55.021,160.706 56.378,160.606 C71.821,159.467 87.613,157.255 101.702,149.893 C102.416,149.52 103.193,149.05 103.414,148.253 C103.587,147.63 103.368,146.979 103.143,146.382" id="path-45"></path>
    </defs>
    <g id="Page-1" stroke="none" stroke-width="1" fill="none" fill-rule="evenodd">
        <g id="woman-sitting-with-laptop-leaves">
            <path d="M165.238,337.184 C156.827,334.172 147.915,333.773 139,333.772 C135.701,333.772 132.4,333.828 129.122,333.828 C128.077,333.828 127.034,333.822 125.994,333.807 C119.447,333.716 111.072,333.131 103.763,330.774 C100.109,329.596 96.724,327.976 93.962,325.77 C91.199,323.562 89.056,320.777 87.85,317.226 C86.529,313.33 86.035,309.393 86.034,305.419 C86.025,293.878 90.238,282.044 90.297,270.318 L90.297,270.067 C90.297,265.839 89.831,261.548 88.36,257.537 C84.85,247.983 77.251,242.092 69.615,236.27 C61.965,230.444 54.27,224.68 50.297,215.477 C48.15,210.508 47.174,205.186 47.174,199.802 C47.173,190.254 50.249,180.513 55.284,172.277 C62.126,161.079 72.178,152.247 82.844,144.682 C92.687,137.696 100.176,126.458 104.026,115.026 C107.618,104.349 108.304,93.217 109.1,82.2 C109.894,71.181 110.8,60.278 114.763,50.038 C121.878,31.641 135.511,16.062 152.501,7.844 C161.035,3.715 170.014,1.833 178.986,1.833 C201.159,1.829 223.306,13.346 238.381,30.851 C249.899,44.223 266.436,51.974 283.271,53.353 C285.658,53.548 288.05,53.634 290.446,53.634 C308.665,53.629 327.098,48.667 344.868,48.673 C356.747,48.675 368.31,50.872 379.38,58.202 C394.572,68.258 405.349,86.142 408.699,105.005 C409.427,109.103 409.842,113.378 409.842,117.656 C409.842,124.471 408.788,131.292 406.282,137.42 C402.263,147.258 395.288,155.339 389.246,163.951 C382.806,173.136 378.216,184.305 378.213,195.453 C378.212,201.738 379.679,208.016 383.1,213.889 C387.238,220.992 393.182,226.761 398.776,232.641 C409.519,243.928 415.161,259.257 415.16,274.679 C415.16,279.668 414.57,284.666 413.372,289.539 C407.806,312.152 390.233,326.962 367.263,329.815 C358.745,330.871 349.727,330.709 340.871,331.415 C332.016,332.122 323.31,333.7 315.447,338.284 L315.951,339.147 C323.617,334.677 332.157,333.113 340.95,332.412 C349.741,331.709 358.771,331.873 367.386,330.807 C390.719,327.93 408.697,312.785 414.344,289.777 C415.561,284.824 416.16,279.747 416.16,274.679 C416.16,259.016 410.435,243.443 399.501,231.952 C393.885,226.055 388.007,220.332 383.964,213.386 C380.638,207.673 379.214,201.584 379.213,195.453 C379.211,184.584 383.711,173.582 390.064,164.525 C396.061,155.967 403.101,147.834 407.208,137.798 C409.775,131.52 410.842,124.574 410.842,117.656 C410.842,113.313 410.421,108.981 409.683,104.83 C406.283,85.717 395.394,67.613 379.932,57.368 C368.668,49.906 356.865,47.671 344.868,47.673 C326.916,47.678 308.485,52.639 290.446,52.634 C288.074,52.634 285.709,52.549 283.353,52.356 C266.766,50.998 250.469,43.355 239.138,30.199 C223.89,12.498 201.509,0.837 178.986,0.833 C169.874,0.833 160.74,2.746 152.065,6.944 C134.818,15.291 121.033,31.06 113.83,49.677 C109.801,60.096 108.9,71.104 108.103,82.128 C107.308,93.154 106.617,104.196 103.079,114.707 C99.294,125.958 91.893,137.041 82.265,143.866 C71.544,151.472 61.381,160.385 54.431,171.756 C49.31,180.136 46.174,190.038 46.174,199.802 C46.174,205.306 47.172,210.766 49.379,215.874 C53.491,225.381 61.377,231.245 69.009,237.065 C76.656,242.888 84.041,248.66 87.421,257.882 C88.836,261.738 89.297,265.912 89.297,270.067 L89.296,270.314 C89.257,281.805 85.043,293.642 85.034,305.419 C85.034,309.475 85.54,313.528 86.903,317.547 C88.173,321.293 90.451,324.248 93.338,326.551 C97.671,330.009 103.362,332.026 109.201,333.209 C115.04,334.392 121.033,334.737 125.98,334.807 C127.026,334.822 128.073,334.828 129.122,334.828 C132.411,334.828 135.712,334.772 139,334.772 C147.887,334.771 156.679,335.178 164.9,338.126 L165.238,337.184" id="Fill-1" fill="#DEE9E8" fill-rule="nonzero"></path>
            <path d="M65.683,158.08 C56.219,171.536 48.917,189.843 53.985,206.741 C59.036,223.588 75.191,233.976 82.251,249.977 C86.241,259.021 86.348,268.965 86.499,278.673 C86.697,291.382 84.214,304.878 92.803,315.618 C97.883,321.97 105.549,325.724 113.301,328.19 C128.87,333.142 145.18,335.466 159.009,344.82 C181.728,360.186 209.628,365.558 236.702,363.899 C250.432,363.057 264.048,360.472 277.2,356.459 C292.48,351.795 306.062,343.54 321.448,339.117 C348.112,331.453 384.573,331.347 400.177,304.369 C410.683,286.205 414.322,263.755 406.15,243.964 C402.263,234.555 394.847,227.368 390.622,218.13 C384.786,205.366 383.212,190.812 387.111,177.253 C387.273,176.696 387.442,176.14 387.619,175.587 C391.692,162.909 399.894,152.009 403.286,139.105 C410.288,112.462 394.814,84.293 374.474,67.168 C366.022,60.052 356.579,54.13 346.294,50.753 C332.001,46.062 316.908,46.469 301.811,46.877 C286.942,47.279 272.068,47.68 257.95,43.211 C236.121,36.301 218.199,18.34 195.958,13.146 C178.865,9.154 160.394,13.415 145.875,23.847 C131.356,34.279 120.819,50.606 116.016,68.586 C111.566,85.247 111.706,103.547 103.813,118.681 C97.06,131.63 84.546,138.616 74.385,148.01 C71.222,150.934 68.302,154.356 65.683,158.08" id="Fill-3" fill="#DEE9E8" fill-rule="nonzero"></path>
            <path d="M375.587,309.614 L396.222,315.266 C431.724,292.375 462.965,264.358 480.607,255.508 C476.136,255.108 425.127,252.072 392.566,254.432 L386.074,268.556 L385.902,255.024 C382.469,255.391 379.342,255.839 376.633,256.38 C337.83,264.127 289.589,284.159 278.395,326.439 C273.694,344.194 293.533,347.426 306.638,347.897 C333.246,348.852 361.62,336.486 388.082,320.375 L375.587,309.614" id="Fill-4" fill="#9CC6AE" fill-rule="nonzero"></path>
            <g id="Group-13" transform="translate(277.000000, 253.000000)">
                <g id="Fill-5-Clipped">
                    <mask id="mask-2" fill="white">
                        <use xlink:href="#path-1"></use>
                    </mask>
                    <g id="path-1"></g>
                    <path d="M146.26,17.558 C148.541,18.496 152.298,19.57 156.682,20.67 C169.824,23.965 188.53,27.444 188.535,27.445 L188.718,26.462 C188.717,26.462 188.2,26.366 187.274,26.19 C184.033,25.573 175.805,23.98 167.417,22.142 C163.223,21.222 158.989,20.241 155.321,19.291 C151.654,18.342 148.546,17.418 146.64,16.633 L146.26,17.558" id="Fill-5" fill="#E6F2E7" fill-rule="nonzero" mask="url(#mask-2)"></path>
                </g>
                <g id="Fill-7-Clipped">
                    <mask id="mask-4" fill="white">
                        <use xlink:href="#path-3"></use>
                    </mask>
                    <g id="path-1"></g>
                    <path d="M-7.085,94.775 C22.477,70.755 55.957,51.929 90.868,36.825 C128.094,20.717 167.267,12.103 206.7,2.253 L206.458,1.283 C167.044,11.13 127.814,19.751 90.471,35.907 C55.496,51.039 21.935,69.907 -7.716,93.999 L-7.085,94.775" id="Fill-7" fill="#E6F2E7" fill-rule="nonzero" mask="url(#mask-4)"></path>
                </g>
                <g id="Fill-8-Clipped">
                    <mask id="mask-6" fill="white">
                        <use xlink:href="#path-5"></use>
                    </mask>
                    <g id="path-1"></g>
                    <path d="M119.082,25.856 C122.363,18.364 128.563,7.875 133.937,-0.721 C136.624,-5.021 139.105,-8.85 140.915,-11.604 C141.819,-12.981 142.556,-14.089 143.066,-14.853 C143.576,-15.616 143.859,-16.034 143.86,-16.035 L143.032,-16.596 C143.03,-16.592 138.473,-9.867 133.089,-1.251 C127.703,7.367 121.492,17.863 118.166,25.455 L119.082,25.857" id="Fill-8" fill="#E6F2E7" fill-rule="nonzero" mask="url(#mask-6)"></path>
                </g>
                <g id="Fill-9-Clipped">
                    <mask id="mask-8" fill="white">
                        <use xlink:href="#path-7"></use>
                    </mask>
                    <g id="path-1"></g>
                    <path d="M81.56,40.749 C81.56,40.747 81.657,40.345 81.85,39.583 C83.207,34.253 89.326,11.485 100.084,-10.756 L99.183,-11.191 C86.833,14.347 80.593,40.497 80.588,40.516 L81.56,40.749" id="Fill-9" fill="#E6F2E7" fill-rule="nonzero" mask="url(#mask-8)"></path>
                </g>
                <g id="Fill-10-Clipped">
                    <mask id="mask-10" fill="white">
                        <use xlink:href="#path-9"></use>
                    </mask>
                    <g id="path-1"></g>
                    <path d="M95.524,34.656 C102.072,38.219 114.654,44.174 127.476,49.43 C140.304,54.685 153.325,59.24 160.87,59.989 L160.968,58.994 C153.67,58.282 140.633,53.748 127.855,48.505 C115.069,43.264 102.495,37.312 96.002,33.777 L95.524,34.656" id="Fill-10" fill="#E6F2E7" fill-rule="nonzero" mask="url(#mask-10)"></path>
                </g>
                <g id="Fill-11-Clipped">
                    <mask id="mask-12" fill="white">
                        <use xlink:href="#path-11"></use>
                    </mask>
                    <g id="path-1"></g>
                    <path d="M47.787,57.686 C74.035,72.375 93.253,81.591 113.566,83.505 L113.66,82.51 C93.602,80.625 74.505,71.496 48.275,56.813 L47.787,57.686" id="Fill-11" fill="#E6F2E7" fill-rule="nonzero" mask="url(#mask-12)"></path>
                </g>
                <g id="Fill-12-Clipped">
                    <mask id="mask-14" fill="white">
                        <use xlink:href="#path-13"></use>
                    </mask>
                    <g id="path-1"></g>
                    <path d="M39.723,62.371 C44.29,42.387 48.701,15.015 61.279,-2.829 L60.461,-3.404 C47.695,14.742 43.32,42.21 38.749,62.148 L39.723,62.371" id="Fill-12" fill="#E6F2E7" fill-rule="nonzero" mask="url(#mask-14)"></path>
                </g>
            </g>
            <path d="M325.149,293.835 C314.315,294.803 296.827,296.685 289.101,286.937 C286.632,283.82 285.515,279.854 284.758,275.951 C282.819,265.945 282.874,255.557 284.92,245.573 C285.54,242.548 286.396,239.449 288.394,237.095 C290.391,234.741 293.817,233.343 296.664,234.545 C299.507,235.747 301.323,238.093 304.304,235.38 C309.643,230.521 310.892,221.504 313.576,215.15 C315.525,210.534 320.405,201.687 326.647,202.711 C330.899,203.408 332.294,209.944 336.905,209.639 C338.545,209.53 339.898,208.296 340.826,206.94 C346.454,198.714 350.065,183.886 361.015,181.219 C363.34,180.653 366.03,180.992 367.724,182.681 C369.503,184.452 369.839,187.28 371.54,189.125 C373.557,191.312 377.055,191.536 379.839,190.481 C382.621,189.426 384.869,187.345 387.078,185.351 C392.582,180.382 398.509,175.547 405.589,173.338 C417,169.777 431.949,175.908 425.958,190.037 C423.625,195.54 417.589,198.363 411.961,200.377 C406.757,202.239 390.796,207.442 398.239,215.12 C399.666,216.592 401.431,217.773 402.519,219.511 C404.711,223.013 403.382,227.903 400.402,230.763 C397.421,233.623 393.21,234.812 389.111,235.333 C385.012,235.854 380.837,235.814 376.8,236.698 C373.816,237.352 370.405,239.272 370.552,242.324 C370.705,245.5 374.518,247.081 376.074,249.854 C377.829,252.979 376.255,257.127 373.495,259.413 C370.735,261.7 367.106,262.578 363.615,263.39 C360.152,264.194 356.689,265 353.225,265.805 C349.514,266.668 345.153,268.138 344.231,271.835 C343.67,274.088 344.647,276.41 344.82,278.724 C345.162,283.312 342.198,287.675 338.305,290.128 C334.413,292.58 329.731,293.424 325.149,293.835" id="Fill-14" fill="#167F82" fill-rule="nonzero"></path>
            <g id="Group-20" transform="translate(283.000000, 172.000000)">
                <g id="Fill-15-Clipped">
                    <mask id="mask-16" fill="white">
                        <use xlink:href="#path-15"></use>
                    </mask>
                    <g id="path-3"></g>
                    <path d="M152.517,-3.243 C127.635,11.808 102.619,26.948 80.28,45.646 C75.08,49.999 70.04,54.533 65.007,59.061 C52.886,69.964 40.62,79.97 29.216,91.706 C16.598,104.694 4.271,117.965 -7.751,131.507 L-7.003,132.17 C5.009,118.64 17.325,105.38 29.933,92.403 C41.284,80.72 53.531,70.728 65.676,59.804 C70.709,55.276 75.74,50.751 80.922,46.413 C103.182,27.78 128.152,12.663 153.035,-2.387 L152.517,-3.243" id="Fill-15" fill="#7FB9A5" fill-rule="nonzero" mask="url(#mask-16)"></path>
                </g>
                <g id="Fill-17-Clipped">
                    <mask id="mask-18" fill="white">
                        <use xlink:href="#path-17"></use>
                    </mask>
                    <g id="path-3"></g>
                    <path d="M47.767,12.512 C45.72,18.271 43.837,28.408 42.452,39.613 C41.069,50.814 40.192,63.064 40.192,72.99 C40.192,75.927 40.269,78.661 40.432,81.107 L40.46,81.521 L40.873,81.57 C40.884,81.571 59.91,83.822 80.324,83.822 C88.519,83.822 96.938,83.46 104.449,82.44 C111.962,81.417 118.565,79.748 123.161,77.078 L122.658,76.214 C118.268,78.771 111.759,80.44 104.315,81.449 C96.87,82.46 88.489,82.822 80.324,82.822 C70.153,82.822 60.316,82.261 53.024,81.699 C49.378,81.419 46.368,81.138 44.271,80.927 C42.173,80.717 40.993,80.577 40.99,80.577 L40.931,81.073 L41.43,81.04 C41.268,78.623 41.192,75.91 41.192,72.99 C41.192,63.122 42.066,50.899 43.444,39.735 C44.821,28.575 46.712,18.454 48.709,12.847 L47.767,12.512" id="Fill-17" fill="#7FB9A5" fill-rule="nonzero" mask="url(#mask-18)"></path>
                </g>
                <g id="Fill-18-Clipped">
                    <mask id="mask-20" fill="white">
                        <use xlink:href="#path-19"></use>
                    </mask>
                    <g id="path-3"></g>
                    <path d="M89.554,-9.769 C84.589,-0.427 79.915,15.492 76.459,29.109 C73.007,42.721 70.788,54.012 70.787,54.018 L70.672,54.605 L71.27,54.614 C71.272,54.614 74.607,54.665 79.825,54.665 C87.416,54.665 98.992,54.557 110.096,54.026 C121.206,53.492 131.814,52.548 137.581,50.833 L137.295,49.875 C131.73,51.538 121.119,52.5 110.048,53.027 C98.971,53.557 87.406,53.665 79.825,53.665 C77.219,53.665 75.084,53.652 73.6,53.639 C72.117,53.627 71.288,53.614 71.286,53.614 L71.278,54.114 L71.769,54.21 C71.769,54.208 71.907,53.508 72.168,52.239 C73.083,47.799 75.507,36.438 78.776,24.17 C82.043,11.906 86.167,-1.277 90.437,-9.3 L89.554,-9.769" id="Fill-18" fill="#7FB9A5" fill-rule="nonzero" mask="url(#mask-20)"></path>
                </g>
                <g id="Fill-19-Clipped">
                    <mask id="mask-22" fill="white">
                        <use xlink:href="#path-21"></use>
                    </mask>
                    <g id="path-3"></g>
                    <path d="M8.953,50.718 C8.836,53.822 8.732,57.144 8.732,60.632 C8.732,73.667 10.187,89.028 17.887,104.013 L17.971,104.177 L18.141,104.247 C18.171,104.253 46.461,115.972 70.152,115.98 C72.181,115.98 74.178,115.894 76.121,115.706 L76.025,114.711 C74.118,114.895 72.153,114.98 70.152,114.98 C58.464,114.982 45.541,112.07 35.555,109.153 C30.561,107.694 26.3,106.236 23.289,105.142 C21.784,104.596 20.591,104.14 19.775,103.822 C18.959,103.503 18.524,103.323 18.523,103.323 L18.332,103.785 L18.776,103.556 C11.181,88.777 9.732,73.596 9.732,60.632 C9.732,57.164 9.835,53.855 9.952,50.756 L8.953,50.718" id="Fill-19" fill="#7FB9A5" fill-rule="nonzero" mask="url(#mask-22)"></path>
                </g>
            </g>
            <path d="M351.483,133.281 C347.97,138.576 343.215,147.646 337.914,159.134 C322.016,193.594 301.246,249.745 295.146,290.076 L296.135,290.226 C300.179,263.461 310.75,229.582 322.051,199.789 C327.701,184.892 333.533,171.014 338.822,159.553 C344.109,148.093 348.859,139.043 352.317,133.834 L351.483,133.281" id="Fill-21" fill="#9CC6AE" fill-rule="nonzero"></path>
            <path d="M357.153,118.508 C358.423,115.437 359.725,112.314 361.854,109.761 C363.14,108.219 366.104,105.839 368.301,107.049 C374.825,110.641 360.947,125.044 358.597,127.203 C355.773,129.798 350.575,135.445 350.575,135.445 C350.575,135.445 354.889,123.979 357.153,118.508" id="Fill-22" fill="#9CC6AE" fill-rule="nonzero"></path>
            <path d="M356.528,138.927 C358.761,137.629 361.039,136.313 363.557,135.74 C365.079,135.394 368.032,135.321 368.818,137.105 C371.155,142.4 355.791,144.754 353.322,144.979 C350.352,145.251 344.478,146.288 344.478,146.288 C344.478,146.288 352.551,141.239 356.528,138.927" id="Fill-23" fill="#9CC6AE" fill-rule="nonzero"></path>
            <path d="M339.33,133.14 C338.44,130.715 337.541,128.244 337.416,125.664 C337.34,124.106 337.782,121.185 339.675,120.721 C345.297,119.342 344.938,134.882 344.73,137.352 C344.48,140.323 344.478,146.288 344.478,146.288 C344.478,146.288 340.913,137.46 339.33,133.14" id="Fill-24" fill="#9CC6AE" fill-rule="nonzero"></path>
            <path d="M348.682,154.146 C350.841,152.727 353.044,151.289 355.527,150.579 C357.027,150.151 359.971,149.916 360.855,151.653 C363.477,156.813 348.265,160.004 345.812,160.364 C342.862,160.797 337.053,162.154 337.053,162.154 C337.053,162.154 344.838,156.672 348.682,154.146" id="Fill-25" fill="#9CC6AE" fill-rule="nonzero"></path>
            <path d="M331.193,149.308 C330.173,146.935 329.139,144.517 328.873,141.947 C328.713,140.396 328.994,137.455 330.859,136.888 C336.396,135.204 336.888,150.74 336.816,153.218 C336.729,156.198 337.053,162.154 337.053,162.154 C337.053,162.154 333.01,153.534 331.193,149.308" id="Fill-26" fill="#9CC6AE" fill-rule="nonzero"></path>
            <path d="M341.956,172.306 C344.416,170.637 346.924,168.944 349.77,168.086 C351.489,167.567 354.874,167.246 355.92,169.231 C359.025,175.124 341.575,179.054 338.757,179.511 C335.371,180.06 328.71,181.72 328.71,181.72 C328.71,181.72 337.574,175.278 341.956,172.306" id="Fill-27" fill="#9CC6AE" fill-rule="nonzero"></path>
            <path d="M321.747,167.038 C320.532,164.324 319.302,161.559 318.952,158.607 C318.74,156.824 319.014,153.435 321.151,152.751 C327.494,150.719 328.325,168.588 328.284,171.442 C328.235,174.872 328.71,181.72 328.71,181.72 C328.71,181.72 323.911,171.87 321.747,167.038" id="Fill-28" fill="#9CC6AE" fill-rule="nonzero"></path>
            <path d="M333.632,191.845 C336.02,190.074 338.456,188.277 341.263,187.299 C342.959,186.708 346.327,186.246 347.456,188.185 C350.806,193.941 333.536,198.603 330.741,199.178 C327.381,199.869 320.795,201.808 320.795,201.808 C320.795,201.808 329.381,194.999 333.632,191.845" id="Fill-29" fill="#9CC6AE" fill-rule="nonzero"></path>
            <path d="M313.22,187.431 C311.892,184.772 310.548,182.06 310.073,179.125 C309.787,177.353 309.918,173.956 312.024,173.182 C318.276,170.885 319.858,188.704 319.937,191.556 C320.032,194.986 320.795,201.808 320.795,201.808 C320.795,201.808 315.586,192.168 313.22,187.431" id="Fill-30" fill="#9CC6AE" fill-rule="nonzero"></path>
            <path d="M326.296,213.876 C328.932,211.699 331.623,209.49 334.789,208.198 C336.701,207.419 340.542,206.686 341.954,208.846 C346.146,215.257 326.589,221.644 323.412,222.471 C319.593,223.466 312.145,226.087 312.145,226.087 C312.145,226.087 321.599,217.753 326.296,213.876" id="Fill-31" fill="#9CC6AE" fill-rule="nonzero"></path>
            <path d="M302.586,210.027 C300.902,207.051 299.195,204.017 298.474,200.674 C298.04,198.656 297.988,194.746 300.36,193.732 C307.404,190.72 310.287,211.091 310.548,214.363 C310.862,218.297 312.145,226.087 312.145,226.087 C312.145,226.087 305.586,215.326 302.586,210.027" id="Fill-32" fill="#9CC6AE" fill-rule="nonzero"></path>
            <path d="M317.882,236.682 C320.343,234.308 322.855,231.898 325.912,230.366 C327.757,229.441 331.531,228.414 333.105,230.458 C337.781,236.527 318.774,244.404 315.672,245.474 C311.94,246.76 304.717,249.949 304.717,249.949 C304.717,249.949 313.5,240.91 317.882,236.682" id="Fill-33" fill="#9CC6AE" fill-rule="nonzero"></path>
            <path d="M293.947,234.674 C292.038,231.837 290.101,228.944 289.126,225.667 C288.537,223.688 288.182,219.794 290.469,218.599 C297.26,215.053 301.707,235.141 302.219,238.382 C302.836,242.28 304.717,249.949 304.717,249.949 C304.717,249.949 297.346,239.726 293.947,234.674" id="Fill-34" fill="#9CC6AE" fill-rule="nonzero"></path>
            <path d="M154.333,207.296 L134.993,197.92 C123.293,157.132 118.204,115.288 110.718,96.928 C114.363,99.582 154.937,131.025 177.993,154.345 L173.56,169.318 L182.64,159.2 C184.992,161.748 187.06,164.154 188.752,166.356 C212.965,197.877 236.187,244.929 216.686,284.298 C208.497,300.831 191.36,290.153 181.141,281.841 C160.392,264.965 147.12,236.85 137.768,207.166 L154.333,207.296" id="Fill-35" fill="#9CC6AE" fill-rule="nonzero"></path>
            <g id="Group-44" transform="translate(110.000000, 96.000000)">
                <g id="Fill-36-Clipped">
                    <mask id="mask-24" fill="white">
                        <use xlink:href="#path-23"></use>
                    </mask>
                    <g id="path-5"></g>
                    <path d="M34.445,49.287 C32.203,48.525 28.66,46.861 24.64,44.803 C18.607,41.715 11.477,37.735 5.858,34.528 C3.048,32.925 0.616,31.515 -1.113,30.505 C-2.843,29.496 -3.866,28.89 -3.869,28.888 L-4.378,29.749 C-4.376,29.75 2.935,34.081 11.396,38.804 C15.627,41.166 20.146,43.626 24.185,45.693 C28.227,47.761 31.778,49.434 34.123,50.234 L34.445,49.287" id="Fill-36" fill="#E6F2E7" fill-rule="nonzero" mask="url(#mask-24)"></path>
                </g>
                <g id="Fill-38-Clipped">
                    <mask id="mask-26" fill="white">
                        <use xlink:href="#path-25"></use>
                    </mask>
                    <g id="path-5"></g>
                    <path d="M99.974,209.869 C93.492,172.043 80.596,135.582 64.162,101.009 C46.616,64.096 22.657,31.63 -0.628,-1.882 L-1.449,-1.312 C21.848,32.216 45.768,64.639 63.259,101.438 C79.663,135.948 92.525,172.324 98.988,210.038 L99.974,209.869" id="Fill-38" fill="#E6F2E7" fill-rule="nonzero" mask="url(#mask-26)"></path>
                </g>
                <g id="Fill-39-Clipped">
                    <mask id="mask-28" fill="white">
                        <use xlink:href="#path-27"></use>
                    </mask>
                    <g id="path-5"></g>
                    <path d="M50.137,74.787 C52.643,66.848 54.89,54.804 56.518,44.726 C58.145,34.651 59.149,26.553 59.149,26.549 L58.157,26.426 C58.157,26.427 58.094,26.93 57.975,27.845 C57.143,34.242 53.519,60.765 49.183,74.486 L50.137,74.787" id="Fill-39" fill="#E6F2E7" fill-rule="nonzero" mask="url(#mask-28)"></path>
                </g>
                <g id="Fill-40-Clipped">
                    <mask id="mask-30" fill="white">
                        <use xlink:href="#path-29"></use>
                    </mask>
                    <g id="path-5"></g>
                    <path d="M68.586,111.028 C68.594,111.01 81.172,87.112 88.727,59.636 L87.763,59.371 C84.004,73.045 78.986,85.849 74.909,95.23 C72.871,99.921 71.068,103.756 69.775,106.417 C69.128,107.748 68.609,108.785 68.252,109.489 C67.895,110.193 67.701,110.561 67.701,110.562 L68.586,111.028" id="Fill-40" fill="#E6F2E7" fill-rule="nonzero" mask="url(#mask-30)"></path>
                </g>
                <g id="Fill-41-Clipped">
                    <mask id="mask-32" fill="white">
                        <use xlink:href="#path-31"></use>
                    </mask>
                    <g id="path-5"></g>
                    <path d="M61.39,95.742 C54.144,94.119 40.701,90.303 27.567,85.809 C21,83.562 14.508,81.145 8.904,78.749 C3.302,76.356 -1.416,73.977 -4.406,71.838 L-4.987,72.652 C-1.883,74.869 2.874,77.258 8.511,79.669 C25.42,86.895 50.214,94.262 61.172,96.718 L61.39,95.742" id="Fill-41" fill="#E6F2E7" fill-rule="nonzero" mask="url(#mask-32)"></path>
                </g>
                <g id="Fill-42-Clipped">
                    <mask id="mask-34" fill="white">
                        <use xlink:href="#path-33"></use>
                    </mask>
                    <g id="path-5"></g>
                    <path d="M82.238,144.724 C52.696,138.476 32.22,132.747 15.808,120.906 L15.223,121.717 C31.846,133.704 52.471,139.447 82.031,145.702 L82.238,144.724" id="Fill-42" fill="#E6F2E7" fill-rule="nonzero" mask="url(#mask-34)"></path>
                </g>
                <g id="Fill-43-Clipped">
                    <mask id="mask-36" fill="white">
                        <use xlink:href="#path-35"></use>
                    </mask>
                    <g id="path-5"></g>
                    <path d="M85.911,155.054 C95.642,136.957 110.502,113.297 112.851,91.135 L111.857,91.03 C109.564,112.841 94.795,136.452 85.03,154.581 L85.911,155.055" id="Fill-43" fill="#E6F2E7" fill-rule="nonzero" mask="url(#mask-36)"></path>
                </g>
            </g>
            <path d="M133.565,334.407 C144.217,332.218 161.505,328.99 166.098,317.433 C167.566,313.738 167.494,309.62 167.095,305.664 C166.075,295.526 163.034,285.594 158.204,276.623 C156.74,273.905 155.028,271.183 152.438,269.505 C149.847,267.825 146.166,267.472 143.786,269.441 C141.41,271.41 140.345,274.178 136.71,272.438 C130.199,269.322 126.41,261.047 122.012,255.735 C118.818,251.876 111.601,244.808 105.919,247.584 C102.047,249.474 102.592,256.134 98.088,257.168 C96.487,257.536 94.837,256.744 93.557,255.712 C85.802,249.454 78.08,236.295 66.827,236.891 C64.438,237.018 61.961,238.116 60.824,240.221 C59.63,242.428 60.123,245.232 59.023,247.488 C57.72,250.163 54.436,251.384 51.468,251.174 C48.5,250.965 45.749,249.619 43.061,248.345 C36.36,245.17 29.294,242.245 21.88,242.166 C9.928,242.039 -2.622,252.21 7.179,264.015 C10.996,268.613 17.588,269.581 23.556,269.889 C29.075,270.176 45.855,270.567 40.936,280.06 C39.993,281.88 38.643,283.519 38.101,285.496 C37.009,289.479 39.688,293.78 43.365,295.661 C47.042,297.542 51.417,297.468 55.491,296.789 C59.565,296.109 63.552,294.87 67.671,294.555 C70.717,294.323 74.535,295.179 75.273,298.144 C76.041,301.229 72.843,303.84 72.151,306.943 C71.37,310.44 74.07,313.959 77.371,315.354 C80.671,316.75 84.398,316.548 87.975,316.32 C91.522,316.094 95.07,315.87 98.618,315.644 C102.42,315.403 107.019,315.556 108.965,318.831 C110.151,320.826 109.882,323.331 110.383,325.597 C111.376,330.089 115.468,333.414 119.901,334.642 C124.334,335.87 129.06,335.333 133.565,334.407" id="Fill-45" fill="#167F82" fill-rule="nonzero"></path>
            <g id="Group-52" transform="translate(3.000000, 236.000000)">
                <g id="Fill-47-Clipped">
                    <mask id="mask-38" fill="white">
                        <use xlink:href="#path-37"></use>
                    </mask>
                    <g id="path-7"></g>
                    <path d="M-11.345,11.358 C16.81,18.611 45.068,25.903 71.742,37.342 C77.953,40.005 84.072,42.89 90.194,45.778 C104.965,52.745 119.566,58.789 133.796,66.712 C149.601,75.51 165.209,84.664 180.603,94.165 L181.129,93.314 C165.722,83.806 150.101,74.644 134.282,65.838 C119.986,57.88 105.362,51.828 90.62,44.874 C84.498,41.986 78.369,39.096 72.136,36.423 C45.368,24.944 17.059,17.643 -11.096,10.39 L-11.345,11.358" id="Fill-47" fill="#7FB9A5" fill-rule="nonzero" mask="url(#mask-38)"></path>
                </g>
                <g id="Fill-49-Clipped">
                    <mask id="mask-40" fill="white">
                        <use xlink:href="#path-39"></use>
                    </mask>
                    <g id="path-7"></g>
                    <path d="M92.933,-4.065 C96.981,1.44 102.599,12.675 107.703,24.801 C112.811,36.929 117.423,49.975 119.518,59.138 L120.006,59.026 L119.806,58.567 C119.804,58.568 119.086,58.88 117.771,59.429 C113.167,61.351 101.296,66.161 87.769,70.487 C74.246,74.815 59.051,78.651 47.883,78.648 C45.086,78.648 42.544,78.407 40.352,77.883 L40.119,78.855 C42.413,79.404 45.028,79.647 47.883,79.648 C60.89,79.643 78.935,74.596 93.77,69.56 C108.599,64.523 120.197,59.488 120.205,59.485 L120.586,59.319 L120.493,58.914 C118.372,49.651 113.748,36.582 108.625,24.413 C103.497,12.241 97.888,0.995 93.739,-4.657 L92.933,-4.065" id="Fill-49" fill="#7FB9A5" fill-rule="nonzero" mask="url(#mask-40)"></path>
                </g>
                <g id="Fill-50-Clipped">
                    <mask id="mask-42" fill="white">
                        <use xlink:href="#path-41"></use>
                    </mask>
                    <g id="path-7"></g>
                    <path d="M46.606,-13.268 C53.918,-5.892 62.98,7.99 70.181,20.003 C73.784,26.011 76.927,31.555 79.169,35.597 C80.29,37.617 81.186,39.262 81.801,40.402 C82.417,41.542 82.75,42.173 82.751,42.175 L83.193,41.941 L83.042,41.464 C83.04,41.465 82.285,41.704 80.928,42.125 C76.178,43.598 64.079,47.281 51.438,50.599 C45.118,52.257 38.662,53.824 32.926,54.977 C27.192,56.13 22.168,56.867 18.759,56.873 L18.762,57.873 C22.808,57.862 28.832,56.887 35.634,55.436 C56.028,51.083 83.336,42.42 83.344,42.418 L83.915,42.237 L83.635,41.708 C83.633,41.703 78.26,31.529 71.039,19.488 C63.813,7.444 54.759,-6.455 47.317,-13.972 L46.606,-13.268" id="Fill-50" fill="#7FB9A5" fill-rule="nonzero" mask="url(#mask-42)"></path>
                </g>
                <g id="Fill-51-Clipped">
                    <mask id="mask-44" fill="white">
                        <use xlink:href="#path-43"></use>
                    </mask>
                    <g id="path-7"></g>
                    <path d="M140.947,21.085 C144.623,31.828 148.93,45.312 148.93,60.437 C148.93,64.885 148.558,69.475 147.688,74.181 L148.179,74.272 L147.863,73.885 C147.863,73.885 147.757,73.971 147.548,74.138 C145.979,75.39 138.709,81.087 129.027,87.02 C119.348,92.955 107.249,99.122 96.078,101.33 L96.272,102.311 C108.408,99.906 121.44,92.992 131.463,86.684 C141.484,80.376 148.485,74.668 148.495,74.66 L148.638,74.544 L148.671,74.363 C149.553,69.593 149.93,64.941 149.93,60.437 C149.929,45.121 145.573,31.522 141.894,20.762 L140.947,21.085" id="Fill-51" fill="#7FB9A5" fill-rule="nonzero" mask="url(#mask-44)"></path>
                </g>
            </g>
            <path d="M64.293,179.759 C74.693,186.726 95.705,205.858 117.581,229.018 C139.463,252.18 162.242,279.395 176.262,302.55 L177.118,302.032 C163.03,278.769 140.222,251.529 118.308,228.331 C107.351,216.733 96.619,206.148 87.312,197.581 C78.003,189.013 70.128,182.467 64.849,178.928 L64.293,179.759" id="Fill-53" fill="#9CC6AE" fill-rule="nonzero"></path>
            <path d="M53.938,167.469 C51.584,165.122 49.182,162.738 46.235,161.2 C44.456,160.271 40.805,159.213 39.241,161.174 C34.599,166.997 52.946,174.961 55.944,176.051 C59.551,177.361 66.519,180.577 66.519,180.577 C66.519,180.577 58.129,171.65 53.938,167.469" id="Fill-54" fill="#9CC6AE" fill-rule="nonzero"></path>
            <path d="M62.361,186.08 C59.8,185.739 57.193,185.4 54.647,185.839 C53.11,186.104 50.356,187.172 50.315,189.12 C50.192,194.906 65.281,191.175 67.647,190.435 C70.493,189.544 76.314,188.245 76.314,188.245 C76.314,188.245 66.922,186.686 62.361,186.08" id="Fill-55" fill="#9CC6AE" fill-rule="nonzero"></path>
            <path d="M76.015,174.128 C75.904,171.547 75.785,168.92 74.909,166.49 C74.38,165.022 72.849,162.496 70.924,162.795 C65.204,163.683 71.507,177.891 72.648,180.092 C74.02,182.738 76.314,188.245 76.314,188.245 C76.314,188.245 76.214,178.724 76.015,174.128" id="Fill-56" fill="#9CC6AE" fill-rule="nonzero"></path>
            <path d="M75.453,197.114 C72.915,196.634 70.329,196.153 67.763,196.452 C66.215,196.632 63.405,197.548 63.257,199.491 C62.82,205.262 78.09,202.362 80.493,201.752 C83.383,201.018 89.266,200.039 89.266,200.039 C89.266,200.039 79.973,197.969 75.453,197.114" id="Fill-57" fill="#9CC6AE" fill-rule="nonzero"></path>
            <path d="M89.74,185.927 C89.77,183.344 89.795,180.715 89.053,178.24 C88.605,176.746 87.215,174.139 85.275,174.332 C79.516,174.906 85.032,189.438 86.051,191.698 C87.277,194.416 89.266,200.039 89.266,200.039 C89.266,200.039 89.686,190.527 89.74,185.927" id="Fill-58" fill="#9CC6AE" fill-rule="nonzero"></path>
            <path d="M88.642,211.295 C85.73,210.7 82.763,210.101 79.805,210.402 C78.019,210.584 74.771,211.589 74.569,213.823 C73.966,220.456 91.588,217.379 94.364,216.717 C97.702,215.923 104.489,214.896 104.489,214.896 C104.489,214.896 93.83,212.356 88.642,211.295" id="Fill-59" fill="#9CC6AE" fill-rule="nonzero"></path>
            <path d="M105.275,198.665 C105.353,195.693 105.426,192.667 104.615,189.807 C104.125,188.08 102.57,185.057 100.335,185.246 C93.697,185.808 99.798,202.625 100.931,205.243 C102.296,208.391 104.489,214.896 104.489,214.896 C104.489,214.896 105.134,203.957 105.275,198.665" id="Fill-60" fill="#9CC6AE" fill-rule="nonzero"></path>
            <path d="M103.835,226.135 C100.95,225.418 98.011,224.694 95.044,224.87 C93.251,224.977 89.964,225.844 89.667,228.068 C88.786,234.67 106.521,232.337 109.323,231.793 C112.691,231.139 119.516,230.4 119.516,230.4 C119.516,230.4 108.973,227.412 103.835,226.135" id="Fill-61" fill="#9CC6AE" fill-rule="nonzero"></path>
            <path d="M120.984,214.215 C121.188,211.25 121.387,208.23 120.697,205.338 C120.281,203.591 118.854,200.506 116.612,200.601 C109.958,200.883 115.344,217.941 116.368,220.605 C117.598,223.808 119.516,230.4 119.516,230.4 C119.516,230.4 120.621,219.497 120.984,214.215" id="Fill-62" fill="#9CC6AE" fill-rule="nonzero"></path>
            <path d="M119.076,243.654 C115.804,242.658 112.472,241.652 109.053,241.677 C106.988,241.692 103.161,242.492 102.687,245.028 C101.28,252.559 121.791,250.939 125.041,250.482 C128.949,249.932 136.832,249.49 136.832,249.49 C136.832,249.49 124.901,245.429 119.076,243.654" id="Fill-63" fill="#9CC6AE" fill-rule="nonzero"></path>
            <path d="M139.485,230.989 C139.896,227.594 140.306,224.137 139.686,220.775 C139.312,218.744 137.858,215.114 135.277,215.089589 C127.617,215.016 132.785,234.931 133.801,238.052 C135.023,241.804 136.832,249.49 136.832,249.49 C136.832,249.49 138.753,237.034 139.485,230.989" id="Fill-64" fill="#9CC6AE" fill-rule="nonzero"></path>
            <path d="M135.607,261.476 C132.423,260.23 129.177,258.97 125.767,258.731 C123.707,258.586 119.829,259.088 119.161,261.58 C117.177,268.98 137.752,268.948 141.027,268.743 C144.965,268.497 152.86,268.664 152.86,268.664 C152.86,268.664 141.278,263.694 135.607,261.476" id="Fill-65" fill="#9CC6AE" fill-rule="nonzero"></path>
            <g id="Group-69" transform="translate(8.000000, 234.000000)" fill-rule="nonzero">
                <path d="M148.933,16.423 C149.605,13.07 150.281,9.656 149.923,6.256 C149.706,4.202 148.536,0.471 145.965,0.247 C138.334,-0.417 141.949,19.837 142.721,23.027 C143.65,26.862 144.86,34.664 144.86,34.664 C144.86,34.664 147.736,22.394 148.933,16.423" id="Fill-66" fill="#9CC6AE"></path>
                <path d="M441.586,145.483 C409.68,157.737 374.608,157.949 340.43,158.002 C268.904,158.112 197.378,158.223 125.851,158.334 C92.43,158.385 58.296,158.325 26.653,147.568 C19.125,145.009 11.515,141.657 6.364,135.6 C-6.224,120.798 2.507,102.162 16.75,92.557 C25.611,86.583 36.241,83.688 46.859,82.48 C58.264,81.181 70.775,81.72 81.646,77.476 C88.027,74.985 90.069,69.304 94.673,64.94 C99.028,60.814 104.827,58.532 109.386,54.324 C119.248,45.223 125.911,32.882 137.346,25.455 C146.831,19.296 158.602,17.449 169.887,18.173 C182.401,18.976 197.486,21.256 209.591,24.621 C226.359,29.282 239.257,34.99 256.981,28.827 C269.01,24.645 280.877,16.249 293.26,19.224 C310.251,23.306 315.69,45.407 330.286,55.014 C338.095,60.156 348.936,62.235 358.157,61.677 C368.603,61.045 380.133,56.793 389.983,62.313 C397.891,66.746 401.506,76.139 408.105,82.355 C414.289,88.181 422.715,90.883 430.901,93.161 C439.086,95.438 447.566,97.571 454.412,102.602 C475.96,118.439 460.284,138.301 441.586,145.483" id="Fill-68" fill="#59A78C"></path>
            </g>
            <path d="M93.744,147.288 C94.428,151.774 98.9,157.417 102.273,156.978 C104.143,156.735 105.569,155.016 105.981,153.176 C106.393,151.337 105.978,149.413 105.381,147.625 C104.123,143.866 98.443,138.891 94.558,143.387 C93.717,144.361 93.51,145.757 93.744,147.288" id="Fill-70" fill="#0A875C" fill-rule="nonzero"></path>
            <path d="M388.598,165.332 C392.91,163.915 397.735,158.572 396.745,155.318 C396.195,153.514 394.265,152.392 392.382,152.29 C390.5,152.188 388.671,152.915 387.007,153.8 C383.507,155.662 379.54,162.086 384.616,165.173 C385.715,165.842 387.127,165.816 388.598,165.332" id="Fill-71" fill="#9CC6AE" fill-rule="nonzero"></path>
            <path d="M76.514,114.608 C77.05,118.119 80.549,122.535 83.189,122.192 C84.653,122.001 85.769,120.656 86.092,119.216 C86.414,117.777 86.089,116.271 85.621,114.872 C84.637,111.93 80.192,108.036 77.152,111.555 C76.494,112.318 76.332,113.41 76.514,114.608" id="Fill-72" fill="#9CC6AE" fill-rule="nonzero"></path>
            <path d="M430.212,214.415 C433.757,214.196 438.468,211.108 438.364,208.447 C438.305,206.973 437.066,205.741 435.661,205.29 C434.256,204.84 432.726,205.028 431.292,205.369 C428.273,206.085 423.996,210.163 427.228,213.507 C427.928,214.231 429.003,214.49 430.212,214.415" id="Fill-73" fill="#9CC6AE" fill-rule="nonzero"></path>
            <path d="M69.714,134.215 C70.086,136.65 72.511,139.712 74.342,139.474 C75.357,139.342 76.131,138.409 76.354,137.411 C76.578,136.413 76.352,135.369 76.028,134.399 C75.346,132.359 72.264,129.659 70.156,132.099 C69.699,132.627 69.587,133.385 69.714,134.215" id="Fill-74" fill="#9CC6AE" fill-rule="nonzero"></path>
            <path d="M419.391,232.111 C421.814,231.67 424.805,229.156 424.514,227.333 C424.353,226.322 423.398,225.576 422.394,225.382 C421.389,225.187 420.352,225.442 419.392,225.795 C417.373,226.535 414.763,229.694 417.263,231.731 C417.804,232.172 418.565,232.262 419.391,232.111" id="Fill-75" fill="#0A875C" fill-rule="nonzero"></path>
            <path d="M339.122,99.991 C340.501,97.951 340.796,94.055 339.29,92.988 C338.455,92.397 337.254,92.557 336.412,93.138 C335.57,93.72 335.027,94.64 334.607,95.572 C333.724,97.534 334.157,101.609 337.361,101.246 C338.055,101.168 338.652,100.688 339.122,99.991" id="Fill-76" fill="#0A875C" fill-rule="nonzero"></path>
            <path d="M28.637,225.32 C30.865,226.371 34.76,226.067 35.584,224.415 C36.041,223.499 35.699,222.337 34.995,221.594 C34.292,220.851 33.3,220.455 32.314,220.183 C30.24,219.61 26.28,220.66 27.128,223.772 C27.312,224.445 27.878,224.962 28.637,225.32" id="Fill-77" fill="#0A875C" fill-rule="nonzero"></path>
            <g id="Group-81" transform="translate(0.000000, 126.000000)" fill-rule="nonzero">
                <path d="M389.957,8.087 C392.011,6.728 393.773,3.241 392.789,1.679 C392.244,0.814 391.073,0.502 390.072,0.718 C389.073,0.934 388.219,1.576 387.474,2.277 C385.909,3.752 384.751,7.683 387.849,8.573 C388.521,8.766 389.257,8.55 389.957,8.087" id="Fill-78" fill="#9CC6AE"></path>
                <polygon id="Fill-80" fill="#FFFFFE" points="0 293.94 477.334 293.94 477.334 209.357 0 209.357"></polygon>
            </g>
            <path d="M239.249,367.484 C136.567,367.484 53.327,361.306 53.327,353.687 C53.327,346.068 136.567,339.891 239.249,339.891 C341.931,339.891 425.171,346.068 425.171,353.687 C425.171,361.306 341.931,367.484 239.249,367.484" id="Fill-82" fill="#E9E7E3" fill-rule="nonzero"></path>
            <path d="M305.029,182.317 C294.651,186.552 281.569,185.271 272.405,178.753 C263.195,172.202 254.75,167.385 243.048,167.038 C235.78,166.822 228.966,169.862 222.042,171.598 C215.954,173.124 211.302,178.013 204.74,178.913 C196.115,180.095 187.256,174.791 183.377,166.997 C179.498,159.203 180.344,149.502 184.684,141.954 C187.852,136.445 190.765,132.333 187.206,126.191 C186.43,124.853 185.455,123.613 184.924,122.161 C184.423,120.79 184.345,119.3 184.404,117.841 C184.725,109.883 190.754,103.916 194.771,97.343 C195.71,95.807 196.653,94.213 196.937,92.435 C197.659,87.911 194.063,83.999 192.146,79.837 C185.936,66.352 196.534,51.014 206.848,42.923 C212.933,38.149 220.226,36.222 226.79,32.332 C229.778,30.56 232.503,28.365 235.527,26.656 C240.8,23.675 246.548,23.548 252.403,24.369 C269.083,26.708 288.047,38.833 291.912,56.283 C294.532,68.112 290.242,81.863 301.96,90.144 C305.489,92.638 309.948,94.122 312.355,97.711 C317.47,105.34 309.954,116.64 314.632,124.544 C315.674,126.307 317.234,127.692 318.653,129.169 C326.142,136.965 330.007,148.109 328.954,158.867 C328.697,161.493 328.145,164.139 326.848,166.436 C325.068,169.591 322.05,171.823 319.101,173.927 C314.688,177.076 310.183,180.183 305.173,182.257 L305.029,182.317" id="Fill-83" fill="#152439" fill-rule="nonzero"></path>
            <path d="M320.475,137.76 C316.824,134.627 315.242,129.729 315.242,124.74 C315.242,122.924 315.452,121.1 315.845,119.355 C316.762,115.244 318.604,111.147 318.611,106.745 C318.611,106.55 318.607,106.356 318.6,106.16 C318.368,100.351 314.368,94.924 308.888,92.983 C306.098,92.009 303.156,91.878 300.707,90.701 C298.851,89.816 297.405,88.439 296.24,86.791 C295.076,85.145 294.199,83.232 293.498,81.312 C292.67,79.051 292.486,76.98 292.486,74.81 C292.485,73.101 292.602,71.335 292.602,69.4 L292.602,69.196 C292.579,63.519 292.435,57.827 291.856,52.157 C291.17,45.487 287.215,38.969 282.696,34.232 C282.046,33.551 281.369,32.897 280.665,32.27 L280.65,32.256 L280.666,32.27 C273.138,25.557 261.325,21.296 250.114,21.29 C243.784,21.29 237.64,22.655 232.582,25.753 C229.746,27.495 228.017,29.861 225.876,32.044 C223.724,34.244 220.894,36.057 218.237,37.724 C212.881,41.086 207.1,43.746 201.397,46.572 C197.752,48.38 193.992,50.344 191.233,53.494 C188.061,57.123 186.597,61.991 186.596,66.77 C186.596,66.999 186.6,67.228 186.606,67.456 C186.753,72.449 188.39,77.278 190.655,81.674 C192.257,84.777 194.154,87.694 195.132,90.911 C195.423,91.867 195.555,92.807 195.555,93.731 C195.563,97.765 192.984,101.546 189.805,104.305 C186.827,106.905 183.283,109.328 181.546,113.132 C180.881,114.597 180.553,116.199 180.553,117.8 C180.553,119.665 180.998,121.532 181.887,123.182 C182.655,124.608 183.694,125.816 184.693,127.005 C185.693,128.194 186.652,129.362 187.302,130.681 C187.943,131.979 188.266,133.433 188.266,134.888 C188.266,136.262 187.978,137.634 187.403,138.875 C186.749,140.292 185.696,141.718 184.786,143.183 C183.882,144.649 183.1,146.173 183.096,147.847 C183.095,148.376 183.177,148.917 183.357,149.46 L184.306,149.146 C184.16,148.704 184.096,148.275 184.096,147.847 C184.091,146.504 184.754,145.13 185.636,143.71 C186.514,142.29 187.592,140.843 188.311,139.295 C188.95,137.915 189.266,136.401 189.266,134.888 C189.266,133.285 188.911,131.682 188.199,130.238 C187.479,128.781 186.46,127.555 185.458,126.362 C184.454,125.169 183.466,124.008 182.767,122.708 C181.961,121.213 181.552,119.506 181.553,117.8 C181.552,116.336 181.854,114.873 182.457,113.545 C184.023,110.075 187.411,107.701 190.461,105.06 C193.761,102.188 196.547,98.206 196.555,93.731 C196.555,92.711 196.408,91.669 196.088,90.62 C195.05,87.222 193.109,84.259 191.544,81.215 C189.324,76.909 187.745,72.218 187.606,67.427 C187.599,67.208 187.596,66.989 187.596,66.77 C187.595,62.191 189.006,57.555 191.985,54.152 C194.575,51.188 198.206,49.266 201.841,47.468 C207.526,44.65 213.339,41.978 218.768,38.571 C221.431,36.899 224.324,35.056 226.59,32.743 C228.793,30.486 230.467,28.218 233.105,26.605 C237.962,23.628 243.926,22.29 250.114,22.29 C261.072,22.285 272.71,26.499 280,33.016 C280.683,33.625 281.342,34.261 281.973,34.923 C286.384,39.536 290.22,45.917 290.862,52.259 C291.435,57.878 291.579,63.538 291.602,69.201 L291.603,69.4 C291.603,71.294 291.486,73.056 291.486,74.81 C291.485,77.034 291.677,79.252 292.558,81.656 C293.279,83.625 294.186,85.617 295.424,87.369 C296.66,89.119 298.235,90.631 300.277,91.603 C302.98,92.881 305.962,93.002 308.555,93.926 C313.628,95.707 317.401,100.825 317.601,106.199 C317.608,106.381 317.611,106.563 317.611,106.745 C317.618,110.86 315.83,114.895 314.869,119.136 C314.461,120.951 314.242,122.847 314.242,124.74 C314.242,129.927 315.883,135.129 319.823,138.518 L320.475,137.76" id="Fill-84" fill="#152439" fill-rule="nonzero"></path>
            <path d="M373.794,297.822 C370.716,301.701 366.681,305.071 362.693,307.852 C340.927,323.033 314.919,333.416 289.132,340.106 C266.098,346.082 241.959,345.816 218.4,343.497 C202.299,341.912 186.277,336.922 170.747,332.291 C154.769,327.527 139.012,321.852 124.121,314.309 C112.388,308.367 101.877,300.99 100.088,286.949 C99.384,281.425 100.597,275.309 104.826,271.563 C109.921,267.05 117.631,267.202 124.498,267.734 C163.414,270.747 201.1,283.855 240.285,284.097 C262.155,284.233 282.545,278.546 303.559,273.403 C319.77,269.435 337.767,265.073 354.648,265.904 C369.952,266.658 385.084,283.589 373.794,297.822" id="Fill-85" fill="#152439" fill-rule="nonzero"></path>
            <path d="M189.444,264.945 C189.016,263.977 188.585,262.989 188.13,261.971 C183.382,251.358 179.906,240.173 177.797,228.739 C177.036,224.617 176.264,220.106 173.114,217.34 C168.755,213.513 160.264,214.004 154.865,214.727 C152.342,215.065 149.705,215.935 148.181,217.974 C145.657,221.353 145.91,228.979 145.81,233.05 C145.207,257.794 164.768,278.25 180.697,294.948 C183.763,298.163 187.093,301.414 191.341,302.714 C195.59,304.013 200.985,302.663 202.844,298.627 C204.209,295.665 203.372,292.186 202.292,289.108 C200.436,283.815 197.64,278.967 194.46,274.369 C192.31,271.261 190.896,268.224 189.444,264.945" id="Fill-86" fill="#ED9B76" fill-rule="nonzero"></path>
            <path d="M283.049,130.478 C283.7,134.793 283.208,139.227 281.315,143.166 C276.21,153.789 263.568,155.86 252.909,156.276 C248.962,156.429 244.997,156.232 241.09,155.649 C237.608,155.131 234.507,155.66 230.989,155.58 C224.036,155.421 217.123,153.369 211.248,149.638 C208.39,147.823 205.699,145.531 204.233,142.481 C202.217,138.286 202.804,133.33 203.871,128.8 C204.486,126.186 205.258,123.576 206.602,121.249 C208.039,118.76 210.101,116.645 211.299,114.031 C213.549,109.12 211.699,103.379 213.701,98.561 C215.267,94.788 219.208,90.53 222.476,88.171 C226.925,84.962 232.664,83.948 238.136,84.321 C243.609,84.693 248.906,86.343 254.12,88.048 C258.225,89.391 261.754,88.56 264.764,91.951 C267.152,94.639 266.318,99.026 267.081,102.283 C269.646,113.236 281.322,119.016 283.049,130.478" id="Fill-87" fill="#111A24" fill-rule="nonzero"></path>
            <path d="M207.553,179.125 C200.587,191.066 192.746,202.524 185.252,214.136 C181.066,220.621 176.83,227.214 174.587,234.599 C164.255,234.345 153.893,232.161 143.746,230.219 C145.377,216.514 152.61,204.091 159.082,192.147 C165.824,179.702 173.086,167.539 179.429,154.88 C184.588,144.588 194.223,132.305 207.109,138.492 C217.024,143.254 215.482,156.894 213.435,165.693 C212.341,170.392 210.072,174.807 207.553,179.125" id="Fill-88" fill="#E0553B" fill-rule="nonzero"></path>
            <path d="M285.605,264.945 C286.033,263.977 286.465,262.989 286.92,261.971 C291.667,251.358 295.143,240.173 297.253,228.739 C298.013,224.617 298.785,220.106 301.935,217.34 C306.295,213.513 314.785,214.004 320.184,214.727 C322.707,215.065 325.344,215.935 326.868,217.974 C329.392,221.353 329.139,228.979 329.239,233.05 C329.842,257.794 310.281,278.25 294.352,294.948 C291.286,298.163 287.956,301.414 283.707,302.714 C279.459,304.013 274.064,302.663 272.205,298.627 C270.84,295.665 271.677,292.186 272.757,289.108 C274.613,283.815 277.409,278.967 280.59,274.369 C282.739,271.261 284.153,268.224 285.605,264.945" id="Fill-89" fill="#ED9B76" fill-rule="nonzero"></path>
            <path d="M267.496,179.125 C274.463,191.066 282.303,202.524 289.798,214.136 C293.983,220.621 298.219,227.214 300.463,234.599 C310.795,234.345 321.156,232.161 331.303,230.219 C329.673,216.514 322.439,204.091 315.967,192.147 C309.225,179.702 301.964,167.539 295.62,154.88 C290.462,144.588 280.825,132.305 267.94,138.492 C258.025,143.254 259.567,156.894 261.614,165.693 C262.708,170.392 264.977,174.807 267.496,179.125" id="Fill-90" fill="#E0553B" fill-rule="nonzero"></path>
            <path d="M289.143,276.382 C286.27,268.748 281.946,262.501 279.463,254.611 C276.092,243.903 273.798,228.635 277.667,217.552 C281.774,205.783 286.813,196.5 287.12,183.391 C287.382,172.168 285.12,161.112 282.87,150.181 C280.641,139.353 279.632,136.21 269.031,134.559 C265.252,133.97 261.521,132.947 257.752,132.278 C251.357,131.142 244.874,130.632 238.379,130.622 L238.379,130.618 L238.125,130.62 L237.872,130.618 L237.872,130.622 C231.376,130.632 224.893,131.142 218.499,132.278 C214.728,132.947 210.998,133.97 207.219,134.559 C196.618,136.21 195.608,139.353 193.38,150.181 C191.13,161.112 188.868,172.168 189.131,183.391 C189.436,196.5 194.475,205.783 198.583,217.552 C202.452,228.635 200.157,243.903 196.787,254.611 C194.303,262.501 189.979,268.748 187.106,276.382 C186.882,276.979 186.664,277.631 186.836,278.253 C187.057,279.05 187.835,279.52 188.548,279.893 C202.637,287.255 218.428,289.467 233.872,290.606 C235.228,290.706 236.549,290.802 237.852,290.887 L237.852,290.924 L238.125,290.906 C238.215,290.912 238.307,290.919 238.398,290.924 L238.398,290.887 C239.701,290.802 241.021,290.706 242.378,290.606 C257.821,289.467 273.613,287.255 287.702,279.893 C288.416,279.52 289.193,279.05 289.414,278.253 C289.587,277.631 289.368,276.979 289.143,276.382" id="Fill-91" fill="#E47155" fill-rule="nonzero"></path>
            <g id="Group-94" transform="translate(186.000000, 130.000000)">
                <g id="Fill-92-Clipped">
                    <mask id="mask-46" fill="white">
                        <use xlink:href="#path-45"></use>
                    </mask>
                    <g id="path-9"></g>
                    <path d="M85.674,6.832 C86.329,4.818 88.793,0.327 87.549,-1.431 C86.299,-3.2 81.661,-2.821 79.848,-2.76 C59.919,-2.09 39.989,-1.42 20.059,-0.751 C21.213,3.522 21.259,7.506 22.9,11.733 C24.291,15.318 26.142,18.737 28.498,21.782 C33.211,27.875 39.862,32.142 47.442,33.629 C60.281,36.146 74.465,29.885 80.963,18.53 C83.055,14.875 84.372,10.837 85.674,6.832" id="Fill-92" fill="#E47155" fill-rule="nonzero" mask="url(#mask-46)"></path>
                </g>
            </g>
            <path d="M223.182,151.734 C229.426,158.832 241.427,159.397 249.828,156.492 C255.546,154.515 259.587,150.007 259.707,143.81 C259.841,136.881 253.764,131.958 252.228,125.501 C251.358,121.84 251.443,118.069 251.534,114.344 C251.638,109.996 251.669,105.637 251.88,101.297 C247.578,100.387 244.087,99.931 239.518,100.12 C235.737,100.276 231.96,99.882 228.181,100.103 C227.877,100.121 227.547,100.152 227.332,100.354 C227.116,100.557 227.076,100.876 227.05,101.17 C226.544,107.04 227.042,112.985 226.644,118.865 C226.28,124.269 225.069,129.71 221.904,134.186 C218.047,139.643 218.997,146.974 223.182,151.734" id="Fill-95" fill="#ED9B76" fill-rule="nonzero"></path>
            <path d="M234.671,38.361 C237.816,36.73 241.358,35.944 244.897,35.794 C248.446,35.634 252.002,36.093 255.46,36.884 C262.401,38.422 268.914,41.963 273.959,47.021 C279.025,52.043 282.561,58.695 283.563,65.818 C284.051,69.387 283.876,72.951 283.948,76.462 C284.016,79.952 284.297,83.515 285.747,86.622 C287.216,89.721 289.76,92.235 292.574,94.261 C295.405,96.307 298.539,97.945 301.563,99.814 C303.051,100.747 304.655,101.722 305.756,103.288 C306.866,104.874 307.103,106.812 307.128,108.591 C307.148,110.399 306.921,112.208 306.446,113.951 C305.987,115.707 305.168,117.331 304.494,118.93 C303.807,120.532 303.371,122.201 303.546,123.911 C303.696,125.616 304.278,127.277 305.007,128.86 C306.505,132.031 308.349,135.066 309.872,138.274 C311.391,141.473 312.563,144.904 312.834,148.458 C313.149,151.996 312.699,155.59 311.533,158.927 C312.622,155.564 312.983,151.978 312.59,148.482 C312.24,144.969 311.009,141.624 309.431,138.487 C307.873,135.329 306.002,132.33 304.434,129.128 C303.67,127.518 303.034,125.801 302.847,123.976 C302.632,122.144 303.097,120.28 303.782,118.64 C304.458,116.977 305.221,115.415 305.636,113.734 C306.076,112.062 306.292,110.331 306.263,108.604 C306.235,106.888 305.985,105.138 305.028,103.796 C304.075,102.44 302.576,101.507 301.086,100.589 C298.091,98.755 294.932,97.123 292.016,95.037 C289.117,92.964 286.432,90.367 284.843,87.048 C283.3,83.691 283.054,80.012 282.995,76.478 C282.939,72.928 283.123,69.395 282.663,65.943 C281.73,59.015 278.285,52.555 273.414,47.559 C268.535,42.538 262.188,38.978 255.345,37.357 C251.939,36.495 248.428,35.96 244.904,36.037 C241.391,36.105 237.853,36.803 234.671,38.361" id="Fill-96" fill="#73B0C4" fill-rule="nonzero"></path>
            <path d="M251.98,124.631 C251.301,121.228 251.371,117.742 251.454,114.295 C251.559,109.948 251.59,105.589 251.8,101.248 C247.498,100.339 244.007,99.883 239.438,100.071 C235.657,100.228 231.881,99.833 228.101,100.055 C227.798,100.072 227.467,100.104 227.253,100.306 C227.036,100.509 226.997,100.827 226.971,101.121 C226.465,106.991 226.963,112.936 226.565,118.817 C226.451,120.501 226.241,122.185 225.929,123.846 C226.523,124.366 227.128,124.864 227.749,125.323 C232.416,128.775 238.707,129.921 244.292,128.337 C247.132,127.531 249.686,126.259 251.98,124.631" id="Fill-97" fill="#D77158" fill-rule="nonzero"></path>
            <path d="M267.917,77.984 C267.799,72.227 266.926,66.777 265.381,62.263 C258.709,42.787 234.229,38.303 219.731,52.559 C203.564,68.458 210.374,105.82 227.828,118.728 C232.495,122.179 238.786,123.326 244.371,121.742 C261.269,116.949 268.281,95.969 267.917,77.984" id="Fill-98" fill="#ED9B76" fill-rule="nonzero"></path>
            <path d="M267.889,61.086 C262.634,41.18 238.542,34.947 223.056,48.125 C220.586,50.227 218.873,52.736 217.111,55.416 C215.616,57.691 213.536,59.413 212.217,61.913 C210.863,64.482 210.018,67.321 209.738,70.212 C209.465,73.026 210.383,75.488 210.456,78.193 C210.381,75.369 211.608,72.538 213.719,70.662 C215.361,69.204 217.434,68.348 219.345,67.266 C221.257,66.184 223.125,64.73 223.844,62.655 C230.005,70.73 239.565,73.203 248.97,75.533 C256.862,77.489 265.522,82.464 265.701,91.68 C265.723,92.849 265.803,93.173 266.307,94.7 C266.861,93.314 267.063,92.299 267.231,90.82 C267.401,89.318 267.837,87.821 268.131,86.319 C268.736,83.228 269.126,80.094 269.288,76.949 C269.586,71.198 269.107,65.699 267.889,61.086" id="Fill-99" fill="#D77158" fill-rule="nonzero"></path>
            <path d="M272.376,95.259 C273.936,94.07 275.137,92.321 275.805,90.487 C277.909,84.302 277.682,77.457 277.425,70.831 C277.282,67.135 277.131,63.387 276.12,59.866 C275.016,56.024 272.926,52.612 270.453,49.688 C263.314,41.246 252.661,36.957 242.418,37.833 C238.303,38.185 235.279,40.156 231.666,41.829 C228.138,43.462 223.995,44.359 220.284,45.582 C216.004,46.994 211.597,48.475 208.201,51.439 C205.718,53.605 203.911,56.464 202.619,59.495 C201.069,63.129 200.919,67.171 201.362,71.048 C201.726,74.243 202.146,77.654 203.564,80.636 C204.891,83.429 207.846,85.253 210.492,86.645 C210.099,86.439 210.439,81.829 210.428,81.119 C210.369,77.048 210.591,72.867 211.866,68.971 C213.097,65.162 215.536,62.831 218.707,60.508 C219.979,59.576 221.247,58.619 222.309,57.445 C222.841,56.859 225.154,54.157 224.775,53.321 C226.574,57.29 229.392,61.363 232.916,63.965 C239.614,68.909 247.069,72.401 254.632,75.345 C255.188,75.562 255.749,75.779 256.307,76.003 C258.386,76.837 260.434,77.787 262.143,79.342 C265.957,82.812 266.233,88.146 266.091,92.955 C266.076,93.482 266.065,94.022 266.234,94.521 C267.031,96.881 270.846,96.424 272.376,95.259" id="Fill-100" fill="#152439" fill-rule="nonzero"></path>
            <polyline id="Fill-101" fill="#B4CCC3" fill-rule="nonzero" points="166.984 211.128 165.771 214.006 310.532 214.006 309.08 210.771 166.984 211.128"></polyline>
            <path d="M237.652,353.256 C243.059,354.513 248.816,354.987 253.869,355.873 C256.146,356.272 258.425,356.672 260.724,356.919 C264.377,357.311 268.057,357.316 271.73,357.322 C274.399,357.326 277.067,357.329 279.736,357.333242 C281.19,357.335 282.709,357.322 283.998,356.649 C285.537,355.845 286.47,354.252 287.323,352.739 C289.015,349.736 291.058,346.886 292.436,343.715 C293.265,341.807 293.632,340.281 294.855,338.608 C296.035,336.997 297.174,334.895 296.333,332.876 C295.339,330.494 292.27,329.9 289.69,329.857 C287.513,329.82 285.334,329.935 283.173,330.199 C274.614,331.246 266.463,334.622 257.892,335.574 C252.408,336.182 246.887,335.781 241.396,335.495 C237.012,335.266 230.287,334.137 226.371,336.657 C224.77,337.687 222.289,340.175 222.093,342.14 C221.847,344.617 224.616,347.201 226.376,348.496 C229.624,350.887 233.537,352.298 237.652,353.256" id="Fill-102" fill="#ED9B76" fill-rule="nonzero"></path>
            <path d="M292.275,344.063 C292.327,343.947 292.385,343.833 292.436,343.715 C293.265,341.807 293.632,340.281 294.855,338.608 C296.035,336.997 297.174,334.895 296.333,332.876 C295.34,330.494 292.27,329.9 289.69,329.857 C287.513,329.82 285.334,329.935 283.173,330.199 C274.614,331.246 266.463,334.622 257.892,335.574 C253.39,336.074 248.864,335.891 244.349,335.652 C241.079,337.116 229.29,340.959 223.707,346.032 C224.55,347.034 225.568,347.902 226.376,348.496 C229.624,350.887 233.537,352.298 237.652,353.256 C241.067,354.049 244.62,354.531 248.049,355.002 C259.491,352.985 270.769,349.46 281.931,346.681 C285.365,345.827 288.816,344.957 292.275,344.063" id="Fill-103" fill="#D77158" fill-rule="nonzero"></path>
            <path d="M300.545,305.482 L175.706,305.482 L166.761,212.542 C166.601,210.875 167.89,209.431 169.539,209.431 L306.711,209.431 C308.359,209.431 309.649,210.875 309.489,212.542 L300.545,305.482" id="Fill-104" fill="#B4CCC3" fill-rule="nonzero"></path>
            <path d="M256.352,356.37 C261.112,355.909 267.142,354.921 270.396,351.417 C272.888,348.733 273.834,345.162 273.813,341.5 C273.793,337.923 271.003,335.097 267.809,333.488 C276.146,329.167 283.949,329.115 291.504,332.008 C292.335,332.327 293.143,332.738 293.907,333.226 C304.058,339.724 297.353,352.413 289,356.889 C285.2,358.926 280.867,359.904 276.554,359.757 C273.078,359.638 270.76,359.247 267.313,358.833 C263.146,358.333 261.063,357.333 256.352,356.37" id="Fill-105" fill="#167F82" fill-rule="nonzero"></path>
            <path d="M301.524,308.11 L174.725,308.11 L165.641,215.17 C165.478,213.503 166.788,212.059 168.463,212.059 L307.787,212.059 C309.462,212.059 310.771,213.503 310.608,215.17 L301.524,308.11" id="Fill-106" fill="#FFFFFE" fill-rule="nonzero"></path>
            <polygon id="Fill-107" fill="#B4CCC3" fill-rule="nonzero" points="174.725 313.75 301.448 313.75 301.448 308.11 174.725 308.11"></polygon>
            <path d="M246.917,260.085 C246.917,264.94 242.98,268.877 238.125,268.877 C233.269,268.877 229.333,264.94 229.333,260.085 C229.333,255.229 233.269,251.293 238.125,251.293 C242.98,251.293 246.917,255.229 246.917,260.085" id="Fill-108" fill="#B4CCC3" fill-rule="nonzero"></path>
            <path d="M208.582,319.29 C216.087,323.662 223.666,328.075 231.332,332.083 C231.484,332.162 231.638,332.237 231.794,332.311 C235.067,333.875 238.458,335.176 241.713,336.786 C243.783,337.809 245.823,338.908 247.762,340.165 C248.674,340.756 249.564,341.382 250.41,342.065 C250.752,342.341 251.331,342.687 251.549,343.074 C251.829,343.567 251.7,344.361 251.507,344.857 C251.301,345.384 250.957,345.846 250.579,346.268 C249.074,347.951 247.044,349.064 245.006,350.039 C243.747,350.64 242.468,351.201 241.171,351.713 C239.974,352.183 238.654,352.808 237.391,353.052 C236.794,353.168 236.066,352.965 235.459,352.882 C234.784,352.79 234.111,352.69 233.439,352.584 C232.093,352.372 230.752,352.132 229.415,351.872 C223.306,350.677 217.3,349.018 211.341,347.234 C205.43,345.465 199.557,343.566 193.628,341.857 C165.627,333.791 136.5,324.752 112.117,308.365 C106.5,304.577 100.845,298.987 98.449,292.55 C92.165,275.625 110.149,262.515 125.495,268.891 C151.126,279.54 172.246,298.632 196.416,312.276 C200.45,314.553 204.505,316.916 208.582,319.29" id="Fill-109" fill="#ED9B76" fill-rule="nonzero"></path>
            <path d="M265.858,346.966 C271.5,345.265 277.102,343.465 282.683,341.857 C310.684,333.791 339.811,324.752 364.194,308.365 C369.811,304.577 375.465,298.987 377.862,292.55 C384.146,275.625 366.162,262.515 350.815,268.891 C325.185,279.54 304.065,298.632 279.895,312.276 C275.861,314.553 271.806,316.916 267.729,319.29 C264.228,321.33 260.711,323.378 257.175,325.39" id="Fill-110" fill="#152439" fill-rule="nonzero"></path>
            <path d="M257.175,325.39 C253.133,327.691 249.069,329.945 244.979,332.083 C240.798,334.268 216.104,342.798 222.856,351.706 C224.182,353.455 226.69,353.663 228.885,353.684 C241.503,353.805 253.77,350.612 265.858,346.966" id="Fill-111" fill="#ED9B76" fill-rule="nonzero"></path>
            <path d="M231.318,332.083 C229.035,330.888 226.761,329.652 224.493,328.397 C220.55,329.341 216.584,330.191 212.535,330.499 C203.936,331.15 195.3,329.343 186.696,329.899 C184.523,330.04 182.361,330.331 180.228,330.77 C177.701,331.291 174.795,332.443 174.259,334.967 C174.18,335.342 174.179,335.705 174.209,336.06 C180.69,338.093 187.181,340.005 193.615,341.857 C202.385,344.384 211.212,347.386 220.16,349.734 L220.249,349.701 C225.049,347.894 230.618,346.363 235.7,344.126 C239.084,342.635 242.252,340.833 244.833,338.426 C239.34,335.378 233.217,333.075 231.318,332.083" id="Fill-112" fill="#D77158" fill-rule="nonzero"></path>
            <path d="M210.466,346.966 C204.825,345.265 199.221,343.465 193.641,341.857 C165.64,333.791 136.513,324.752 112.131,308.365 C106.513,304.577 100.859,298.987 98.463,292.55 C92.177,275.625 110.163,262.515 125.508,268.891 C151.139,279.54 172.259,298.632 196.428,312.276 C200.464,314.553 204.518,316.916 208.595,319.29 C212.096,321.33 215.614,323.378 219.148,325.39" id="Fill-113" fill="#152439" fill-rule="nonzero"></path>
            <path d="M238.127,353.256 C232.718,354.513 226.963,354.987 221.91,355.873 C219.632,356.272 217.353,356.672 215.053,356.919 C211.402,357.311 207.721,357.316 204.049,357.322 C201.38,357.326 198.711,357.329 196.043,357.333242 C194.589,357.335 193.07,357.322 191.781,356.649 C190.242,355.845 189.307,354.252 188.455,352.739 C186.763,349.736 184.719,346.886 183.342,343.715 C182.441,341.64 181.494,339.606 182.713,337.441 C183.31,336.38 184.215,335.527 185.138,334.734 C186.324,333.717 187.576,332.762 188.969,332.059 C193.555,329.748 198.223,331.108 202.901,332.312 C207.851,333.586 212.792,335.007 217.886,335.574 C223.371,336.182 228.891,335.781 234.382,335.495 C238.766,335.266 245.492,334.137 249.407,336.657 C251.007,337.687 253.49,340.175 253.685,342.14 C253.931,344.617 251.162,347.201 249.403,348.496 C246.155,350.887 242.241,352.298 238.127,353.256" id="Fill-114" fill="#ED9B76" fill-rule="nonzero"></path>
            <path d="M218.877,356.37 C214.118,355.909 208.087,354.921 204.834,351.417 C202.341,348.733 201.396,345.162 201.417,341.5 C201.437,337.923 204.226,335.097 207.42,333.488 C199.084,329.167 191.281,329.115 183.725,332.008 C182.894,332.327 182.086,332.738 181.323,333.226 C171.172,339.724 177.877,352.413 186.229,356.889 C190.03,358.926 194.363,359.904 198.674,359.757 C202.152,359.638 204.469,359.247 207.917,358.833 C212.084,358.333 214.167,357.333 218.877,356.37" id="Fill-115" fill="#167F82" fill-rule="nonzero"></path>
        </g>
        <g id="Group" transform="translate(221.000000, 76.000000)" fill="#152439" fill-opacity="0.8">
            <path d="M30.9911613,16.6986931 C30.859238,18.6298427 29.1897264,20.1019825 27.2609174,19.9944666 C25.3275592,19.8869508 23.8764034,18.2328612 24.0083266,16.3017116 C24.144799,14.370562 25.8143106,12.894287 27.7431196,13.005938 C29.6673796,13.1134539 31.1276336,14.7675435 30.9911613,16.6986931" id="Fill-13"></path>
            <path d="M7.99170205,14.7006653 C7.85531788,16.6287071 6.18233875,18.1057692 4.25932197,17.9940586 C2.33175906,17.8864855 0.872448454,16.2315139 1.00883262,14.2993347 C1.14067065,12.3712929 2.81364979,10.8942308 4.7412127,11.0059414 C6.66877562,11.1135145 8.12354008,12.7684861 7.99170205,14.7006653" id="Fill-14"></path>
            <path d="M35.8733792,10 C35.4703228,9.97827805 35.0957653,9.7132703 34.9369855,9.28317574 C32.4250078,2.54937208 26.6600801,4.54344684 26.4117322,4.63033463 C25.8539673,4.83017654 25.2514183,4.51303611 25.0559971,3.91785476 C24.8687183,3.31832901 25.1659215,2.67101498 25.7277577,2.47117307 C28.4595843,1.48065227 34.3181515,1.46327471 36.9237685,8.44036418 C37.1436175,9.02251237 36.8708419,9.68720396 36.3252909,9.92180099 L35.8733792,10" id="Fill-15"></path>
            <path d="M9.67629621,2.57499969 L8.78247488,2.66098376 C4.10216996,0.00366665853 1.64698985,4.37247613 1.54516211,4.56082218 C1.30756403,4.98664803 0.805968097,5.12586033 0.406199909,4.87609709 C0.0139745158,4.62223937 -0.118024414,4.06948465 0.115802262,3.63956432 C1.25853586,1.54319089 4.70559364,-1.69144779 9.55561147,1.06004233 C9.95915106,1.29342765 10.1175498,1.83799341 9.90635149,2.28019718 L9.67629621,2.57499969" id="Fill-16"></path>
            <path d="M19.0802715,34.730089 L19.9210103,34.1992581 C25.8273057,34.1543416 26.1314926,29.0746978 26.1441671,28.8582821 C26.169516,28.3601177 26.6004474,27.9803694 27.1116504,28.000786 C27.6228534,28.0212026 28.0242111,28.441784 27.9988621,28.9399484 C27.8890169,31.3613542 26.0512211,35.9510002 19.9336848,36 C19.4224818,36 19,35.5998351 19,35.1016707 L19.0802715,34.730089" id="Fill-17"></path>
            <path d="M9.46718852,30.9858859 C7.30678216,30.8460532 6.21296297,29.7138597 5.79086677,29.1094217 C4.77874363,27.6975627 4.73335694,25.7308839 5.68193872,24.3280464 C6.69406187,22.8124406 9.21756173,22.1087666 9.50349787,22.0320841 C10.0753701,21.8922514 10.6517811,22.2215348 10.8015571,22.7853763 C10.9558719,23.3492177 10.6200104,23.9220806 10.0526768,24.0799562 C9.21756173,24.2964713 7.85596109,24.8873771 7.45201956,25.5008366 C6.98907534,26.181957 7.02084602,27.1833394 7.52009959,27.8870135 C8.22813193,28.8748636 9.69866063,29.1409968 11.6684429,28.6403056 C12.2539312,28.4914515 12.8212648,28.834267 12.9665022,29.3981085 C13.1117396,29.9664606 12.7713394,30.5393235 12.2040058,30.6836669 C11.1374186,30.9588215 10.2342235,31.035504 9.46718852,30.9858859" id="Fill-18"></path>
        </g>
    </g>
</svg>