<?xml version="1.0" encoding="UTF-8"?>
<svg width="372px" height="347px" viewBox="0 0 372 347" version="1.1" xmlns="http://www.w3.org/2000/svg" xmlns:xlink="http://www.w3.org/1999/xlink">
    <!-- Generator: Sketch 57 (83077) - https://sketch.com -->
    <title>32</title>
    <desc>Created with Sketch.</desc>
    <defs>
        <polygon id="path-1" points="0 0.408 371.844 0.408 371.844 27.94 0 27.94"></polygon>
        <path d="M102.816,145.899 C99.943,138.265 95.619,132.017 93.136,124.127 C89.766,113.42 87.472,98.152 91.34,87.069 C95.447,75.3 100.486,66.016 100.793,52.908 C101.055,41.684 98.793,30.629 96.543,19.698 C94.314,8.87 93.305,5.726 82.704,4.075 C78.925,3.487 75.194,2.464 71.425,1.794 C65.03,0.659 58.547,0.149 52.052,0.139 L52.052,0.135 L51.798,0.137 L51.545,0.135 L51.545,0.139 C45.049,0.149 38.566,0.659 32.172,1.794 C28.401,2.464 24.671,3.487 20.892,4.075 C10.291,5.726 9.281,8.87 7.053,19.698 C4.803,30.629 2.541,41.684 2.804,52.908 C3.109,66.016 8.148,75.3 12.256,87.069 C16.125,98.152 13.83,113.42 10.46,124.127 C7.977,132.017 3.652,138.265 0.779,145.899 C0.556,146.496 0.337,147.147 0.509,147.769 C0.73,148.567 1.508,149.037 2.221,149.41 C16.31,156.771 32.101,158.984 47.545,160.123 C48.901,160.223 50.222,160.319 51.525,160.404 L51.525,160.441 L51.798,160.423 C51.889,160.429 51.98,160.435 52.071,160.441 L52.071,160.404 C53.374,160.319 54.694,160.223 56.051,160.123 C71.494,158.984 87.286,156.771 101.375,149.41 C102.089,149.037 102.866,148.567 103.087,147.769 C103.26,147.147 103.041,146.496 102.816,145.899" id="path-3"></path>
    </defs>
    <g id="Page-1" stroke="none" stroke-width="1" fill="none" fill-rule="evenodd">
        <g id="32">
            <g id="Group-3" transform="translate(0.000000, 319.000000)">
                <mask id="mask-2" fill="white">
                    <use xlink:href="#path-1"></use>
                </mask>
                <g id="Clip-2"></g>
                <path d="M185.922,28.001 C83.24,28.001 0,21.823 0,14.204 C0,6.585 83.24,0.408 185.922,0.408 C288.604,0.408 371.844,6.585 371.844,14.204 C371.844,21.823 288.604,28.001 185.922,28.001" id="Fill-1" fill="#E8E8E3" mask="url(#mask-2)"></path>
            </g>
            <path d="M251.702,161.834 C241.324,166.069 228.242,164.788 219.078,158.269 C209.868,151.719 201.423,146.902 189.721,146.555 C182.453,146.339 175.64,149.379 168.715,151.115 C162.627,152.64 157.976,157.53 151.413,158.43 C142.788,159.612 133.929,154.308 130.05,146.514 C126.171,138.72 127.018,129.018 131.357,121.471 C134.525,115.962 137.438,111.85 133.879,105.707 C133.103,104.369 132.128,103.13 131.598,101.678 C131.096,100.307 131.019,98.817 131.077,97.358 C131.398,89.4 137.427,83.433 141.444,76.86 C142.383,75.324 143.326,73.73 143.61,71.952 C144.332,67.428 140.736,63.516 138.819,59.354 C132.609,45.869 143.207,30.531 153.521,22.439 C159.606,17.665 166.899,15.739 173.463,11.849 C176.451,10.077 179.176,7.882 182.2,6.173 C187.474,3.192 193.221,3.065 199.076,3.886 C215.756,6.225 234.72,18.35 238.585,35.8 C241.205,47.628 236.915,61.38 248.633,69.661 C252.162,72.155 256.621,73.639 259.028,77.228 C264.144,84.856 256.627,96.157 261.305,104.061 C262.348,105.824 263.907,107.209 265.326,108.686 C272.815,116.482 276.68,127.625 275.627,138.384 C275.37,141.01 274.818,143.656 273.521,145.953 C271.741,149.108 268.724,151.34 265.774,153.444 C261.361,156.593 256.856,159.7 251.847,161.774 L251.702,161.834" id="Fill-4" fill="#50332F"></path>
            <path d="M267.148,117.276 C263.497,114.144 261.915,109.245 261.915,104.257 C261.915,102.441 262.125,100.616 262.518,98.872 C263.435,94.761 265.277,90.664 265.284,86.262 C265.284,86.067 265.281,85.872 265.273,85.677 C265.041,79.867 261.041,74.44 255.561,72.5 C252.771,71.526 249.829,71.395 247.38,70.217 C245.524,69.333 244.079,67.955 242.913,66.308 C241.749,64.662 240.873,62.749 240.171,60.829 C239.344,58.568 239.159,56.497 239.159,54.327 C239.158,52.618 239.275,50.852 239.276,48.917 L239.275,48.713 C239.252,43.036 239.108,37.344 238.53,31.674 C237.843,25.004 233.888,18.486 229.369,13.749 C228.719,13.068 228.042,12.413 227.339,11.786 L227.323,11.773 L227.339,11.787 C219.812,5.074 207.998,0.812 196.787,0.807 C190.458,0.807 184.313,2.172 179.255,5.269 C176.419,7.011 174.69,9.378 172.549,11.56 C170.397,13.761 167.568,15.574 164.91,17.241 C159.554,20.603 153.773,23.263 148.07,26.089 C144.425,27.897 140.665,29.86 137.906,33.011 C134.734,36.64 133.27,41.508 133.269,46.287 C133.269,46.516 133.273,46.744 133.279,46.973 C133.426,51.966 135.063,56.794 137.328,61.19 C138.93,64.294 140.827,67.21 141.805,70.428 C142.096,71.383 142.228,72.324 142.228,73.248 C142.236,77.281 139.658,81.063 136.479,83.822 C133.5,86.422 129.957,88.845 128.219,92.649 C127.554,94.114 127.226,95.716 127.226,97.317 C127.226,99.182 127.671,101.048 128.56,102.699 C129.328,104.125 130.367,105.333 131.366,106.522 C132.366,107.71 133.326,108.879 133.975,110.198 C134.616,111.496 134.94,112.95 134.939,114.405 C134.94,115.778 134.651,117.151 134.076,118.392 C133.422,119.809 132.369,121.234 131.459,122.7 C130.555,124.166 129.773,125.69 129.769,127.364 C129.769,127.893 129.85,128.434 130.03,128.977 L130.979,128.662 C130.833,128.221 130.769,127.792 130.769,127.364 C130.764,126.021 131.427,124.646 132.309,123.227 C133.187,121.807 134.265,120.36 134.984,118.812 C135.623,117.432 135.939,115.918 135.939,114.405 C135.939,112.802 135.584,111.199 134.872,109.755 C134.152,108.298 133.133,107.072 132.131,105.878 C131.127,104.686 130.139,103.525 129.44,102.225 C128.635,100.73 128.225,99.023 128.226,97.317 C128.226,95.852 128.527,94.39 129.13,93.062 C130.696,89.591 134.084,87.218 137.135,84.576 C140.435,81.705 143.22,77.723 143.228,73.248 C143.228,72.228 143.081,71.186 142.761,70.137 C141.723,66.739 139.783,63.776 138.217,60.732 C135.997,56.426 134.418,51.735 134.279,46.943 C134.273,46.725 134.269,46.506 134.269,46.287 C134.269,41.708 135.679,37.072 138.659,33.669 C141.249,30.705 144.879,28.783 148.514,26.985 C154.199,24.167 160.012,21.495 165.442,18.088 C168.104,16.416 170.997,14.573 173.264,12.26 C175.466,10.003 177.14,7.734 179.778,6.122 C184.635,3.145 190.599,1.807 196.787,1.807 C207.745,1.802 219.383,6.016 226.673,12.533 C227.356,13.142 228.015,13.778 228.646,14.439 C233.057,19.053 236.893,25.434 237.535,31.776 C238.108,37.394 238.252,43.054 238.275,48.717 L238.276,48.917 C238.276,50.811 238.159,52.573 238.159,54.327 C238.158,56.551 238.351,58.769 239.232,61.173 C239.952,63.142 240.859,65.134 242.097,66.885 C243.333,68.635 244.908,70.148 246.95,71.12 C249.653,72.398 252.635,72.519 255.228,73.443 C260.301,75.224 264.074,80.342 264.274,85.715 C264.281,85.898 264.284,86.08 264.284,86.262 C264.292,90.377 262.503,94.412 261.542,98.652 C261.134,100.468 260.916,102.364 260.916,104.257 C260.916,109.444 262.556,114.645 266.496,118.035 L267.148,117.276" id="Fill-5" fill="#50332F"></path>
            <path d="M320.467,277.339 C317.39,281.218 313.354,284.588 309.366,287.369 C287.601,302.55 261.592,312.932 235.806,319.623 C212.771,325.599 188.632,325.333 165.073,323.014 C148.972,321.429 132.95,316.438 117.42,311.807 C101.442,307.044 85.685,301.369 70.794,293.826 C59.062,287.884 48.55,280.507 46.761,266.466 C46.058,260.942 47.27,254.826 51.499,251.08 C56.594,246.567 64.304,246.719 71.171,247.25 C110.087,250.264 147.773,263.372 186.958,263.614 C208.828,263.75 229.218,258.062 250.232,252.92 C266.443,248.952 284.44,244.59 301.321,245.421 C316.625,246.175 331.757,263.105 320.467,277.339" id="Fill-6" fill="#4390A3"></path>
            <path d="M136.117,244.462 C135.689,243.494 135.258,242.506 134.803,241.488 C130.056,230.874 126.579,219.69 124.47,208.256 C123.709,204.134 122.937,199.622 119.787,196.857 C115.428,193.03 106.937,193.52 101.538,194.244 C99.016,194.581 96.378,195.452 94.854,197.491 C92.33,200.869 92.583,208.495 92.483,212.567 C91.88,237.311 111.441,257.766 127.37,274.465 C130.436,277.68 133.767,280.931 138.015,282.23 C142.264,283.53 147.658,282.18 149.518,278.143 C150.882,275.182 150.045,271.703 148.965,268.625 C147.109,263.332 144.313,258.484 141.133,253.886 C138.983,250.778 137.569,247.741 136.117,244.462" id="Fill-7" fill="#ED9B76"></path>
            <path d="M229.723,109.995 C230.373,114.309 229.881,118.744 227.988,122.682 C222.883,133.306 210.241,135.377 199.582,135.792 C195.635,135.946 191.67,135.748 187.763,135.166 C184.281,134.647 181.18,135.177 177.662,135.097 C170.709,134.938 163.796,132.886 157.921,129.155 C155.063,127.34 152.372,125.048 150.906,121.997 C148.891,117.803 149.477,112.847 150.544,108.317 C151.159,105.702 151.932,103.093 153.275,100.766 C154.712,98.277 156.774,96.162 157.972,93.548 C160.223,88.637 158.372,82.896 160.374,78.078 C161.94,74.305 165.881,70.047 169.149,67.688 C173.599,64.479 179.337,63.465 184.81,63.837 C190.282,64.21 195.579,65.86 200.793,67.565 C204.898,68.908 208.427,68.077 211.437,71.468 C213.825,74.156 212.991,78.543 213.754,81.8 C216.319,92.753 227.995,98.533 229.723,109.995" id="Fill-8" fill="#372228"></path>
            <path d="M154.227,158.642 C147.26,170.583 139.419,182.04 131.925,193.653 C127.739,200.138 123.503,206.731 121.26,214.116 C110.928,213.862 100.566,211.678 90.419,209.736 C92.05,196.031 99.283,183.608 105.755,171.663 C112.497,159.219 119.759,147.056 126.102,134.397 C131.261,124.104 140.896,111.822 153.782,118.009 C163.697,122.771 162.155,136.411 160.108,145.21 C159.015,149.909 156.745,154.324 154.227,158.642" id="Fill-9" fill="#DC3E59"></path>
            <path d="M232.278,244.462 C232.706,243.494 233.138,242.506 233.593,241.488 C238.34,230.874 241.816,219.69 243.926,208.256 C244.686,204.134 245.458,199.622 248.608,196.857 C252.968,193.03 261.458,193.52 266.857,194.244 C269.38,194.581 272.018,195.452 273.541,197.491 C276.065,200.869 275.812,208.495 275.912,212.567 C276.516,237.311 256.954,257.766 241.025,274.465 C237.959,277.68 234.629,280.931 230.38,282.23 C226.132,283.53 220.737,282.18 218.878,278.143 C217.514,275.182 218.351,271.703 219.431,268.625 C221.286,263.332 224.082,258.484 227.263,253.886 C229.412,250.778 230.826,247.741 232.278,244.462" id="Fill-10" fill="#ED9B76"></path>
            <path d="M214.169,158.642 C221.136,170.583 228.977,182.04 236.471,193.653 C240.656,200.138 244.893,206.731 247.136,214.116 C257.468,213.862 267.829,211.678 277.977,209.736 C276.346,196.031 269.112,183.608 262.641,171.663 C255.898,159.219 248.637,147.056 242.293,134.397 C237.135,124.104 227.498,111.822 214.613,118.009 C204.698,122.771 206.24,136.411 208.287,145.21 C209.381,149.909 211.65,154.324 214.169,158.642" id="Fill-11" fill="#DC3E59"></path>
            <path d="M235.816,255.899 C232.943,248.265 228.619,242.017 226.136,234.127 C222.766,223.42 220.472,208.152 224.34,197.069 C228.447,185.3 233.486,176.016 233.793,162.908 C234.055,151.684 231.793,140.629 229.543,129.698 C227.314,118.87 226.305,115.726 215.704,114.076 C211.925,113.487 208.194,112.464 204.425,111.794 C198.03,110.659 191.547,110.149 185.052,110.139 L185.052,110.135 L184.798,110.137 L184.545,110.135 L184.545,110.139 C178.049,110.149 171.566,110.659 165.172,111.794 C161.401,112.464 157.671,113.487 153.893,114.076 C143.291,115.726 142.281,118.87 140.053,129.698 C137.803,140.629 135.541,151.684 135.804,162.908 C136.109,176.016 141.148,185.3 145.256,197.069 C149.125,208.152 146.83,223.42 143.46,234.127 C140.977,242.017 136.652,248.265 133.779,255.899 C133.556,256.496 133.337,257.147 133.509,257.769 C133.73,258.567 134.508,259.037 135.221,259.41 C149.311,266.771 165.102,268.984 180.545,270.123 C181.901,270.223 183.222,270.319 184.525,270.404 L184.525,270.441 L184.798,270.423 C184.889,270.429 184.98,270.435 185.071,270.441 L185.071,270.404 C186.374,270.319 187.694,270.223 189.051,270.123 C204.494,268.984 220.286,266.771 234.375,259.41 C235.089,259.037 235.866,258.567 236.087,257.769 C236.26,257.147 236.041,256.496 235.816,255.899" id="Fill-12" fill="#E25F6C"></path>
            <g id="Group-15" transform="translate(133.000000, 110.000000)">
                <mask id="mask-4" fill="white">
                    <use xlink:href="#path-3"></use>
                </mask>
                <g id="Clip-14"></g>
                <path d="M85.348,6.348 C86.002,4.334 88.466,-0.156 87.223,-1.915 C85.973,-3.683 81.334,-3.304 79.521,-3.243 C59.592,-2.573 39.662,-1.903 19.732,-1.234 C20.886,3.039 20.933,7.023 22.573,11.249 C23.964,14.834 25.815,18.254 28.171,21.299 C32.884,27.391 39.535,31.659 47.115,33.145 C59.954,35.663 74.138,29.402 80.636,18.047 C82.728,14.391 84.045,10.354 85.348,6.348" id="Fill-13" fill="#ED9B76" mask="url(#mask-4)"></path>
            </g>
            <path d="M169.855,131.251 C176.1,138.349 188.101,138.913 196.501,136.009 C202.219,134.032 206.26,129.524 206.38,123.327 C206.515,116.398 200.437,111.475 198.901,105.018 C198.031,101.357 198.116,97.585 198.207,93.861 C198.311,89.513 198.342,85.154 198.553,80.814 C194.251,79.904 190.76,79.448 186.191,79.637 C182.41,79.793 178.633,79.398 174.854,79.62 C174.55,79.638 174.22,79.669 174.005,79.871 C173.789,80.074 173.749,80.393 173.724,80.686 C173.217,86.557 173.715,92.501 173.317,98.382 C172.953,103.786 171.742,109.227 168.577,113.703 C164.72,119.16 165.67,126.491 169.855,131.251" id="Fill-16" fill="#ED9B76"></path>
            <path d="M181.344,17.878 C184.489,16.247 188.031,15.46 191.57,15.311 C195.119,15.151 198.675,15.61 202.133,16.401 C209.074,17.938 215.587,21.479 220.632,26.538 C225.698,31.559 229.234,38.212 230.236,45.334 C230.725,48.904 230.549,52.468 230.621,55.979 C230.689,59.469 230.97,63.032 232.42,66.139 C233.89,69.238 236.434,71.752 239.247,73.778 C242.078,75.824 245.212,77.462 248.236,79.331 C249.725,80.264 251.328,81.239 252.429,82.805 C253.539,84.391 253.776,86.329 253.801,88.108 C253.821,89.916 253.594,91.725 253.119,93.468 C252.66,95.224 251.841,96.848 251.167,98.447 C250.48,100.049 250.044,101.718 250.219,103.428 C250.369,105.133 250.951,106.794 251.68,108.377 C253.178,111.548 255.022,114.582 256.545,117.79 C258.064,120.99 259.236,124.421 259.507,127.974 C259.822,131.513 259.372,135.107 258.206,138.444 C259.295,135.081 259.656,131.494 259.264,127.998 C258.913,124.486 257.683,121.141 256.104,118.004 C254.546,114.846 252.675,111.847 251.107,108.645 C250.343,107.035 249.707,105.318 249.52,103.493 C249.305,101.661 249.77,99.797 250.455,98.157 C251.131,96.494 251.894,94.932 252.31,93.25 C252.749,91.579 252.965,89.848 252.936,88.121 C252.908,86.405 252.658,84.655 251.701,83.313 C250.748,81.957 249.249,81.024 247.759,80.106 C244.765,78.271 241.605,76.64 238.689,74.554 C235.79,72.48 233.105,69.884 231.517,66.565 C229.974,63.207 229.727,59.529 229.668,55.995 C229.612,52.445 229.796,48.912 229.336,45.46 C228.403,38.532 224.958,32.072 220.087,27.076 C215.208,22.055 208.861,18.495 202.019,16.873 C198.612,16.012 195.102,15.476 191.577,15.554 C188.064,15.622 184.526,16.32 181.344,17.878" id="Fill-17" fill="#A66B54"></path>
            <path d="M198.653,104.147 C197.975,100.745 198.044,97.259 198.127,93.812 C198.232,89.465 198.263,85.106 198.474,80.765 C194.171,79.856 190.681,79.4 186.111,79.588 C182.33,79.745 178.554,79.35 174.774,79.572 C174.471,79.589 174.141,79.621 173.926,79.823 C173.709,80.025 173.67,80.344 173.644,80.638 C173.138,86.508 173.636,92.453 173.238,98.333 C173.124,100.018 172.914,101.702 172.602,103.363 C173.196,103.883 173.801,104.381 174.422,104.84 C179.089,108.291 185.38,109.438 190.965,107.854 C193.805,107.048 196.359,105.776 198.653,104.147" id="Fill-18" fill="#D77158"></path>
            <path d="M214.59,57.501 C214.473,51.744 213.6,46.294 212.054,41.78 C205.382,22.304 180.902,17.82 166.404,32.076 C150.237,47.975 157.047,85.337 174.501,98.245 C179.168,101.696 185.459,102.843 191.044,101.259 C207.942,96.466 214.954,75.486 214.59,57.501" id="Fill-19" fill="#ED9B76"></path>
            <path d="M214.562,40.603 C209.308,20.697 185.215,14.464 169.729,27.642 C167.259,29.744 165.546,32.252 163.784,34.933 C162.289,37.208 160.209,38.93 158.891,41.43 C157.536,43.999 156.691,46.838 156.411,49.728 C156.138,52.543 157.057,55.004 157.129,57.709 C157.054,54.886 158.281,52.055 160.393,50.179 C162.034,48.721 164.107,47.865 166.019,46.783 C167.93,45.701 169.798,44.246 170.518,42.171 C176.678,50.247 186.238,52.72 195.644,55.05 C203.535,57.006 212.195,61.981 212.374,71.197 C212.396,72.366 212.477,72.69 212.98,74.217 C213.534,72.831 213.736,71.816 213.904,70.337 C214.074,68.835 214.51,67.338 214.804,65.836 C215.409,62.745 215.799,59.611 215.961,56.466 C216.259,50.715 215.78,45.216 214.562,40.603" id="Fill-20" fill="#D77158"></path>
            <path d="M219.049,74.776 C220.609,73.586 221.811,71.838 222.478,70.003 C224.582,63.819 224.355,56.974 224.099,50.348 C223.955,46.652 223.804,42.904 222.793,39.383 C221.689,35.541 219.6,32.128 217.126,29.204 C209.987,20.763 199.334,16.474 189.091,17.35 C184.977,17.702 181.952,19.673 178.339,21.346 C174.811,22.979 170.668,23.875 166.957,25.099 C162.677,26.511 158.27,27.992 154.874,30.955 C152.392,33.122 150.584,35.98 149.292,39.012 C147.742,42.645 147.592,46.687 148.035,50.565 C148.399,53.76 148.819,57.17 150.237,60.153 C151.564,62.946 154.519,64.77 157.165,66.162 C156.772,65.955 157.112,61.346 157.102,60.636 C157.042,56.565 157.265,52.384 158.539,48.488 C159.77,44.679 162.209,42.348 165.38,40.024 C166.652,39.093 167.92,38.136 168.982,36.962 C169.515,36.376 171.827,33.674 171.448,32.838 C173.247,36.807 176.065,40.88 179.589,43.482 C186.287,48.426 193.742,51.918 201.305,54.862 C201.861,55.079 202.422,55.295 202.98,55.519 C205.06,56.354 207.107,57.304 208.816,58.859 C212.63,62.329 212.906,67.663 212.765,72.472 C212.749,72.999 212.738,73.538 212.907,74.038 C213.704,76.398 217.519,75.94 219.049,74.776" id="Fill-21" fill="#50332F"></path>
            <polyline id="Fill-22" fill="#B4CCC3" points="113.657 190.644 112.444 193.522 257.205 193.522 255.753 190.288 113.657 190.644"></polyline>
            <path d="M184.325,332.772 C189.732,334.03 195.489,334.504 200.542,335.39 C202.819,335.789 205.099,336.188 207.397,336.435 C211.05,336.828 214.73,336.833 218.403,336.839 C221.072,336.843 223.74,336.846 226.409,336.849132 C227.863,336.851 229.382,336.839 230.671,336.166 C232.21,335.362 233.144,333.768 233.996,332.256 C235.688,329.253 237.731,326.403 239.109,323.232 C239.938,321.324 240.305,319.798 241.528,318.125 C242.708,316.514 243.848,314.412 243.006,312.392 C242.012,310.011 238.943,309.417 236.363,309.374 C234.186,309.337 232.007,309.452 229.846,309.716 C221.287,310.763 213.136,314.139 204.565,315.091 C199.081,315.699 193.561,315.298 188.069,315.012 C183.686,314.783 176.96,313.654 173.044,316.174 C171.443,317.204 168.962,319.692 168.767,321.657 C168.52,324.134 171.289,326.718 173.049,328.013 C176.297,330.404 180.21,331.815 184.325,332.772" id="Fill-23" fill="#ED9B76"></path>
            <path d="M238.948,323.58 C239,323.464 239.059,323.349 239.109,323.232 C239.938,321.324 240.305,319.798 241.528,318.125 C242.708,316.514 243.848,314.412 243.006,312.392 C242.013,310.011 238.943,309.417 236.363,309.374 C234.186,309.337 232.007,309.452 229.847,309.716 C221.287,310.763 213.136,314.139 204.565,315.091 C200.063,315.591 195.537,315.408 191.022,315.169 C187.752,316.633 175.963,320.475 170.38,325.549 C171.224,326.551 172.241,327.419 173.049,328.013 C176.297,330.404 180.21,331.815 184.325,332.772 C187.74,333.566 191.293,334.048 194.722,334.518 C206.164,332.502 217.442,328.976 228.604,326.198 C232.038,325.344 235.489,324.474 238.948,323.58" id="Fill-24" fill="#D77158"></path>
            <path d="M247.218,284.999 L122.379,284.999 L113.435,192.058 C113.274,190.392 114.563,188.948 116.212,188.948 L253.384,188.948 C255.032,188.948 256.322,190.392 256.162,192.058 L247.218,284.999" id="Fill-25" fill="#B4CCC3"></path>
            <path d="M203.025,335.887 C207.785,335.426 213.815,334.437 217.069,330.933 C219.561,328.25 220.507,324.679 220.486,321.016 C220.466,317.44 217.676,314.614 214.482,313.005 C222.819,308.683 230.622,308.632 238.177,311.525 C239.008,311.844 239.816,312.255 240.58,312.743 C250.731,319.241 244.026,331.93 235.673,336.406 C231.873,338.443 227.54,339.421 223.227,339.274 C219.751,339.155 217.434,338.764 213.986,338.349 C209.819,337.849 207.736,336.849 203.025,335.887" id="Fill-26" fill="#112B2C"></path>
            <path d="M248.197,287.627 L121.398,287.627 L112.314,194.686 C112.151,193.02 113.461,191.576 115.136,191.576 L254.46,191.576 C256.135,191.576 257.444,193.02 257.281,194.686 L248.197,287.627" id="Fill-27" fill="#FFFFFE"></path>
            <polygon id="Fill-28" fill="#B4CCC3" points="121.398 293.266 248.121 293.266 248.121 287.627 121.398 287.627"></polygon>
            <path d="M193.59,239.601 C193.59,244.457 189.653,248.393 184.798,248.393 C179.942,248.393 176.006,244.457 176.006,239.601 C176.006,234.746 179.942,230.809 184.798,230.809 C189.653,230.809 193.59,234.746 193.59,239.601" id="Fill-29" fill="#B4CCC3"></path>
            <path d="M155.255,298.807 C162.76,303.179 170.339,307.592 178.005,311.599 C178.157,311.679 178.311,311.754 178.467,311.828 C181.74,313.391 185.131,314.693 188.386,316.303 C190.456,317.326 192.496,318.425 194.436,319.682 C195.347,320.272 196.237,320.899 197.083,321.582 C197.425,321.858 198.004,322.204 198.223,322.591 C198.502,323.084 198.373,323.878 198.18,324.374 C197.975,324.901 197.63,325.363 197.252,325.785 C195.747,327.468 193.717,328.581 191.679,329.556 C190.42,330.157 189.142,330.718 187.844,331.229 C186.647,331.7 185.327,332.325 184.064,332.569 C183.467,332.684 182.739,332.482 182.132,332.399 C181.457,332.307 180.784,332.207 180.112,332.1 C178.767,331.889 177.425,331.649 176.088,331.389 C169.979,330.194 163.974,328.535 158.015,326.751 C152.103,324.981 146.23,323.083 140.301,321.374 C112.3,313.307 83.173,304.268 58.79,287.882 C53.173,284.094 47.518,278.504 45.122,272.067 C38.838,255.141 56.822,242.032 72.168,248.408 C97.799,259.057 118.919,278.149 143.089,291.793 C147.123,294.07 151.178,296.432 155.255,298.807" id="Fill-30" fill="#D77158"></path>
            <path d="M212.531,326.483 C218.173,324.782 223.775,322.982 229.356,321.374 C257.357,313.307 286.484,304.268 310.867,287.882 C316.484,284.094 322.139,278.504 324.535,272.067 C330.819,255.141 312.835,242.032 297.488,248.408 C271.858,259.057 250.738,278.149 226.568,291.793 C222.534,294.07 218.479,296.432 214.402,298.807 C210.901,300.847 207.384,302.894 203.849,304.907" id="Fill-31" fill="#5DA1B2"></path>
            <path d="M203.849,304.907 C199.807,307.208 195.742,309.462 191.652,311.599 C187.471,313.785 162.777,322.315 169.529,331.223 C170.855,332.972 173.363,333.18 175.559,333.201 C188.176,333.322 200.443,330.129 212.531,326.483" id="Fill-32" fill="#ED9B76"></path>
            <path d="M157.14,326.483 C151.498,324.782 145.894,322.982 140.314,321.374 C112.313,313.307 83.186,304.268 58.804,287.882 C53.186,284.094 47.532,278.504 45.136,272.067 C38.85,255.141 56.836,242.032 72.182,248.408 C97.812,259.057 118.933,278.149 143.102,291.793 C147.137,294.07 151.191,296.432 155.269,298.807 C158.769,300.847 162.287,302.894 165.821,304.907" id="Fill-33" fill="#5DA1B2"></path>
            <path d="M184.8,332.772 C179.392,334.03 173.636,334.504 168.583,335.39 C166.306,335.789 164.026,336.188 161.727,336.435 C158.075,336.828 154.394,336.833 150.722,336.839 C148.053,336.843 145.384,336.846 142.716,336.849132 C141.262,336.851 139.743,336.839 138.454,336.166 C136.915,335.362 135.98,333.768 135.128,332.256 C133.436,329.253 131.393,326.403 130.016,323.232 C129.114,321.157 128.167,319.123 129.386,316.958 C129.983,315.896 130.888,315.044 131.811,314.251 C132.997,313.234 134.249,312.279 135.643,311.576 C140.228,309.265 144.896,310.625 149.574,311.829 C154.524,313.102 159.465,314.524 164.56,315.091 C170.044,315.699 175.564,315.298 181.056,315.012 C185.439,314.783 192.165,313.654 196.08,316.174 C197.681,317.204 200.163,319.692 200.358,321.657 C200.604,324.134 197.835,326.718 196.076,328.013 C192.828,330.404 188.914,331.815 184.8,332.772" id="Fill-34" fill="#ED9B76"></path>
            <path d="M165.55,335.887 C160.791,335.426 154.76,334.437 151.507,330.933 C149.015,328.25 148.069,324.679 148.09,321.016 C148.11,317.44 150.899,314.614 154.093,313.005 C145.757,308.683 137.954,308.632 130.398,311.525 C129.567,311.844 128.759,312.255 127.996,312.743 C117.845,319.241 124.55,331.93 132.902,336.406 C136.703,338.443 141.036,339.421 145.348,339.274 C148.825,339.155 151.143,338.764 154.59,338.349 C158.757,337.849 160.84,336.849 165.55,335.887" id="Fill-35" fill="#112B2C"></path>
        </g>
    </g>
</svg>